<?xml version="1.0" encoding="UTF-8" standalone="no"?>
<svg
   xmlns:dc="http://purl.org/dc/elements/1.1/"
   xmlns:cc="http://creativecommons.org/ns#"
   xmlns:rdf="http://www.w3.org/1999/02/22-rdf-syntax-ns#"
   xmlns:svg="http://www.w3.org/2000/svg"
   xmlns="http://www.w3.org/2000/svg"
   xmlns:sodipodi="http://sodipodi.sourceforge.net/DTD/sodipodi-0.dtd"
   xmlns:inkscape="http://www.inkscape.org/namespaces/inkscape"
   width="1920"
   height="1080"
   viewBox="0 0 508 285.75"
   version="1.1"
   id="svg8"
   inkscape:version="1.0 (4035a4fb49, 2020-05-01)"
   sodipodi:docname="certificadoAssunta_Vector.svg"
   inkscape:export-filename="C:\Users\arauj\Downloads\bitmap.png"
   inkscape:export-xdpi="1000"
   inkscape:export-ydpi="1000">
  <defs
     id="defs2">
    <rect
       x="313.79583"
       y="90.4875"
       width="6.8791666"
       height="31.75"
       id="rect1597" />
  </defs>
  <sodipodi:namedview
     id="base"
     pagecolor="#ffffff"
     bordercolor="#666666"
     borderopacity="1.0"
     inkscape:pageopacity="0.0"
     inkscape:pageshadow="2"
     inkscape:zoom="0.5"
     inkscape:cx="803.57813"
     inkscape:cy="713.92223"
     inkscape:document-units="px"
     inkscape:current-layer="layer1"
     inkscape:document-rotation="0"
     showgrid="false"
     units="px"
     inkscape:window-width="2160"
     inkscape:window-height="1346"
     inkscape:window-x="-11"
     inkscape:window-y="-11"
     inkscape:window-maximized="1" />
  <metadata
     id="metadata5">
    <rdf:RDF>
      <cc:Work
         rdf:about="">
        <dc:format>image/svg+xml</dc:format>
        <dc:type
           rdf:resource="http://purl.org/dc/dcmitype/StillImage" />
        <dc:title></dc:title>
      </cc:Work>
    </rdf:RDF>
  </metadata>
  <g
     inkscape:label="Layer 1"
     inkscape:groupmode="layer"
     id="layer1">
    <path
       d="M 222.47136,0.22135849 H 507.77864 V 285.52864 H 222.47136 Z"
       style="fill:#0000ff;fill-rule:evenodd;stroke:#0000ff;stroke-width:0.442717;stroke-opacity:1;paint-order:markers fill stroke"
       id="rect833" />
    <g
       id="g1563"
       transform="translate(108.66315,-67.825852)">
      <g
         transform="matrix(0.12710241,0,0,0.1310149,-61.327817,144.95249)"
         style="fill:#0000ff"
         id="g12">
        <path
           style="fill:#0000ff"
           id="path4"
           d="m 827.7,555.1 c 0,50.8 -39.1,92.3 -86.8,92.3 h -644 c -47.7,0 -86.8,-41.5 -86.8,-92.3 V 102.3 C 10,51.5 49.1,10 96.8,10 h 644 c 47.8,0 86.8,41.5 86.8,92.3 z" />
        <path
           style="fill:#0000ff"
           id="path6"
           d="m 191.8,826.2 c -33,33.8 -38.3,5.3 -38.3,-27.3 V 610.8 C 165.7,562 258.2,533.6 300.7,547.7 l 45.9,15.2 c 42.5,14.1 50.3,53.2 17.3,87 z" />
        <path
           style="fill:#800080"
           id="path8"
           d="m 877.8,142.5 c -17.4,-18.5 -18.1,15.7 -18.1,15.7 v 422.3 c 0,53.9 -41.5,98 -92.1,98 H 417.9 c 0,0 -17.1,-0.6 -27.8,10.7 -11.6,14.7 -63.9,70.8 -77.3,89.5 -13.4,18.7 12,16.9 12,16.9 h 578.3 c 47.8,0 86.8,-41.5 86.8,-92.3 0,0 0,-406.7 0,-415.3 0,-8.6 -1.6,-26.8 -11.2,-37.1 -9.6,-10.3 -81,-87.2 -100.9,-108.4 z" />
        <path
           style="fill:#800080"
           id="path10"
           d="m 789.4,974.8 c 33,33.8 38.3,5.3 38.3,-27.2 V 759.5 C 815.5,710.7 722.9,682.3 680.5,696.3 l -45.9,15.1 c -42.5,14.1 -50.3,53.2 -17.3,87 z" />
      </g>
      <g
         transform="matrix(0.12710241,0,0,0.1310149,-61.327817,144.95249)"
         style="font-style:normal;font-weight:normal;font-size:139.356px;line-height:1.25;font-family:sans-serif;letter-spacing:10px;fill:#ffffff;fill-opacity:1;stroke:none;stroke-width:3.4839"
         id="text22"
         aria-label="projeto ASSUNTA! ">
        <path
           id="path841"
           style="font-style:normal;font-variant:normal;font-weight:bold;font-stretch:normal;font-family:'Comic Sans MS';-inkscape-font-specification:'Comic Sans MS Bold';text-align:center;word-spacing:0.24px;text-anchor:middle;fill:#ffffff;stroke-width:3.4839"
           d="m 178.77664,303.69608 q -5.85186,0 -12.31613,-1.3609 l -0.068,27.76233 q 0,3.9466 -2.65375,6.53231 -2.65375,2.58571 -6.73645,2.58571 -4.08269,0 -6.73644,-2.58571 -2.65375,-2.58571 -2.65375,-6.53231 0,-3.19811 0.13609,-25.38076 0.13608,-16.46687 0,-26.87774 -0.20414,-14.69771 -0.95263,-25.31271 -1.02068,-14.62966 -1.02068,-13.40485 0,-5.64773 2.51766,-9.66238 2.92594,-4.55901 7.89322,-4.55901 3.81051,0 6.39622,2.5857 2.58571,2.58571 2.58571,6.19209 l -0.068,0.68045 q 4.55901,-2.58571 9.11802,-3.81052 4.62706,-1.29285 9.25411,-1.29285 15.65033,0 22.86309,13.26876 5.37555,10.00261 5.37555,25.92512 0,14.90184 -8.50561,24.7003 -9.11802,10.54697 -24.42813,10.54697 z m 4.6951,-56.27315 q -4.28683,0 -8.70975,2.04134 -4.42292,1.97331 -8.91389,5.98796 0.81654,14.01725 0.81654,28.10255 6.056,1.9733 12.112,1.9733 7.00863,0 10.7511,-4.96728 3.40224,-4.49096 3.40224,-12.11199 0,-9.18607 -0.81653,-12.7244 -1.97331,-8.30148 -8.64171,-8.30148 z" />
        <path
           id="path843"
           style="font-style:normal;font-variant:normal;font-weight:bold;font-stretch:normal;font-family:'Comic Sans MS';-inkscape-font-specification:'Comic Sans MS Bold';text-align:center;word-spacing:0.24px;text-anchor:middle;fill:#ffffff;stroke-width:3.4839"
           d="m 288.93876,250.62104 q -0.6124,10.41087 -9.45824,10.41087 -8.57366,0 -8.57366,-8.84584 l -0.34023,-6.87254 q -15.3101,2.44962 -21.91046,15.71838 l 0.068,34.2266 q 0,3.87856 -2.65375,6.39622 -2.65375,2.58571 -6.73645,2.58571 -4.21878,0 -6.53231,-2.7218 -2.17744,-2.44962 -2.17744,-6.26013 v -44.56943 q 0,-2.10939 0.13609,-6.26013 0.13609,-4.21879 0.13609,-6.32818 0,-3.81051 2.24549,-6.32818 2.31352,-2.5857 6.53231,-2.5857 7.55299,0 8.98193,7.75712 12.04395,-8.98193 26.74165,-8.98193 13.60899,0 13.60899,18.09995 0,3.47029 -0.068,4.55901 z" />
        <path
           id="path845"
           style="font-style:normal;font-variant:normal;font-weight:bold;font-stretch:normal;font-family:'Comic Sans MS';-inkscape-font-specification:'Comic Sans MS Bold';text-align:center;word-spacing:0.24px;text-anchor:middle;fill:#ffffff;stroke-width:3.4839"
           d="m 336.90784,303.69608 q -12.58831,0 -21.63828,-8.64171 -9.93456,-9.45824 -10.41088,-25.24466 -0.47631,-15.03793 8.23344,-26.8097 10.34283,-13.88117 28.783,-13.88117 13.60899,0 21.63829,10.88719 7.21276,9.79847 7.21276,24.29204 0,15.78642 -8.43757,26.94579 -9.45825,12.45222 -25.38076,12.45222 z m 4.0827,-56.61338 q -8.36953,-0.068 -13.20072,7.62103 -4.08269,6.46427 -4.08269,15.10598 0,8.16539 4.62705,12.52026 3.67443,3.47029 8.57366,3.47029 5.91991,0 10.27478,-4.01465 4.96728,-4.6951 5.30751,-12.7244 0.88458,-21.91046 -11.49959,-21.97851 z" />
        <path
           id="path847"
           style="font-style:normal;font-variant:normal;font-weight:bold;font-stretch:normal;font-family:'Comic Sans MS';-inkscape-font-specification:'Comic Sans MS Bold';text-align:center;word-spacing:0.24px;text-anchor:middle;fill:#ffffff;stroke-width:3.4839"
           d="m 416.92607,218.23165 q -4.35488,0 -7.55299,-2.92593 -3.13006,-2.92593 -3.13006,-7.21276 0,-4.28683 3.13006,-7.21276 3.19811,-2.99398 7.55299,-2.99398 4.35487,0 7.55299,2.99398 3.19811,2.92593 3.19811,7.21276 0,4.28683 -3.19811,7.21276 -3.19812,2.92593 -7.55299,2.92593 z m -3.26616,94.17418 q 0,-7.14472 -2.31352,-37.69689 -2.31353,-30.55217 -2.31353,-36.26794 0,-4.0827 2.38157,-7.34886 2.78984,-3.67442 7.21276,-3.67442 3.13007,0 6.26013,2.10939 3.40225,2.31353 3.53834,5.30751 0.81654,12.99658 2.24548,37.76493 1.83722,33.00179 1.83722,40.48673 0,9.86651 -6.19209,18.09995 -6.87254,9.11802 -17.07928,9.11802 -16.46687,0 -27.01383,-23.27137 -1.02068,-2.24548 -1.02068,-4.21878 0,-3.74247 2.99398,-6.46427 2.92593,-2.51766 6.73645,-2.51766 4.35487,0 7.68907,4.6951 2.44962,4.35487 4.96728,8.77779 2.7218,4.6951 5.64773,4.6951 3.53834,0 4.42292,-9.59433 z" />
        <path
           id="path849"
           style="font-style:normal;font-variant:normal;font-weight:bold;font-stretch:normal;font-family:'Comic Sans MS';-inkscape-font-specification:'Comic Sans MS Bold';text-align:center;word-spacing:0.24px;text-anchor:middle;fill:#ffffff;stroke-width:3.4839"
           d="m 492.7255,302.81149 q -16.26274,0 -26.60557,-7.75712 -11.43154,-8.57366 -11.43154,-24.15595 0,-17.21536 9.04997,-29.12322 10.07065,-13.20072 27.14993,-13.20072 11.83981,0 19.66498,3.81052 10.27478,5.03532 10.27478,15.65033 0,7.48494 -8.36952,13.26876 -3.81052,2.65375 -15.31011,7.75712 l -22.93114,10.1387 q 3.26616,3.53833 7.89321,5.3075 4.62706,1.76917 10.61501,1.76917 9.11802,0 15.4462,-3.74247 5.64773,-3.3342 9.04997,-3.3342 7.07667,0 7.07667,6.87253 0,7.75712 -11.3635,12.65636 -9.52629,4.08269 -20.20934,4.08269 z m -1.83721,-57.77014 q -6.32818,0 -10.81915,4.21879 -4.49096,4.21878 -7.21276,12.65635 7.68908,-3.3342 15.31011,-6.60035 9.18606,-4.15074 14.62966,-7.68908 -4.55901,-2.58571 -11.90786,-2.58571 z" />
        <path
           id="path851"
           style="font-style:normal;font-variant:normal;font-weight:bold;font-stretch:normal;font-family:'Comic Sans MS';-inkscape-font-specification:'Comic Sans MS Bold';text-align:center;word-spacing:0.24px;text-anchor:middle;fill:#ffffff;stroke-width:3.4839"
           d="m 594.31396,244.90526 q -1.42895,0 -3.40225,-0.068 -1.90526,-0.13609 -3.3342,-0.13609 -2.78984,0 -6.46427,0.54436 1.22481,27.49015 1.22481,35.92772 0,0.88458 0.0681,3.3342 0.068,2.38157 0.068,3.87856 0,15.65033 -9.86651,15.65033 -3.74247,0 -6.46427,-2.31353 -2.99398,-2.44961 -2.99398,-6.12404 0,-2.44962 0.20414,-7.34885 0.20413,-4.89923 0.20413,-7.34885 0,-8.23344 -1.22481,-35.24727 -4.21878,-0.20414 -12.79244,-1.08872 -8.50562,-0.95263 -8.50562,-8.84584 0,-3.81052 2.58571,-6.46427 2.58571,-2.65375 6.6684,-2.65375 2.51766,0 11.56764,0.81654 -0.068,-2.17744 -0.34022,-7.21276 -0.27218,-4.35488 -0.27218,-6.73645 0,-3.81052 2.78984,-6.32818 2.78984,-2.51766 6.73644,-2.51766 10.07065,0 10.07065,16.94319 l -0.13609,5.57968 q 4.21879,-0.61241 6.87254,-0.61241 7.82517,0 10.68305,1.02068 5.4436,1.90526 5.4436,8.30148 0,3.87856 -2.65375,6.46427 -2.65376,2.5857 -6.73645,2.5857 z" />
        <path
           id="path853"
           style="font-style:normal;font-variant:normal;font-weight:bold;font-stretch:normal;font-family:'Comic Sans MS';-inkscape-font-specification:'Comic Sans MS Bold';text-align:center;word-spacing:0.24px;text-anchor:middle;fill:#ffffff;stroke-width:3.4839"
           d="m 649.90406,303.69608 q -12.58831,0 -21.63829,-8.64171 -9.93456,-9.45824 -10.41087,-25.24466 -0.47632,-15.03793 8.23343,-26.8097 10.34283,-13.88117 28.78301,-13.88117 13.60898,0 21.63828,10.88719 7.21276,9.79847 7.21276,24.29204 0,15.78642 -8.43757,26.94579 -9.45824,12.45222 -25.38075,12.45222 z m 4.08269,-56.61338 q -8.36952,-0.068 -13.20071,7.62103 -4.0827,6.46427 -4.0827,15.10598 0,8.16539 4.62706,12.52026 3.67442,3.47029 8.57366,3.47029 5.91991,0 10.27478,-4.01465 4.96728,-4.6951 5.3075,-12.7244 0.88459,-21.91046 -11.49959,-21.97851 z" />
        <path
           id="path855"
           style="font-style:normal;font-variant:normal;font-weight:normal;font-stretch:normal;font-family:'Comic Sans MS';-inkscape-font-specification:'Comic Sans MS';text-align:center;word-spacing:0.24px;text-anchor:middle;fill:#ffffff;stroke-width:3.4839"
           d="m 94.844529,478.13304 q -6.260133,0 -10.887188,-16.0586 -1.769168,-6.12405 -4.42292,-21.43415 -6.940582,0.95263 -18.167994,3.40224 l -18.09995,3.74247 q -3.402246,8.91389 -11.635682,26.06121 -2.177437,3.81051 -5.919908,3.81051 -2.721797,0 -4.899234,-1.9733 -2.109393,-1.9733 -2.109393,-4.89923 0,-3.26616 10.274783,-24.8364 -1.156763,-1.76917 -1.156763,-4.0827 0,-5.51163 6.668402,-7.07667 7.757122,-14.56161 19.596938,-33.4781 16.126647,-25.78903 20.073253,-25.78903 5.375548,0 7.348851,7.48495 l 4.28683,22.86309 10.138694,47.29122 3.878561,10.7511 q 1.973301,5.51164 1.973301,7.34885 0,2.92593 -2.109391,4.89924 -2.109393,1.9733 -4.83119,1.9733 z M 70.824671,400.35769 51.363823,431.7264 q 8.233436,-2.10939 24.972487,-5.10337 z" />
        <path
           id="path857"
           style="font-style:normal;font-variant:normal;font-weight:normal;font-stretch:normal;font-family:'Comic Sans MS';-inkscape-font-specification:'Comic Sans MS';text-align:center;word-spacing:0.24px;text-anchor:middle;fill:#ffffff;stroke-width:3.4839"
           d="m 130.97378,459.14851 q -0.068,-2.85789 1.90526,-4.62706 2.04134,-1.83721 4.96727,-1.83721 3.33421,0 5.85187,3.81051 3.47029,5.17142 6.19209,7.00863 5.78381,3.81052 16.80709,3.81052 10.54697,0 19.59694,-4.55901 11.56764,-5.85187 11.56764,-16.26274 0,-8.57366 -9.73043,-13.54094 -8.23343,-4.28683 -20.34543,-4.62705 -10.7511,-0.40827 -18.30408,-4.6951 -9.66238,-5.51164 -9.66238,-15.78643 0,-12.11199 13.74507,-22.1146 13.13267,-9.45824 27.14993,-9.45824 6.60035,0 14.90183,2.24548 11.02328,2.92593 11.02328,7.48494 0,5.98796 -6.12404,5.98796 -2.7218,0 -9.52629,-1.42895 -6.80449,-1.49699 -10.54696,-1.42894 -10.61501,0.13609 -18.03191,5.23946 -7.62103,5.23946 -7.62103,12.7244 0,5.64773 10.07065,7.96126 3.74247,0.88458 14.49357,1.63307 15.58229,1.15677 24.36008,9.79847 8.0293,7.89321 8.0293,19.25672 0,16.19469 -14.96988,25.85707 -12.99658,8.36952 -30.1439,8.36952 -12.45222,0 -22.79505,-4.76314 -12.65636,-5.85187 -12.86049,-16.0586 z" />
        <path
           id="path859"
           style="font-style:normal;font-variant:normal;font-weight:normal;font-stretch:normal;font-family:'Comic Sans MS';-inkscape-font-specification:'Comic Sans MS';text-align:center;word-spacing:0.24px;text-anchor:middle;fill:#ffffff;stroke-width:3.4839"
           d="m 237.59757,459.14851 q -0.068,-2.85789 1.90526,-4.62706 2.04135,-1.83721 4.96728,-1.83721 3.3342,0 5.85186,3.81051 3.47029,5.17142 6.19209,7.00863 5.78382,3.81052 16.8071,3.81052 10.54696,0 19.59693,-4.55901 11.56764,-5.85187 11.56764,-16.26274 0,-8.57366 -9.73042,-13.54094 -8.23344,-4.28683 -20.34543,-4.62705 -10.7511,-0.40827 -18.30409,-4.6951 -9.66238,-5.51164 -9.66238,-15.78643 0,-12.11199 13.74508,-22.1146 13.13267,-9.45824 27.14992,-9.45824 6.60036,0 14.90184,2.24548 11.02328,2.92593 11.02328,7.48494 0,5.98796 -6.12405,5.98796 -2.72179,0 -9.52629,-1.42895 -6.80449,-1.49699 -10.54696,-1.42894 -10.61501,0.13609 -18.0319,5.23946 -7.62103,5.23946 -7.62103,12.7244 0,5.64773 10.07064,7.96126 3.74247,0.88458 14.49357,1.63307 15.58229,1.15677 24.36009,9.79847 8.0293,7.89321 8.0293,19.25672 0,16.19469 -14.96989,25.85707 -12.99658,8.36952 -30.1439,8.36952 -12.45222,0 -22.79505,-4.76314 -12.65635,-5.85187 -12.86049,-16.0586 z" />
        <path
           id="path861"
           style="font-style:normal;font-variant:normal;font-weight:normal;font-stretch:normal;font-family:'Comic Sans MS';-inkscape-font-specification:'Comic Sans MS';text-align:center;word-spacing:0.24px;text-anchor:middle;fill:#ffffff;stroke-width:3.4839"
           d="m 388.85884,478.81349 q -21.16197,0 -31.57285,-12.18004 -8.43757,-9.79847 -10.61501,-28.98714 -1.02067,-8.64171 -1.02067,-34.49878 0,-9.52629 0.40827,-15.37815 0.40827,-6.19209 1.22481,-8.6417 1.70112,-4.96728 6.12404,-4.96728 6.26013,0 6.26013,11.49959 v 39.94237 q 0,41.23522 28.85105,41.23522 27.14993,0 27.14993,-69.40582 0,-2.58571 0,-6.6684 -0.0681,-4.0827 -0.0681,-5.4436 0,-4.21878 1.49699,-7.41689 1.90526,-4.0827 5.64773,-4.0827 6.80449,0 6.80449,9.32216 0,2.78984 0.0681,8.43757 0,5.64773 0,8.43757 0,78.79602 -40.75891,78.79602 z" />
        <path
           id="path863"
           style="font-style:normal;font-variant:normal;font-weight:normal;font-stretch:normal;font-family:'Comic Sans MS';-inkscape-font-specification:'Comic Sans MS';text-align:center;word-spacing:0.24px;text-anchor:middle;fill:#ffffff;stroke-width:3.4839"
           d="m 552.57233,460.98572 q 0,3.26615 -1.08872,10.88719 -1.08872,6.87253 -7.28081,6.87253 -3.74247,0 -8.91388,-4.89923 -27.69429,-26.1973 -63.55396,-75.59791 l -0.34022,15.4462 -0.20414,15.51424 q 0,5.64773 0.20414,16.94319 0.27218,11.29545 0.27218,17.01123 0,18.30408 -7.07668,18.30408 -3.74247,0 -5.9199,-2.38157 -1.97331,-2.10939 -1.97331,-5.03533 0,-2.85788 0.40827,-8.6417 0.47632,-5.78382 0.47632,-8.64171 0,-4.21878 0.27218,-12.58831 0.27218,-8.43757 0.27218,-12.65635 0,-4.49097 -0.20414,-13.54094 -0.20413,-9.11802 -0.20413,-13.60899 0,-4.28683 -0.81654,-12.7244 -0.81654,-8.50561 -0.81654,-12.79244 0,-3.13007 2.65375,-5.71578 2.7218,-2.5857 6.12404,-2.5857 3.60638,0 8.91389,7.89321 16.94318,25.38075 30.48412,42.18785 16.12665,19.93716 35.38336,38.10516 0.20414,-2.92594 0,-8.64171 l -0.20413,-8.57366 q 0,-29.87172 -2.31353,-47.5634 -0.27218,-1.76917 -1.83721,-7.14472 -1.3609,-4.62705 -1.3609,-7.21276 0,-7.89321 7.21276,-7.89321 11.83982,0 11.83982,44.16115 0,7.55299 -0.20414,22.59092 -0.20413,14.96988 -0.20413,22.52287 z" />
        <path
           id="path865"
           style="font-style:normal;font-variant:normal;font-weight:normal;font-stretch:normal;font-family:'Comic Sans MS';-inkscape-font-specification:'Comic Sans MS';text-align:center;word-spacing:0.24px;text-anchor:middle;fill:#ffffff;stroke-width:3.4839"
           d="m 661.44157,390.15095 q -5.03532,0 -15.51424,-0.81654 -10.20674,-0.74849 -15.51424,-0.68044 h -4.83119 q 0.20413,9.39019 1.83721,30.48412 1.49699,19.66498 1.49699,30.55217 0,2.38157 0.47631,7.21276 0.47632,4.83119 0.47632,7.28081 0,4.62705 -1.49699,7.96126 -1.90526,4.49096 -5.91991,4.49096 -2.72179,0 -4.89923,-1.90526 -2.17744,-1.90525 -2.17744,-4.89923 0,-1.02068 0.34023,-3.06202 0.34022,-2.04135 0.34022,-3.06202 0,-3.33421 -0.47631,-10.00261 -0.40827,-6.6684 -0.40827,-10.07065 0,-9.73042 -1.56504,-27.35406 -1.63308,-19.05257 -1.83721,-27.35406 l -6.19209,0.0681 q -14.90184,0 -23.40745,-2.17744 -5.51164,-1.42894 -5.51164,-6.73645 0,-2.78984 1.76917,-4.89923 2.04135,-2.38157 5.23946,-2.17744 2.38157,0.13609 10.88718,1.22481 6.8045,0.81654 11.02328,0.81654 4.0827,0 12.38418,-0.13609 8.30148,-0.20413 12.38417,-0.20413 5.23946,0 15.51425,0.74849 10.34282,0.74849 15.58228,0.74849 2.92594,0 4.89924,2.04135 1.9733,1.9733 1.9733,4.96728 0,2.92593 -1.9733,4.96728 -1.9733,1.9733 -4.89924,1.9733 z" />
        <path
           id="path867"
           style="font-style:normal;font-variant:normal;font-weight:normal;font-stretch:normal;font-family:'Comic Sans MS';-inkscape-font-specification:'Comic Sans MS';text-align:center;word-spacing:0.24px;text-anchor:middle;fill:#ffffff;stroke-width:3.4839"
           d="m 758.53911,478.13304 q -6.26013,0 -10.88719,-16.0586 -1.76917,-6.12405 -4.42292,-21.43415 -6.94058,0.95263 -18.16799,3.40224 l -18.09995,3.74247 q -3.40225,8.91389 -11.63568,26.06121 -2.17744,3.81051 -5.91991,3.81051 -2.7218,0 -4.89924,-1.9733 -2.10939,-1.9733 -2.10939,-4.89923 0,-3.26616 10.27478,-24.8364 -1.15676,-1.76917 -1.15676,-4.0827 0,-5.51163 6.6684,-7.07667 7.75712,-14.56161 19.59694,-33.4781 16.12665,-25.78903 20.07325,-25.78903 5.37555,0 7.34885,7.48495 l 4.28683,22.86309 10.1387,47.29122 3.87856,10.7511 q 1.9733,5.51164 1.9733,7.34885 0,2.92593 -2.10939,4.89924 -2.10939,1.9733 -4.83119,1.9733 z M 734.51925,400.35769 715.0584,431.7264 q 8.23344,-2.10939 24.97249,-5.10337 z" />
        <path
           id="path869"
           style="font-style:normal;font-variant:normal;font-weight:bold;font-stretch:normal;font-family:'Comic Sans MS';-inkscape-font-specification:'Comic Sans MS Bold'"
           d="m 802.01721,455.88235 q -3.81052,0 -6.32818,-2.38157 -2.44962,-2.38158 -2.44962,-5.98796 0,-2.65375 -0.20413,-7.89321 -0.13609,-5.3075 -0.13609,-7.96125 0,-9.3902 0.13609,-28.1706 0.20413,-18.7804 0.20413,-28.1706 0,-3.60638 2.51767,-5.98795 2.51766,-2.44962 6.26013,-2.44962 3.74247,0 6.26013,2.44962 2.51766,2.38157 2.51766,5.98795 v 72.19566 q 0,3.60638 -2.51766,5.98796 -2.44961,2.38157 -6.26013,2.38157 z m -0.20414,24.70031 q -4.08269,0 -7.62103,-4.35488 -3.19811,-4.01465 -3.19811,-7.48494 0,-3.53834 2.78984,-5.91991 2.78985,-2.38157 6.32818,-2.38157 4.0827,0 7.55299,4.35487 3.19811,4.01465 3.19811,7.4169 0,3.47029 -2.78984,5.91991 -2.7218,2.44962 -6.26014,2.44962 z" />
      </g>
    </g>
    <path
       d="m 504.18453,285.09183 -140.644,0 -140.644,0 70.322,-121.80128 70.322,-121.801277 70.322,121.801277 z"
       transform="matrix(1.0051786,0,0,1.1606803,-0.29816136,-46.152239)"
       inkscape:transform-center-y="-47.124146"
       inkscape:transform-center-x="-5.7234176e-05"
       style="fill:#800080;fill-opacity:1;fill-rule:evenodd;stroke:#800080;stroke-width:1.72618;stroke-opacity:1;paint-order:markers fill stroke"
       id="path1569" />
    <path
       d="m 504.18453,285.09183 -140.644,0 -140.644,0 70.322,-121.80128 70.322,-121.801277 70.322,121.801277 z"
       transform="matrix(-1.0051786,0,0,-1.1606803,730.54815,331.90224)"
       inkscape:transform-center-y="47.124158"
       inkscape:transform-center-x="6.4079622e-05"
       style="fill:#800080;fill-opacity:1;fill-rule:evenodd;stroke:#800080;stroke-width:1.72618;stroke-opacity:1;paint-order:markers fill stroke"
       id="path1569-2" />
    <text
       xml:space="preserve"
       id="text1595"
       style="fill:black;fill-opacity:1;line-height:1.25;stroke:none;font-family:sans-serif;font-style:normal;font-weight:normal;font-size:10.58333333px;white-space:pre;shape-inside:url(#rect1597);" />
    <g
       style="font-style:normal;font-weight:normal;font-size:54.3507px;line-height:1.25;font-family:sans-serif;fill:#000000;fill-opacity:1;stroke:none;stroke-width:1.35877"
       id="text1603"
       aria-label="Certificado">
      <path
         id="path899"
         style="font-style:normal;font-variant:normal;font-weight:normal;font-stretch:normal;font-family:'Adobe Naskh';-inkscape-font-specification:'Adobe Naskh';fill:#f9f9f9;stroke-width:1.35877"
         d="m 298.08894,35.640628 c 0.0265,0.185769 1.22077,0.106153 1.38,-0.106154 0,-1.990382 0.39807,-5.174993 0.66346,-6.501915 -1.88423,-0.132692 -4.83,-0.743076 -8.17384,-0.743076 -3.42345,0 -6.05076,0.663461 -8.27999,1.804613 -4.45845,2.282305 -6.60807,6.634607 -6.60807,11.119602 0,8.624989 5.28115,13.375367 14.35729,13.375367 2.76,0 4.93615,-0.583845 6.21,-0.981922 1.00846,-0.689999 2.73345,-3.927687 3.15807,-5.626146 -0.10615,-0.318461 -0.79615,-0.689999 -1.08808,-0.743076 -0.98192,1.671921 -2.01692,3.184611 -3.05192,4.033841 -1.11461,0.981922 -2.73345,1.326921 -4.21961,1.326921 -6.95306,0 -10.03152,-5.705762 -10.03152,-11.756523 0,-7.138838 3.15807,-11.039986 8.38614,-11.039986 1.80461,0 3.50307,0.238845 4.88307,0.981921 1.59231,0.84923 2.01692,2.016921 2.415,4.856533 z" />
      <path
         id="path901"
         style="font-style:normal;font-variant:normal;font-weight:normal;font-stretch:normal;font-family:'Adobe Naskh';-inkscape-font-specification:'Adobe Naskh';fill:#f9f9f9;stroke-width:1.35877"
         d="m 317.86007,49.493687 c -1.53923,1.220768 -2.97231,1.671921 -4.64423,1.671921 -1.75153,0 -3.05192,-0.50423 -4.13999,-1.592306 -1.035,-1.00846 -1.59231,-2.574227 -1.64538,-3.794995 0,-0.15923 0.0796,-0.398076 0.2123,-0.451153 3.18462,-0.07961 8.91692,-0.451153 10.37653,-0.902307 0.13269,-0.07961 0.345,-0.849229 0.29192,-0.955383 -0.29192,-0.132692 -0.5573,-0.345 -0.61038,-0.557307 -0.345,-2.282305 -1.77808,-5.811916 -6.02422,-5.811916 -1.48616,0 -3.31731,0.530769 -4.67077,1.35346 -2.14961,1.35346 -3.68884,3.901149 -3.68884,7.377683 0,2.335382 0.69,4.883071 2.36192,6.554992 1.24731,1.273844 2.9723,1.963843 5.22807,1.963843 2.22923,0 5.17499,-1.273844 6.95307,-3.343842 0.0531,-0.185769 0.23884,-0.902306 0.21231,-1.247306 0,-0.106153 -0.15923,-0.238846 -0.21231,-0.265384 z m -7.4573,-10.854217 c 1.91077,0 3.02538,2.123074 3.21115,4.431917 0,0.185769 -0.10615,0.345 -0.23885,0.398077 -0.71653,0.15923 -4.61768,0.238846 -5.7323,0.185769 -0.13269,0 -0.2123,-0.185769 -0.2123,-0.265384 0.0796,-2.839612 1.30038,-4.750379 2.9723,-4.750379 z" />
      <path
         id="path903"
         style="font-style:normal;font-variant:normal;font-weight:normal;font-stretch:normal;font-family:'Adobe Naskh';-inkscape-font-specification:'Adobe Naskh';fill:#f9f9f9;stroke-width:1.35877"
         d="m 331.18236,37.100241 c -0.76962,0 -1.59231,0.371538 -2.14962,0.796153 -0.92884,0.716538 -1.69845,1.51269 -2.46807,2.468074 -0.0531,0.07961 -0.23884,0.07961 -0.23884,-0.05308 0,-0.689999 0.10615,-2.600766 0.15923,-3.131535 -0.0531,-0.07962 -0.18577,-0.212307 -0.31847,-0.212307 -1.27384,0.743076 -4.29922,1.486152 -5.81191,1.645383 -0.13269,0.07961 -0.21231,0.769614 -0.21231,1.00846 1.83115,0.663461 2.09654,1.141152 2.12308,1.698459 0.0796,0.557307 0.0796,1.804613 0.0796,3.237688 0.0531,2.680382 0,5.838455 -0.0796,6.554992 -0.0265,0.822691 -0.31847,1.114614 -0.69,1.220768 -0.50423,0.212307 -1.08808,0.291923 -1.61885,0.371538 -0.13269,0.15923 -0.0796,1.061537 0,1.273844 0.92885,0 2.83961,-0.132692 4.37884,-0.132692 2.30885,0 4.61769,0.132692 5.30769,0.132692 0.18577,-0.212307 0.26538,-1.114614 0.18577,-1.273844 -0.87577,-0.106154 -1.67192,-0.212308 -2.33538,-0.398077 -0.76962,-0.212307 -0.90231,-0.636922 -0.98193,-1.565767 -0.0265,-0.636922 -0.0796,-5.493454 -0.0796,-7.93499 0,-0.451153 0.15923,-0.849229 0.31846,-1.00846 0.39808,-0.663461 1.06154,-1.114614 1.67192,-1.114614 1.06154,0 2.12308,0.636922 2.91923,1.459614 0.0796,0 0.39807,-0.07962 0.47769,-0.159231 0.53077,-0.663461 1.43307,-2.521151 1.51269,-3.051919 0.0265,-0.212308 0.0265,-0.636923 0,-0.822692 -0.39808,-0.636922 -1.19423,-1.00846 -2.14961,-1.00846 z" />
      <path
         id="path905"
         style="font-style:normal;font-variant:normal;font-weight:normal;font-stretch:normal;font-family:'Adobe Naskh';-inkscape-font-specification:'Adobe Naskh';fill:#f9f9f9;stroke-width:1.35877"
         d="m 345.83157,39.913315 c 0.0265,-0.663461 0.23885,-1.804614 0.345,-2.441536 -0.79615,0.07962 -3.26422,0.185769 -4.67076,0.185769 -0.10616,0 -0.21231,-0.15923 -0.21231,-0.265384 0,-2.786535 0.0796,-4.670763 0.21231,-5.466916 -0.18577,-0.05308 -0.66346,0 -0.82269,0.02654 -0.55731,0.530769 -2.54769,1.671921 -3.50308,2.016921 v 3.503072 c -0.0531,0.106154 -0.13269,0.265384 -0.2123,0.265384 -0.31846,0.132693 -1.22077,0.318462 -1.77808,0.477692 -0.13269,0.265384 -0.37154,1.194229 -0.37154,1.486152 0.63693,0.02654 1.56577,0.07962 2.12308,0.185769 0.15923,0.02654 0.23884,0.185769 0.23884,0.345 0,1.671921 -0.0531,5.387301 -0.0531,7.536913 0,2.494612 0,3.55615 0.58384,4.617687 0.74308,1.300383 2.12308,1.910767 3.87461,1.910767 1.59231,0 3.34385,-0.557307 4.43192,-1.963844 0.13269,-0.238846 0.15923,-1.167691 0.0796,-1.326922 -0.76962,0.477692 -1.38,0.583846 -2.36192,0.583846 -1.14116,0 -1.99039,-0.557307 -2.25577,-1.512691 -0.18577,-0.66346 -0.18577,-1.433075 -0.23885,-3.02538 0,-1.963844 0,-5.228071 0.0531,-6.979607 0,-0.02654 0.10615,-0.185769 0.18577,-0.185769 1.43308,0 3.23769,0 4.3523,0.02654 z" />
      <path
         id="path907"
         style="font-style:normal;font-variant:normal;font-weight:normal;font-stretch:normal;font-family:'Adobe Naskh';-inkscape-font-specification:'Adobe Naskh';fill:#f9f9f9;stroke-width:1.35877"
         d="m 354.27079,31.55371 c 0,-0.345 -0.15923,-1.00846 -0.39807,-1.35346 -0.15923,-0.159231 -0.71654,-0.424615 -1.53923,-0.424615 -0.84923,0 -1.99038,0.398077 -2.44154,0.84923 -0.29192,0.265384 -0.29192,1.220767 -0.2123,1.539229 0.18577,0.849229 0.53076,1.459613 1.19423,1.804613 0.37153,0.15923 2.12307,0 2.36192,-0.212308 0.61038,-0.477691 1.03499,-1.379998 1.03499,-2.202689 z m 2.44154,21.151127 c -0.90231,-0.159231 -1.24731,-0.238846 -1.67192,-0.371538 -0.53077,-0.185769 -0.76962,-0.557307 -0.76962,-1.512691 -0.0531,-1.85769 -0.0531,-4.591148 -0.0531,-6.767299 0,-2.388458 0.0531,-5.281147 0.0531,-7.032683 -1.83115,0.716537 -5.09537,1.273844 -6.20999,1.300383 -0.15923,0.15923 -0.23884,0.928845 -0.13269,1.088075 0.92885,0.371538 1.43308,0.583846 1.80461,0.981922 0.23885,0.238846 0.29193,0.663461 0.29193,0.928845 0.0265,0.743076 0.0265,2.308843 0.0265,3.821534 0,2.069997 0,4.697302 -0.0265,5.679223 -0.0531,0.955384 -0.15923,1.326922 -0.74308,1.512691 -0.45115,0.15923 -0.92885,0.265384 -1.61884,0.371538 -0.15923,0.132692 -0.1327,1.114614 0,1.273844 0.79615,0 2.36192,-0.132692 4.3523,-0.132692 2.2823,0 3.68884,0.132692 4.48499,0.132692 0.21231,-0.15923 0.29192,-1.114614 0.21231,-1.273844 z" />
      <path
         id="path909"
         style="font-style:normal;font-variant:normal;font-weight:normal;font-stretch:normal;font-family:'Adobe Naskh';-inkscape-font-specification:'Adobe Naskh';fill:#f9f9f9;stroke-width:1.35877"
         d="m 358.27809,52.704837 c -0.15923,0.132692 -0.15923,1.061537 0,1.273844 0.87577,0 2.46807,-0.132692 4.3523,-0.132692 2.97231,0 4.32577,0.132692 5.36076,0.132692 0.18577,-0.132692 0.31847,-1.114614 0.18577,-1.273844 -1.11461,-0.106154 -1.53923,-0.212308 -2.17615,-0.371538 -0.79615,-0.238846 -1.035,-0.663461 -1.08807,-1.618844 -0.0796,-2.069998 -0.10616,-6.289608 -0.10616,-10.562295 0,-0.07962 0.0796,-0.344999 0.18577,-0.344999 1.06154,0 2.60077,0.07961 3.82154,0.07961 0.0531,-0.716537 0.26538,-1.831151 0.37153,-2.335382 -0.61038,0.02654 -1.51269,0.07962 -4.13999,0.106154 -0.13269,0 -0.23885,-0.185769 -0.23885,-0.265384 -0.0531,-0.424615 -0.0531,-1.273845 -0.0531,-1.884228 0,-3.05192 0.13269,-5.06884 0.92884,-6.050762 0.39808,-0.424615 0.82269,-0.583845 1.30038,-0.583845 1.1677,0 2.57423,1.16769 3.47654,2.149612 0.10615,0.02654 0.45115,0 0.55731,-0.05308 0.37153,-0.265384 1.51269,-1.990382 1.72499,-2.547689 0,-0.132692 0,-0.50423 -0.0531,-0.636922 -0.4777,-0.769614 -1.61885,-1.326921 -3.21115,-1.326921 -1.14116,0 -2.76,0.557307 -4.19308,1.565767 -3.26422,2.255766 -4.48499,5.254609 -4.5646,9.44768 0,0.02654 -0.0531,0.185769 -0.15924,0.265384 -0.34499,0.212308 -1.32692,0.583846 -1.85769,0.716538 -0.15923,0.159231 -0.39807,0.955383 -0.39807,1.273845 l 2.20269,0.15923 c 0.0796,0 0.21231,0.238846 0.21231,0.318461 -0.0531,3.741919 -0.0531,8.041144 -0.0796,10.80114 0,0.636923 -0.15923,1.141153 -0.76961,1.379999 -0.39808,0.106153 -0.90231,0.212307 -1.59231,0.318461 z" />
      <path
         id="path911"
         style="font-style:normal;font-variant:normal;font-weight:normal;font-stretch:normal;font-family:'Adobe Naskh';-inkscape-font-specification:'Adobe Naskh';fill:#f9f9f9;stroke-width:1.35877"
         d="m 376.77538,31.55371 c 0,-0.345 -0.15923,-1.00846 -0.39808,-1.35346 -0.15923,-0.159231 -0.71653,-0.424615 -1.53923,-0.424615 -0.84923,0 -1.99038,0.398077 -2.44153,0.84923 -0.29192,0.265384 -0.29192,1.220767 -0.21231,1.539229 0.18577,0.849229 0.53077,1.459613 1.19423,1.804613 0.37154,0.15923 2.12308,0 2.36192,-0.212308 0.61038,-0.477691 1.035,-1.379998 1.035,-2.202689 z m 2.44153,21.151127 c -0.9023,-0.159231 -1.2473,-0.238846 -1.67192,-0.371538 -0.53076,-0.185769 -0.76961,-0.557307 -0.76961,-1.512691 -0.0531,-1.85769 -0.0531,-4.591148 -0.0531,-6.767299 0,-2.388458 0.0531,-5.281147 0.0531,-7.032683 -1.83115,0.716537 -5.09538,1.273844 -6.20999,1.300383 -0.15923,0.15923 -0.23885,0.928845 -0.13269,1.088075 0.92884,0.371538 1.43307,0.583846 1.80461,0.981922 0.23884,0.238846 0.29192,0.663461 0.29192,0.928845 0.0265,0.743076 0.0265,2.308843 0.0265,3.821534 0,2.069997 0,4.697302 -0.0265,5.679223 -0.0531,0.955384 -0.15923,1.326922 -0.74307,1.512691 -0.45116,0.15923 -0.92885,0.265384 -1.61885,0.371538 -0.15923,0.132692 -0.13269,1.114614 0,1.273844 0.79615,0 2.36192,-0.132692 4.3523,-0.132692 2.28231,0 3.68884,0.132692 4.485,0.132692 0.2123,-0.15923 0.29192,-1.114614 0.2123,-1.273844 z" />
      <path
         id="path913"
         style="font-style:normal;font-variant:normal;font-weight:normal;font-stretch:normal;font-family:'Adobe Naskh';-inkscape-font-specification:'Adobe Naskh';fill:#f9f9f9;stroke-width:1.35877"
         d="m 395.69727,51.006377 c 0.1327,-0.265384 0.29193,-1.034998 0.21231,-1.353459 0,-0.159231 -0.13269,-0.238846 -0.21231,-0.291923 -1.51269,1.35346 -3.10499,1.804613 -4.48499,1.804613 -1.75154,0 -3.29077,-0.530769 -4.53807,-2.123074 -0.95538,-1.273845 -1.40654,-3.051919 -1.40654,-4.856533 0,-2.945765 1.30038,-5.307685 3.795,-5.307685 1.99038,0 3.58268,1.751536 4.43191,2.680381 0.0796,0.02654 0.42462,0.02654 0.53077,0 0.39808,-0.238846 1.30039,-1.35346 1.64539,-2.069997 0.0265,-0.185769 0.0796,-0.557307 0,-0.716538 -0.21231,-0.530768 -0.90231,-0.902306 -1.32693,-1.114614 -0.82269,-0.318461 -1.75153,-0.557307 -3.42345,-0.557307 -1.59231,0 -3.98077,0.716538 -5.57307,1.671921 -2.68038,1.592306 -4.11346,4.352302 -4.11346,7.165376 0,2.123074 0.58385,4.139994 1.67192,5.57307 1.38,1.831151 3.34384,2.839611 5.99769,2.839611 1.9373,0 4.77691,-0.849229 6.79383,-3.343842 z" />
      <path
         id="path915"
         style="font-style:normal;font-variant:normal;font-weight:normal;font-stretch:normal;font-family:'Adobe Naskh';-inkscape-font-specification:'Adobe Naskh';fill:#f9f9f9;stroke-width:1.35877"
         d="m 406.73726,43.310233 c 0,0.265385 0,0.50423 -0.0265,0.84923 -0.0531,0.106154 -0.15923,0.345 -0.29192,0.398076 -1.51269,0.743076 -6.47538,1.85769 -7.69614,2.600766 -0.29193,0.371538 -0.74308,1.724998 -0.74308,2.36192 0,1.512691 0.55731,2.892689 1.51269,3.821534 0.63692,0.636922 1.45961,1.00846 2.30884,1.00846 0.87577,0 2.70692,-0.743076 4.69731,-2.043459 0.0531,-0.05308 0.15923,-0.05308 0.15923,0.02654 0.0796,0.265384 0.15923,0.610384 0.29192,0.84923 0.29192,0.66346 1.00846,1.194229 2.25576,1.194229 1.1677,0 2.83962,-0.530769 3.84808,-1.512691 0.13269,-0.15923 0.26538,-1.273844 0.2123,-1.433075 -0.53076,0.159231 -0.84923,0.212308 -1.37999,0.212308 -1.06154,0 -1.32693,-0.822692 -1.32693,-1.565768 0,-1.645382 0.10616,-4.591148 0.10616,-6.608068 0,-1.433075 -0.21231,-2.919227 -0.98192,-4.086918 -0.95539,-1.35346 -2.44154,-2.282305 -4.40538,-2.282305 -1.16769,0 -3.95423,1.061537 -5.83846,2.388459 -0.26538,0.238846 -0.9023,2.096536 -0.92884,2.547689 -0.0531,0.265384 1.19423,0.875768 1.35346,0.716537 0.345,-0.875768 1.14115,-2.36192 1.53923,-2.680381 0.2123,-0.265384 0.9023,-0.50423 1.80461,-0.50423 1.14115,0 2.2823,0.477692 2.91923,1.433075 0.50423,0.716538 0.61038,1.512691 0.61038,2.308843 z m -0.0265,2.70692 c 0,0.716538 0,3.264227 -0.0796,4.325764 -0.0531,0.398076 -0.15923,0.689999 -0.37154,0.849229 -0.45115,0.318462 -1.06154,0.451154 -1.53923,0.451154 -1.48615,0 -2.76,-1.061537 -2.76,-2.839612 0,-0.398076 0.26539,-1.220768 0.39808,-1.35346 0.61038,-0.451153 2.91923,-1.141152 4.19307,-1.592306 0.0796,0 0.15923,0.132693 0.15923,0.159231 z" />
      <path
         id="path917"
         style="font-style:normal;font-variant:normal;font-weight:normal;font-stretch:normal;font-family:'Adobe Naskh';-inkscape-font-specification:'Adobe Naskh';fill:#f9f9f9;stroke-width:1.35877"
         d="m 433.80646,51.590223 c -0.76962,0.05308 -1.35346,0.07961 -1.77808,0 -0.42461,-0.07962 -0.69,-0.265384 -0.74307,-1.512691 -0.0265,-1.247306 -0.0796,-4.697301 -0.0796,-7.881913 0,-5.971146 0.0531,-9.049604 0.13269,-11.384985 0.0265,-2.441536 0.0796,-3.051919 0.4777,-3.688842 0,-0.132692 -0.15923,-0.583845 -0.23885,-0.66346 -1.43308,0.530768 -5.01576,1.141152 -7.48384,1.141152 -0.26538,0.106154 -0.31846,0.981922 -0.18577,1.220768 0.8227,0.05308 1.75154,0.238846 2.28231,0.398076 0.66346,0.238846 0.82269,0.743076 0.84923,1.433075 0.0796,1.061537 0.0796,2.945766 0.0796,6.369223 0,0.07961 -0.0796,0.15923 -0.15923,0.15923 -0.39807,-0.05308 -1.00846,-0.07962 -1.45961,-0.07962 -2.57423,0 -5.78538,1.141153 -7.4573,2.521151 -1.83115,1.433075 -3.05192,3.954226 -3.05192,6.634607 0,2.308843 0.69,4.405379 1.85769,5.838454 1.11462,1.406537 2.65385,2.149613 4.40538,2.149613 1.40654,0 3.76846,-1.061537 5.59961,-2.308844 0.0796,0 0.18577,0.05308 0.18577,0.132693 0,0.636922 0,1.671921 0.0796,2.01692 0.0531,0.159231 0.21231,0.424615 0.345,0.424615 0.92885,0 4.80346,-0.981922 6.10384,-1.645383 0.13269,-0.106153 0.29192,-1.034998 0.23885,-1.273844 z M 423.2707,38.851777 c 1.06154,0 2.01692,0.238846 2.83961,0.84923 0.69,0.50423 0.98193,1.061537 0.98193,2.043459 0.0796,2.043459 0.0265,7.006145 0,8.094221 -0.0531,0.344999 -0.15923,0.636922 -0.31847,0.822691 -0.68999,0.50423 -1.51269,0.743076 -2.36192,0.743076 -2.99884,0 -5.14845,-2.494612 -5.14845,-6.899991 0,-2.096536 0.58384,-3.688842 1.48615,-4.617687 0.71654,-0.743076 1.61885,-1.034999 2.52115,-1.034999 z" />
      <path
         id="path919"
         style="font-style:normal;font-variant:normal;font-weight:normal;font-stretch:normal;font-family:'Adobe Naskh';-inkscape-font-specification:'Adobe Naskh';fill:#f9f9f9;stroke-width:1.35877"
         d="m 444.92607,37.100241 c -2.09654,0 -4.11346,0.689999 -5.51999,1.618844 -2.14962,1.433075 -3.60923,3.71538 -3.60923,6.846915 0,4.538071 2.44154,8.784219 8.51884,8.784219 1.83115,0 3.92768,-0.769614 5.12191,-1.565767 2.415,-1.51269 3.74192,-4.113456 3.74192,-7.377683 0,-4.644225 -2.94577,-8.306528 -8.25345,-8.306528 z m -1.19423,1.592306 c 3.07846,0 4.85653,3.184611 4.85653,7.988067 0,2.759996 -0.45115,4.405379 -1.45961,5.387301 -0.53077,0.424614 -1.22077,0.636922 -1.96385,0.636922 -2.73345,0 -4.80345,-3.025381 -4.80345,-8.226913 0,-3.104996 0.76961,-4.564609 1.83115,-5.307685 0.45115,-0.291923 1.06154,-0.477692 1.53923,-0.477692 z" />
    </g>
    <g
       id="g2474"
       transform="translate(41.017602,-15.054985)">
      <g
         transform="matrix(0.05117388,0,0,0.05117388,17.227962,225.78486)"
         id="g2278">
        <path
           d="m 155.76258,538.33813 h 74.80778 c 13.62625,0 24.59611,12.53699 24.59611,28.10985 v 67.78031 c 0,15.57286 -10.96986,28.10984 -24.59611,28.10984 h -74.80778 c -13.62624,0 -24.59611,-12.53698 -24.59611,-28.10984 v -67.78031 c 0,-15.57286 10.96987,-28.10985 24.59611,-28.10985 z"
           style="fill:#71c837;fill-rule:evenodd;stroke:none"
           id="rect2816-4-4-5-1-7" />
        <path
           d="m 155.76258,668.34613 h 74.80778 c 13.62625,0 24.59611,12.53699 24.59611,28.10984 v 67.78032 c 0,15.57285 -10.96986,28.10984 -24.59611,28.10984 h -74.80778 c -13.62624,0 -24.59611,-12.53699 -24.59611,-28.10984 v -67.78032 c 0,-15.57285 10.96987,-28.10984 24.59611,-28.10984 z"
           style="fill:#71c837;fill-rule:evenodd"
           id="rect2816-4-4-5-1-7-4" />
        <path
           d="m 155.76258,798.35419 h 74.80778 c 13.62625,0 24.59611,12.53699 24.59611,28.10984 v 67.78032 c 0,15.57285 -10.96986,28.10984 -24.59611,28.10984 h -74.80778 c -13.62624,0 -24.59611,-12.53699 -24.59611,-28.10984 v -67.78032 c 0,-15.57285 10.96987,-28.10984 24.59611,-28.10984 z"
           style="fill:#71c837;fill-rule:evenodd"
           id="rect2816-4-4-5-1-7-3" />
        <path
           d="m 155.76258,928.36218 h 74.80778 c 13.62625,0 24.59611,12.53699 24.59611,28.10984 v 67.78028 c 0,15.5729 -10.96986,28.1099 -24.59611,28.1099 h -74.80778 c -13.62624,0 -24.59611,-12.537 -24.59611,-28.1099 v -67.78028 c 0,-15.57285 10.96987,-28.10984 24.59611,-28.10984 z"
           style="fill:#71c837;fill-rule:evenodd"
           id="rect2816-4-4-5-1-7-1" />
        <path
           d="m 286.369,538.33813 h 74.80778 c 13.62624,0 24.59611,12.53699 24.59611,28.10985 v 67.78031 c 0,15.57286 -10.96987,28.10984 -24.59611,28.10984 H 286.369 c -13.62625,0 -24.59611,-12.53698 -24.59611,-28.10984 v -67.78031 c 0,-15.57286 10.96986,-28.10985 24.59611,-28.10985 z"
           style="fill:#71c837;fill-rule:evenodd;stroke:none"
           id="rect2816-4-4-5-1-7-8" />
        <path
           d="M 24.596111,668.34613 H 99.403889 C 113.03013,668.34613 124,680.88312 124,696.45597 v 67.78032 c 0,15.57285 -10.96987,28.10984 -24.596111,28.10984 H 24.596111 C 10.969866,792.34613 0,779.80914 0,764.23629 v -67.78032 c 0,-15.57285 10.969866,-28.10984 24.596111,-28.10984 z"
           style="fill:#71c837;fill-rule:evenodd"
           id="rect2816-4-4-5-1-7-4-9" />
        <path
           d="M 24.596111,798.35419 H 99.403889 C 113.03013,798.35419 124,810.89118 124,826.46403 v 67.78032 c 0,15.57285 -10.96987,28.10984 -24.596111,28.10984 H 24.596111 C 10.969866,922.35419 0,909.8172 0,894.24435 v -67.78032 c 0,-15.57285 10.969866,-28.10984 24.596111,-28.10984 z"
           style="fill:#71c837;fill-rule:evenodd"
           id="rect2816-4-4-5-1-7-3-2" />
        <path
           d="M 24.596111,928.36218 H 99.403889 C 113.03013,928.36218 124,940.89917 124,956.47202 v 67.78028 c 0,15.5729 -10.96987,28.1099 -24.596111,28.1099 H 24.596111 C 10.969866,1052.3622 0,1039.8252 0,1024.2523 v -67.78028 c 0,-15.57285 10.969866,-28.10984 24.596111,-28.10984 z"
           style="fill:#71c837;fill-rule:evenodd"
           id="rect2816-4-4-5-1-7-1-7" />
        <path
           d="m 286.369,796.59729 h 74.80778 c 13.62624,0 24.59611,12.53699 24.59611,28.10984 v 67.78032 c 0,15.57285 -10.96987,28.10984 -24.59611,28.10984 H 286.369 c -13.62625,0 -24.59611,-12.53699 -24.59611,-28.10984 v -67.78032 c 0,-15.57285 10.96986,-28.10984 24.59611,-28.10984 z"
           style="fill:#71c837;fill-rule:evenodd"
           id="rect2816-4-4-5-1-7-8-2" />
        <path
           d="m 210.82381,246.83954 a 59.733414,60.611847 0 0 1 -59.73342,60.61185 59.733414,60.611847 0 0 1 -59.733411,-60.61185 59.733414,60.611847 0 0 1 59.733411,-60.61185 59.733414,60.611847 0 0 1 59.73342,60.61185"
           transform="translate(-90.847257,349.10644)"
           style="fill:#d40000"
           id="path3184" />
      </g>
      <g
         transform="matrix(1.2487706,0,0,1.2487706,-7.8921245,-59.677659)"
         id="g2430">
        <g
           id="g2381">
          <path
             id="path60"
             style="fill:#1f1714;fill-opacity:1;fill-rule:nonzero;stroke:none;stroke-width:0.0693293"
             d="m 42.807925,258.22861 v -4.97063 h 1.055678 v 4.97063 h -1.055678" />
          <path
             id="path62"
             style="fill:#1f1714;fill-opacity:1;fill-rule:nonzero;stroke:none;stroke-width:0.0693293"
             d="m 49.557006,258.22861 h -1.341664 l -2.165712,-3.76035 h -0.03058 c 0.04306,0.66431 0.0644,1.13797 0.0644,1.42126 v 2.33909 h -0.943227 v -4.97063 h 1.33161 l 2.162733,3.7227 h 0.02329 c -0.03355,-0.64566 -0.0509,-1.10254 -0.0509,-1.36981 v -2.35289 h 0.950022 v 4.97063" />
          <path
             id="path64"
             style="fill:#1f1714;fill-opacity:1;fill-rule:nonzero;stroke:none;stroke-width:0.0693293"
             d="m 53.749285,256.84821 c 0,0.44876 -0.161681,0.80221 -0.485305,1.06052 -0.323353,0.25866 -0.773717,0.38782 -1.350329,0.38782 -0.531064,0 -1.001187,-0.0998 -1.409883,-0.29921 v -0.979 c 0.336109,0.14955 0.620429,0.2545 0.853375,0.31599 0.232324,0.0613 0.445511,0.0918 0.638317,0.0918 0.231559,0 0.409182,-0.044 0.532935,-0.13245 0.12383,-0.0882 0.185519,-0.22019 0.185519,-0.39454 0,-0.0975 -0.02704,-0.18395 -0.08154,-0.26001 -0.05469,-0.0761 -0.13456,-0.14896 -0.240157,-0.21936 -0.105376,-0.0702 -0.320924,-0.18218 -0.645386,-0.33664 -0.304149,-0.14268 -0.532451,-0.27976 -0.684352,-0.41107 -0.152169,-0.13187 -0.273503,-0.28467 -0.364256,-0.4591 -0.09125,-0.17432 -0.136781,-0.37853 -0.136781,-0.61204 0,-0.43947 0.149535,-0.78565 0.447938,-1.03669 0.29874,-0.25159 0.71118,-0.37748 1.237946,-0.37748 0.258876,0 0.50562,0.0307 0.740922,0.0916 0.235096,0.0613 0.48073,0.14739 0.736904,0.25839 l -0.340131,0.81949 c -0.265669,-0.10868 -0.485584,-0.18473 -0.659184,-0.22775 -0.173609,-0.043 -0.34422,-0.0645 -0.512414,-0.0645 -0.199808,0 -0.353095,0.046 -0.459792,0.13914 -0.106693,0.093 -0.160089,0.21423 -0.160089,0.3637 0,0.0932 0.02142,0.17393 0.06503,0.2432 0.04306,0.0694 0.111548,0.13619 0.205769,0.20071 0.09429,0.0645 0.317391,0.18061 0.669236,0.34824 0.465478,0.22235 0.784256,0.44468 0.956748,0.66813 0.172843,0.22339 0.258944,0.49695 0.258944,0.82108" />
          <path
             id="path66"
             style="fill:#1f1714;fill-opacity:1;fill-rule:nonzero;stroke:none;stroke-width:0.0693293"
             d="m 56.569052,258.22861 h -1.055957 v -4.0934 h -1.351923 v -0.87723 h 3.759804 v 0.87723 h -1.351924 v 4.0934" />
          <path
             id="path68"
             style="fill:#1f1714;fill-opacity:1;fill-rule:nonzero;stroke:none;stroke-width:0.0693293"
             d="m 58.687066,258.22861 v -4.97063 h 1.055679 v 4.97063 h -1.055679" />
          <path
             id="path70"
             style="fill:#1f1714;fill-opacity:1;fill-rule:nonzero;stroke:none;stroke-width:0.0693293"
             d="m 62.916716,258.22861 h -1.055888 v -4.0934 h -1.351646 v -0.87723 h 3.759458 v 0.87723 h -1.351924 v 4.0934" />
          <path
             id="path72"
             style="fill:#1f1714;fill-opacity:1;fill-rule:nonzero;stroke:none;stroke-width:0.0693293"
             d="m 69.105199,253.25798 v 3.21626 c 0,0.36722 -0.08209,0.68892 -0.247021,0.96548 -0.164373,0.27647 -0.402388,0.48856 -0.713329,0.63588 -0.311151,0.14739 -0.678944,0.22095 -1.103309,0.22095 -0.640188,0 -1.137695,-0.1639 -1.491345,-0.49125 -0.354551,-0.32767 -0.531618,-0.77588 -0.531618,-1.34458 v -3.20274 h 1.052351 v 3.04265 c 0,0.38318 0.07723,0.66404 0.231561,0.84332 0.154684,0.17924 0.409737,0.26838 0.76616,0.26838 0.345259,0 0.595539,-0.0898 0.750974,-0.26997 0.155431,-0.18041 0.233157,-0.46283 0.233157,-0.84851 v -3.03587 h 1.052419" />
          <path
             id="path74"
             style="fill:#1f1714;fill-opacity:1;fill-rule:nonzero;stroke:none;stroke-width:0.0693293"
             d="m 72.265651,258.22861 h -1.055957 v -4.0934 h -1.351646 v -0.87723 h 3.759804 v 0.87723 h -1.352201 v 4.0934" />
          <path
             id="path76"
             style="fill:#1f1714;fill-opacity:1;fill-rule:nonzero;stroke:none;stroke-width:0.0693293"
             d="m 75.26713,255.73651 c 0,0.55545 0.105317,0.97358 0.31628,1.25443 0.210969,0.28142 0.526764,0.42139 0.946833,0.42139 0.842213,0 1.263319,-0.55866 1.263319,-1.67582 0,-1.11954 -0.418679,-1.6793 -1.256596,-1.6793 -0.419996,0 -0.736624,0.14071 -0.95002,0.42298 -0.213119,0.28216 -0.319816,0.70092 -0.319816,1.25632 z m 3.633277,0 c 0,0.82251 -0.204175,1.45487 -0.61315,1.89685 -0.40835,0.44224 -0.994114,0.66319 -1.757014,0.66319 -0.762625,0 -1.348458,-0.22095 -1.757362,-0.66319 -0.408421,-0.44198 -0.612873,-1.07629 -0.612873,-1.90357 0,-0.82739 0.204729,-1.4592 0.614744,-1.89548 0.409737,-0.43601 0.997164,-0.65433 1.762214,-0.65433 0.765329,0 1.350331,0.21964 1.755491,0.65918 0.405369,0.4401 0.60795,1.07246 0.60795,1.89735" />
          <path
             id="path78"
             style="fill:#1f1714;fill-opacity:1;fill-rule:nonzero;stroke:none;stroke-width:0.0693293"
             d="m 47.298391,264.2026 h -1.038832 v -4.97038 h 2.853598 v 0.86337 h -1.814766 v 1.28203 h 1.688794 v 0.85989 h -1.688794 v 1.96509" />
          <path
             id="path80"
             style="fill:#1f1714;fill-opacity:1;fill-rule:nonzero;stroke:none;stroke-width:0.0693293"
             d="m 52.983958,264.2026 h -2.867465 v -4.97038 h 2.867465 v 0.86337 h -1.812062 v 1.09117 h 1.685813 v 0.86364 h -1.685813 v 1.28175 h 1.812062 v 0.87045" />
          <path
             id="path82"
             style="fill:#1f1714;fill-opacity:1;fill-rule:nonzero;stroke:none;stroke-width:0.0693293"
             d="m 57.057063,261.69695 c 0,-1.0676 -0.472342,-1.60136 -1.416679,-1.60136 h -0.562192 v 3.23656 h 0.453068 c 1.016925,0 1.525803,-0.54512 1.525803,-1.6352 z m 1.096514,-0.0271 c 0,0.81815 -0.233434,1.44483 -0.700089,1.88001 -0.466588,0.43525 -1.140122,0.65274 -2.020815,0.65274 H 54.02279 v -4.97038 h 1.56317 c 0.812473,0 1.44344,0.21396 1.893041,0.64242 0.449532,0.42839 0.674576,1.02663 0.674576,1.79521" />
          <path
             id="path84"
             style="fill:#1f1714;fill-opacity:1;fill-rule:nonzero;stroke:none;stroke-width:0.0693293"
             d="m 62.052524,264.2026 h -2.867395 v -4.97038 h 2.867395 v 0.86337 h -1.811715 v 1.09117 h 1.685813 v 0.86364 h -1.685813 v 1.28175 h 1.811715 v 0.87045" />
          <path
             id="path86"
             style="fill:#1f1714;fill-opacity:1;fill-rule:nonzero;stroke:none;stroke-width:0.0693293"
             d="m 64.147037,261.43856 h 0.340685 c 0.333682,0 0.580147,-0.0554 0.73912,-0.16645 0.158693,-0.11104 0.238009,-0.28544 0.238009,-0.52353 0,-0.23557 -0.08097,-0.4032 -0.243209,-0.50339 -0.162447,-0.0994 -0.413757,-0.14956 -0.754441,-0.14956 h -0.320164 z m 0,0.85693 v 1.90711 h -1.055611 v -4.97038 h 1.450996 c 0.676239,0 1.176729,0.12283 1.501745,0.36884 0.324393,0.24591 0.486901,0.61939 0.486901,1.12042 0,0.29218 -0.08069,0.55216 -0.242098,0.77997 -0.161131,0.22775 -0.389423,0.40647 -0.684351,0.53535 0.749312,1.1174 1.237321,1.83967 1.464307,2.1658 h -1.171321 l -1.188306,-1.90711 h -0.562262" />
          <path
             id="path88"
             style="fill:#1f1714;fill-opacity:1;fill-rule:nonzero;stroke:none;stroke-width:0.0693293"
             d="m 70.131622,262.13567 c -0.333682,-1.07217 -0.521634,-1.67881 -0.563302,-1.81907 -0.04229,-0.14031 -0.07203,-0.25131 -0.09048,-0.33312 -0.07474,0.29009 -0.28952,1.00742 -0.643447,2.15219 z m 0.613079,2.06693 -0.360997,-1.18298 h -1.815252 l -0.360723,1.18298 h -1.137487 l 1.757362,-4.99095 h 1.290428 l 1.764158,4.99095 h -1.137489" />
          <path
             id="path90"
             style="fill:#1f1714;fill-opacity:1;fill-rule:nonzero;stroke:none;stroke-width:0.0693293"
             d="m 72.540818,264.2026 v -4.97038 h 1.055611 v 4.09993 h 2.019219 v 0.87045 h -3.07483" />
        </g>
        <g
           style="font-style:normal;font-weight:normal;font-size:4.52px;line-height:1.25;font-family:sans-serif;fill:#000000;fill-opacity:1;stroke:none;stroke-width:0.108835"
           id="text2363"
           aria-label="Tocantins">
          <path
             id="path932"
             style="font-style:normal;font-variant:normal;font-weight:normal;font-stretch:normal;font-size:4.52px;font-family:'Segoe UI';-inkscape-font-specification:'Segoe UI';stroke-width:0.108835"
             d="m 54.212819,266.19018 h -0.913711 v 2.82941 h -0.370781 v -2.82941 h -0.911504 v -0.33547 h 2.195996 z" />
          <path
             id="path934"
             style="font-style:normal;font-variant:normal;font-weight:normal;font-stretch:normal;font-size:4.52px;font-family:'Segoe UI';-inkscape-font-specification:'Segoe UI';stroke-width:0.108835"
             d="m 55.161842,269.07256 q -0.500996,0 -0.801152,-0.3156 -0.297949,-0.31782 -0.297949,-0.84088 0,-0.56942 0.311191,-0.88944 0.311191,-0.32002 0.840879,-0.32002 0.50541,0 0.78791,0.31119 0.284707,0.3112 0.284707,0.86295 0,0.54073 -0.306777,0.86737 -0.304571,0.32443 -0.818809,0.32443 z m 0.02649,-2.06137 q -0.348711,0 -0.551758,0.23836 -0.203047,0.23616 -0.203047,0.65328 0,0.40168 0.205254,0.63342 0.205254,0.23174 0.549551,0.23174 0.350918,0 0.538515,-0.22732 0.189805,-0.22733 0.189805,-0.64666 0,-0.42375 -0.189805,-0.65328 -0.187597,-0.22954 -0.538515,-0.22954 z" />
          <path
             id="path936"
             style="font-style:normal;font-variant:normal;font-weight:normal;font-stretch:normal;font-size:4.52px;font-family:'Segoe UI';-inkscape-font-specification:'Segoe UI';stroke-width:0.108835"
             d="m 58.406178,268.91586 q -0.26043,0.1567 -0.617969,0.1567 -0.48334,0 -0.781289,-0.3134 -0.295742,-0.3156 -0.295742,-0.8166 0,-0.55838 0.320019,-0.89605 0.32002,-0.33989 0.854121,-0.33989 0.29795,0 0.525274,0.11036 v 0.37078 q -0.251602,-0.17657 -0.538516,-0.17657 -0.346504,0 -0.569414,0.2494 -0.220703,0.24719 -0.220703,0.65107 0,0.39727 0.207461,0.6268 0.209668,0.22953 0.560586,0.22953 0.295742,0 0.556172,-0.19643 z" />
          <path
             id="path938"
             style="font-style:normal;font-variant:normal;font-weight:normal;font-stretch:normal;font-size:4.52px;font-family:'Segoe UI';-inkscape-font-specification:'Segoe UI';stroke-width:0.108835"
             d="m 60.57569,269.01959 h -0.361953 v -0.35312 h -0.0088 q -0.236153,0.40609 -0.695215,0.40609 -0.337676,0 -0.529688,-0.17877 -0.189804,-0.17877 -0.189804,-0.47451 0,-0.63342 0.745976,-0.73715 l 0.677559,-0.0949 q 0,-0.57604 -0.465684,-0.57604 -0.4083,0 -0.737148,0.27809 v -0.37078 q 0.333262,-0.21188 0.768047,-0.21188 0.796738,0 0.796738,0.84309 z m -0.361953,-1.14324 -0.545137,0.075 q -0.251601,0.0353 -0.379609,0.1258 -0.128008,0.0883 -0.128008,0.31561 0,0.16552 0.116973,0.27146 0.119179,0.10373 0.315605,0.10373 0.269258,0 0.443613,-0.1876 0.176563,-0.1898 0.176563,-0.47892 z" />
          <path
             id="path940"
             style="font-style:normal;font-variant:normal;font-weight:normal;font-stretch:normal;font-size:4.52px;font-family:'Segoe UI';-inkscape-font-specification:'Segoe UI';stroke-width:0.108835"
             d="M 63.138053,269.01959 H 62.7761 v -1.2889 q 0,-0.7195 -0.525274,-0.7195 -0.271465,0 -0.450234,0.20526 -0.176563,0.20304 -0.176563,0.51424 v 1.2889 h -0.361953 v -2.26 h 0.361953 v 0.3752 h 0.0088 q 0.256016,-0.42817 0.741563,-0.42817 0.370781,0 0.567207,0.24057 0.196426,0.23836 0.196426,0.6908 z" />
          <path
             id="path942"
             style="font-style:normal;font-variant:normal;font-weight:normal;font-stretch:normal;font-size:4.52px;font-family:'Segoe UI';-inkscape-font-specification:'Segoe UI';stroke-width:0.108835"
             d="m 64.870573,268.99752 q -0.128008,0.0706 -0.337676,0.0706 -0.593691,0 -0.593691,-0.66211 v -1.33746 h -0.388438 v -0.30899 h 0.388438 v -0.55176 l 0.361953,-0.11697 v 0.66873 h 0.569414 v 0.30899 h -0.569414 v 1.27345 q 0,0.22733 0.07725,0.32444 0.07725,0.0971 0.256016,0.0971 0.136835,0 0.236152,-0.075 z" />
          <path
             id="path944"
             style="font-style:normal;font-variant:normal;font-weight:normal;font-stretch:normal;font-size:4.52px;font-family:'Segoe UI';-inkscape-font-specification:'Segoe UI';stroke-width:0.108835"
             d="m 65.543717,266.18576 q -0.09711,0 -0.165527,-0.0662 -0.06842,-0.0662 -0.06842,-0.16773 0,-0.10152 0.06842,-0.16774 0.06842,-0.0684 0.165527,-0.0684 0.09932,0 0.167735,0.0684 0.07063,0.0662 0.07063,0.16774 0,0.0971 -0.07063,0.16553 -0.06842,0.0684 -0.167735,0.0684 z m 0.176563,2.83383 h -0.361953 v -2.26 h 0.361953 z" />
          <path
             id="path946"
             style="font-style:normal;font-variant:normal;font-weight:normal;font-stretch:normal;font-size:4.52px;font-family:'Segoe UI';-inkscape-font-specification:'Segoe UI';stroke-width:0.108835"
             d="m 68.328991,269.01959 h -0.361953 v -1.2889 q 0,-0.7195 -0.525274,-0.7195 -0.271465,0 -0.450234,0.20526 -0.176563,0.20304 -0.176563,0.51424 v 1.2889 h -0.361953 v -2.26 h 0.361953 v 0.3752 h 0.0088 q 0.256016,-0.42817 0.741563,-0.42817 0.370781,0 0.567207,0.24057 0.196426,0.23836 0.196426,0.6908 z" />
          <path
             id="path948"
             style="font-style:normal;font-variant:normal;font-weight:normal;font-stretch:normal;font-size:4.52px;font-family:'Segoe UI';-inkscape-font-specification:'Segoe UI';stroke-width:0.108835"
             d="m 68.876334,268.93793 v -0.38844 q 0.295742,0.2185 0.651074,0.2185 0.476719,0 0.476719,-0.31781 0,-0.0905 -0.04193,-0.15229 -0.03973,-0.064 -0.110352,-0.11256 -0.06842,-0.0486 -0.16332,-0.0861 -0.0927,-0.0397 -0.20084,-0.0817 -0.150078,-0.0596 -0.264844,-0.11918 -0.112559,-0.0618 -0.189805,-0.13684 -0.07504,-0.0772 -0.114765,-0.17435 -0.03752,-0.0971 -0.03752,-0.22733 0,-0.1589 0.07283,-0.28029 0.07283,-0.12359 0.194219,-0.20525 0.121387,-0.0839 0.275879,-0.1258 0.156699,-0.0419 0.322226,-0.0419 0.293536,0 0.525274,0.10153 v 0.36636 q -0.249395,-0.16332 -0.573828,-0.16332 -0.101524,0 -0.183184,0.0243 -0.08166,0.0221 -0.14125,0.064 -0.05738,0.0419 -0.09049,0.10152 -0.0309,0.0574 -0.0309,0.12801 0,0.0883 0.0309,0.14787 0.03311,0.0596 0.0949,0.10593 0.0618,0.0464 0.150078,0.0839 0.08828,0.0375 0.20084,0.0817 0.150078,0.0574 0.269258,0.11918 0.11918,0.0596 0.203047,0.13684 0.08387,0.075 0.128008,0.17435 0.04635,0.0993 0.04635,0.23616 0,0.16773 -0.07504,0.29132 -0.07283,0.1236 -0.196425,0.20526 -0.123594,0.0817 -0.284708,0.12138 -0.161113,0.0397 -0.337675,0.0397 -0.348711,0 -0.604727,-0.13463 z" />
        </g>
      </g>
      <g
         style="font-style:normal;font-weight:normal;font-size:5.64444px;line-height:1.25;font-family:sans-serif;letter-spacing:-0.264583px;word-spacing:0px;fill:#000000;fill-opacity:1;stroke:none;stroke-width:0.108835"
         id="text2363-1"
         aria-label="Campus
Colinas do
Tocantins">
        <path
           id="path951"
           style="font-style:normal;font-variant:normal;font-weight:normal;font-stretch:normal;font-size:5.64444px;font-family:'Segoe UI';-inkscape-font-specification:'Segoe UI';text-align:center;text-anchor:middle;stroke-width:0.108835"
           d="m 104.67257,261.07411 q -0.43821,0.23151 -1.0914,0.23151 -0.84336,0 -1.35048,-0.54295 -0.50712,-0.54295 -0.50712,-1.42489 0,-0.94809 0.57051,-1.53238 0.57051,-0.58428 1.44694,-0.58428 0.56224,0 0.93155,0.1626 v 0.49334 q -0.42443,-0.23702 -0.93706,-0.23702 -0.68075,0 -1.10519,0.45475 -0.42168,0.45475 -0.42168,1.21543 0,0.72209 0.39412,1.15204 0.39687,0.42719 1.03904,0.42719 0.59531,0 1.03077,-0.26458 z" />
        <path
           id="path953"
           style="font-style:normal;font-variant:normal;font-weight:normal;font-stretch:normal;font-size:5.64444px;font-family:'Segoe UI';-inkscape-font-specification:'Segoe UI';text-align:center;text-anchor:middle;stroke-width:0.108835"
           d="m 107.17233,261.23947 h -0.452 v -0.44097 h -0.011 q -0.2949,0.50712 -0.86816,0.50712 -0.42168,0 -0.66146,-0.22324 -0.23702,-0.22325 -0.23702,-0.59256 0,-0.79099 0.93155,-0.92053 l 0.84611,-0.11851 q 0,-0.71934 -0.58153,-0.71934 -0.50987,0 -0.92053,0.34727 v -0.46302 q 0.41617,-0.26458 0.95912,-0.26458 0.99494,0 0.99494,1.05282 z m -0.452,-1.42765 -0.68075,0.0937 q -0.31419,0.0441 -0.47404,0.1571 -0.15985,0.11024 -0.15985,0.39412 0,0.2067 0.14607,0.33899 0.14883,0.12954 0.39412,0.12954 0.33624,0 0.55397,-0.23427 0.22048,-0.23702 0.22048,-0.59807 z" />
        <path
           id="path955"
           style="font-style:normal;font-variant:normal;font-weight:normal;font-stretch:normal;font-size:5.64444px;font-family:'Segoe UI';-inkscape-font-specification:'Segoe UI';text-align:center;text-anchor:middle;stroke-width:0.108835"
           d="m 111.77222,261.23947 h -0.452 v -1.62057 q 0,-0.46853 -0.14607,-0.67799 -0.14332,-0.20947 -0.48507,-0.20947 -0.28939,0 -0.49334,0.26459 -0.20119,0.26458 -0.20119,0.63389 v 1.60955 h -0.452 v -1.67569 q 0,-0.83234 -0.64216,-0.83234 -0.29766,0 -0.49058,0.25081 -0.19293,0.24804 -0.19293,0.64767 v 1.60955 h -0.45199 v -2.82222 h 0.45199 v 0.44649 h 0.011 q 0.30041,-0.51263 0.87643,-0.51263 0.28939,0 0.50436,0.1626 0.21497,0.15986 0.2949,0.42168 0.31419,-0.58428 0.93707,-0.58428 0.93155,0 0.93155,1.14928 z" />
        <path
           id="path957"
           style="font-style:normal;font-variant:normal;font-weight:normal;font-stretch:normal;font-size:5.64444px;font-family:'Segoe UI';-inkscape-font-specification:'Segoe UI';text-align:center;text-anchor:middle;stroke-width:0.108835"
           d="m 112.82504,260.83157 h -0.011 v 1.70601 h -0.45199 v -4.12033 h 0.45199 v 0.49609 h 0.011 q 0.33348,-0.56223 0.97565,-0.56223 0.5457,0 0.85163,0.38033 0.30592,0.37759 0.30592,1.01424 0,0.70831 -0.34451,1.1355 -0.34451,0.42444 -0.94258,0.42444 -0.54846,0 -0.84611,-0.47405 z m -0.011,-1.13826 v 0.39412 q 0,0.35002 0.226,0.59531 0.22876,0.24254 0.57878,0.24254 0.41065,0 0.64216,-0.31419 0.23427,-0.3142 0.23427,-0.87368 0,-0.47129 -0.21773,-0.73863 -0.21773,-0.26734 -0.5898,-0.26734 -0.39412,0 -0.6339,0.27561 -0.23978,0.27285 -0.23978,0.68626 z" />
        <path
           id="path959"
           style="font-style:normal;font-variant:normal;font-weight:normal;font-stretch:normal;font-size:5.64444px;font-family:'Segoe UI';-inkscape-font-specification:'Segoe UI';text-align:center;text-anchor:middle;stroke-width:0.108835"
           d="m 117.69778,261.23947 h -0.452 v -0.44648 h -0.011 q -0.28112,0.51263 -0.87092,0.51263 -1.00872,0 -1.00872,-1.20165 v -1.68672 h 0.44924 v 1.61506 q 0,0.89297 0.6835,0.89297 0.33073,0 0.54295,-0.24254 0.21497,-0.24529 0.21497,-0.6394 v -1.62609 h 0.452 z" />
        <path
           id="path961"
           style="font-style:normal;font-variant:normal;font-weight:normal;font-stretch:normal;font-size:5.64444px;font-family:'Segoe UI';-inkscape-font-specification:'Segoe UI';text-align:center;text-anchor:middle;stroke-width:0.108835"
           d="m 118.17734,261.1375 v -0.48507 q 0.36931,0.27285 0.81304,0.27285 0.59531,0 0.59531,-0.39688 0,-0.11299 -0.0524,-0.19016 -0.0496,-0.0799 -0.1378,-0.14056 -0.0854,-0.0606 -0.20395,-0.10749 -0.11575,-0.0496 -0.2508,-0.10198 -0.18742,-0.0744 -0.33073,-0.14882 -0.14056,-0.0772 -0.23702,-0.17088 -0.0937,-0.0965 -0.14332,-0.21773 -0.0468,-0.12127 -0.0468,-0.28388 0,-0.19843 0.0909,-0.35002 0.091,-0.15434 0.24253,-0.25631 0.15159,-0.10473 0.34451,-0.1571 0.19568,-0.0524 0.40239,-0.0524 0.36656,0 0.65594,0.12677 v 0.45751 q -0.31143,-0.20395 -0.71657,-0.20395 -0.12678,0 -0.22876,0.0303 -0.10197,0.0276 -0.17639,0.0799 -0.0717,0.0524 -0.113,0.12678 -0.0386,0.0716 -0.0386,0.15985 0,0.11024 0.0386,0.18466 0.0413,0.0744 0.11851,0.13229 0.0772,0.0579 0.18742,0.10473 0.11024,0.0469 0.2508,0.10197 0.18741,0.0717 0.33624,0.14883 0.14883,0.0744 0.25356,0.17088 0.10473,0.0937 0.15985,0.21773 0.0579,0.12402 0.0579,0.2949 0,0.20946 -0.0937,0.3638 -0.0909,0.15434 -0.24529,0.25631 -0.15434,0.10198 -0.35553,0.15159 -0.20119,0.0496 -0.42168,0.0496 -0.43546,0 -0.75516,-0.16812 z" />
        <path
           id="path963"
           style="font-style:normal;font-variant:normal;font-weight:normal;font-stretch:normal;font-size:5.64444px;font-family:'Segoe UI';-inkscape-font-specification:'Segoe UI';text-align:center;text-anchor:middle;stroke-width:0.108835"
           d="m 102.18108,268.21991 q -0.43822,0.23151 -1.09141,0.23151 -0.84335,0 -1.350472,-0.54295 -0.507118,-0.54295 -0.507118,-1.42489 0,-0.94809 0.570508,-1.53238 0.570512,-0.58429 1.446942,-0.58429 0.56224,0 0.93155,0.16261 v 0.49334 q -0.42444,-0.23702 -0.93707,-0.23702 -0.68075,0 -1.10518,0.45475 -0.42168,0.45475 -0.42168,1.21543 0,0.72209 0.39412,1.15204 0.39687,0.42719 1.03904,0.42719 0.59531,0 1.03077,-0.26459 z" />
        <path
           id="path965"
           style="font-style:normal;font-variant:normal;font-weight:normal;font-stretch:normal;font-size:5.64444px;font-family:'Segoe UI';-inkscape-font-specification:'Segoe UI';text-align:center;text-anchor:middle;stroke-width:0.108835"
           d="m 103.84024,268.45142 q -0.62563,0 -1.00046,-0.39412 -0.37207,-0.39688 -0.37207,-1.05007 0,-0.71106 0.38861,-1.1107 0.3886,-0.39963 1.05006,-0.39963 0.63114,0 0.98392,0.38861 0.35553,0.38861 0.35553,1.07763 0,0.67523 -0.38309,1.08313 -0.38034,0.40515 -1.0225,0.40515 z m 0.0331,-2.57418 q -0.43546,0 -0.68902,0.29766 -0.25356,0.2949 -0.25356,0.8158 0,0.5016 0.25632,0.79099 0.25631,0.28939 0.68626,0.28939 0.43822,0 0.67248,-0.28388 0.23702,-0.28387 0.23702,-0.80753 0,-0.52916 -0.23702,-0.8158 -0.23426,-0.28663 -0.67248,-0.28663 z" />
        <path
           id="path967"
           style="font-style:normal;font-variant:normal;font-weight:normal;font-stretch:normal;font-size:5.64444px;font-family:'Segoe UI';-inkscape-font-specification:'Segoe UI';text-align:center;text-anchor:middle;stroke-width:0.108835"
           d="m 106.15534,268.38527 h -0.452 v -4.17821 h 0.452 z" />
        <path
           id="path969"
           style="font-style:normal;font-variant:normal;font-weight:normal;font-stretch:normal;font-size:5.64444px;font-family:'Segoe UI';-inkscape-font-specification:'Segoe UI';text-align:center;text-anchor:middle;stroke-width:0.108835"
           d="m 107.03728,264.84647 q -0.12126,0 -0.2067,-0.0827 -0.0854,-0.0827 -0.0854,-0.20946 0,-0.12678 0.0854,-0.20947 0.0854,-0.0854 0.2067,-0.0854 0.12403,0 0.20946,0.0854 0.0882,0.0827 0.0882,0.20947 0,0.12126 -0.0882,0.2067 -0.0854,0.0854 -0.20946,0.0854 z m 0.22049,3.5388 h -0.452 v -2.82222 h 0.452 z" />
        <path
           id="path971"
           style="font-style:normal;font-variant:normal;font-weight:normal;font-stretch:normal;font-size:5.64444px;font-family:'Segoe UI';-inkscape-font-specification:'Segoe UI';text-align:center;text-anchor:middle;stroke-width:0.108835"
           d="m 110.25087,268.38527 h -0.452 v -1.60955 q 0,-0.89848 -0.65595,-0.89848 -0.33899,0 -0.56224,0.25632 -0.22048,0.25356 -0.22048,0.64216 v 1.60955 h -0.452 v -2.82222 h 0.452 v 0.46853 h 0.011 q 0.31971,-0.53468 0.92604,-0.53468 0.46302,0 0.70832,0.30042 0.24529,0.29765 0.24529,0.86265 z" />
        <path
           id="path973"
           style="font-style:normal;font-variant:normal;font-weight:normal;font-stretch:normal;font-size:5.64444px;font-family:'Segoe UI';-inkscape-font-specification:'Segoe UI';text-align:center;text-anchor:middle;stroke-width:0.108835"
           d="m 112.86087,268.38527 h -0.452 v -0.44097 h -0.011 q -0.2949,0.50712 -0.86817,0.50712 -0.42167,0 -0.66145,-0.22325 -0.23703,-0.22324 -0.23703,-0.59255 0,-0.791 0.93156,-0.92053 l 0.84611,-0.11851 q 0,-0.71934 -0.58153,-0.71934 -0.50987,0 -0.92053,0.34727 v -0.46302 q 0.41617,-0.26459 0.95912,-0.26459 0.99494,0 0.99494,1.05282 z m -0.452,-1.42765 -0.68075,0.0937 q -0.31419,0.0441 -0.47404,0.1571 -0.15985,0.11024 -0.15985,0.39411 0,0.20671 0.14607,0.339 0.14883,0.12954 0.39412,0.12954 0.33624,0 0.55397,-0.23427 0.22048,-0.23702 0.22048,-0.59807 z" />
        <path
           id="path975"
           style="font-style:normal;font-variant:normal;font-weight:normal;font-stretch:normal;font-size:5.64444px;font-family:'Segoe UI';-inkscape-font-specification:'Segoe UI';text-align:center;text-anchor:middle;stroke-width:0.108835"
           d="m 113.28255,268.28329 v -0.48506 q 0.36931,0.27285 0.81304,0.27285 0.59531,0 0.59531,-0.39688 0,-0.113 -0.0524,-0.19017 -0.0496,-0.0799 -0.13781,-0.14056 -0.0854,-0.0606 -0.20395,-0.10748 -0.11575,-0.0496 -0.2508,-0.10198 -0.18741,-0.0744 -0.33073,-0.14883 -0.14056,-0.0772 -0.23702,-0.17087 -0.0937,-0.0965 -0.14332,-0.21773 -0.0468,-0.12127 -0.0468,-0.28388 0,-0.19844 0.0909,-0.35002 0.091,-0.15434 0.24254,-0.25631 0.15158,-0.10474 0.3445,-0.1571 0.19569,-0.0524 0.40239,-0.0524 0.36656,0 0.65595,0.12678 v 0.45751 q -0.31144,-0.20395 -0.71658,-0.20395 -0.12678,0 -0.22876,0.0303 -0.10197,0.0276 -0.17638,0.0799 -0.0717,0.0524 -0.113,0.12678 -0.0386,0.0717 -0.0386,0.15986 0,0.11024 0.0386,0.18465 0.0413,0.0744 0.11851,0.1323 0.0772,0.0579 0.18741,0.10473 0.11024,0.0469 0.2508,0.10197 0.18742,0.0717 0.33624,0.14883 0.14883,0.0744 0.25356,0.17088 0.10473,0.0937 0.15986,0.21773 0.0579,0.12402 0.0579,0.2949 0,0.20946 -0.0937,0.3638 -0.091,0.15434 -0.24529,0.25631 -0.15434,0.10198 -0.35554,0.15159 -0.20119,0.0496 -0.42168,0.0496 -0.43546,0 -0.75516,-0.16813 z" />
        <path
           id="path977"
           style="font-style:normal;font-variant:normal;font-weight:normal;font-stretch:normal;font-size:5.64444px;font-family:'Segoe UI';-inkscape-font-specification:'Segoe UI';text-align:center;text-anchor:middle;stroke-width:0.108835"
           d="m 119.26874,268.38527 h -0.45199 v -0.47956 h -0.011 q -0.31419,0.54571 -0.97014,0.54571 -0.53192,0 -0.85162,-0.37759 -0.31695,-0.38034 -0.31695,-1.03352 0,-0.70005 0.35277,-1.12173 0.35278,-0.42168 0.93983,-0.42168 0.58153,0 0.84611,0.45751 h 0.011 v -1.74735 h 0.45199 z m -0.45199,-1.27606 v -0.41617 q 0,-0.34175 -0.226,-0.57878 -0.226,-0.23702 -0.57327,-0.23702 -0.41341,0 -0.65043,0.30317 -0.23702,0.30317 -0.23702,0.83785 0,0.48782 0.226,0.7717 0.22875,0.28112 0.61184,0.28112 0.37759,0 0.61185,-0.27285 0.23703,-0.27286 0.23703,-0.68902 z" />
        <path
           id="path979"
           style="font-style:normal;font-variant:normal;font-weight:normal;font-stretch:normal;font-size:5.64444px;font-family:'Segoe UI';-inkscape-font-specification:'Segoe UI';text-align:center;text-anchor:middle;stroke-width:0.108835"
           d="m 121.10429,268.45142 q -0.62563,0 -1.00046,-0.39412 -0.37207,-0.39688 -0.37207,-1.05007 0,-0.71106 0.38861,-1.1107 0.3886,-0.39963 1.05006,-0.39963 0.63114,0 0.98392,0.38861 0.35553,0.38861 0.35553,1.07763 0,0.67523 -0.38309,1.08313 -0.38034,0.40515 -1.0225,0.40515 z m 0.0331,-2.57418 q -0.43546,0 -0.68902,0.29766 -0.25356,0.2949 -0.25356,0.8158 0,0.5016 0.25632,0.79099 0.25631,0.28939 0.68626,0.28939 0.43822,0 0.67248,-0.28388 0.23702,-0.28387 0.23702,-0.80753 0,-0.52916 -0.23702,-0.8158 -0.23426,-0.28663 -0.67248,-0.28663 z" />
        <path
           id="path981"
           style="font-style:normal;font-variant:normal;font-weight:normal;font-stretch:normal;font-size:5.64444px;font-family:'Segoe UI';-inkscape-font-specification:'Segoe UI';text-align:center;text-anchor:middle;stroke-width:0.108835"
           d="m 103.01893,271.99778 h -1.14102 v 3.53329 h -0.46302 v -3.53329 h -1.13826 v -0.41892 h 2.7423 z" />
        <path
           id="path983"
           style="font-style:normal;font-variant:normal;font-weight:normal;font-stretch:normal;font-size:5.64444px;font-family:'Segoe UI';-inkscape-font-specification:'Segoe UI';text-align:center;text-anchor:middle;stroke-width:0.108835"
           d="m 103.93946,275.59721 q -0.62563,0 -1.00046,-0.39412 -0.37207,-0.39687 -0.37207,-1.05006 0,-0.71107 0.38861,-1.1107 0.3886,-0.39963 1.05006,-0.39963 0.63114,0 0.98392,0.38861 0.35553,0.3886 0.35553,1.07762 0,0.67524 -0.38309,1.08314 -0.38034,0.40514 -1.0225,0.40514 z m 0.0331,-2.57417 q -0.43546,0 -0.68902,0.29766 -0.25356,0.2949 -0.25356,0.81579 0,0.50161 0.25632,0.791 0.25631,0.28939 0.68626,0.28939 0.43821,0 0.67248,-0.28388 0.23702,-0.28388 0.23702,-0.80753 0,-0.52917 -0.23702,-0.8158 -0.23427,-0.28663 -0.67248,-0.28663 z" />
        <path
           id="path985"
           style="font-style:normal;font-variant:normal;font-weight:normal;font-stretch:normal;font-size:5.64444px;font-family:'Segoe UI';-inkscape-font-specification:'Segoe UI';text-align:center;text-anchor:middle;stroke-width:0.108835"
           d="m 107.7263,275.40153 q -0.32522,0.19568 -0.7717,0.19568 -0.60358,0 -0.97565,-0.39136 -0.36931,-0.39412 -0.36931,-1.01975 0,-0.69728 0.39963,-1.11896 0.39963,-0.42444 1.0666,-0.42444 0.37207,0 0.65594,0.13781 v 0.46302 q -0.31419,-0.22049 -0.67248,-0.22049 -0.4327,0 -0.71107,0.31144 -0.2756,0.30868 -0.2756,0.81304 0,0.49609 0.25907,0.78272 0.26183,0.28664 0.70004,0.28664 0.36931,0 0.69453,-0.2453 z" />
        <path
           id="path987"
           style="font-style:normal;font-variant:normal;font-weight:normal;font-stretch:normal;font-size:5.64444px;font-family:'Segoe UI';-inkscape-font-specification:'Segoe UI';text-align:center;text-anchor:middle;stroke-width:0.108835"
           d="m 110.17094,275.53107 h -0.452 v -0.44097 h -0.011 q -0.2949,0.50711 -0.86816,0.50711 -0.42168,0 -0.66146,-0.22324 -0.23702,-0.22324 -0.23702,-0.59255 0,-0.791 0.93155,-0.92053 l 0.84611,-0.11851 q 0,-0.71934 -0.58153,-0.71934 -0.50987,0 -0.92053,0.34727 v -0.46303 q 0.41617,-0.26458 0.95912,-0.26458 0.99494,0 0.99494,1.05282 z m -0.452,-1.42765 -0.68075,0.0937 q -0.31419,0.0441 -0.47404,0.15709 -0.15985,0.11025 -0.15985,0.39412 0,0.20671 0.14607,0.339 0.14883,0.12954 0.39412,0.12954 0.33624,0 0.55397,-0.23427 0.22048,-0.23702 0.22048,-0.59807 z" />
        <path
           id="path989"
           style="font-style:normal;font-variant:normal;font-weight:normal;font-stretch:normal;font-size:5.64444px;font-family:'Segoe UI';-inkscape-font-specification:'Segoe UI';text-align:center;text-anchor:middle;stroke-width:0.108835"
           d="m 113.10616,275.53107 h -0.452 v -1.60955 q 0,-0.89848 -0.65594,-0.89848 -0.339,0 -0.56224,0.25631 -0.22049,0.25356 -0.22049,0.64217 v 1.60955 h -0.45199 v -2.82222 h 0.45199 v 0.46853 h 0.011 q 0.3197,-0.53468 0.92604,-0.53468 0.46302,0 0.70831,0.30041 0.24529,0.29766 0.24529,0.86265 z" />
        <path
           id="path991"
           style="font-style:normal;font-variant:normal;font-weight:normal;font-stretch:normal;font-size:5.64444px;font-family:'Segoe UI';-inkscape-font-specification:'Segoe UI';text-align:center;text-anchor:middle;stroke-width:0.108835"
           d="m 115.00509,275.50351 q -0.15985,0.0882 -0.42168,0.0882 -0.74138,0 -0.74138,-0.82682 v -1.67018 h -0.48507 v -0.38585 h 0.48507 v -0.68902 l 0.452,-0.14607 v 0.83509 h 0.71106 v 0.38585 h -0.71106 v 1.59025 q 0,0.28388 0.0965,0.40515 0.0965,0.12126 0.3197,0.12126 0.17088,0 0.2949,-0.0937 z" />
        <path
           id="path993"
           style="font-style:normal;font-variant:normal;font-weight:normal;font-stretch:normal;font-size:5.64444px;font-family:'Segoe UI';-inkscape-font-specification:'Segoe UI';text-align:center;text-anchor:middle;stroke-width:0.108835"
           d="m 115.58111,271.99227 q -0.12126,0 -0.2067,-0.0827 -0.0854,-0.0827 -0.0854,-0.20947 0,-0.12678 0.0854,-0.20946 0.0854,-0.0854 0.2067,-0.0854 0.12403,0 0.20947,0.0854 0.0882,0.0827 0.0882,0.20946 0,0.12127 -0.0882,0.20671 -0.0854,0.0854 -0.20947,0.0854 z m 0.22049,3.5388 h -0.452 v -2.82222 h 0.452 z" />
        <path
           id="path995"
           style="font-style:normal;font-variant:normal;font-weight:normal;font-stretch:normal;font-size:5.64444px;font-family:'Segoe UI';-inkscape-font-specification:'Segoe UI';text-align:center;text-anchor:middle;stroke-width:0.108835"
           d="m 118.7947,275.53107 h -0.452 v -1.60955 q 0,-0.89848 -0.65595,-0.89848 -0.33899,0 -0.56223,0.25631 -0.22049,0.25356 -0.22049,0.64217 v 1.60955 h -0.452 v -2.82222 h 0.452 v 0.46853 h 0.011 q 0.31971,-0.53468 0.92605,-0.53468 0.46302,0 0.70831,0.30041 0.24529,0.29766 0.24529,0.86265 z" />
        <path
           id="path997"
           style="font-style:normal;font-variant:normal;font-weight:normal;font-stretch:normal;font-size:5.64444px;font-family:'Segoe UI';-inkscape-font-specification:'Segoe UI';text-align:center;text-anchor:middle;stroke-width:0.108835"
           d="m 119.21362,275.42909 v -0.48507 q 0.36931,0.27286 0.81304,0.27286 0.59531,0 0.59531,-0.39688 0,-0.113 -0.0524,-0.19017 -0.0496,-0.0799 -0.1378,-0.14056 -0.0854,-0.0606 -0.20395,-0.10749 -0.11576,-0.0496 -0.25081,-0.10197 -0.18741,-0.0744 -0.33073,-0.14883 -0.14056,-0.0772 -0.23702,-0.17087 -0.0937,-0.0965 -0.14331,-0.21773 -0.0469,-0.12127 -0.0469,-0.28388 0,-0.19844 0.0909,-0.35002 0.091,-0.15434 0.24254,-0.25632 0.15158,-0.10473 0.34451,-0.15709 0.19568,-0.0524 0.40238,-0.0524 0.36656,0 0.65595,0.12678 v 0.45751 q -0.31144,-0.20395 -0.71658,-0.20395 -0.12678,0 -0.22875,0.0303 -0.10198,0.0276 -0.17639,0.0799 -0.0717,0.0524 -0.113,0.12678 -0.0386,0.0717 -0.0386,0.15985 0,0.11025 0.0386,0.18466 0.0413,0.0744 0.11851,0.13229 0.0772,0.0579 0.18741,0.10473 0.11025,0.0469 0.25081,0.10198 0.18741,0.0717 0.33624,0.14883 0.14882,0.0744 0.25356,0.17087 0.10473,0.0937 0.15985,0.21773 0.0579,0.12403 0.0579,0.2949 0,0.20946 -0.0937,0.3638 -0.091,0.15435 -0.24529,0.25632 -0.15434,0.10197 -0.35554,0.15158 -0.20119,0.0496 -0.42167,0.0496 -0.43546,0 -0.75517,-0.16812 z" />
      </g>
      <path
         d="m 94.720329,256.7052 h 0.09329 v 19.40787 h -0.09329 z"
         style="fill:#00ff00;fill-opacity:1;fill-rule:evenodd;stroke:#71c837;stroke-width:0.43588;stroke-opacity:1;paint-order:markers fill stroke"
         id="rect2436" />
    </g>
  </g>
</svg>
