<?xml version="1.0" encoding="UTF-8" standalone="no"?>
<svg
   xmlns:dc="http://purl.org/dc/elements/1.1/"
   xmlns:cc="http://creativecommons.org/ns#"
   xmlns:rdf="http://www.w3.org/1999/02/22-rdf-syntax-ns#"
   xmlns:svg="http://www.w3.org/2000/svg"
   xmlns="http://www.w3.org/2000/svg"
   xmlns:sodipodi="http://sodipodi.sourceforge.net/DTD/sodipodi-0.dtd"
   xmlns:inkscape="http://www.inkscape.org/namespaces/inkscape"
   inkscape:export-ydpi="1000"
   inkscape:export-xdpi="1000"
   inkscape:export-filename="C:\Users\arauj\Downloads\bitmap.png"
   sodipodi:docname="certificadoAssunta.svg"
   inkscape:version="1.0 (4035a4fb49, 2020-05-01)"
   id="svg8"
   version="1.1"
   viewBox="0 0 508 285.75"
   height="1080"
   width="1920">
  <defs
     id="defs2">
    <rect
       id="rect1597"
       height="31.75"
       width="6.8791666"
       y="90.4875"
       x="313.79583" />
  </defs>
  <sodipodi:namedview
     inkscape:window-maximized="1"
     inkscape:window-y="-11"
     inkscape:window-x="-11"
     inkscape:window-height="1346"
     inkscape:window-width="2160"
     units="px"
     showgrid="false"
     inkscape:document-rotation="0"
     inkscape:current-layer="layer1"
     inkscape:document-units="px"
     inkscape:cy="626.57906"
     inkscape:cx="666.39957"
     inkscape:zoom="0.70710678"
     inkscape:pageshadow="2"
     inkscape:pageopacity="0.0"
     borderopacity="1.0"
     bordercolor="#666666"
     pagecolor="#ffffff"
     id="base" />
  <metadata
     id="metadata5">
    <rdf:RDF>
      <cc:Work
         rdf:about="">
        <dc:format>image/svg+xml</dc:format>
        <dc:type
           rdf:resource="http://purl.org/dc/dcmitype/StillImage" />
        <dc:title></dc:title>
      </cc:Work>
    </rdf:RDF>
  </metadata>
  <g
     id="layer1"
     inkscape:groupmode="layer"
     inkscape:label="Layer 1">
    <rect
       y="0.22135849"
       x="222.47136"
       height="285.30728"
       width="285.30728"
       id="rect833"
       style="fill:#0000ff;fill-rule:evenodd;stroke:#0000ff;stroke-width:0.442717;stroke-opacity:1;paint-order:markers fill stroke" />
    <g
       transform="translate(108.66315,-67.825852)"
       id="g1563">
      <g
         id="g12"
         style="fill:#0000ff"
         transform="matrix(0.12710241,0,0,0.1310149,-61.327817,144.95249)">
        <path
           d="m 827.7,555.1 c 0,50.8 -39.1,92.3 -86.8,92.3 h -644 c -47.7,0 -86.8,-41.5 -86.8,-92.3 V 102.3 C 10,51.5 49.1,10 96.8,10 h 644 c 47.8,0 86.8,41.5 86.8,92.3 z"
           id="path4"
           style="fill:#0000ff" />
        <path
           d="m 191.8,826.2 c -33,33.8 -38.3,5.3 -38.3,-27.3 V 610.8 C 165.7,562 258.2,533.6 300.7,547.7 l 45.9,15.2 c 42.5,14.1 50.3,53.2 17.3,87 z"
           id="path6"
           style="fill:#0000ff" />
        <path
           d="m 877.8,142.5 c -17.4,-18.5 -18.1,15.7 -18.1,15.7 v 422.3 c 0,53.9 -41.5,98 -92.1,98 H 417.9 c 0,0 -17.1,-0.6 -27.8,10.7 -11.6,14.7 -63.9,70.8 -77.3,89.5 -13.4,18.7 12,16.9 12,16.9 h 578.3 c 47.8,0 86.8,-41.5 86.8,-92.3 0,0 0,-406.7 0,-415.3 0,-8.6 -1.6,-26.8 -11.2,-37.1 -9.6,-10.3 -81,-87.2 -100.9,-108.4 z"
           id="path8"
           style="fill:#800080" />
        <path
           d="m 789.4,974.8 c 33,33.8 38.3,5.3 38.3,-27.2 V 759.5 C 815.5,710.7 722.9,682.3 680.5,696.3 l -45.9,15.1 c -42.5,14.1 -50.3,53.2 -17.3,87 z"
           id="path10"
           style="fill:#800080" />
      </g>
      <g
         aria-label="projeto ASSUNTA! "
         id="text22"
         style="font-style:normal;font-weight:normal;font-size:139.356px;line-height:1.25;font-family:sans-serif;letter-spacing:10px;fill:#ffffff;fill-opacity:1;stroke:none;stroke-width:3.4839"
         transform="matrix(0.12710241,0,0,0.1310149,-61.327817,144.95249)">
        <path
           d="m 178.77664,303.69608 q -5.85186,0 -12.31613,-1.3609 l -0.068,27.76233 q 0,3.9466 -2.65375,6.53231 -2.65375,2.58571 -6.73645,2.58571 -4.08269,0 -6.73644,-2.58571 -2.65375,-2.58571 -2.65375,-6.53231 0,-3.19811 0.13609,-25.38076 0.13608,-16.46687 0,-26.87774 -0.20414,-14.69771 -0.95263,-25.31271 -1.02068,-14.62966 -1.02068,-13.40485 0,-5.64773 2.51766,-9.66238 2.92594,-4.55901 7.89322,-4.55901 3.81051,0 6.39622,2.5857 2.58571,2.58571 2.58571,6.19209 l -0.068,0.68045 q 4.55901,-2.58571 9.11802,-3.81052 4.62706,-1.29285 9.25411,-1.29285 15.65033,0 22.86309,13.26876 5.37555,10.00261 5.37555,25.92512 0,14.90184 -8.50561,24.7003 -9.11802,10.54697 -24.42813,10.54697 z m 4.6951,-56.27315 q -4.28683,0 -8.70975,2.04134 -4.42292,1.97331 -8.91389,5.98796 0.81654,14.01725 0.81654,28.10255 6.056,1.9733 12.112,1.9733 7.00863,0 10.7511,-4.96728 3.40224,-4.49096 3.40224,-12.11199 0,-9.18607 -0.81653,-12.7244 -1.97331,-8.30148 -8.64171,-8.30148 z"
           style="font-style:normal;font-variant:normal;font-weight:bold;font-stretch:normal;font-family:'Comic Sans MS';-inkscape-font-specification:'Comic Sans MS Bold';text-align:center;word-spacing:0.24px;text-anchor:middle;fill:#ffffff;stroke-width:3.4839"
           id="path841" />
        <path
           d="m 288.93876,250.62104 q -0.6124,10.41087 -9.45824,10.41087 -8.57366,0 -8.57366,-8.84584 l -0.34023,-6.87254 q -15.3101,2.44962 -21.91046,15.71838 l 0.068,34.2266 q 0,3.87856 -2.65375,6.39622 -2.65375,2.58571 -6.73645,2.58571 -4.21878,0 -6.53231,-2.7218 -2.17744,-2.44962 -2.17744,-6.26013 v -44.56943 q 0,-2.10939 0.13609,-6.26013 0.13609,-4.21879 0.13609,-6.32818 0,-3.81051 2.24549,-6.32818 2.31352,-2.5857 6.53231,-2.5857 7.55299,0 8.98193,7.75712 12.04395,-8.98193 26.74165,-8.98193 13.60899,0 13.60899,18.09995 0,3.47029 -0.068,4.55901 z"
           style="font-style:normal;font-variant:normal;font-weight:bold;font-stretch:normal;font-family:'Comic Sans MS';-inkscape-font-specification:'Comic Sans MS Bold';text-align:center;word-spacing:0.24px;text-anchor:middle;fill:#ffffff;stroke-width:3.4839"
           id="path843" />
        <path
           d="m 336.90784,303.69608 q -12.58831,0 -21.63828,-8.64171 -9.93456,-9.45824 -10.41088,-25.24466 -0.47631,-15.03793 8.23344,-26.8097 10.34283,-13.88117 28.783,-13.88117 13.60899,0 21.63829,10.88719 7.21276,9.79847 7.21276,24.29204 0,15.78642 -8.43757,26.94579 -9.45825,12.45222 -25.38076,12.45222 z m 4.0827,-56.61338 q -8.36953,-0.068 -13.20072,7.62103 -4.08269,6.46427 -4.08269,15.10598 0,8.16539 4.62705,12.52026 3.67443,3.47029 8.57366,3.47029 5.91991,0 10.27478,-4.01465 4.96728,-4.6951 5.30751,-12.7244 0.88458,-21.91046 -11.49959,-21.97851 z"
           style="font-style:normal;font-variant:normal;font-weight:bold;font-stretch:normal;font-family:'Comic Sans MS';-inkscape-font-specification:'Comic Sans MS Bold';text-align:center;word-spacing:0.24px;text-anchor:middle;fill:#ffffff;stroke-width:3.4839"
           id="path845" />
        <path
           d="m 416.92607,218.23165 q -4.35488,0 -7.55299,-2.92593 -3.13006,-2.92593 -3.13006,-7.21276 0,-4.28683 3.13006,-7.21276 3.19811,-2.99398 7.55299,-2.99398 4.35487,0 7.55299,2.99398 3.19811,2.92593 3.19811,7.21276 0,4.28683 -3.19811,7.21276 -3.19812,2.92593 -7.55299,2.92593 z m -3.26616,94.17418 q 0,-7.14472 -2.31352,-37.69689 -2.31353,-30.55217 -2.31353,-36.26794 0,-4.0827 2.38157,-7.34886 2.78984,-3.67442 7.21276,-3.67442 3.13007,0 6.26013,2.10939 3.40225,2.31353 3.53834,5.30751 0.81654,12.99658 2.24548,37.76493 1.83722,33.00179 1.83722,40.48673 0,9.86651 -6.19209,18.09995 -6.87254,9.11802 -17.07928,9.11802 -16.46687,0 -27.01383,-23.27137 -1.02068,-2.24548 -1.02068,-4.21878 0,-3.74247 2.99398,-6.46427 2.92593,-2.51766 6.73645,-2.51766 4.35487,0 7.68907,4.6951 2.44962,4.35487 4.96728,8.77779 2.7218,4.6951 5.64773,4.6951 3.53834,0 4.42292,-9.59433 z"
           style="font-style:normal;font-variant:normal;font-weight:bold;font-stretch:normal;font-family:'Comic Sans MS';-inkscape-font-specification:'Comic Sans MS Bold';text-align:center;word-spacing:0.24px;text-anchor:middle;fill:#ffffff;stroke-width:3.4839"
           id="path847" />
        <path
           d="m 492.7255,302.81149 q -16.26274,0 -26.60557,-7.75712 -11.43154,-8.57366 -11.43154,-24.15595 0,-17.21536 9.04997,-29.12322 10.07065,-13.20072 27.14993,-13.20072 11.83981,0 19.66498,3.81052 10.27478,5.03532 10.27478,15.65033 0,7.48494 -8.36952,13.26876 -3.81052,2.65375 -15.31011,7.75712 l -22.93114,10.1387 q 3.26616,3.53833 7.89321,5.3075 4.62706,1.76917 10.61501,1.76917 9.11802,0 15.4462,-3.74247 5.64773,-3.3342 9.04997,-3.3342 7.07667,0 7.07667,6.87253 0,7.75712 -11.3635,12.65636 -9.52629,4.08269 -20.20934,4.08269 z m -1.83721,-57.77014 q -6.32818,0 -10.81915,4.21879 -4.49096,4.21878 -7.21276,12.65635 7.68908,-3.3342 15.31011,-6.60035 9.18606,-4.15074 14.62966,-7.68908 -4.55901,-2.58571 -11.90786,-2.58571 z"
           style="font-style:normal;font-variant:normal;font-weight:bold;font-stretch:normal;font-family:'Comic Sans MS';-inkscape-font-specification:'Comic Sans MS Bold';text-align:center;word-spacing:0.24px;text-anchor:middle;fill:#ffffff;stroke-width:3.4839"
           id="path849" />
        <path
           d="m 594.31396,244.90526 q -1.42895,0 -3.40225,-0.068 -1.90526,-0.13609 -3.3342,-0.13609 -2.78984,0 -6.46427,0.54436 1.22481,27.49015 1.22481,35.92772 0,0.88458 0.0681,3.3342 0.068,2.38157 0.068,3.87856 0,15.65033 -9.86651,15.65033 -3.74247,0 -6.46427,-2.31353 -2.99398,-2.44961 -2.99398,-6.12404 0,-2.44962 0.20414,-7.34885 0.20413,-4.89923 0.20413,-7.34885 0,-8.23344 -1.22481,-35.24727 -4.21878,-0.20414 -12.79244,-1.08872 -8.50562,-0.95263 -8.50562,-8.84584 0,-3.81052 2.58571,-6.46427 2.58571,-2.65375 6.6684,-2.65375 2.51766,0 11.56764,0.81654 -0.068,-2.17744 -0.34022,-7.21276 -0.27218,-4.35488 -0.27218,-6.73645 0,-3.81052 2.78984,-6.32818 2.78984,-2.51766 6.73644,-2.51766 10.07065,0 10.07065,16.94319 l -0.13609,5.57968 q 4.21879,-0.61241 6.87254,-0.61241 7.82517,0 10.68305,1.02068 5.4436,1.90526 5.4436,8.30148 0,3.87856 -2.65375,6.46427 -2.65376,2.5857 -6.73645,2.5857 z"
           style="font-style:normal;font-variant:normal;font-weight:bold;font-stretch:normal;font-family:'Comic Sans MS';-inkscape-font-specification:'Comic Sans MS Bold';text-align:center;word-spacing:0.24px;text-anchor:middle;fill:#ffffff;stroke-width:3.4839"
           id="path851" />
        <path
           d="m 649.90406,303.69608 q -12.58831,0 -21.63829,-8.64171 -9.93456,-9.45824 -10.41087,-25.24466 -0.47632,-15.03793 8.23343,-26.8097 10.34283,-13.88117 28.78301,-13.88117 13.60898,0 21.63828,10.88719 7.21276,9.79847 7.21276,24.29204 0,15.78642 -8.43757,26.94579 -9.45824,12.45222 -25.38075,12.45222 z m 4.08269,-56.61338 q -8.36952,-0.068 -13.20071,7.62103 -4.0827,6.46427 -4.0827,15.10598 0,8.16539 4.62706,12.52026 3.67442,3.47029 8.57366,3.47029 5.91991,0 10.27478,-4.01465 4.96728,-4.6951 5.3075,-12.7244 0.88459,-21.91046 -11.49959,-21.97851 z"
           style="font-style:normal;font-variant:normal;font-weight:bold;font-stretch:normal;font-family:'Comic Sans MS';-inkscape-font-specification:'Comic Sans MS Bold';text-align:center;word-spacing:0.24px;text-anchor:middle;fill:#ffffff;stroke-width:3.4839"
           id="path853" />
        <path
           d="m 94.844529,478.13304 q -6.260133,0 -10.887188,-16.0586 -1.769168,-6.12405 -4.42292,-21.43415 -6.940582,0.95263 -18.167994,3.40224 l -18.09995,3.74247 q -3.402246,8.91389 -11.635682,26.06121 -2.177437,3.81051 -5.919908,3.81051 -2.721797,0 -4.899234,-1.9733 -2.109393,-1.9733 -2.109393,-4.89923 0,-3.26616 10.274783,-24.8364 -1.156763,-1.76917 -1.156763,-4.0827 0,-5.51163 6.668402,-7.07667 7.757122,-14.56161 19.596938,-33.4781 16.126647,-25.78903 20.073253,-25.78903 5.375548,0 7.348851,7.48495 l 4.28683,22.86309 10.138694,47.29122 3.878561,10.7511 q 1.973301,5.51164 1.973301,7.34885 0,2.92593 -2.109391,4.89924 -2.109393,1.9733 -4.83119,1.9733 z M 70.824671,400.35769 51.363823,431.7264 q 8.233436,-2.10939 24.972487,-5.10337 z"
           style="font-style:normal;font-variant:normal;font-weight:normal;font-stretch:normal;font-family:'Comic Sans MS';-inkscape-font-specification:'Comic Sans MS';text-align:center;word-spacing:0.24px;text-anchor:middle;fill:#ffffff;stroke-width:3.4839"
           id="path855" />
        <path
           d="m 130.97378,459.14851 q -0.068,-2.85789 1.90526,-4.62706 2.04134,-1.83721 4.96727,-1.83721 3.33421,0 5.85187,3.81051 3.47029,5.17142 6.19209,7.00863 5.78381,3.81052 16.80709,3.81052 10.54697,0 19.59694,-4.55901 11.56764,-5.85187 11.56764,-16.26274 0,-8.57366 -9.73043,-13.54094 -8.23343,-4.28683 -20.34543,-4.62705 -10.7511,-0.40827 -18.30408,-4.6951 -9.66238,-5.51164 -9.66238,-15.78643 0,-12.11199 13.74507,-22.1146 13.13267,-9.45824 27.14993,-9.45824 6.60035,0 14.90183,2.24548 11.02328,2.92593 11.02328,7.48494 0,5.98796 -6.12404,5.98796 -2.7218,0 -9.52629,-1.42895 -6.80449,-1.49699 -10.54696,-1.42894 -10.61501,0.13609 -18.03191,5.23946 -7.62103,5.23946 -7.62103,12.7244 0,5.64773 10.07065,7.96126 3.74247,0.88458 14.49357,1.63307 15.58229,1.15677 24.36008,9.79847 8.0293,7.89321 8.0293,19.25672 0,16.19469 -14.96988,25.85707 -12.99658,8.36952 -30.1439,8.36952 -12.45222,0 -22.79505,-4.76314 -12.65636,-5.85187 -12.86049,-16.0586 z"
           style="font-style:normal;font-variant:normal;font-weight:normal;font-stretch:normal;font-family:'Comic Sans MS';-inkscape-font-specification:'Comic Sans MS';text-align:center;word-spacing:0.24px;text-anchor:middle;fill:#ffffff;stroke-width:3.4839"
           id="path857" />
        <path
           d="m 237.59757,459.14851 q -0.068,-2.85789 1.90526,-4.62706 2.04135,-1.83721 4.96728,-1.83721 3.3342,0 5.85186,3.81051 3.47029,5.17142 6.19209,7.00863 5.78382,3.81052 16.8071,3.81052 10.54696,0 19.59693,-4.55901 11.56764,-5.85187 11.56764,-16.26274 0,-8.57366 -9.73042,-13.54094 -8.23344,-4.28683 -20.34543,-4.62705 -10.7511,-0.40827 -18.30409,-4.6951 -9.66238,-5.51164 -9.66238,-15.78643 0,-12.11199 13.74508,-22.1146 13.13267,-9.45824 27.14992,-9.45824 6.60036,0 14.90184,2.24548 11.02328,2.92593 11.02328,7.48494 0,5.98796 -6.12405,5.98796 -2.72179,0 -9.52629,-1.42895 -6.80449,-1.49699 -10.54696,-1.42894 -10.61501,0.13609 -18.0319,5.23946 -7.62103,5.23946 -7.62103,12.7244 0,5.64773 10.07064,7.96126 3.74247,0.88458 14.49357,1.63307 15.58229,1.15677 24.36009,9.79847 8.0293,7.89321 8.0293,19.25672 0,16.19469 -14.96989,25.85707 -12.99658,8.36952 -30.1439,8.36952 -12.45222,0 -22.79505,-4.76314 -12.65635,-5.85187 -12.86049,-16.0586 z"
           style="font-style:normal;font-variant:normal;font-weight:normal;font-stretch:normal;font-family:'Comic Sans MS';-inkscape-font-specification:'Comic Sans MS';text-align:center;word-spacing:0.24px;text-anchor:middle;fill:#ffffff;stroke-width:3.4839"
           id="path859" />
        <path
           d="m 388.85884,478.81349 q -21.16197,0 -31.57285,-12.18004 -8.43757,-9.79847 -10.61501,-28.98714 -1.02067,-8.64171 -1.02067,-34.49878 0,-9.52629 0.40827,-15.37815 0.40827,-6.19209 1.22481,-8.6417 1.70112,-4.96728 6.12404,-4.96728 6.26013,0 6.26013,11.49959 v 39.94237 q 0,41.23522 28.85105,41.23522 27.14993,0 27.14993,-69.40582 0,-2.58571 0,-6.6684 -0.0681,-4.0827 -0.0681,-5.4436 0,-4.21878 1.49699,-7.41689 1.90526,-4.0827 5.64773,-4.0827 6.80449,0 6.80449,9.32216 0,2.78984 0.0681,8.43757 0,5.64773 0,8.43757 0,78.79602 -40.75891,78.79602 z"
           style="font-style:normal;font-variant:normal;font-weight:normal;font-stretch:normal;font-family:'Comic Sans MS';-inkscape-font-specification:'Comic Sans MS';text-align:center;word-spacing:0.24px;text-anchor:middle;fill:#ffffff;stroke-width:3.4839"
           id="path861" />
        <path
           d="m 552.57233,460.98572 q 0,3.26615 -1.08872,10.88719 -1.08872,6.87253 -7.28081,6.87253 -3.74247,0 -8.91388,-4.89923 -27.69429,-26.1973 -63.55396,-75.59791 l -0.34022,15.4462 -0.20414,15.51424 q 0,5.64773 0.20414,16.94319 0.27218,11.29545 0.27218,17.01123 0,18.30408 -7.07668,18.30408 -3.74247,0 -5.9199,-2.38157 -1.97331,-2.10939 -1.97331,-5.03533 0,-2.85788 0.40827,-8.6417 0.47632,-5.78382 0.47632,-8.64171 0,-4.21878 0.27218,-12.58831 0.27218,-8.43757 0.27218,-12.65635 0,-4.49097 -0.20414,-13.54094 -0.20413,-9.11802 -0.20413,-13.60899 0,-4.28683 -0.81654,-12.7244 -0.81654,-8.50561 -0.81654,-12.79244 0,-3.13007 2.65375,-5.71578 2.7218,-2.5857 6.12404,-2.5857 3.60638,0 8.91389,7.89321 16.94318,25.38075 30.48412,42.18785 16.12665,19.93716 35.38336,38.10516 0.20414,-2.92594 0,-8.64171 l -0.20413,-8.57366 q 0,-29.87172 -2.31353,-47.5634 -0.27218,-1.76917 -1.83721,-7.14472 -1.3609,-4.62705 -1.3609,-7.21276 0,-7.89321 7.21276,-7.89321 11.83982,0 11.83982,44.16115 0,7.55299 -0.20414,22.59092 -0.20413,14.96988 -0.20413,22.52287 z"
           style="font-style:normal;font-variant:normal;font-weight:normal;font-stretch:normal;font-family:'Comic Sans MS';-inkscape-font-specification:'Comic Sans MS';text-align:center;word-spacing:0.24px;text-anchor:middle;fill:#ffffff;stroke-width:3.4839"
           id="path863" />
        <path
           d="m 661.44157,390.15095 q -5.03532,0 -15.51424,-0.81654 -10.20674,-0.74849 -15.51424,-0.68044 h -4.83119 q 0.20413,9.39019 1.83721,30.48412 1.49699,19.66498 1.49699,30.55217 0,2.38157 0.47631,7.21276 0.47632,4.83119 0.47632,7.28081 0,4.62705 -1.49699,7.96126 -1.90526,4.49096 -5.91991,4.49096 -2.72179,0 -4.89923,-1.90526 -2.17744,-1.90525 -2.17744,-4.89923 0,-1.02068 0.34023,-3.06202 0.34022,-2.04135 0.34022,-3.06202 0,-3.33421 -0.47631,-10.00261 -0.40827,-6.6684 -0.40827,-10.07065 0,-9.73042 -1.56504,-27.35406 -1.63308,-19.05257 -1.83721,-27.35406 l -6.19209,0.0681 q -14.90184,0 -23.40745,-2.17744 -5.51164,-1.42894 -5.51164,-6.73645 0,-2.78984 1.76917,-4.89923 2.04135,-2.38157 5.23946,-2.17744 2.38157,0.13609 10.88718,1.22481 6.8045,0.81654 11.02328,0.81654 4.0827,0 12.38418,-0.13609 8.30148,-0.20413 12.38417,-0.20413 5.23946,0 15.51425,0.74849 10.34282,0.74849 15.58228,0.74849 2.92594,0 4.89924,2.04135 1.9733,1.9733 1.9733,4.96728 0,2.92593 -1.9733,4.96728 -1.9733,1.9733 -4.89924,1.9733 z"
           style="font-style:normal;font-variant:normal;font-weight:normal;font-stretch:normal;font-family:'Comic Sans MS';-inkscape-font-specification:'Comic Sans MS';text-align:center;word-spacing:0.24px;text-anchor:middle;fill:#ffffff;stroke-width:3.4839"
           id="path865" />
        <path
           d="m 758.53911,478.13304 q -6.26013,0 -10.88719,-16.0586 -1.76917,-6.12405 -4.42292,-21.43415 -6.94058,0.95263 -18.16799,3.40224 l -18.09995,3.74247 q -3.40225,8.91389 -11.63568,26.06121 -2.17744,3.81051 -5.91991,3.81051 -2.7218,0 -4.89924,-1.9733 -2.10939,-1.9733 -2.10939,-4.89923 0,-3.26616 10.27478,-24.8364 -1.15676,-1.76917 -1.15676,-4.0827 0,-5.51163 6.6684,-7.07667 7.75712,-14.56161 19.59694,-33.4781 16.12665,-25.78903 20.07325,-25.78903 5.37555,0 7.34885,7.48495 l 4.28683,22.86309 10.1387,47.29122 3.87856,10.7511 q 1.9733,5.51164 1.9733,7.34885 0,2.92593 -2.10939,4.89924 -2.10939,1.9733 -4.83119,1.9733 z M 734.51925,400.35769 715.0584,431.7264 q 8.23344,-2.10939 24.97249,-5.10337 z"
           style="font-style:normal;font-variant:normal;font-weight:normal;font-stretch:normal;font-family:'Comic Sans MS';-inkscape-font-specification:'Comic Sans MS';text-align:center;word-spacing:0.24px;text-anchor:middle;fill:#ffffff;stroke-width:3.4839"
           id="path867" />
        <path
           d="m 802.01721,455.88235 q -3.81052,0 -6.32818,-2.38157 -2.44962,-2.38158 -2.44962,-5.98796 0,-2.65375 -0.20413,-7.89321 -0.13609,-5.3075 -0.13609,-7.96125 0,-9.3902 0.13609,-28.1706 0.20413,-18.7804 0.20413,-28.1706 0,-3.60638 2.51767,-5.98795 2.51766,-2.44962 6.26013,-2.44962 3.74247,0 6.26013,2.44962 2.51766,2.38157 2.51766,5.98795 v 72.19566 q 0,3.60638 -2.51766,5.98796 -2.44961,2.38157 -6.26013,2.38157 z m -0.20414,24.70031 q -4.08269,0 -7.62103,-4.35488 -3.19811,-4.01465 -3.19811,-7.48494 0,-3.53834 2.78984,-5.91991 2.78985,-2.38157 6.32818,-2.38157 4.0827,0 7.55299,4.35487 3.19811,4.01465 3.19811,7.4169 0,3.47029 -2.78984,5.91991 -2.7218,2.44962 -6.26014,2.44962 z"
           style="font-style:normal;font-variant:normal;font-weight:bold;font-stretch:normal;font-family:'Comic Sans MS';-inkscape-font-specification:'Comic Sans MS Bold'"
           id="path869" />
      </g>
    </g>
    <path
       inkscape:transform-center-x="-5.7234176e-05"
       transform="matrix(1.0051786,0,0,1.1606803,-0.29816136,-46.152239)"
       inkscape:transform-center-y="-47.124146"
       d="m 504.18453,285.09183 -140.644,0 -140.644,0 70.322,-121.80128 70.322,-121.801277 70.322,121.801277 z"
       inkscape:randomized="0"
       inkscape:rounded="0"
       inkscape:flatsided="false"
       sodipodi:arg2="1.5707963"
       sodipodi:arg1="0.52359878"
       sodipodi:r2="81.200851"
       sodipodi:r1="162.4017"
       sodipodi:cy="203.89098"
       sodipodi:cx="363.54053"
       sodipodi:sides="3"
       id="path1569"
       style="fill:#800080;fill-opacity:1;fill-rule:evenodd;stroke:#800080;stroke-width:1.72618;stroke-opacity:1;paint-order:markers fill stroke"
       sodipodi:type="star" />
    <path
       sodipodi:type="star"
       style="fill:#800080;fill-opacity:1;fill-rule:evenodd;stroke:#800080;stroke-width:1.72618;stroke-opacity:1;paint-order:markers fill stroke"
       id="path1569-2"
       sodipodi:sides="3"
       sodipodi:cx="363.54053"
       sodipodi:cy="203.89098"
       sodipodi:r1="162.4017"
       sodipodi:r2="81.200851"
       sodipodi:arg1="0.52359878"
       sodipodi:arg2="1.5707963"
       inkscape:flatsided="false"
       inkscape:rounded="0"
       inkscape:randomized="0"
       d="m 504.18453,285.09183 -140.644,0 -140.644,0 70.322,-121.80128 70.322,-121.801277 70.322,121.801277 z"
       inkscape:transform-center-y="47.124158"
       transform="matrix(-1.0051786,0,0,-1.1606803,730.54815,331.90224)"
       inkscape:transform-center-x="6.4079622e-05" />
    <text
       style="fill:black;fill-opacity:1;line-height:1.25;stroke:none;font-family:sans-serif;font-style:normal;font-weight:normal;font-size:10.58333333px;white-space:pre;shape-inside:url(#rect1597);"
       id="text1595"
       xml:space="preserve" />
    <text
       id="text1603"
       y="53.845989"
       x="274.97397"
       style="font-style:normal;font-weight:normal;font-size:54.3507px;line-height:1.25;font-family:sans-serif;fill:#000000;fill-opacity:1;stroke:none;stroke-width:1.35877"
       xml:space="preserve"><tspan
         style="font-style:normal;font-variant:normal;font-weight:normal;font-stretch:normal;font-family:'Adobe Naskh';-inkscape-font-specification:'Adobe Naskh';fill:#f9f9f9;stroke-width:1.35877"
         y="53.845989"
         x="274.97397"
         id="tspan1601"
         sodipodi:role="line">Certificado</tspan></text>
    <g
       transform="translate(41.017602,-15.054985)"
       id="g2474">
      <g
         id="g2278"
         transform="matrix(0.05117388,0,0,0.05117388,17.227962,225.78486)">
        <rect
           style="fill:#71c837;fill-rule:evenodd;stroke:none"
           id="rect2816-4-4-5-1-7"
           width="124"
           height="124"
           x="131.16647"
           y="538.33813"
           ry="28.10984"
           rx="24.596111" />
        <rect
           style="fill:#71c837;fill-rule:evenodd"
           id="rect2816-4-4-5-1-7-4"
           width="124"
           height="124"
           x="131.16647"
           y="668.34613"
           ry="28.10984"
           rx="24.596111" />
        <rect
           style="fill:#71c837;fill-rule:evenodd"
           id="rect2816-4-4-5-1-7-3"
           width="124"
           height="124"
           x="131.16647"
           y="798.35419"
           ry="28.10984"
           rx="24.596111" />
        <rect
           style="fill:#71c837;fill-rule:evenodd"
           id="rect2816-4-4-5-1-7-1"
           width="124"
           height="124"
           x="131.16647"
           y="928.36218"
           ry="28.10984"
           rx="24.596111" />
        <rect
           style="fill:#71c837;fill-rule:evenodd;stroke:none"
           id="rect2816-4-4-5-1-7-8"
           width="124"
           height="124"
           x="261.77289"
           y="538.33813"
           ry="28.10984"
           rx="24.596111" />
        <rect
           style="fill:#71c837;fill-rule:evenodd"
           id="rect2816-4-4-5-1-7-4-9"
           width="124"
           height="124"
           x="0"
           y="668.34613"
           ry="28.10984"
           rx="24.596111" />
        <rect
           style="fill:#71c837;fill-rule:evenodd"
           id="rect2816-4-4-5-1-7-3-2"
           width="124"
           height="124"
           x="0"
           y="798.35419"
           ry="28.10984"
           rx="24.596111" />
        <rect
           style="fill:#71c837;fill-rule:evenodd"
           id="rect2816-4-4-5-1-7-1-7"
           width="124"
           height="124"
           x="0"
           y="928.36218"
           ry="28.10984"
           rx="24.596111" />
        <rect
           style="fill:#71c837;fill-rule:evenodd"
           id="rect2816-4-4-5-1-7-8-2"
           width="124"
           height="124"
           x="261.77289"
           y="796.59729"
           ry="28.10984"
           rx="24.596111" />
        <ellipse
           style="fill:#d40000"
           id="path3184"
           transform="translate(-90.847257,349.10644)"
           cx="151.09039"
           cy="246.83954"
           rx="59.733414"
           ry="60.611847" />
      </g>
      <g
         id="g2430"
         transform="matrix(1.2487706,0,0,1.2487706,-7.8921245,-59.677659)">
        <g
           id="g2381">
          <path
             d="m 42.807925,258.22861 v -4.97063 h 1.055678 v 4.97063 h -1.055678"
             style="fill:#1f1714;fill-opacity:1;fill-rule:nonzero;stroke:none;stroke-width:0.0693293"
             id="path60" />
          <path
             d="m 49.557006,258.22861 h -1.341664 l -2.165712,-3.76035 h -0.03058 c 0.04306,0.66431 0.0644,1.13797 0.0644,1.42126 v 2.33909 h -0.943227 v -4.97063 h 1.33161 l 2.162733,3.7227 h 0.02329 c -0.03355,-0.64566 -0.0509,-1.10254 -0.0509,-1.36981 v -2.35289 h 0.950022 v 4.97063"
             style="fill:#1f1714;fill-opacity:1;fill-rule:nonzero;stroke:none;stroke-width:0.0693293"
             id="path62" />
          <path
             d="m 53.749285,256.84821 c 0,0.44876 -0.161681,0.80221 -0.485305,1.06052 -0.323353,0.25866 -0.773717,0.38782 -1.350329,0.38782 -0.531064,0 -1.001187,-0.0998 -1.409883,-0.29921 v -0.979 c 0.336109,0.14955 0.620429,0.2545 0.853375,0.31599 0.232324,0.0613 0.445511,0.0918 0.638317,0.0918 0.231559,0 0.409182,-0.044 0.532935,-0.13245 0.12383,-0.0882 0.185519,-0.22019 0.185519,-0.39454 0,-0.0975 -0.02704,-0.18395 -0.08154,-0.26001 -0.05469,-0.0761 -0.13456,-0.14896 -0.240157,-0.21936 -0.105376,-0.0702 -0.320924,-0.18218 -0.645386,-0.33664 -0.304149,-0.14268 -0.532451,-0.27976 -0.684352,-0.41107 -0.152169,-0.13187 -0.273503,-0.28467 -0.364256,-0.4591 -0.09125,-0.17432 -0.136781,-0.37853 -0.136781,-0.61204 0,-0.43947 0.149535,-0.78565 0.447938,-1.03669 0.29874,-0.25159 0.71118,-0.37748 1.237946,-0.37748 0.258876,0 0.50562,0.0307 0.740922,0.0916 0.235096,0.0613 0.48073,0.14739 0.736904,0.25839 l -0.340131,0.81949 c -0.265669,-0.10868 -0.485584,-0.18473 -0.659184,-0.22775 -0.173609,-0.043 -0.34422,-0.0645 -0.512414,-0.0645 -0.199808,0 -0.353095,0.046 -0.459792,0.13914 -0.106693,0.093 -0.160089,0.21423 -0.160089,0.3637 0,0.0932 0.02142,0.17393 0.06503,0.2432 0.04306,0.0694 0.111548,0.13619 0.205769,0.20071 0.09429,0.0645 0.317391,0.18061 0.669236,0.34824 0.465478,0.22235 0.784256,0.44468 0.956748,0.66813 0.172843,0.22339 0.258944,0.49695 0.258944,0.82108"
             style="fill:#1f1714;fill-opacity:1;fill-rule:nonzero;stroke:none;stroke-width:0.0693293"
             id="path64" />
          <path
             d="m 56.569052,258.22861 h -1.055957 v -4.0934 h -1.351923 v -0.87723 h 3.759804 v 0.87723 h -1.351924 v 4.0934"
             style="fill:#1f1714;fill-opacity:1;fill-rule:nonzero;stroke:none;stroke-width:0.0693293"
             id="path66" />
          <path
             d="m 58.687066,258.22861 v -4.97063 h 1.055679 v 4.97063 h -1.055679"
             style="fill:#1f1714;fill-opacity:1;fill-rule:nonzero;stroke:none;stroke-width:0.0693293"
             id="path68" />
          <path
             d="m 62.916716,258.22861 h -1.055888 v -4.0934 h -1.351646 v -0.87723 h 3.759458 v 0.87723 h -1.351924 v 4.0934"
             style="fill:#1f1714;fill-opacity:1;fill-rule:nonzero;stroke:none;stroke-width:0.0693293"
             id="path70" />
          <path
             d="m 69.105199,253.25798 v 3.21626 c 0,0.36722 -0.08209,0.68892 -0.247021,0.96548 -0.164373,0.27647 -0.402388,0.48856 -0.713329,0.63588 -0.311151,0.14739 -0.678944,0.22095 -1.103309,0.22095 -0.640188,0 -1.137695,-0.1639 -1.491345,-0.49125 -0.354551,-0.32767 -0.531618,-0.77588 -0.531618,-1.34458 v -3.20274 h 1.052351 v 3.04265 c 0,0.38318 0.07723,0.66404 0.231561,0.84332 0.154684,0.17924 0.409737,0.26838 0.76616,0.26838 0.345259,0 0.595539,-0.0898 0.750974,-0.26997 0.155431,-0.18041 0.233157,-0.46283 0.233157,-0.84851 v -3.03587 h 1.052419"
             style="fill:#1f1714;fill-opacity:1;fill-rule:nonzero;stroke:none;stroke-width:0.0693293"
             id="path72" />
          <path
             d="m 72.265651,258.22861 h -1.055957 v -4.0934 h -1.351646 v -0.87723 h 3.759804 v 0.87723 h -1.352201 v 4.0934"
             style="fill:#1f1714;fill-opacity:1;fill-rule:nonzero;stroke:none;stroke-width:0.0693293"
             id="path74" />
          <path
             d="m 75.26713,255.73651 c 0,0.55545 0.105317,0.97358 0.31628,1.25443 0.210969,0.28142 0.526764,0.42139 0.946833,0.42139 0.842213,0 1.263319,-0.55866 1.263319,-1.67582 0,-1.11954 -0.418679,-1.6793 -1.256596,-1.6793 -0.419996,0 -0.736624,0.14071 -0.95002,0.42298 -0.213119,0.28216 -0.319816,0.70092 -0.319816,1.25632 z m 3.633277,0 c 0,0.82251 -0.204175,1.45487 -0.61315,1.89685 -0.40835,0.44224 -0.994114,0.66319 -1.757014,0.66319 -0.762625,0 -1.348458,-0.22095 -1.757362,-0.66319 -0.408421,-0.44198 -0.612873,-1.07629 -0.612873,-1.90357 0,-0.82739 0.204729,-1.4592 0.614744,-1.89548 0.409737,-0.43601 0.997164,-0.65433 1.762214,-0.65433 0.765329,0 1.350331,0.21964 1.755491,0.65918 0.405369,0.4401 0.60795,1.07246 0.60795,1.89735"
             style="fill:#1f1714;fill-opacity:1;fill-rule:nonzero;stroke:none;stroke-width:0.0693293"
             id="path76" />
          <path
             d="m 47.298391,264.2026 h -1.038832 v -4.97038 h 2.853598 v 0.86337 h -1.814766 v 1.28203 h 1.688794 v 0.85989 h -1.688794 v 1.96509"
             style="fill:#1f1714;fill-opacity:1;fill-rule:nonzero;stroke:none;stroke-width:0.0693293"
             id="path78" />
          <path
             d="m 52.983958,264.2026 h -2.867465 v -4.97038 h 2.867465 v 0.86337 h -1.812062 v 1.09117 h 1.685813 v 0.86364 h -1.685813 v 1.28175 h 1.812062 v 0.87045"
             style="fill:#1f1714;fill-opacity:1;fill-rule:nonzero;stroke:none;stroke-width:0.0693293"
             id="path80" />
          <path
             d="m 57.057063,261.69695 c 0,-1.0676 -0.472342,-1.60136 -1.416679,-1.60136 h -0.562192 v 3.23656 h 0.453068 c 1.016925,0 1.525803,-0.54512 1.525803,-1.6352 z m 1.096514,-0.0271 c 0,0.81815 -0.233434,1.44483 -0.700089,1.88001 -0.466588,0.43525 -1.140122,0.65274 -2.020815,0.65274 H 54.02279 v -4.97038 h 1.56317 c 0.812473,0 1.44344,0.21396 1.893041,0.64242 0.449532,0.42839 0.674576,1.02663 0.674576,1.79521"
             style="fill:#1f1714;fill-opacity:1;fill-rule:nonzero;stroke:none;stroke-width:0.0693293"
             id="path82" />
          <path
             d="m 62.052524,264.2026 h -2.867395 v -4.97038 h 2.867395 v 0.86337 h -1.811715 v 1.09117 h 1.685813 v 0.86364 h -1.685813 v 1.28175 h 1.811715 v 0.87045"
             style="fill:#1f1714;fill-opacity:1;fill-rule:nonzero;stroke:none;stroke-width:0.0693293"
             id="path84" />
          <path
             d="m 64.147037,261.43856 h 0.340685 c 0.333682,0 0.580147,-0.0554 0.73912,-0.16645 0.158693,-0.11104 0.238009,-0.28544 0.238009,-0.52353 0,-0.23557 -0.08097,-0.4032 -0.243209,-0.50339 -0.162447,-0.0994 -0.413757,-0.14956 -0.754441,-0.14956 h -0.320164 z m 0,0.85693 v 1.90711 h -1.055611 v -4.97038 h 1.450996 c 0.676239,0 1.176729,0.12283 1.501745,0.36884 0.324393,0.24591 0.486901,0.61939 0.486901,1.12042 0,0.29218 -0.08069,0.55216 -0.242098,0.77997 -0.161131,0.22775 -0.389423,0.40647 -0.684351,0.53535 0.749312,1.1174 1.237321,1.83967 1.464307,2.1658 h -1.171321 l -1.188306,-1.90711 h -0.562262"
             style="fill:#1f1714;fill-opacity:1;fill-rule:nonzero;stroke:none;stroke-width:0.0693293"
             id="path86" />
          <path
             d="m 70.131622,262.13567 c -0.333682,-1.07217 -0.521634,-1.67881 -0.563302,-1.81907 -0.04229,-0.14031 -0.07203,-0.25131 -0.09048,-0.33312 -0.07474,0.29009 -0.28952,1.00742 -0.643447,2.15219 z m 0.613079,2.06693 -0.360997,-1.18298 h -1.815252 l -0.360723,1.18298 h -1.137487 l 1.757362,-4.99095 h 1.290428 l 1.764158,4.99095 h -1.137489"
             style="fill:#1f1714;fill-opacity:1;fill-rule:nonzero;stroke:none;stroke-width:0.0693293"
             id="path88" />
          <path
             d="m 72.540818,264.2026 v -4.97038 h 1.055611 v 4.09993 h 2.019219 v 0.87045 h -3.07483"
             style="fill:#1f1714;fill-opacity:1;fill-rule:nonzero;stroke:none;stroke-width:0.0693293"
             id="path90" />
        </g>
        <text
           id="text2363"
           y="269.01959"
           x="51.926334"
           style="font-style:normal;font-weight:normal;font-size:4.52px;line-height:1.25;font-family:sans-serif;fill:#000000;fill-opacity:1;stroke:none;stroke-width:0.108835"
           xml:space="preserve"><tspan
             style="font-style:normal;font-variant:normal;font-weight:normal;font-stretch:normal;font-size:4.52px;font-family:'Segoe UI';-inkscape-font-specification:'Segoe UI';stroke-width:0.108835"
             y="269.01959"
             x="51.926334"
             id="tspan2361"
             sodipodi:role="line">Tocantins</tspan></text>
      </g>
      <text
         id="text2363-1"
         y="261.23947"
         x="110.74145"
         style="font-style:normal;font-weight:normal;font-size:5.64444px;line-height:1.25;font-family:sans-serif;letter-spacing:-0.264583px;word-spacing:0px;fill:#000000;fill-opacity:1;stroke:none;stroke-width:0.108835"
         xml:space="preserve"><tspan
           style="font-style:normal;font-variant:normal;font-weight:normal;font-stretch:normal;font-size:5.64444px;font-family:'Segoe UI';-inkscape-font-specification:'Segoe UI';text-align:center;text-anchor:middle;stroke-width:0.108835"
           y="261.23947"
           x="110.74145"
           id="tspan2361-9"
           sodipodi:role="line"
           dx="0"
           dy="0"
           rotate="0 0 0 0 0 0 0">Campus</tspan><tspan
           style="font-style:normal;font-variant:normal;font-weight:normal;font-stretch:normal;font-size:5.64444px;font-family:'Segoe UI';-inkscape-font-specification:'Segoe UI';text-align:center;text-anchor:middle;stroke-width:0.108835"
           y="268.38528"
           x="110.74145"
           sodipodi:role="line"
           id="tspan2403"
           rotate="0 0 0 0 0 0 0 0 0 0 0">Colinas do</tspan><tspan
           style="font-style:normal;font-variant:normal;font-weight:normal;font-stretch:normal;font-size:5.64444px;font-family:'Segoe UI';-inkscape-font-specification:'Segoe UI';text-align:center;text-anchor:middle;stroke-width:0.108835"
           y="275.53107"
           x="110.60915"
           sodipodi:role="line"
           id="tspan2401"
           rotate="0 0 0 0 0 0 0 0 0 0">Tocantins</tspan></text>
      <rect
         style="fill:#00ff00;fill-opacity:1;fill-rule:evenodd;stroke:#71c837;stroke-width:0.43588;stroke-opacity:1;paint-order:markers fill stroke"
         id="rect2436"
         width="0.093286566"
         height="19.407869"
         x="94.720329"
         y="256.7052" />
    </g>
  </g>
</svg>
