<?xml version="1.0" encoding="UTF-8" standalone="no"?>
<svg
   xmlns:dc="http://purl.org/dc/elements/1.1/"
   xmlns:cc="http://creativecommons.org/ns#"
   xmlns:rdf="http://www.w3.org/1999/02/22-rdf-syntax-ns#"
   xmlns:svg="http://www.w3.org/2000/svg"
   xmlns="http://www.w3.org/2000/svg"
   xmlns:sodipodi="http://sodipodi.sourceforge.net/DTD/sodipodi-0.dtd"
   xmlns:inkscape="http://www.inkscape.org/namespaces/inkscape"
   version="1.1"
   x="0px"
   y="0px"
   viewBox="0 0 1000 1000"
   enable-background="new 0 0 1000 1000"
   xml:space="preserve"
   id="svg14"
   sodipodi:docname="assunta_vector.svg"
   inkscape:version="1.0 (4035a4fb49, 2020-05-01)"><defs
   id="defs18"><rect
     id="rect54"
     height="444.89796"
     width="1144.2177"
     y="72.108844"
     x="-180.95238" /><rect
     x="92.517007"
     y="337.41497"
     width="627.21088"
     height="219.04762"
     id="rect28" /></defs><sodipodi:namedview
   inkscape:document-rotation="0"
   pagecolor="#ffffff"
   bordercolor="#666666"
   borderopacity="1"
   objecttolerance="10"
   gridtolerance="10"
   guidetolerance="10"
   inkscape:pageopacity="0"
   inkscape:pageshadow="2"
   inkscape:window-width="2160"
   inkscape:window-height="1346"
   id="namedview16"
   showgrid="false"
   inkscape:zoom="0.735"
   inkscape:cx="343.8691"
   inkscape:cy="392.0501"
   inkscape:window-x="-11"
   inkscape:window-y="-11"
   inkscape:window-maximized="1"
   inkscape:current-layer="svg14" />
<metadata
   id="metadata2"> Svg Vector Icons : http://www.onlinewebfonts.com/icon <rdf:RDF><cc:Work
     rdf:about=""><dc:format>image/svg+xml</dc:format><dc:type
       rdf:resource="http://purl.org/dc/dcmitype/StillImage" /><dc:title></dc:title></cc:Work></rdf:RDF></metadata>
<g
   id="g12"
   style="fill:#800080"><path
     d="M827.7,555.1c0,50.8-39.1,92.3-86.8,92.3h-644c-47.7,0-86.8-41.5-86.8-92.3V102.3C10,51.5,49.1,10,96.8,10h644c47.8,0,86.8,41.5,86.8,92.3L827.7,555.1L827.7,555.1z"
     id="path4"
     style="fill:#800080" /><path
     d="M191.8,826.2c-33,33.8-38.3,5.3-38.3-27.3l0-188.1c12.2-48.8,104.7-77.2,147.2-63.1l45.9,15.2c42.5,14.1,50.3,53.2,17.3,87L191.8,826.2z"
     id="path6"
     style="fill:#800080" /><path
     d="M877.8,142.5c-17.4-18.5-18.1,15.7-18.1,15.7v422.3c0,53.9-41.5,98-92.1,98H417.9c0,0-17.1-0.6-27.8,10.7c-11.6,14.7-63.9,70.8-77.3,89.5c-13.4,18.7,12,16.9,12,16.9h578.3c47.8,0,86.8-41.5,86.8-92.3c0,0,0-406.7,0-415.3c0-8.6-1.6-26.8-11.2-37.1C969.1,240.6,897.7,163.7,877.8,142.5z"
     id="path8"
     style="fill:#000000" /><path
     d="M789.4,974.8c33,33.8,38.3,5.3,38.3-27.2V759.5c-12.2-48.8-104.8-77.2-147.2-63.2l-45.9,15.1c-42.5,14.1-50.3,53.2-17.3,87L789.4,974.8z"
     id="path10"
     style="fill:#000000" /></g>
<text
   xml:space="preserve"
   id="text26"
   style="fill:black;fill-opacity:1;line-height:1.25;stroke:none;font-family:sans-serif;font-style:normal;font-weight:normal;font-size:40px;white-space:pre;shape-inside:url(#rect28);" /><text
   style="fill:black;fill-opacity:1;line-height:1.25;stroke:none;font-family:sans-serif;font-style:normal;font-weight:normal;font-size:40px;white-space:pre;shape-inside:url(#rect54);"
   id="text52"
   xml:space="preserve" /><g
   transform="translate(2.9044171,1.1416758)"
   style="font-style:normal;font-weight:normal;font-size:139.356px;line-height:1.25;font-family:sans-serif;letter-spacing:10px;fill:#ffffff;fill-opacity:1;stroke:none;stroke-width:3.4839"
   id="text22"
   aria-label="PROJETO ASSUNTA! "><path
     id="path19"
     style="font-style:normal;font-variant:normal;font-weight:bold;font-stretch:normal;font-family:'Comic Sans MS';-inkscape-font-specification:'Comic Sans MS Bold';text-align:center;word-spacing:0.24px;text-anchor:middle;fill:#ffffff;stroke-width:3.4839"
     d="m 80.859996,236.71236 q -1.156764,0 -5.715774,-0.47631 -0.408269,9.52628 -0.408269,31.30066 0,3.60638 -2.517663,6.19209 -2.517662,2.58571 -6.396222,2.58571 -3.878561,0 -6.464268,-2.58571 -2.517662,-2.58571 -2.517662,-6.19209 v -18.98453 q 0,-10.54697 1.360898,-31.23262 1.292854,-21.02588 1.360899,-31.36871 0.06805,-17.69168 9.934558,-16.94319 2.313528,-0.6124 6.396223,-0.88458 4.082696,-0.34023 9.934559,-0.34023 13.336805,0 25.040535,8.64171 12.99658,9.66238 12.99658,23.54354 0,17.4195 -13.81312,27.69429 -12.248089,9.04997 -29.191274,9.04997 z m 3.402246,-51.37392 q -2.177438,0 -3.878561,0.068 -1.633078,0 -2.789842,0.13609 0,3.19811 -0.06804,9.59433 -0.136089,7.55299 -1.292853,23.54355 3.470291,0.54435 4.627055,0.54435 10.615008,0 17.623635,-5.03532 7.484944,-5.37555 7.484944,-14.22139 0,-5.78382 -7.00863,-10.27478 -6.736447,-4.35488 -14.697703,-4.35488 z" /><path
     id="path21"
     style="font-style:normal;font-variant:normal;font-weight:bold;font-stretch:normal;font-family:'Comic Sans MS';-inkscape-font-specification:'Comic Sans MS Bold';text-align:center;word-spacing:0.24px;text-anchor:middle;fill:#ffffff;stroke-width:3.4839"
     d="m 213.68108,275.49797 q -3.67443,0 -6.73645,-2.85789 -20.61761,-19.32476 -45.31792,-26.8097 0.7485,19.80107 0.7485,21.97851 0,3.87856 -2.7218,6.60036 -2.7218,2.65375 -6.80449,2.65375 -4.0827,0 -6.80449,-2.65375 -2.7218,-2.7218 -2.7218,-6.60036 0,-5.10337 0.13609,-15.24206 0.13609,-10.20674 0.13609,-15.31011 l 0.13609,-54.91225 q 0,-4.42292 2.65375,-8.0293 3.47029,-4.62706 9.59433,-4.15075 16.53492,1.22481 16.94319,1.29286 9.52629,1.15676 16.19469,4.55901 29.05518,14.62966 29.05518,36.26794 0,8.91389 -6.12404,15.78642 -6.056,6.8045 -18.23604,11.4996 18.03191,10.07065 27.14993,20.54956 2.38157,2.7218 2.38157,6.056 0,3.81052 -2.85789,6.60036 -2.85788,2.7218 -6.80449,2.7218 z m -43.6168,-85.60052 q -0.54436,-0.068 -7.96125,-0.54436 v 36.13186 q 1.70112,0.068 2.99397,0.068 16.67101,0 24.70031,-4.15074 3.47029,-1.76917 6.32818,-4.6951 2.92593,-2.92593 2.92593,-4.42292 0,-7.62103 -9.66238,-14.6977 -9.18606,-6.6684 -19.32476,-7.68908 z" /><path
     id="path23"
     style="font-style:normal;font-variant:normal;font-weight:bold;font-stretch:normal;font-family:'Comic Sans MS';-inkscape-font-specification:'Comic Sans MS Bold';text-align:center;word-spacing:0.24px;text-anchor:middle;fill:#ffffff;stroke-width:3.4839"
     d="m 289.82074,278.83217 q -20.1413,0 -34.29464,-11.56764 -15.10598,-12.38418 -15.10598,-32.04916 0,-23.13527 14.49357,-42.18785 16.26274,-21.43415 40.96305,-21.43415 23.74767,0 35.58749,10.88719 11.83982,10.88718 11.83982,32.7296 0,23.13528 -13.33681,41.91568 -15.37815,21.70633 -40.1465,21.70633 z m 6.056,-88.79863 q -15.17402,0 -25.99316,14.69771 -10.1387,13.74507 -10.1387,30.48412 0,11.29546 8.7778,18.37213 8.43757,6.80449 21.29806,6.80449 14.96988,0 24.97249,-14.6977 9.18606,-13.40485 9.18606,-30.48413 0,-14.28943 -6.39622,-19.86911 -6.12405,-5.30751 -21.70633,-5.30751 z" /><path
     id="path25"
     style="font-style:normal;font-variant:normal;font-weight:bold;font-stretch:normal;font-family:'Comic Sans MS';-inkscape-font-specification:'Comic Sans MS Bold';text-align:center;word-spacing:0.24px;text-anchor:middle;fill:#ffffff;stroke-width:3.4839"
     d="m 439.1087,191.12226 q -1.2248,0 -3.87856,-0.20413 -2.65375,-0.27218 -4.28683,-0.27218 h -5.3075 q -0.068,-1.15677 -0.068,4.83119 0,48.72016 -6.87253,70.97085 -5.03533,16.39883 -18.30409,16.39883 -12.65635,0 -25.04053,-8.70975 -14.01725,-9.73043 -14.01725,-22.8631 0,-10.615 9.59433,-10.615 9.59434,0 9.59434,10.47891 0,4.01465 6.87253,8.64171 6.94059,4.55901 12.99658,4.55901 2.44962,0 3.53834,-9.04998 0.27218,-2.17743 1.49699,-21.16197 1.02067,-15.51424 1.02067,-38.64951 0,-0.95263 -0.20413,-4.42292 l -1.56504,0.068 q -2.99397,0.13609 -8.0293,-0.068 -6.056,-0.27218 -8.0293,-0.27218 -4.01465,0 -6.80449,-2.44962 -2.99398,-2.65375 -2.99398,-6.87254 0,-9.25411 12.18004,-9.25411 2.31353,0 6.87254,0.20414 4.55901,0.13609 6.80449,0.13609 4.28683,0 12.79245,-0.47632 8.57366,-0.47631 12.86049,-0.47631 18.23604,0 18.23604,10.13869 0,3.53834 -2.44962,6.32818 -2.78984,3.06202 -7.00863,3.06202 z" /><path
     id="path27"
     style="font-style:normal;font-variant:normal;font-weight:bold;font-stretch:normal;font-family:'Comic Sans MS';-inkscape-font-specification:'Comic Sans MS Bold';text-align:center;word-spacing:0.24px;text-anchor:middle;fill:#ffffff;stroke-width:3.4839"
     d="m 535.93404,187.44784 q -1.36089,0 -2.85788,-0.40827 -11.02328,-2.99398 -21.43415,-2.99398 -5.10337,0 -10.95524,0.81654 -5.85186,0.81654 -12.45222,2.44962 0,9.04997 -0.6124,26.87774 3.81052,-0.27218 26.60556,-2.51766 12.99658,-1.29286 16.46688,-1.29286 4.01465,0 6.87253,2.58571 2.85789,2.51766 2.85789,6.73645 0,8.09734 -8.64171,9.18606 -5.44359,0.40827 -16.26273,1.3609 -9.66238,1.08872 -29.12323,2.65375 -0.47631,8.64171 -0.47631,13.94921 0,13.33681 1.56503,15.17402 0.74849,0.88459 8.57366,0.88459 4.21879,0 12.7244,-0.20414 8.50562,-0.20413 12.7244,-0.20413 1.3609,0 4.01465,-0.40827 2.65375,-0.40827 3.94661,-0.40827 3.9466,0 6.73644,2.24548 3.19812,2.51766 3.19812,7.07667 0,7.62103 -7.96126,9.11802 -6.80449,1.29285 -28.23864,1.29285 -22.18265,0 -28.9191,-5.98795 -7.41689,-6.60036 -7.41689,-28.57887 0,-9.11802 1.29285,-27.35406 1.3609,-18.30408 1.3609,-27.35405 0,-2.38158 -0.68045,-7.00863 -0.68045,-4.6951 -0.68045,-7.07667 0,-10.34283 9.52629,-10.34283 2.99398,0 5.51164,1.70112 7.89321,-1.9733 14.96988,-2.92593 7.14472,-1.02067 13.4729,-1.02067 17.14732,0 27.4221,3.9466 6.26013,2.38157 6.26013,8.64171 0,3.53833 -2.44961,6.26013 -2.7218,3.13007 -6.94059,3.13007 z" /><path
     id="path29"
     style="font-style:normal;font-variant:normal;font-weight:bold;font-stretch:normal;font-family:'Comic Sans MS';-inkscape-font-specification:'Comic Sans MS Bold';text-align:center;word-spacing:0.24px;text-anchor:middle;fill:#ffffff;stroke-width:3.4839"
     d="m 645.75592,193.09556 q -5.30751,0 -16.53492,-0.74849 -10.81914,-0.74849 -16.53491,-0.68045 0.27218,7.75712 1.83721,27.62624 1.42894,17.55559 1.42894,27.76233 0,2.31353 0.47632,6.87254 0.47631,4.55901 0.47631,6.87253 0,5.10337 -2.17744,9.18607 -2.78984,5.23946 -7.96125,5.23946 -3.74247,0 -6.60036,-2.38158 -3.19811,-2.65375 -3.19811,-6.6684 0,-0.95263 0.34022,-2.85789 0.34023,-1.9733 0.34023,-2.99397 0,-3.13007 -0.47632,-9.45825 -0.40827,-6.32817 -0.40827,-9.52629 0,-9.11802 -1.42894,-24.7003 -1.63308,-17.89582 -1.90526,-24.70031 h -3.53833 q -15.17402,0 -24.08791,-2.17744 -7.55298,-1.83721 -7.55298,-8.91388 0,-3.47029 2.44961,-6.26014 2.85789,-3.3342 7.48495,-2.99397 2.38157,0.13609 10.81914,1.15676 6.73645,0.7485 10.88719,0.7485 4.15074,0 12.38417,-0.13609 8.30148,-0.13609 12.45222,-0.13609 5.17142,0 15.51425,0.74849 10.34282,0.68045 15.51424,0.68045 4.08269,0 6.80449,2.65375 2.78984,2.65375 2.78984,6.53231 0,3.87857 -2.78984,6.60036 -2.7218,2.65375 -6.80449,2.65375 z" /><path
     id="path31"
     style="font-style:normal;font-variant:normal;font-weight:bold;font-stretch:normal;font-family:'Comic Sans MS';-inkscape-font-specification:'Comic Sans MS Bold';text-align:center;word-spacing:0.24px;text-anchor:middle;fill:#ffffff;stroke-width:3.4839"
     d="m 717.949,278.83217 q -20.14129,0 -34.29464,-11.56764 -15.10597,-12.38418 -15.10597,-32.04916 0,-23.13527 14.49357,-42.18785 16.26273,-21.43415 40.96304,-21.43415 23.74768,0 35.5875,10.88719 11.83981,10.88718 11.83981,32.7296 0,23.13528 -13.3368,41.91568 -15.37815,21.70633 -40.14651,21.70633 z m 6.056,-88.79863 q -15.17402,0 -25.99316,14.69771 -10.13869,13.74507 -10.13869,30.48412 0,11.29546 8.77779,18.37213 8.43757,6.80449 21.29806,6.80449 14.96989,0 24.97249,-14.6977 9.18607,-13.40485 9.18607,-30.48413 0,-14.28943 -6.39623,-19.86911 -6.12404,-5.30751 -21.70633,-5.30751 z" /><path
     id="path33"
     style="font-style:normal;font-variant:normal;font-weight:normal;font-stretch:normal;font-family:'Comic Sans MS';-inkscape-font-specification:'Comic Sans MS';text-align:center;word-spacing:0.24px;text-anchor:middle;fill:#ffffff;stroke-width:3.4839"
     d="m 94.844529,481.97434 q -6.260133,0 -10.887188,-16.0586 -1.769168,-6.12404 -4.42292,-21.43415 -6.940582,0.95263 -18.167994,3.40225 l -18.09995,3.74247 q -3.402246,8.91388 -11.635682,26.0612 -2.177437,3.81052 -5.919908,3.81052 -2.721797,0 -4.899234,-1.9733 -2.109393,-1.97331 -2.109393,-4.89924 0,-3.26615 10.274783,-24.83639 -1.156763,-1.76917 -1.156763,-4.0827 0,-5.51164 6.668402,-7.07667 7.757122,-14.56162 19.596938,-33.4781 16.126647,-25.78903 20.073253,-25.78903 5.375548,0 7.348851,7.48494 l 4.28683,22.8631 10.138694,47.29122 3.878561,10.7511 q 1.973301,5.51163 1.973301,7.34885 0,2.92593 -2.109391,4.89923 -2.109393,1.9733 -4.83119,1.9733 z M 70.824671,404.199 51.363823,435.56771 q 8.233436,-2.1094 24.972487,-5.10337 z" /><path
     id="path35"
     style="font-style:normal;font-variant:normal;font-weight:normal;font-stretch:normal;font-family:'Comic Sans MS';-inkscape-font-specification:'Comic Sans MS';text-align:center;word-spacing:0.24px;text-anchor:middle;fill:#ffffff;stroke-width:3.4839"
     d="m 130.97378,462.98981 q -0.068,-2.85789 1.90526,-4.62705 2.04134,-1.83722 4.96727,-1.83722 3.33421,0 5.85187,3.81052 3.47029,5.17141 6.19209,7.00863 5.78381,3.81051 16.80709,3.81051 10.54697,0 19.59694,-4.55901 11.56764,-5.85186 11.56764,-16.26273 0,-8.57367 -9.73043,-13.54094 -8.23343,-4.28683 -20.34543,-4.62706 -10.7511,-0.40827 -18.30408,-4.6951 -9.66238,-5.51164 -9.66238,-15.78642 0,-12.112 13.74507,-22.1146 13.13267,-9.45825 27.14993,-9.45825 6.60035,0 14.90183,2.24549 11.02328,2.92593 11.02328,7.48494 0,5.98795 -6.12404,5.98795 -2.7218,0 -9.52629,-1.42894 -6.80449,-1.49699 -10.54696,-1.42895 -10.61501,0.13609 -18.03191,5.23946 -7.62103,5.23946 -7.62103,12.7244 0,5.64773 10.07065,7.96126 3.74247,0.88458 14.49357,1.63308 15.58229,1.15676 24.36008,9.79847 8.0293,7.89321 8.0293,19.25671 0,16.19469 -14.96988,25.85707 -12.99658,8.36953 -30.1439,8.36953 -12.45222,0 -22.79505,-4.76315 -12.65636,-5.85186 -12.86049,-16.0586 z" /><path
     id="path37"
     style="font-style:normal;font-variant:normal;font-weight:normal;font-stretch:normal;font-family:'Comic Sans MS';-inkscape-font-specification:'Comic Sans MS';text-align:center;word-spacing:0.24px;text-anchor:middle;fill:#ffffff;stroke-width:3.4839"
     d="m 237.59757,462.98981 q -0.068,-2.85789 1.90526,-4.62705 2.04135,-1.83722 4.96728,-1.83722 3.3342,0 5.85186,3.81052 3.47029,5.17141 6.19209,7.00863 5.78382,3.81051 16.8071,3.81051 10.54696,0 19.59693,-4.55901 11.56764,-5.85186 11.56764,-16.26273 0,-8.57367 -9.73042,-13.54094 -8.23344,-4.28683 -20.34543,-4.62706 -10.7511,-0.40827 -18.30409,-4.6951 -9.66238,-5.51164 -9.66238,-15.78642 0,-12.112 13.74508,-22.1146 13.13267,-9.45825 27.14992,-9.45825 6.60036,0 14.90184,2.24549 11.02328,2.92593 11.02328,7.48494 0,5.98795 -6.12405,5.98795 -2.72179,0 -9.52629,-1.42894 -6.80449,-1.49699 -10.54696,-1.42895 -10.61501,0.13609 -18.0319,5.23946 -7.62103,5.23946 -7.62103,12.7244 0,5.64773 10.07064,7.96126 3.74247,0.88458 14.49357,1.63308 15.58229,1.15676 24.36009,9.79847 8.0293,7.89321 8.0293,19.25671 0,16.19469 -14.96989,25.85707 -12.99658,8.36953 -30.1439,8.36953 -12.45222,0 -22.79505,-4.76315 -12.65635,-5.85186 -12.86049,-16.0586 z" /><path
     id="path39"
     style="font-style:normal;font-variant:normal;font-weight:normal;font-stretch:normal;font-family:'Comic Sans MS';-inkscape-font-specification:'Comic Sans MS';text-align:center;word-spacing:0.24px;text-anchor:middle;fill:#ffffff;stroke-width:3.4839"
     d="m 388.85884,482.65479 q -21.16197,0 -31.57285,-12.18004 -8.43757,-9.79847 -10.61501,-28.98713 -1.02067,-8.64171 -1.02067,-34.49878 0,-9.52629 0.40827,-15.37815 0.40827,-6.19209 1.22481,-8.64171 1.70112,-4.96728 6.12404,-4.96728 6.26013,0 6.26013,11.49959 v 39.94237 q 0,41.23523 28.85105,41.23523 27.14993,0 27.14993,-69.40582 0,-2.58571 0,-6.66841 -0.0681,-4.08269 -0.0681,-5.44359 0,-4.21879 1.49699,-7.4169 1.90526,-4.08269 5.64773,-4.08269 6.80449,0 6.80449,9.32215 0,2.78984 0.0681,8.43757 0,5.64773 0,8.43757 0,78.79602 -40.75891,78.79602 z" /><path
     id="path41"
     style="font-style:normal;font-variant:normal;font-weight:normal;font-stretch:normal;font-family:'Comic Sans MS';-inkscape-font-specification:'Comic Sans MS';text-align:center;word-spacing:0.24px;text-anchor:middle;fill:#ffffff;stroke-width:3.4839"
     d="m 552.57233,464.82702 q 0,3.26616 -1.08872,10.88719 -1.08872,6.87254 -7.28081,6.87254 -3.74247,0 -8.91388,-4.89924 -27.69429,-26.19729 -63.55396,-75.59791 l -0.34022,15.4462 -0.20414,15.51424 q 0,5.64773 0.20414,16.94319 0.27218,11.29546 0.27218,17.01123 0,18.30409 -7.07668,18.30409 -3.74247,0 -5.9199,-2.38158 -1.97331,-2.10939 -1.97331,-5.03532 0,-2.85789 0.40827,-8.64171 0.47632,-5.78381 0.47632,-8.6417 0,-4.21879 0.27218,-12.58831 0.27218,-8.43757 0.27218,-12.65636 0,-4.49096 -0.20414,-13.54094 -0.20413,-9.11802 -0.20413,-13.60898 0,-4.28683 -0.81654,-12.7244 -0.81654,-8.50562 -0.81654,-12.79245 0,-3.13007 2.65375,-5.71577 2.7218,-2.58571 6.12404,-2.58571 3.60638,0 8.91389,7.89321 16.94318,25.38076 30.48412,42.18785 16.12665,19.93717 35.38336,38.10516 0.20414,-2.92593 0,-8.6417 l -0.20413,-8.57366 q 0,-29.87173 -2.31353,-47.56341 -0.27218,-1.76916 -1.83721,-7.14471 -1.3609,-4.62706 -1.3609,-7.21276 0,-7.89322 7.21276,-7.89322 11.83982,0 11.83982,44.16116 0,7.55299 -0.20414,22.59091 -0.20413,14.96989 -0.20413,22.52287 z" /><path
     id="path43"
     style="font-style:normal;font-variant:normal;font-weight:normal;font-stretch:normal;font-family:'Comic Sans MS';-inkscape-font-specification:'Comic Sans MS';text-align:center;word-spacing:0.24px;text-anchor:middle;fill:#ffffff;stroke-width:3.4839"
     d="m 661.44157,393.99226 q -5.03532,0 -15.51424,-0.81654 -10.20674,-0.74849 -15.51424,-0.68045 h -4.83119 q 0.20413,9.3902 1.83721,30.48413 1.49699,19.66498 1.49699,30.55217 0,2.38157 0.47631,7.21276 0.47632,4.83119 0.47632,7.28081 0,4.62705 -1.49699,7.96125 -1.90526,4.49097 -5.91991,4.49097 -2.72179,0 -4.89923,-1.90526 -2.17744,-1.90526 -2.17744,-4.89924 0,-1.02067 0.34023,-3.06202 0.34022,-2.04135 0.34022,-3.06202 0,-3.3342 -0.47631,-10.0026 -0.40827,-6.66841 -0.40827,-10.07065 0,-9.73043 -1.56504,-27.35406 -1.63308,-19.05258 -1.83721,-27.35406 l -6.19209,0.068 q -14.90184,0 -23.40745,-2.17743 -5.51164,-1.42895 -5.51164,-6.73645 0,-2.78984 1.76917,-4.89923 2.04135,-2.38158 5.23946,-2.17744 2.38157,0.13609 10.88718,1.22481 6.8045,0.81654 11.02328,0.81654 4.0827,0 12.38418,-0.13609 8.30148,-0.20414 12.38417,-0.20414 5.23946,0 15.51425,0.7485 10.34282,0.74849 15.58228,0.74849 2.92594,0 4.89924,2.04135 1.9733,1.9733 1.9733,4.96728 0,2.92593 -1.9733,4.96728 -1.9733,1.9733 -4.89924,1.9733 z" /><path
     id="path45"
     style="font-style:normal;font-variant:normal;font-weight:normal;font-stretch:normal;font-family:'Comic Sans MS';-inkscape-font-specification:'Comic Sans MS';text-align:center;word-spacing:0.24px;text-anchor:middle;fill:#ffffff;stroke-width:3.4839"
     d="m 758.53911,481.97434 q -6.26013,0 -10.88719,-16.0586 -1.76917,-6.12404 -4.42292,-21.43415 -6.94058,0.95263 -18.16799,3.40225 l -18.09995,3.74247 q -3.40225,8.91388 -11.63568,26.0612 -2.17744,3.81052 -5.91991,3.81052 -2.7218,0 -4.89924,-1.9733 -2.10939,-1.97331 -2.10939,-4.89924 0,-3.26615 10.27478,-24.83639 -1.15676,-1.76917 -1.15676,-4.0827 0,-5.51164 6.6684,-7.07667 7.75712,-14.56162 19.59694,-33.4781 16.12665,-25.78903 20.07325,-25.78903 5.37555,0 7.34885,7.48494 l 4.28683,22.8631 10.1387,47.29122 3.87856,10.7511 q 1.9733,5.51163 1.9733,7.34885 0,2.92593 -2.10939,4.89923 -2.10939,1.9733 -4.83119,1.9733 z M 734.51925,404.199 715.0584,435.56771 q 8.23344,-2.1094 24.97249,-5.10337 z" /><path
     id="path47"
     style="font-style:normal;font-variant:normal;font-weight:bold;font-stretch:normal;font-family:'Comic Sans MS';-inkscape-font-specification:'Comic Sans MS Bold'"
     d="m 802.01721,459.72365 q -3.81052,0 -6.32818,-2.38157 -2.44962,-2.38157 -2.44962,-5.98795 0,-2.65375 -0.20413,-7.89321 -0.13609,-5.30751 -0.13609,-7.96126 0,-9.3902 0.13609,-28.1706 0.20413,-18.7804 0.20413,-28.17059 0,-3.60639 2.51767,-5.98796 2.51766,-2.44962 6.26013,-2.44962 3.74247,0 6.26013,2.44962 2.51766,2.38157 2.51766,5.98796 v 72.19566 q 0,3.60638 -2.51766,5.98795 -2.44961,2.38157 -6.26013,2.38157 z m -0.20414,24.70031 q -4.08269,0 -7.62103,-4.35487 -3.19811,-4.01465 -3.19811,-7.48495 0,-3.53833 2.78984,-5.9199 2.78985,-2.38158 6.32818,-2.38158 4.0827,0 7.55299,4.35488 3.19811,4.01465 3.19811,7.4169 0,3.47029 -2.78984,5.9199 -2.7218,2.44962 -6.26014,2.44962 z" /></g></svg>
