<?xml version="1.0" encoding="UTF-8" standalone="no"?>
<svg
   xmlns:dc="http://purl.org/dc/elements/1.1/"
   xmlns:cc="http://creativecommons.org/ns#"
   xmlns:rdf="http://www.w3.org/1999/02/22-rdf-syntax-ns#"
   xmlns:svg="http://www.w3.org/2000/svg"
   xmlns="http://www.w3.org/2000/svg"
   xmlns:sodipodi="http://sodipodi.sourceforge.net/DTD/sodipodi-0.dtd"
   xmlns:inkscape="http://www.inkscape.org/namespaces/inkscape"
   inkscape:version="1.0.2 (e86c870879, 2021-01-15, custom)"
   sodipodi:docname="projetoASSUNTA_vol2.svg"
   id="svg14"
   xml:space="preserve"
   enable-background="new 0 0 1000 1000"
   viewBox="0 0 1000 1000"
   y="0px"
   x="0px"
   version="1.1"
   inkscape:export-filename="C:\Users\arauj\Desktop\projetoASSUNTA_vol2.png"
   inkscape:export-xdpi="96"
   inkscape:export-ydpi="96"><defs
   id="defs18"><rect
     id="rect28"
     height="219.04762"
     width="627.21088"
     y="337.41497"
     x="92.517007" /></defs><sodipodi:namedview
   inkscape:current-layer="svg14"
   inkscape:window-maximized="1"
   inkscape:window-y="-8"
   inkscape:window-x="-8"
   inkscape:cy="532.87233"
   inkscape:cx="46.656318"
   inkscape:zoom="0.735"
   showgrid="false"
   id="namedview16"
   inkscape:window-height="1017"
   inkscape:window-width="1920"
   inkscape:pageshadow="2"
   inkscape:pageopacity="0"
   guidetolerance="10"
   gridtolerance="10"
   objecttolerance="10"
   borderopacity="1"
   bordercolor="#666666"
   pagecolor="#ffffff"
   inkscape:document-rotation="0" />
<metadata
   id="metadata2"> Svg Vector Icons : http://www.onlinewebfonts.com/icon <rdf:RDF><cc:Work
     rdf:about=""><dc:format>image/svg+xml</dc:format><dc:type
       rdf:resource="http://purl.org/dc/dcmitype/StillImage" /><dc:title /></cc:Work></rdf:RDF></metadata>
<g
   style="fill:#0000ff"
   id="g12"><path
     style="fill:#0000ff"
     id="path4"
     d="M827.7,555.1c0,50.8-39.1,92.3-86.8,92.3h-644c-47.7,0-86.8-41.5-86.8-92.3V102.3C10,51.5,49.1,10,96.8,10h644c47.8,0,86.8,41.5,86.8,92.3L827.7,555.1L827.7,555.1z" /><path
     style="fill:#0000ff"
     id="path6"
     d="M191.8,826.2c-33,33.8-38.3,5.3-38.3-27.3l0-188.1c12.2-48.8,104.7-77.2,147.2-63.1l45.9,15.2c42.5,14.1,50.3,53.2,17.3,87L191.8,826.2z" /><path
     style="fill:#800080"
     id="path8"
     d="M877.8,142.5c-17.4-18.5-18.1,15.7-18.1,15.7v422.3c0,53.9-41.5,98-92.1,98H417.9c0,0-17.1-0.6-27.8,10.7c-11.6,14.7-63.9,70.8-77.3,89.5c-13.4,18.7,12,16.9,12,16.9h578.3c47.8,0,86.8-41.5,86.8-92.3c0,0,0-406.7,0-415.3c0-8.6-1.6-26.8-11.2-37.1C969.1,240.6,897.7,163.7,877.8,142.5z" /><path
     style="fill:#800080"
     id="path10"
     d="M789.4,974.8c33,33.8,38.3,5.3,38.3-27.2V759.5c-12.2-48.8-104.8-77.2-147.2-63.2l-45.9,15.1c-42.5,14.1-50.3,53.2-17.3,87L789.4,974.8z" /></g>
<text
   id="text22"
   y="299.68143"
   x="419.27231"
   style="font-style:normal;font-weight:normal;font-size:139.356px;line-height:1.25;font-family:sans-serif;letter-spacing:10px;fill:#ffffff;fill-opacity:1;stroke:none;stroke-width:3.4839"
   xml:space="preserve"><tspan
     rotate="0 0 0 0 0 0 0 0"
     style="font-style:normal;font-variant:normal;font-weight:bold;font-stretch:normal;font-family:'Comic Sans MS';-inkscape-font-specification:'Comic Sans MS Bold';text-align:center;word-spacing:0.24px;text-anchor:middle;fill:#ffffff;stroke-width:3.4839"
     y="299.68143"
     x="419.27231"
     id="tspan20"
     sodipodi:role="line">projeto</tspan><tspan
     rotate="0 0 0 0 0 0 0 0 0"
     style="font-style:normal;font-variant:normal;font-weight:normal;font-stretch:normal;font-family:'Comic Sans MS';-inkscape-font-specification:'Comic Sans MS';text-align:center;word-spacing:0.24px;text-anchor:middle;fill:#ffffff;stroke-width:3.4839"
     id="tspan24"
     y="476.09171"
     x="419.27231"
     sodipodi:role="line">ASSUNTA<tspan
   style="font-style:normal;font-variant:normal;font-weight:bold;font-stretch:normal;font-family:'Comic Sans MS';-inkscape-font-specification:'Comic Sans MS Bold'"
   id="tspan17">!</tspan></tspan><tspan
     id="tspan32"
     style="font-style:normal;font-variant:normal;font-weight:normal;font-stretch:normal;font-family:'Comic Sans MS';-inkscape-font-specification:'Comic Sans MS';text-align:center;text-anchor:middle;fill:#ffffff;stroke-width:3.4839"
     y="652.50195"
     x="419.27231"
     sodipodi:role="line" /></text><text
   style="fill:black;fill-opacity:1;line-height:1.25;stroke:none;font-family:sans-serif;font-style:normal;font-weight:normal;font-size:40px;white-space:pre;shape-inside:url(#rect28);"
   id="text26"
   xml:space="preserve" /><text
   id="text22-4"
   y="788.57611"
   x="660.23798"
   style="font-style:normal;font-weight:normal;font-size:139.356px;line-height:1.25;font-family:sans-serif;letter-spacing:10px;fill:#ffffff;fill-opacity:1;stroke:none;stroke-width:3.4839"
   xml:space="preserve"><tspan
     id="tspan32-3"
     style="font-style:normal;font-variant:normal;font-weight:normal;font-stretch:normal;font-family:'Comic Sans MS';-inkscape-font-specification:'Comic Sans MS';text-align:center;text-anchor:middle;fill:#ffffff;stroke-width:3.4839"
     y="788.57611"
     x="665.23798"
     sodipodi:role="line"><tspan
       rotate="0 0 0 0 0 0 0"
       id="tspan56"
       style="font-style:normal;font-variant:normal;font-weight:normal;font-stretch:normal;font-family:'Comic Sans MS';-inkscape-font-specification:'Comic Sans MS';text-align:center;word-spacing:0.24px;text-anchor:middle;fill:#ffffff;stroke-width:3.4839"><tspan
         rotate="0 0 0 0 0 0 0"
         id="tspan54"
         style="font-style:normal;font-variant:normal;font-weight:bold;font-stretch:normal;font-family:'Comic Sans MS';-inkscape-font-specification:'Comic Sans MS Bold';text-align:center;word-spacing:0.24px;text-anchor:middle;fill:#ffffff;stroke-width:3.4839">vol. 2</tspan></tspan></tspan></text></svg>
