<?xml version="1.0" encoding="UTF-8" standalone="no"?>
<svg
   xmlns:dc="http://purl.org/dc/elements/1.1/"
   xmlns:cc="http://creativecommons.org/ns#"
   xmlns:rdf="http://www.w3.org/1999/02/22-rdf-syntax-ns#"
   xmlns:svg="http://www.w3.org/2000/svg"
   xmlns="http://www.w3.org/2000/svg"
   xmlns:sodipodi="http://sodipodi.sourceforge.net/DTD/sodipodi-0.dtd"
   xmlns:inkscape="http://www.inkscape.org/namespaces/inkscape"
   inkscape:version="1.0 (4035a4fb49, 2020-05-01)"
   sodipodi:docname="projetoASSUNTA_vector.svg"
   id="svg14"
   xml:space="preserve"
   enable-background="new 0 0 1000 1000"
   viewBox="0 0 1000 1000"
   y="0px"
   x="0px"
   version="1.1"><defs
   id="defs18"><rect
     id="rect28"
     height="219.04762"
     width="627.21088"
     y="337.41497"
     x="92.517007" /></defs><sodipodi:namedview
   inkscape:current-layer="svg14"
   inkscape:window-maximized="1"
   inkscape:window-y="-8"
   inkscape:window-x="-8"
   inkscape:cy="683.57614"
   inkscape:cx="-72.983556"
   inkscape:zoom="0.51972348"
   showgrid="false"
   id="namedview16"
   inkscape:window-height="1017"
   inkscape:window-width="1920"
   inkscape:pageshadow="2"
   inkscape:pageopacity="0"
   guidetolerance="10"
   gridtolerance="10"
   objecttolerance="10"
   borderopacity="1"
   bordercolor="#666666"
   pagecolor="#ffffff"
   inkscape:document-rotation="0" />
<metadata
   id="metadata2"> Svg Vector Icons : http://www.onlinewebfonts.com/icon <rdf:RDF><cc:Work
     rdf:about=""><dc:format>image/svg+xml</dc:format><dc:type
       rdf:resource="http://purl.org/dc/dcmitype/StillImage" /><dc:title></dc:title></cc:Work></rdf:RDF></metadata>
<g
   style="fill:#0000ff"
   id="g12"><path
     style="fill:#0000ff"
     id="path4"
     d="M827.7,555.1c0,50.8-39.1,92.3-86.8,92.3h-644c-47.7,0-86.8-41.5-86.8-92.3V102.3C10,51.5,49.1,10,96.8,10h644c47.8,0,86.8,41.5,86.8,92.3L827.7,555.1L827.7,555.1z" /><path
     style="fill:#0000ff"
     id="path6"
     d="M191.8,826.2c-33,33.8-38.3,5.3-38.3-27.3l0-188.1c12.2-48.8,104.7-77.2,147.2-63.1l45.9,15.2c42.5,14.1,50.3,53.2,17.3,87L191.8,826.2z" /><path
     style="fill:#800080"
     id="path8"
     d="M877.8,142.5c-17.4-18.5-18.1,15.7-18.1,15.7v422.3c0,53.9-41.5,98-92.1,98H417.9c0,0-17.1-0.6-27.8,10.7c-11.6,14.7-63.9,70.8-77.3,89.5c-13.4,18.7,12,16.9,12,16.9h578.3c47.8,0,86.8-41.5,86.8-92.3c0,0,0-406.7,0-415.3c0-8.6-1.6-26.8-11.2-37.1C969.1,240.6,897.7,163.7,877.8,142.5z" /><path
     style="fill:#800080"
     id="path10"
     d="M789.4,974.8c33,33.8,38.3,5.3,38.3-27.2V759.5c-12.2-48.8-104.8-77.2-147.2-63.2l-45.9,15.1c-42.5,14.1-50.3,53.2-17.3,87L789.4,974.8z" /></g>
<g
   style="font-style:normal;font-weight:normal;font-size:139.356px;line-height:1.25;font-family:sans-serif;letter-spacing:10px;fill:#ffffff;fill-opacity:1;stroke:none;stroke-width:3.4839"
   id="text22"
   aria-label="projeto
ASSUNTA!
"><path
     id="path841"
     style="font-style:normal;font-variant:normal;font-weight:bold;font-stretch:normal;font-family:'Comic Sans MS';-inkscape-font-specification:'Comic Sans MS Bold';text-align:center;word-spacing:0.24px;text-anchor:middle;fill:#ffffff;stroke-width:3.4839"
     d="m 178.77664,303.69608 q -5.85186,0 -12.31613,-1.3609 l -0.068,27.76233 q 0,3.9466 -2.65375,6.53231 -2.65375,2.58571 -6.73645,2.58571 -4.08269,0 -6.73644,-2.58571 -2.65375,-2.58571 -2.65375,-6.53231 0,-3.19811 0.13609,-25.38076 0.13608,-16.46687 0,-26.87774 -0.20414,-14.69771 -0.95263,-25.31271 -1.02068,-14.62966 -1.02068,-13.40485 0,-5.64773 2.51766,-9.66238 2.92594,-4.55901 7.89322,-4.55901 3.81051,0 6.39622,2.5857 2.58571,2.58571 2.58571,6.19209 l -0.068,0.68045 q 4.55901,-2.58571 9.11802,-3.81052 4.62706,-1.29285 9.25411,-1.29285 15.65033,0 22.86309,13.26876 5.37555,10.00261 5.37555,25.92512 0,14.90184 -8.50561,24.7003 -9.11802,10.54697 -24.42813,10.54697 z m 4.6951,-56.27315 q -4.28683,0 -8.70975,2.04134 -4.42292,1.97331 -8.91389,5.98796 0.81654,14.01725 0.81654,28.10255 6.056,1.9733 12.112,1.9733 7.00863,0 10.7511,-4.96728 3.40224,-4.49096 3.40224,-12.11199 0,-9.18607 -0.81653,-12.7244 -1.97331,-8.30148 -8.64171,-8.30148 z" /><path
     id="path843"
     style="font-style:normal;font-variant:normal;font-weight:bold;font-stretch:normal;font-family:'Comic Sans MS';-inkscape-font-specification:'Comic Sans MS Bold';text-align:center;word-spacing:0.24px;text-anchor:middle;fill:#ffffff;stroke-width:3.4839"
     d="m 288.93876,250.62104 q -0.6124,10.41087 -9.45824,10.41087 -8.57366,0 -8.57366,-8.84584 l -0.34023,-6.87254 q -15.3101,2.44962 -21.91046,15.71838 l 0.068,34.2266 q 0,3.87856 -2.65375,6.39622 -2.65375,2.58571 -6.73645,2.58571 -4.21878,0 -6.53231,-2.7218 -2.17744,-2.44962 -2.17744,-6.26013 v -44.56943 q 0,-2.10939 0.13609,-6.26013 0.13609,-4.21879 0.13609,-6.32818 0,-3.81051 2.24549,-6.32818 2.31352,-2.5857 6.53231,-2.5857 7.55299,0 8.98193,7.75712 12.04395,-8.98193 26.74165,-8.98193 13.60899,0 13.60899,18.09995 0,3.47029 -0.068,4.55901 z" /><path
     id="path845"
     style="font-style:normal;font-variant:normal;font-weight:bold;font-stretch:normal;font-family:'Comic Sans MS';-inkscape-font-specification:'Comic Sans MS Bold';text-align:center;word-spacing:0.24px;text-anchor:middle;fill:#ffffff;stroke-width:3.4839"
     d="m 336.90784,303.69608 q -12.58831,0 -21.63828,-8.64171 -9.93456,-9.45824 -10.41088,-25.24466 -0.47631,-15.03793 8.23344,-26.8097 10.34283,-13.88117 28.783,-13.88117 13.60899,0 21.63829,10.88719 7.21276,9.79847 7.21276,24.29204 0,15.78642 -8.43757,26.94579 -9.45825,12.45222 -25.38076,12.45222 z m 4.0827,-56.61338 q -8.36953,-0.068 -13.20072,7.62103 -4.08269,6.46427 -4.08269,15.10598 0,8.16539 4.62705,12.52026 3.67443,3.47029 8.57366,3.47029 5.91991,0 10.27478,-4.01465 4.96728,-4.6951 5.30751,-12.7244 0.88458,-21.91046 -11.49959,-21.97851 z" /><path
     id="path847"
     style="font-style:normal;font-variant:normal;font-weight:bold;font-stretch:normal;font-family:'Comic Sans MS';-inkscape-font-specification:'Comic Sans MS Bold';text-align:center;word-spacing:0.24px;text-anchor:middle;fill:#ffffff;stroke-width:3.4839"
     d="m 416.92607,218.23165 q -4.35488,0 -7.55299,-2.92593 -3.13006,-2.92593 -3.13006,-7.21276 0,-4.28683 3.13006,-7.21276 3.19811,-2.99398 7.55299,-2.99398 4.35487,0 7.55299,2.99398 3.19811,2.92593 3.19811,7.21276 0,4.28683 -3.19811,7.21276 -3.19812,2.92593 -7.55299,2.92593 z m -3.26616,94.17418 q 0,-7.14472 -2.31352,-37.69689 -2.31353,-30.55217 -2.31353,-36.26794 0,-4.0827 2.38157,-7.34886 2.78984,-3.67442 7.21276,-3.67442 3.13007,0 6.26013,2.10939 3.40225,2.31353 3.53834,5.30751 0.81654,12.99658 2.24548,37.76493 1.83722,33.00179 1.83722,40.48673 0,9.86651 -6.19209,18.09995 -6.87254,9.11802 -17.07928,9.11802 -16.46687,0 -27.01383,-23.27137 -1.02068,-2.24548 -1.02068,-4.21878 0,-3.74247 2.99398,-6.46427 2.92593,-2.51766 6.73645,-2.51766 4.35487,0 7.68907,4.6951 2.44962,4.35487 4.96728,8.77779 2.7218,4.6951 5.64773,4.6951 3.53834,0 4.42292,-9.59433 z" /><path
     id="path849"
     style="font-style:normal;font-variant:normal;font-weight:bold;font-stretch:normal;font-family:'Comic Sans MS';-inkscape-font-specification:'Comic Sans MS Bold';text-align:center;word-spacing:0.24px;text-anchor:middle;fill:#ffffff;stroke-width:3.4839"
     d="m 492.7255,302.81149 q -16.26274,0 -26.60557,-7.75712 -11.43154,-8.57366 -11.43154,-24.15595 0,-17.21536 9.04997,-29.12322 10.07065,-13.20072 27.14993,-13.20072 11.83981,0 19.66498,3.81052 10.27478,5.03532 10.27478,15.65033 0,7.48494 -8.36952,13.26876 -3.81052,2.65375 -15.31011,7.75712 l -22.93114,10.1387 q 3.26616,3.53833 7.89321,5.3075 4.62706,1.76917 10.61501,1.76917 9.11802,0 15.4462,-3.74247 5.64773,-3.3342 9.04997,-3.3342 7.07667,0 7.07667,6.87253 0,7.75712 -11.3635,12.65636 -9.52629,4.08269 -20.20934,4.08269 z m -1.83721,-57.77014 q -6.32818,0 -10.81915,4.21879 -4.49096,4.21878 -7.21276,12.65635 7.68908,-3.3342 15.31011,-6.60035 9.18606,-4.15074 14.62966,-7.68908 -4.55901,-2.58571 -11.90786,-2.58571 z" /><path
     id="path851"
     style="font-style:normal;font-variant:normal;font-weight:bold;font-stretch:normal;font-family:'Comic Sans MS';-inkscape-font-specification:'Comic Sans MS Bold';text-align:center;word-spacing:0.24px;text-anchor:middle;fill:#ffffff;stroke-width:3.4839"
     d="m 594.31396,244.90526 q -1.42895,0 -3.40225,-0.068 -1.90526,-0.13609 -3.3342,-0.13609 -2.78984,0 -6.46427,0.54436 1.22481,27.49015 1.22481,35.92772 0,0.88458 0.0681,3.3342 0.068,2.38157 0.068,3.87856 0,15.65033 -9.86651,15.65033 -3.74247,0 -6.46427,-2.31353 -2.99398,-2.44961 -2.99398,-6.12404 0,-2.44962 0.20414,-7.34885 0.20413,-4.89923 0.20413,-7.34885 0,-8.23344 -1.22481,-35.24727 -4.21878,-0.20414 -12.79244,-1.08872 -8.50562,-0.95263 -8.50562,-8.84584 0,-3.81052 2.58571,-6.46427 2.58571,-2.65375 6.6684,-2.65375 2.51766,0 11.56764,0.81654 -0.068,-2.17744 -0.34022,-7.21276 -0.27218,-4.35488 -0.27218,-6.73645 0,-3.81052 2.78984,-6.32818 2.78984,-2.51766 6.73644,-2.51766 10.07065,0 10.07065,16.94319 l -0.13609,5.57968 q 4.21879,-0.61241 6.87254,-0.61241 7.82517,0 10.68305,1.02068 5.4436,1.90526 5.4436,8.30148 0,3.87856 -2.65375,6.46427 -2.65376,2.5857 -6.73645,2.5857 z" /><path
     id="path853"
     style="font-style:normal;font-variant:normal;font-weight:bold;font-stretch:normal;font-family:'Comic Sans MS';-inkscape-font-specification:'Comic Sans MS Bold';text-align:center;word-spacing:0.24px;text-anchor:middle;fill:#ffffff;stroke-width:3.4839"
     d="m 649.90406,303.69608 q -12.58831,0 -21.63829,-8.64171 -9.93456,-9.45824 -10.41087,-25.24466 -0.47632,-15.03793 8.23343,-26.8097 10.34283,-13.88117 28.78301,-13.88117 13.60898,0 21.63828,10.88719 7.21276,9.79847 7.21276,24.29204 0,15.78642 -8.43757,26.94579 -9.45824,12.45222 -25.38075,12.45222 z m 4.08269,-56.61338 q -8.36952,-0.068 -13.20071,7.62103 -4.0827,6.46427 -4.0827,15.10598 0,8.16539 4.62706,12.52026 3.67442,3.47029 8.57366,3.47029 5.91991,0 10.27478,-4.01465 4.96728,-4.6951 5.3075,-12.7244 0.88459,-21.91046 -11.49959,-21.97851 z" /><path
     id="path855"
     style="font-style:normal;font-variant:normal;font-weight:normal;font-stretch:normal;font-family:'Comic Sans MS';-inkscape-font-specification:'Comic Sans MS';text-align:center;word-spacing:0.24px;text-anchor:middle;fill:#ffffff;stroke-width:3.4839"
     d="m 94.844529,478.13304 q -6.260133,0 -10.887188,-16.0586 -1.769168,-6.12405 -4.42292,-21.43415 -6.940582,0.95263 -18.167994,3.40224 l -18.09995,3.74247 q -3.402246,8.91389 -11.635682,26.06121 -2.177437,3.81051 -5.919908,3.81051 -2.721797,0 -4.899234,-1.9733 -2.109393,-1.9733 -2.109393,-4.89923 0,-3.26616 10.274783,-24.8364 -1.156763,-1.76917 -1.156763,-4.0827 0,-5.51163 6.668402,-7.07667 7.757122,-14.56161 19.596938,-33.4781 16.126647,-25.78903 20.073253,-25.78903 5.375548,0 7.348851,7.48495 l 4.28683,22.86309 10.138694,47.29122 3.878561,10.7511 q 1.973301,5.51164 1.973301,7.34885 0,2.92593 -2.109391,4.89924 -2.109393,1.9733 -4.83119,1.9733 z M 70.824671,400.35769 51.363823,431.7264 q 8.233436,-2.10939 24.972487,-5.10337 z" /><path
     id="path857"
     style="font-style:normal;font-variant:normal;font-weight:normal;font-stretch:normal;font-family:'Comic Sans MS';-inkscape-font-specification:'Comic Sans MS';text-align:center;word-spacing:0.24px;text-anchor:middle;fill:#ffffff;stroke-width:3.4839"
     d="m 130.97378,459.14851 q -0.068,-2.85789 1.90526,-4.62706 2.04134,-1.83721 4.96727,-1.83721 3.33421,0 5.85187,3.81051 3.47029,5.17142 6.19209,7.00863 5.78381,3.81052 16.80709,3.81052 10.54697,0 19.59694,-4.55901 11.56764,-5.85187 11.56764,-16.26274 0,-8.57366 -9.73043,-13.54094 -8.23343,-4.28683 -20.34543,-4.62705 -10.7511,-0.40827 -18.30408,-4.6951 -9.66238,-5.51164 -9.66238,-15.78643 0,-12.11199 13.74507,-22.1146 13.13267,-9.45824 27.14993,-9.45824 6.60035,0 14.90183,2.24548 11.02328,2.92593 11.02328,7.48494 0,5.98796 -6.12404,5.98796 -2.7218,0 -9.52629,-1.42895 -6.80449,-1.49699 -10.54696,-1.42894 -10.61501,0.13609 -18.03191,5.23946 -7.62103,5.23946 -7.62103,12.7244 0,5.64773 10.07065,7.96126 3.74247,0.88458 14.49357,1.63307 15.58229,1.15677 24.36008,9.79847 8.0293,7.89321 8.0293,19.25672 0,16.19469 -14.96988,25.85707 -12.99658,8.36952 -30.1439,8.36952 -12.45222,0 -22.79505,-4.76314 -12.65636,-5.85187 -12.86049,-16.0586 z" /><path
     id="path859"
     style="font-style:normal;font-variant:normal;font-weight:normal;font-stretch:normal;font-family:'Comic Sans MS';-inkscape-font-specification:'Comic Sans MS';text-align:center;word-spacing:0.24px;text-anchor:middle;fill:#ffffff;stroke-width:3.4839"
     d="m 237.59757,459.14851 q -0.068,-2.85789 1.90526,-4.62706 2.04135,-1.83721 4.96728,-1.83721 3.3342,0 5.85186,3.81051 3.47029,5.17142 6.19209,7.00863 5.78382,3.81052 16.8071,3.81052 10.54696,0 19.59693,-4.55901 11.56764,-5.85187 11.56764,-16.26274 0,-8.57366 -9.73042,-13.54094 -8.23344,-4.28683 -20.34543,-4.62705 -10.7511,-0.40827 -18.30409,-4.6951 -9.66238,-5.51164 -9.66238,-15.78643 0,-12.11199 13.74508,-22.1146 13.13267,-9.45824 27.14992,-9.45824 6.60036,0 14.90184,2.24548 11.02328,2.92593 11.02328,7.48494 0,5.98796 -6.12405,5.98796 -2.72179,0 -9.52629,-1.42895 -6.80449,-1.49699 -10.54696,-1.42894 -10.61501,0.13609 -18.0319,5.23946 -7.62103,5.23946 -7.62103,12.7244 0,5.64773 10.07064,7.96126 3.74247,0.88458 14.49357,1.63307 15.58229,1.15677 24.36009,9.79847 8.0293,7.89321 8.0293,19.25672 0,16.19469 -14.96989,25.85707 -12.99658,8.36952 -30.1439,8.36952 -12.45222,0 -22.79505,-4.76314 -12.65635,-5.85187 -12.86049,-16.0586 z" /><path
     id="path861"
     style="font-style:normal;font-variant:normal;font-weight:normal;font-stretch:normal;font-family:'Comic Sans MS';-inkscape-font-specification:'Comic Sans MS';text-align:center;word-spacing:0.24px;text-anchor:middle;fill:#ffffff;stroke-width:3.4839"
     d="m 388.85884,478.81349 q -21.16197,0 -31.57285,-12.18004 -8.43757,-9.79847 -10.61501,-28.98714 -1.02067,-8.64171 -1.02067,-34.49878 0,-9.52629 0.40827,-15.37815 0.40827,-6.19209 1.22481,-8.6417 1.70112,-4.96728 6.12404,-4.96728 6.26013,0 6.26013,11.49959 v 39.94237 q 0,41.23522 28.85105,41.23522 27.14993,0 27.14993,-69.40582 0,-2.58571 0,-6.6684 -0.0681,-4.0827 -0.0681,-5.4436 0,-4.21878 1.49699,-7.41689 1.90526,-4.0827 5.64773,-4.0827 6.80449,0 6.80449,9.32216 0,2.78984 0.0681,8.43757 0,5.64773 0,8.43757 0,78.79602 -40.75891,78.79602 z" /><path
     id="path863"
     style="font-style:normal;font-variant:normal;font-weight:normal;font-stretch:normal;font-family:'Comic Sans MS';-inkscape-font-specification:'Comic Sans MS';text-align:center;word-spacing:0.24px;text-anchor:middle;fill:#ffffff;stroke-width:3.4839"
     d="m 552.57233,460.98572 q 0,3.26615 -1.08872,10.88719 -1.08872,6.87253 -7.28081,6.87253 -3.74247,0 -8.91388,-4.89923 -27.69429,-26.1973 -63.55396,-75.59791 l -0.34022,15.4462 -0.20414,15.51424 q 0,5.64773 0.20414,16.94319 0.27218,11.29545 0.27218,17.01123 0,18.30408 -7.07668,18.30408 -3.74247,0 -5.9199,-2.38157 -1.97331,-2.10939 -1.97331,-5.03533 0,-2.85788 0.40827,-8.6417 0.47632,-5.78382 0.47632,-8.64171 0,-4.21878 0.27218,-12.58831 0.27218,-8.43757 0.27218,-12.65635 0,-4.49097 -0.20414,-13.54094 -0.20413,-9.11802 -0.20413,-13.60899 0,-4.28683 -0.81654,-12.7244 -0.81654,-8.50561 -0.81654,-12.79244 0,-3.13007 2.65375,-5.71578 2.7218,-2.5857 6.12404,-2.5857 3.60638,0 8.91389,7.89321 16.94318,25.38075 30.48412,42.18785 16.12665,19.93716 35.38336,38.10516 0.20414,-2.92594 0,-8.64171 l -0.20413,-8.57366 q 0,-29.87172 -2.31353,-47.5634 -0.27218,-1.76917 -1.83721,-7.14472 -1.3609,-4.62705 -1.3609,-7.21276 0,-7.89321 7.21276,-7.89321 11.83982,0 11.83982,44.16115 0,7.55299 -0.20414,22.59092 -0.20413,14.96988 -0.20413,22.52287 z" /><path
     id="path865"
     style="font-style:normal;font-variant:normal;font-weight:normal;font-stretch:normal;font-family:'Comic Sans MS';-inkscape-font-specification:'Comic Sans MS';text-align:center;word-spacing:0.24px;text-anchor:middle;fill:#ffffff;stroke-width:3.4839"
     d="m 661.44157,390.15095 q -5.03532,0 -15.51424,-0.81654 -10.20674,-0.74849 -15.51424,-0.68044 h -4.83119 q 0.20413,9.39019 1.83721,30.48412 1.49699,19.66498 1.49699,30.55217 0,2.38157 0.47631,7.21276 0.47632,4.83119 0.47632,7.28081 0,4.62705 -1.49699,7.96126 -1.90526,4.49096 -5.91991,4.49096 -2.72179,0 -4.89923,-1.90526 -2.17744,-1.90525 -2.17744,-4.89923 0,-1.02068 0.34023,-3.06202 0.34022,-2.04135 0.34022,-3.06202 0,-3.33421 -0.47631,-10.00261 -0.40827,-6.6684 -0.40827,-10.07065 0,-9.73042 -1.56504,-27.35406 -1.63308,-19.05257 -1.83721,-27.35406 l -6.19209,0.0681 q -14.90184,0 -23.40745,-2.17744 -5.51164,-1.42894 -5.51164,-6.73645 0,-2.78984 1.76917,-4.89923 2.04135,-2.38157 5.23946,-2.17744 2.38157,0.13609 10.88718,1.22481 6.8045,0.81654 11.02328,0.81654 4.0827,0 12.38418,-0.13609 8.30148,-0.20413 12.38417,-0.20413 5.23946,0 15.51425,0.74849 10.34282,0.74849 15.58228,0.74849 2.92594,0 4.89924,2.04135 1.9733,1.9733 1.9733,4.96728 0,2.92593 -1.9733,4.96728 -1.9733,1.9733 -4.89924,1.9733 z" /><path
     id="path867"
     style="font-style:normal;font-variant:normal;font-weight:normal;font-stretch:normal;font-family:'Comic Sans MS';-inkscape-font-specification:'Comic Sans MS';text-align:center;word-spacing:0.24px;text-anchor:middle;fill:#ffffff;stroke-width:3.4839"
     d="m 758.53911,478.13304 q -6.26013,0 -10.88719,-16.0586 -1.76917,-6.12405 -4.42292,-21.43415 -6.94058,0.95263 -18.16799,3.40224 l -18.09995,3.74247 q -3.40225,8.91389 -11.63568,26.06121 -2.17744,3.81051 -5.91991,3.81051 -2.7218,0 -4.89924,-1.9733 -2.10939,-1.9733 -2.10939,-4.89923 0,-3.26616 10.27478,-24.8364 -1.15676,-1.76917 -1.15676,-4.0827 0,-5.51163 6.6684,-7.07667 7.75712,-14.56161 19.59694,-33.4781 16.12665,-25.78903 20.07325,-25.78903 5.37555,0 7.34885,7.48495 l 4.28683,22.86309 10.1387,47.29122 3.87856,10.7511 q 1.9733,5.51164 1.9733,7.34885 0,2.92593 -2.10939,4.89924 -2.10939,1.9733 -4.83119,1.9733 z M 734.51925,400.35769 715.0584,431.7264 q 8.23344,-2.10939 24.97249,-5.10337 z" /><path
     id="path869"
     style="font-style:normal;font-variant:normal;font-weight:bold;font-stretch:normal;font-family:'Comic Sans MS';-inkscape-font-specification:'Comic Sans MS Bold'"
     d="m 802.01721,455.88235 q -3.81052,0 -6.32818,-2.38157 -2.44962,-2.38158 -2.44962,-5.98796 0,-2.65375 -0.20413,-7.89321 -0.13609,-5.3075 -0.13609,-7.96125 0,-9.3902 0.13609,-28.1706 0.20413,-18.7804 0.20413,-28.1706 0,-3.60638 2.51767,-5.98795 2.51766,-2.44962 6.26013,-2.44962 3.74247,0 6.26013,2.44962 2.51766,2.38157 2.51766,5.98795 v 72.19566 q 0,3.60638 -2.51766,5.98796 -2.44961,2.38157 -6.26013,2.38157 z m -0.20414,24.70031 q -4.08269,0 -7.62103,-4.35488 -3.19811,-4.01465 -3.19811,-7.48494 0,-3.53834 2.78984,-5.91991 2.78985,-2.38157 6.32818,-2.38157 4.0827,0 7.55299,4.35487 3.19811,4.01465 3.19811,7.4169 0,3.47029 -2.78984,5.91991 -2.7218,2.44962 -6.26014,2.44962 z" /></g><text
   style="fill:black;fill-opacity:1;line-height:1.25;stroke:none;font-family:sans-serif;font-style:normal;font-weight:normal;font-size:40px;white-space:pre;shape-inside:url(#rect28);"
   id="text26"
   xml:space="preserve" /></svg>
