<?xml version="1.0" encoding="UTF-8"?>
<!DOCTYPE svg PUBLIC "-//W3C//DTD SVG 1.1//EN" "http://www.w3.org/Graphics/SVG/1.1/DTD/svg11.dtd">
<svg version="1.2" width="162.66mm" height="44.87mm" viewBox="2692 19817 16266 4487" preserveAspectRatio="xMidYMid" fill-rule="evenodd" stroke-width="28.222" stroke-linejoin="round" xmlns="http://www.w3.org/2000/svg" xmlns:ooo="http://xml.openoffice.org/svg/export" xmlns:xlink="http://www.w3.org/1999/xlink" xmlns:presentation="http://sun.com/xmlns/staroffice/presentation" xmlns:smil="http://www.w3.org/2001/SMIL20/" xmlns:anim="urn:oasis:names:tc:opendocument:xmlns:animation:1.0" xml:space="preserve">
 <defs class="EmbeddedBulletChars">
  <g id="bullet-char-template-57356" transform="scale(0.00048828125,-0.00048828125)">
   <path d="M 580,1141 L 1163,571 580,0 -4,571 580,1141 Z"/>
  </g>
  <g id="bullet-char-template-57354" transform="scale(0.00048828125,-0.00048828125)">
   <path d="M 8,1128 L 1137,1128 1137,0 8,0 8,1128 Z"/>
  </g>
  <g id="bullet-char-template-10146" transform="scale(0.00048828125,-0.00048828125)">
   <path d="M 174,0 L 602,739 174,1481 1456,739 174,0 Z M 1358,739 L 309,1346 659,739 1358,739 Z"/>
  </g>
  <g id="bullet-char-template-10132" transform="scale(0.00048828125,-0.00048828125)">
   <path d="M 2015,739 L 1276,0 717,0 1260,543 174,543 174,936 1260,936 717,1481 1274,1481 2015,739 Z"/>
  </g>
  <g id="bullet-char-template-10007" transform="scale(0.00048828125,-0.00048828125)">
   <path d="M 0,-2 C -7,14 -16,27 -25,37 L 356,567 C 262,823 215,952 215,954 215,979 228,992 255,992 264,992 276,990 289,987 310,991 331,999 354,1012 L 381,999 492,748 772,1049 836,1024 860,1049 C 881,1039 901,1025 922,1006 886,937 835,863 770,784 769,783 710,716 594,584 L 774,223 C 774,196 753,168 711,139 L 727,119 C 717,90 699,76 672,76 641,76 570,178 457,381 L 164,-76 C 142,-110 111,-127 72,-127 30,-127 9,-110 8,-76 1,-67 -2,-52 -2,-32 -2,-23 -1,-13 0,-2 Z"/>
  </g>
  <g id="bullet-char-template-10004" transform="scale(0.00048828125,-0.00048828125)">
   <path d="M 285,-33 C 182,-33 111,30 74,156 52,228 41,333 41,471 41,549 55,616 82,672 116,743 169,778 240,778 293,778 328,747 346,684 L 369,508 C 377,444 397,411 428,410 L 1163,1116 C 1174,1127 1196,1133 1229,1133 1271,1133 1292,1118 1292,1087 L 1292,965 C 1292,929 1282,901 1262,881 L 442,47 C 390,-6 338,-33 285,-33 Z"/>
  </g>
  <g id="bullet-char-template-9679" transform="scale(0.00048828125,-0.00048828125)">
   <path d="M 813,0 C 632,0 489,54 383,161 276,268 223,411 223,592 223,773 276,916 383,1023 489,1130 632,1184 813,1184 992,1184 1136,1130 1245,1023 1353,916 1407,772 1407,592 1407,412 1353,268 1245,161 1136,54 992,0 813,0 Z"/>
  </g>
  <g id="bullet-char-template-8226" transform="scale(0.00048828125,-0.00048828125)">
   <path d="M 346,457 C 273,457 209,483 155,535 101,586 74,649 74,723 74,796 101,859 155,911 209,963 273,989 346,989 419,989 480,963 531,910 582,859 608,796 608,723 608,648 583,586 532,535 482,483 420,457 346,457 Z"/>
  </g>
  <g id="bullet-char-template-8211" transform="scale(0.00048828125,-0.00048828125)">
   <path d="M -4,459 L 1135,459 1135,606 -4,606 -4,459 Z"/>
  </g>
  <g id="bullet-char-template-61548" transform="scale(0.00048828125,-0.00048828125)">
   <path d="M 173,740 C 173,903 231,1043 346,1159 462,1274 601,1332 765,1332 928,1332 1067,1274 1183,1159 1299,1043 1357,903 1357,740 1357,577 1299,437 1183,322 1067,206 928,148 765,148 601,148 462,206 346,322 231,437 173,577 173,740 Z"/>
  </g>
 </defs>
 <g class="Page">
  <g class="Group">
   <g class="com.sun.star.drawing.ClosedBezierShape">
    <g id="id3">
     <rect class="BoundingBox" stroke="none" fill="none" x="13199" y="20809" width="752" height="2502"/>
     <path fill="rgb(134,135,137)" stroke="none" d="M 13575,22810 L 13575,20809 13950,20809 13950,23310 13199,23310 C 13324,23310 13575,23061 13575,22810 Z"/>
    </g>
   </g>
   <g class="com.sun.star.drawing.PolyPolygonShape">
    <g id="id4">
     <rect class="BoundingBox" stroke="none" fill="none" x="3323" y="23434" width="15003" height="252"/>
     <path fill="rgb(0,126,112)" stroke="none" d="M 3324,23685 L 18325,23685 18325,23434 3324,23434 3324,23685 Z"/>
    </g>
   </g>
   <g class="com.sun.star.drawing.PolyPolygonShape">
    <g id="id5">
     <rect class="BoundingBox" stroke="none" fill="none" x="16699" y="21559" width="1377" height="1752"/>
     <path fill="rgb(134,135,137)" stroke="none" d="M 17199,21933 L 17199,21559 18075,21559 18075,23310 16699,23310 16699,21933 17199,21933 Z"/>
    </g>
   </g>
   <g class="com.sun.star.drawing.ClosedBezierShape">
    <g id="id6">
     <rect class="BoundingBox" stroke="none" fill="none" x="11074" y="21559" width="1377" height="1752"/>
     <path fill="rgb(134,135,137)" stroke="none" d="M 11949,22810 L 11949,21559 11074,21559 11074,23310 12450,23310 C 12201,23310 11949,23059 11949,22810 Z"/>
    </g>
   </g>
   <g class="com.sun.star.drawing.PolyPolygonShape">
    <g id="id7">
     <rect class="BoundingBox" stroke="none" fill="none" x="3323" y="20933" width="15003" height="503"/>
     <path fill="rgb(0,75,128)" stroke="none" d="M 3324,20934 L 18325,20934 18325,21435 3324,21435 3324,20934 Z"/>
    </g>
   </g>
   <g class="com.sun.star.drawing.ClosedBezierShape">
    <g id="id8">
     <rect class="BoundingBox" stroke="none" fill="none" x="12573" y="21559" width="503" height="1502"/>
     <path fill="rgb(134,135,137)" stroke="none" d="M 12574,21559 L 13075,21559 13075,22810 C 13075,22935 12949,23060 12823,23060 12698,23060 12574,22935 12574,22810 L 12574,21559 Z"/>
    </g>
   </g>
   <g class="com.sun.star.drawing.PolyPolygonShape">
    <g id="id9">
     <rect class="BoundingBox" stroke="none" fill="none" x="14574" y="21559" width="1502" height="1752"/>
     <path fill="rgb(134,135,137)" stroke="none" d="M 16075,21933 L 15575,21933 15575,21559 15323,21559 15323,21933 14574,21933 14574,22309 15074,22309 15074,22684 14574,22684 14574,23310 16075,23310 16075,21933 Z"/>
    </g>
   </g>
   <g class="com.sun.star.drawing.PolyPolygonShape">
    <g id="id10">
     <rect class="BoundingBox" stroke="none" fill="none" x="11074" y="20434" width="2502" height="377"/>
     <path fill="rgb(134,135,137)" stroke="none" d="M 11074,20434 L 13575,20434 13575,20810 11074,20810 11074,20434 Z"/>
    </g>
   </g>
   <g class="com.sun.star.drawing.PolyPolygonShape">
    <g id="id11">
     <rect class="BoundingBox" stroke="none" fill="none" x="13949" y="20434" width="4127" height="377"/>
     <path fill="rgb(134,135,137)" stroke="none" d="M 18075,20434 L 13949,20434 13949,20810 18075,20810 18075,20434 Z"/>
    </g>
   </g>
   <g class="com.sun.star.drawing.ClosedBezierShape">
    <g id="id12">
     <rect class="BoundingBox" stroke="none" fill="none" x="3462" y="21618" width="7365" height="468"/>
     <path fill="rgb(27,25,24)" stroke="none" d="M 3462,21914 C 3463,22030 3522,22086 3639,22084 3755,22086 3814,22029 3816,21914 L 3816,21626 3729,21626 3729,21887 C 3729,21925 3722,21956 3709,21979 3695,22003 3672,22014 3639,22014 3607,22014 3583,22003 3569,21979 3555,21956 3548,21925 3549,21887 L 3549,21626 3462,21626 3462,21914 Z M 3462,21914 L 3462,21914 Z M 3924,22077 L 4007,22077 4007,21740 4009,21740 4175,22077 4281,22077 4281,21626 4198,21626 4198,21963 4197,21963 4031,21626 3924,21626 3924,22077 Z M 3924,22077 L 3924,22077 Z M 4385,22077 L 4472,22077 4472,21626 4385,21626 4385,22077 Z M 4385,22077 L 4385,22077 Z M 4676,22077 L 4783,22077 4929,21626 4843,21626 4733,21980 4732,21980 4620,21626 4527,21626 4676,22077 Z M 4676,22077 L 4676,22077 Z M 4999,22077 L 5257,22077 5257,22007 5086,22007 5086,21879 5241,21879 5241,21809 5086,21809 5086,21696 5256,21696 5256,21626 4999,21626 4999,22077 Z M 4999,22077 L 4999,22077 Z M 5436,21696 L 5465,21696 C 5476,21696 5487,21696 5498,21697 5509,21698 5519,21701 5527,21704 5536,21708 5543,21714 5549,21722 5554,21730 5557,21742 5557,21756 5557,21770 5554,21781 5549,21790 5543,21798 5536,21804 5527,21808 5519,21813 5509,21816 5498,21817 5487,21819 5476,21819 5465,21819 L 5436,21819 5436,21696 Z M 5436,21696 L 5436,21696 Z M 5349,22077 L 5436,22077 5436,21889 5464,21889 C 5482,21889 5495,21893 5504,21900 5512,21907 5519,21919 5525,21936 L 5577,22077 5674,22077 5604,21900 C 5600,21890 5594,21879 5587,21870 5579,21861 5570,21855 5558,21854 L 5558,21852 C 5586,21848 5608,21837 5624,21817 5640,21798 5648,21775 5648,21749 5647,21716 5641,21692 5630,21675 5618,21658 5601,21646 5581,21640 5561,21632 5539,21628 5515,21627 5491,21626 5467,21626 5443,21626 L 5349,21626 5349,22077 Z M 5349,22077 L 5349,22077 Z M 5982,21708 L 5990,21634 C 5958,21624 5924,21619 5886,21619 5847,21619 5812,21629 5782,21649 5751,21670 5735,21706 5734,21757 5734,21775 5737,21790 5743,21804 5749,21817 5756,21828 5765,21838 5774,21847 5785,21854 5796,21861 5807,21868 5818,21874 5830,21879 5855,21888 5876,21898 5895,21909 5904,21914 5911,21920 5917,21928 5922,21936 5925,21945 5925,21955 5924,21976 5916,21991 5899,22000 5883,22010 5865,22014 5847,22014 5813,22014 5780,22005 5749,21987 L 5749,21987 5741,22067 C 5762,22072 5780,22076 5796,22079 5811,22083 5830,22084 5853,22084 5898,22084 5937,22074 5968,22053 5999,22032 6015,21997 6016,21947 6016,21928 6013,21912 6008,21898 6002,21885 5995,21873 5986,21864 5978,21854 5968,21846 5956,21839 5945,21832 5933,21827 5921,21822 5909,21817 5898,21812 5887,21807 5876,21803 5865,21798 5856,21793 5847,21788 5840,21782 5834,21776 5828,21769 5825,21761 5825,21752 5825,21740 5828,21728 5832,21720 5837,21712 5842,21705 5849,21701 5856,21696 5863,21693 5871,21691 5879,21689 5886,21688 5894,21688 5925,21689 5954,21695 5982,21708 Z M 5982,21708 L 5982,21708 Z M 6099,22077 L 6186,22077 6186,21626 6099,21626 6099,22077 Z M 6099,22077 L 6099,22077 Z M 6284,22077 L 6403,22077 C 6437,22077 6469,22073 6499,22066 6529,22059 6556,22048 6579,22031 6602,22014 6621,21991 6634,21960 6648,21932 6654,21895 6654,21851 6654,21806 6648,21769 6634,21740 6621,21710 6602,21688 6579,21671 6531,21640 6472,21625 6403,21626 L 6284,21626 6284,22077 Z M 6284,22077 L 6284,22077 Z M 6371,21696 L 6420,21696 C 6458,21696 6491,21710 6520,21737 6548,21764 6562,21802 6563,21851 6562,21900 6548,21938 6520,21965 6491,21993 6458,22007 6420,22007 L 6371,22007 6371,21696 Z M 6371,21696 L 6371,21696 Z M 6993,21903 L 6862,21903 6927,21716 6928,21716 6993,21903 Z M 6993,21903 L 6993,21903 Z M 6704,22077 L 6797,22077 6836,21974 7018,21974 7057,22077 7157,22077 6980,21626 6878,21626 6704,22077 Z M 6704,22077 L 6704,22077 Z M 7213,22077 L 7332,22077 C 7366,22077 7398,22073 7428,22066 7458,22059 7485,22048 7508,22031 7531,22014 7550,21991 7563,21960 7576,21932 7583,21895 7583,21851 7583,21806 7576,21769 7563,21740 7550,21710 7531,21688 7508,21671 7460,21640 7401,21625 7332,21626 L 7213,21626 7213,22077 Z M 7213,22077 L 7213,22077 Z M 7300,21696 L 7349,21696 C 7387,21696 7420,21710 7448,21737 7477,21764 7491,21802 7492,21851 7491,21900 7477,21938 7448,21965 7420,21993 7387,22007 7349,22007 L 7300,22007 7300,21696 Z M 7300,21696 L 7300,21696 Z M 7677,22077 L 7935,22077 7935,22007 7764,22007 7764,21879 7919,21879 7919,21809 7764,21809 7764,21696 7934,21696 7934,21626 7677,21626 7677,22077 Z M 7677,22077 L 7677,22077 Z M 8213,22077 L 8300,22077 8300,21879 8447,21879 8447,21809 8300,21809 8300,21696 8454,21696 8454,21626 8213,21626 8213,22077 Z M 8213,22077 L 8213,22077 Z M 8534,22077 L 8792,22077 8792,22007 8621,22007 8621,21879 8776,21879 8776,21809 8621,21809 8621,21696 8791,21696 8791,21626 8534,21626 8534,22077 Z M 8534,22077 L 8534,22077 Z M 8891,22077 L 9010,22077 C 9044,22077 9076,22073 9106,22066 9136,22059 9163,22048 9186,22031 9209,22014 9228,21991 9241,21960 9255,21932 9261,21895 9261,21851 9261,21806 9255,21769 9241,21740 9228,21710 9209,21688 9186,21671 9138,21640 9079,21625 9010,21626 L 8891,21626 8891,22077 Z M 8891,22077 L 8891,22077 Z M 8978,21696 L 9027,21696 C 9065,21696 9098,21710 9126,21737 9155,21764 9169,21802 9170,21851 9169,21900 9155,21938 9126,21965 9098,21993 9065,22007 9027,22007 L 8978,22007 8978,21696 Z M 8978,21696 L 8978,21696 Z M 9355,22077 L 9613,22077 9613,22007 9442,22007 9442,21879 9597,21879 9597,21809 9442,21809 9442,21696 9612,21696 9612,21626 9355,21626 9355,22077 Z M 9355,22077 L 9355,22077 Z M 9793,21696 L 9821,21696 C 9832,21696 9843,21696 9855,21697 9865,21698 9875,21701 9884,21704 9892,21708 9900,21714 9906,21722 9910,21730 9913,21742 9913,21756 9913,21770 9910,21781 9906,21790 9900,21798 9892,21804 9884,21808 9875,21813 9865,21816 9855,21817 9843,21819 9832,21819 9821,21819 L 9793,21819 9793,21696 Z M 9793,21696 L 9793,21696 Z M 9705,22077 L 9793,22077 9793,21889 9820,21889 C 9838,21889 9852,21893 9860,21900 9869,21907 9875,21919 9881,21936 L 9933,22077 10030,22077 9960,21900 C 9956,21890 9950,21879 9943,21870 9935,21861 9926,21855 9914,21854 L 9914,21852 C 9943,21848 9964,21837 9980,21817 9996,21798 10004,21775 10004,21749 10004,21716 9998,21692 9986,21675 9974,21658 9958,21646 9937,21640 9918,21632 9896,21628 9872,21627 9847,21626 9823,21626 9799,21626 L 9705,21626 9705,22077 Z M 9705,22077 L 9705,22077 Z M 10349,21903 L 10218,21903 10283,21716 10284,21716 10349,21903 Z M 10349,21903 L 10349,21903 Z M 10060,22077 L 10153,22077 10193,21974 10375,21974 10413,22077 10513,22077 10337,21626 10235,21626 10060,22077 Z M 10060,22077 L 10060,22077 Z M 10569,22077 L 10825,22077 10825,22007 10656,22007 10656,21626 10569,21626 10569,22077 Z"/>
    </g>
   </g>
   <g class="com.sun.star.drawing.ClosedBezierShape">
    <g id="id13">
     <rect class="BoundingBox" stroke="none" fill="none" x="3484" y="22364" width="7380" height="860"/>
     <path fill="rgb(27,25,24)" stroke="none" d="M 3484,23208 L 3602,23208 C 3637,23208 3668,23205 3698,23198 3728,23191 3755,23179 3778,23163 3802,23146 3820,23123 3834,23093 3847,23065 3853,23028 3853,22984 3853,22939 3847,22902 3834,22873 3820,22844 3802,22822 3778,22805 3730,22773 3671,22758 3602,22759 L 3484,22759 3484,23208 Z M 3484,23208 L 3484,23208 Z M 3571,22830 L 3619,22830 C 3657,22830 3691,22843 3719,22870 3747,22897 3761,22935 3762,22984 3761,23033 3747,23071 3719,23098 3691,23125 3657,23138 3619,23138 L 3571,23138 3571,22830 Z M 3571,22830 L 3571,22830 Z M 3926,22983 C 3926,23053 3944,23109 3981,23151 4017,23193 4069,23215 4139,23216 4209,23215 4261,23193 4298,23150 4334,23108 4352,23052 4352,22983 4352,22913 4334,22858 4297,22817 4261,22774 4208,22752 4139,22751 4070,22752 4017,22773 3981,22816 3944,22857 3926,22913 3926,22983 Z M 3926,22983 L 3926,22983 Z M 4017,22983 C 4017,22941 4027,22905 4046,22873 4066,22840 4097,22823 4139,22822 4182,22823 4214,22840 4233,22873 4252,22905 4261,22941 4261,22983 4261,23025 4252,23062 4234,23094 4225,23110 4212,23123 4196,23132 4181,23141 4161,23146 4139,23146 4096,23145 4064,23128 4045,23094 4026,23062 4017,23025 4017,22983 Z M 4017,22983 L 4017,22983 Z M 4636,23208 L 4797,23208 4797,22507 5028,22507 5028,22378 4405,22378 4405,22507 4636,22507 4636,23208 Z M 4636,23208 L 4636,23208 Z M 5112,22790 C 5112,22920 5145,23024 5213,23101 5279,23180 5377,23221 5506,23223 5634,23221 5732,23180 5799,23100 5865,23022 5899,22919 5899,22790 5899,22662 5866,22559 5798,22482 5731,22405 5633,22365 5506,22364 5377,22364 5280,22404 5213,22481 5145,22558 5112,22661 5112,22790 Z M 5112,22790 L 5112,22790 Z M 5280,22790 C 5280,22713 5298,22645 5334,22586 5370,22526 5427,22494 5506,22493 5585,22494 5643,22526 5679,22586 5714,22645 5731,22713 5731,22790 5731,22869 5714,22938 5680,22998 5664,23026 5640,23050 5611,23067 5582,23084 5547,23093 5506,23093 5425,23092 5367,23060 5332,22998 5296,22938 5279,22869 5280,22790 Z M 5280,22790 L 5280,22790 Z M 6654,23059 L 6654,23059 C 6635,23068 6609,23076 6577,23083 6544,23090 6511,23093 6478,23093 6392,23093 6325,23064 6277,23008 6229,22953 6205,22883 6205,22796 6205,22707 6229,22635 6278,22579 6325,22523 6390,22494 6474,22493 6503,22493 6532,22495 6561,22501 6589,22508 6618,22520 6648,22537 L 6648,22537 6659,22398 C 6596,22375 6535,22364 6478,22364 6189,22367 6042,22514 6036,22808 6037,22948 6078,23052 6160,23119 6240,23188 6345,23223 6478,23223 6540,23222 6601,23213 6661,23197 L 6654,23059 Z M 6654,23059 L 6654,23059 Z M 7255,22889 L 7011,22889 7132,22544 7134,22544 7255,22889 Z M 7255,22889 L 7255,22889 Z M 6719,23208 L 6891,23208 6964,23018 7301,23018 7373,23208 7557,23208 7231,22378 7042,22378 6719,23208 Z M 6719,23208 L 6719,23208 Z M 7654,23208 L 7808,23208 7808,22587 7810,22587 8118,23208 8314,23208 8314,22378 8160,22378 8160,22999 8158,22999 7851,22378 7654,22378 7654,23208 Z M 7654,23208 L 7654,23208 Z M 8665,23208 L 8827,23208 8827,22507 9057,22507 9057,22378 8435,22378 8435,22507 8665,22507 8665,23208 Z M 8665,23208 L 8665,23208 Z M 9167,23208 L 9328,23208 9328,22378 9167,22378 9167,23208 Z M 9167,23208 L 9167,23208 Z M 9503,23208 L 9657,23208 9657,22587 9660,22587 9967,23208 10164,23208 10164,22378 10010,22378 10010,22999 10007,22999 9701,22378 9503,22378 9503,23208 Z M 9503,23208 L 9503,23208 Z M 10801,22529 L 10815,22393 C 10757,22373 10693,22364 10623,22364 10550,22364 10486,22382 10431,22419 10374,22459 10344,22525 10343,22617 10343,22650 10348,22679 10358,22704 10369,22729 10383,22750 10399,22767 10416,22784 10436,22799 10457,22811 10477,22824 10498,22835 10520,22844 10565,22862 10605,22880 10640,22900 10657,22909 10670,22921 10681,22935 10690,22949 10694,22967 10694,22986 10694,23023 10678,23050 10647,23067 10617,23085 10585,23093 10552,23093 10487,23093 10427,23075 10370,23042 L 10370,23042 10355,23190 C 10394,23200 10427,23207 10457,23213 10485,23219 10520,23223 10561,23223 10646,23223 10717,23203 10775,23164 10832,23125 10861,23061 10863,22971 10863,22935 10858,22905 10849,22880 10839,22855 10825,22834 10809,22816 10793,22798 10774,22782 10753,22769 10732,22757 10711,22747 10688,22738 10666,22729 10645,22720 10625,22711 10604,22703 10585,22694 10567,22685 10551,22675 10538,22664 10527,22653 10516,22641 10511,22626 10511,22609 10511,22586 10515,22567 10523,22552 10532,22536 10543,22524 10555,22516 10568,22507 10581,22501 10596,22498 10610,22494 10624,22493 10637,22493 10695,22494 10750,22506 10801,22529 Z"/>
    </g>
   </g>
  </g>
  <g class="com.sun.star.drawing.PolyPolygonShape">
   <g id="id14">
    <rect class="BoundingBox" stroke="none" fill="none" x="2692" y="19817" width="16266" height="4487"/>
    <path fill="none" stroke="rgb(236,236,237)" stroke-width="8" stroke-linejoin="miter" d="M 2696,19821 L 18953,19821 18953,24299 2696,24299 2696,19821 Z"/>
   </g>
  </g>
 </g>
</svg>