<?xml version="1.0" encoding="UTF-8"?>
<!DOCTYPE svg PUBLIC "-//W3C//DTD SVG 1.1//EN" "http://www.w3.org/Graphics/SVG/1.1/DTD/svg11.dtd">
<svg version="1.2" width="215.9mm" height="279.4mm" viewBox="0 0 21590 27940" preserveAspectRatio="xMidYMid" fill-rule="evenodd" stroke-width="28.222" stroke-linejoin="round" xmlns="http://www.w3.org/2000/svg" xmlns:ooo="http://xml.openoffice.org/svg/export" xmlns:xlink="http://www.w3.org/1999/xlink" xmlns:presentation="http://sun.com/xmlns/staroffice/presentation" xmlns:smil="http://www.w3.org/2001/SMIL20/" xmlns:anim="urn:oasis:names:tc:opendocument:xmlns:animation:1.0" xml:space="preserve">
 <defs class="ClipPathGroup">
  <clipPath id="presentation_clip_path" clipPathUnits="userSpaceOnUse">
   <rect x="0" y="0" width="21590" height="27940"/>
  </clipPath>
  <clipPath id="presentation_clip_path_shrink" clipPathUnits="userSpaceOnUse">
   <rect x="21" y="27" width="21547" height="27885"/>
  </clipPath>
 </defs>
 <defs class="TextShapeIndex">
  <g ooo:slide="id1" ooo:id-list="id3 id4 id5 id6 id7 id8 id9 id10 id11 id12 id13 id14 id15 id16 id17 id18 id19 id20 id21 id22 id23 id24 id25 id26"/>
 </defs>
 <defs class="EmbeddedBulletChars">
  <g id="bullet-char-template-57356" transform="scale(0.00048828125,-0.00048828125)">
   <path d="M 580,1141 L 1163,571 580,0 -4,571 580,1141 Z"/>
  </g>
  <g id="bullet-char-template-57354" transform="scale(0.00048828125,-0.00048828125)">
   <path d="M 8,1128 L 1137,1128 1137,0 8,0 8,1128 Z"/>
  </g>
  <g id="bullet-char-template-10146" transform="scale(0.00048828125,-0.00048828125)">
   <path d="M 174,0 L 602,739 174,1481 1456,739 174,0 Z M 1358,739 L 309,1346 659,739 1358,739 Z"/>
  </g>
  <g id="bullet-char-template-10132" transform="scale(0.00048828125,-0.00048828125)">
   <path d="M 2015,739 L 1276,0 717,0 1260,543 174,543 174,936 1260,936 717,1481 1274,1481 2015,739 Z"/>
  </g>
  <g id="bullet-char-template-10007" transform="scale(0.00048828125,-0.00048828125)">
   <path d="M 0,-2 C -7,14 -16,27 -25,37 L 356,567 C 262,823 215,952 215,954 215,979 228,992 255,992 264,992 276,990 289,987 310,991 331,999 354,1012 L 381,999 492,748 772,1049 836,1024 860,1049 C 881,1039 901,1025 922,1006 886,937 835,863 770,784 769,783 710,716 594,584 L 774,223 C 774,196 753,168 711,139 L 727,119 C 717,90 699,76 672,76 641,76 570,178 457,381 L 164,-76 C 142,-110 111,-127 72,-127 30,-127 9,-110 8,-76 1,-67 -2,-52 -2,-32 -2,-23 -1,-13 0,-2 Z"/>
  </g>
  <g id="bullet-char-template-10004" transform="scale(0.00048828125,-0.00048828125)">
   <path d="M 285,-33 C 182,-33 111,30 74,156 52,228 41,333 41,471 41,549 55,616 82,672 116,743 169,778 240,778 293,778 328,747 346,684 L 369,508 C 377,444 397,411 428,410 L 1163,1116 C 1174,1127 1196,1133 1229,1133 1271,1133 1292,1118 1292,1087 L 1292,965 C 1292,929 1282,901 1262,881 L 442,47 C 390,-6 338,-33 285,-33 Z"/>
  </g>
  <g id="bullet-char-template-9679" transform="scale(0.00048828125,-0.00048828125)">
   <path d="M 813,0 C 632,0 489,54 383,161 276,268 223,411 223,592 223,773 276,916 383,1023 489,1130 632,1184 813,1184 992,1184 1136,1130 1245,1023 1353,916 1407,772 1407,592 1407,412 1353,268 1245,161 1136,54 992,0 813,0 Z"/>
  </g>
  <g id="bullet-char-template-8226" transform="scale(0.00048828125,-0.00048828125)">
   <path d="M 346,457 C 273,457 209,483 155,535 101,586 74,649 74,723 74,796 101,859 155,911 209,963 273,989 346,989 419,989 480,963 531,910 582,859 608,796 608,723 608,648 583,586 532,535 482,483 420,457 346,457 Z"/>
  </g>
  <g id="bullet-char-template-8211" transform="scale(0.00048828125,-0.00048828125)">
   <path d="M -4,459 L 1135,459 1135,606 -4,606 -4,459 Z"/>
  </g>
  <g id="bullet-char-template-61548" transform="scale(0.00048828125,-0.00048828125)">
   <path d="M 173,740 C 173,903 231,1043 346,1159 462,1274 601,1332 765,1332 928,1332 1067,1274 1183,1159 1299,1043 1357,903 1357,740 1357,577 1299,437 1183,322 1067,206 928,148 765,148 601,148 462,206 346,322 231,437 173,577 173,740 Z"/>
  </g>
 </defs>
 <g>
  <g id="id2" class="Master_Slide">
   <g id="bg-id2" class="Background"/>
   <g id="bo-id2" class="BackgroundObjects"/>
  </g>
 </g>
 <g class="SlideGroup">
  <g>
   <g id="container-id1">
    <g id="id1" class="Slide" clip-path="url(#presentation_clip_path)">
     <g class="Page">
      <g class="Group">
       <g class="com.sun.star.drawing.PolyPolygonShape">
        <g id="id3">
         <rect class="BoundingBox" stroke="none" fill="none" x="4583" y="4116" width="12975" height="9759"/>
         <path fill="none" stroke="rgb(27,25,24)" stroke-width="20" stroke-linejoin="miter" d="M 4593,4126 L 17547,4126 17547,13864 4593,13864 4593,4126 Z"/>
        </g>
       </g>
       <g class="com.sun.star.drawing.ClosedBezierShape">
        <g id="id4">
         <rect class="BoundingBox" stroke="none" fill="none" x="9175" y="5998" width="1026" height="3414"/>
         <path fill="rgb(27,25,24)" stroke="none" d="M 9687,8729 L 9687,6875 10200,6875 10200,9411 9175,9411 C 9345,9411 9687,9070 9687,8729 Z M 9687,8729 L 9687,8729 Z M 9687,6136 L 9687,5998 10200,5998 10200,6136 9687,6136 Z"/>
        </g>
       </g>
       <g class="com.sun.star.drawing.PolyPolygonShape">
        <g id="id5">
         <rect class="BoundingBox" stroke="none" fill="none" x="5934" y="9580" width="10238" height="344"/>
         <path fill="rgb(27,25,24)" stroke="none" d="M 5934,9923 L 16170,9923 16170,9581 5934,9581 5934,9923 Z"/>
        </g>
       </g>
       <g class="com.sun.star.drawing.PolyPolygonShape">
        <g id="id6">
         <rect class="BoundingBox" stroke="none" fill="none" x="13951" y="7022" width="1879" height="2390"/>
         <path fill="rgb(27,25,24)" stroke="none" d="M 14634,7533 L 14634,7022 15829,7022 15829,9411 13951,9411 13951,7533 14634,7533 Z"/>
        </g>
       </g>
       <g class="com.sun.star.drawing.ClosedBezierShape">
        <g id="id7">
         <rect class="BoundingBox" stroke="none" fill="none" x="6275" y="7022" width="1880" height="2390"/>
         <path fill="rgb(27,25,24)" stroke="none" d="M 7470,8728 L 7470,7022 6275,7022 6275,9411 8153,9411 C 7812,9411 7470,9070 7470,8728 Z"/>
        </g>
       </g>
       <g class="com.sun.star.drawing.PolyPolygonShape">
        <g id="id8">
         <rect class="BoundingBox" stroke="none" fill="none" x="5934" y="6169" width="10238" height="684"/>
         <path fill="rgb(27,25,24)" stroke="none" d="M 5934,6169 L 16170,6169 16170,6852 5934,6852 5934,6169 Z"/>
        </g>
       </g>
       <g class="com.sun.star.drawing.ClosedBezierShape">
        <g id="id9">
         <rect class="BoundingBox" stroke="none" fill="none" x="8322" y="7022" width="684" height="2049"/>
         <path fill="rgb(27,25,24)" stroke="none" d="M 8322,7022 L 9005,7022 9005,8728 C 9005,8899 8834,9070 8664,9070 8492,9070 8322,8899 8322,8728 L 8322,7022 Z"/>
        </g>
       </g>
       <g class="com.sun.star.drawing.PolyPolygonShape">
        <g id="id10">
         <rect class="BoundingBox" stroke="none" fill="none" x="11051" y="7022" width="2049" height="2390"/>
         <path fill="rgb(27,25,24)" stroke="none" d="M 13099,7533 L 12416,7533 12416,7022 12074,7022 12074,7533 11051,7533 11051,8045 11733,8045 11733,8558 11051,8558 11051,9411 13099,9411 13099,7533 Z"/>
        </g>
       </g>
       <g class="com.sun.star.drawing.PolyPolygonShape">
        <g id="id11">
         <rect class="BoundingBox" stroke="none" fill="none" x="6275" y="5487" width="3414" height="514"/>
         <path fill="rgb(27,25,24)" stroke="none" d="M 6275,5487 L 9688,5487 9688,6000 6275,6000 6275,5487 Z"/>
        </g>
       </g>
       <g class="com.sun.star.drawing.PolyPolygonShape">
        <g id="id12">
         <rect class="BoundingBox" stroke="none" fill="none" x="10198" y="5487" width="5632" height="514"/>
         <path fill="rgb(27,25,24)" stroke="none" d="M 15829,5487 L 10198,5487 10198,6000 15829,6000 15829,5487 Z"/>
        </g>
       </g>
       <g class="com.sun.star.drawing.ClosedBezierShape">
        <g id="id13">
         <rect class="BoundingBox" stroke="none" fill="none" x="6273" y="10423" width="9545" height="604"/>
         <path fill="rgb(27,25,24)" stroke="none" d="M 6273,10806 C 6275,10954 6351,11027 6502,11025 6653,11027 6730,10953 6732,10805 L 6732,10432 6619,10432 6619,10770 C 6619,10820 6610,10859 6593,10888 6575,10919 6545,10934 6502,10934 6461,10934 6431,10919 6412,10888 6394,10859 6385,10820 6385,10770 L 6385,10432 6273,10432 6273,10806 Z M 6273,10806 L 6273,10806 Z M 6872,11015 L 6980,11015 6980,10579 6982,10579 7197,11015 7335,11015 7335,10432 7227,10432 7227,10868 7225,10868 7011,10432 6872,10432 6872,11015 Z M 6872,11015 L 6872,11015 Z M 7469,11015 L 7582,11015 7582,10432 7469,10432 7469,11015 Z M 7469,11015 L 7469,11015 Z M 7847,11015 L 7986,11015 8175,10432 8063,10432 7920,10890 7919,10890 7774,10432 7653,10432 7847,11015 Z M 7847,11015 L 7847,11015 Z M 8265,11015 L 8600,11015 8600,10924 8378,10924 8378,10760 8579,10760 8579,10668 8378,10668 8378,10523 8598,10523 8598,10432 8265,10432 8265,11015 Z M 8265,11015 L 8265,11015 Z M 8832,10523 L 8869,10523 C 8883,10523 8898,10523 8913,10524 8926,10526 8939,10529 8950,10534 8962,10539 8971,10547 8979,10557 8985,10568 8988,10582 8988,10600 8988,10617 8985,10632 8979,10643 8971,10654 8962,10662 8950,10667 8939,10673 8926,10677 8913,10678 8898,10680 8883,10682 8869,10682 L 8832,10682 8832,10523 Z M 8832,10523 L 8832,10523 Z M 8719,11015 L 8832,11015 8832,10773 8868,10773 C 8891,10773 8909,10778 8920,10787 8931,10796 8940,10812 8947,10833 L 9014,11015 9140,11015 9050,10787 C 9044,10773 9037,10760 9027,10748 9017,10736 9005,10729 8990,10727 L 8990,10725 C 9027,10719 9055,10704 9075,10679 9096,10654 9106,10624 9106,10590 9106,10549 9098,10518 9083,10496 9067,10474 9046,10459 9020,10450 8994,10441 8966,10435 8935,10433 8903,10433 8872,10432 8841,10432 L 8719,10432 8719,11015 Z M 8719,11015 L 8719,11015 Z M 9540,10539 L 9550,10443 C 9509,10429 9464,10423 9415,10423 9364,10423 9319,10436 9280,10462 9240,10490 9220,10536 9219,10600 9219,10623 9222,10644 9230,10661 9237,10678 9247,10693 9258,10705 9270,10717 9284,10728 9298,10736 9312,10745 9327,10753 9343,10760 9374,10772 9402,10785 9427,10798 9439,10805 9448,10813 9456,10823 9462,10833 9465,10845 9465,10859 9465,10885 9453,10903 9432,10916 9411,10928 9388,10934 9365,10934 9320,10934 9277,10921 9238,10898 L 9238,10898 9227,11002 C 9254,11009 9278,11014 9299,11018 9318,11022 9343,11025 9372,11025 9431,11025 9481,11011 9521,10984 9561,10956 9582,10911 9583,10848 9583,10823 9580,10802 9574,10784 9566,10767 9557,10752 9545,10740 9534,10727 9521,10715 9506,10707 9491,10698 9476,10691 9461,10685 9445,10678 9430,10672 9416,10666 9402,10660 9388,10654 9376,10647 9365,10641 9355,10633 9348,10625 9340,10617 9337,10606 9337,10594 9337,10578 9339,10565 9345,10554 9351,10543 9359,10535 9367,10529 9376,10523 9386,10519 9396,10516 9406,10514 9415,10513 9425,10513 9466,10514 9504,10522 9540,10539 Z M 9540,10539 L 9540,10539 Z M 9691,11015 L 9804,11015 9804,10432 9691,10432 9691,11015 Z M 9691,11015 L 9691,11015 Z M 9931,11015 L 10086,11015 C 10130,11015 10171,11010 10210,11001 10249,10992 10283,10977 10313,10956 10344,10934 10368,10903 10385,10865 10402,10828 10411,10781 10411,10723 10411,10665 10402,10617 10385,10579 10368,10542 10344,10512 10313,10491 10251,10451 10175,10431 10086,10432 L 9931,10432 9931,11015 Z M 9931,11015 L 9931,11015 Z M 10044,10523 L 10107,10523 C 10157,10523 10200,10540 10236,10575 10273,10610 10292,10659 10293,10723 10292,10788 10273,10837 10236,10871 10200,10906 10157,10924 10107,10924 L 10044,10924 10044,10523 Z M 10044,10523 L 10044,10523 Z M 10850,10791 L 10680,10791 10764,10549 10766,10549 10850,10791 Z M 10850,10791 L 10850,10791 Z M 10475,11015 L 10596,11015 10646,10881 10882,10881 10932,11015 11062,11015 10833,10432 10701,10432 10475,11015 Z M 10475,11015 L 10475,11015 Z M 11135,11015 L 11289,11015 C 11333,11015 11375,11010 11413,11001 11452,10992 11487,10977 11517,10956 11547,10934 11571,10903 11589,10865 11606,10828 11614,10781 11614,10723 11614,10665 11606,10617 11589,10579 11571,10542 11547,10512 11517,10491 11454,10451 11379,10431 11289,10432 L 11135,10432 11135,11015 Z M 11135,11015 L 11135,11015 Z M 11248,10523 L 11311,10523 C 11360,10523 11403,10540 11440,10575 11477,10610 11495,10659 11496,10723 11495,10788 11477,10837 11440,10871 11403,10906 11360,10924 11311,10924 L 11248,10924 11248,10523 Z M 11248,10523 L 11248,10523 Z M 11736,11015 L 12071,11015 12071,10924 11849,10924 11849,10760 12050,10760 12050,10668 11849,10668 11849,10523 12069,10523 12069,10432 11736,10432 11736,11015 Z M 11736,11015 L 11736,11015 Z M 12431,11015 L 12544,11015 12544,10760 12734,10760 12734,10668 12544,10668 12544,10523 12744,10523 12744,10432 12431,10432 12431,11015 Z M 12431,11015 L 12431,11015 Z M 12847,11015 L 13182,11015 13182,10924 12960,10924 12960,10760 13161,10760 13161,10668 12960,10668 12960,10523 13180,10523 13180,10432 12847,10432 12847,11015 Z M 12847,11015 L 12847,11015 Z M 13310,11015 L 13464,11015 C 13508,11015 13550,11010 13588,11001 13627,10992 13662,10977 13692,10956 13723,10934 13747,10903 13764,10865 13781,10828 13789,10781 13789,10723 13789,10665 13781,10617 13764,10579 13747,10542 13723,10512 13692,10491 13630,10451 13554,10431 13464,10432 L 13310,10432 13310,11015 Z M 13310,11015 L 13310,11015 Z M 13423,10523 L 13486,10523 C 13536,10523 13579,10540 13615,10575 13652,10610 13670,10659 13672,10723 13670,10788 13652,10837 13615,10871 13579,10906 13536,10924 13486,10924 L 13423,10924 13423,10523 Z M 13423,10523 L 13423,10523 Z M 13911,11015 L 14246,11015 14246,10924 14024,10924 14024,10760 14225,10760 14225,10668 14024,10668 14024,10523 14244,10523 14244,10432 13911,10432 13911,11015 Z M 13911,11015 L 13911,11015 Z M 14478,10523 L 14515,10523 C 14530,10523 14544,10523 14559,10524 14573,10526 14585,10529 14597,10534 14608,10539 14617,10547 14625,10557 14631,10568 14634,10582 14634,10600 14634,10617 14631,10632 14625,10643 14617,10654 14608,10662 14597,10667 14585,10673 14573,10677 14559,10678 14544,10680 14530,10682 14515,10682 L 14478,10682 14478,10523 Z M 14478,10523 L 14478,10523 Z M 14365,11015 L 14478,11015 14478,10773 14515,10773 C 14538,10773 14555,10778 14566,10787 14577,10796 14586,10812 14593,10833 L 14661,11015 14786,11015 14696,10787 C 14690,10773 14683,10760 14673,10748 14664,10736 14651,10729 14636,10727 L 14636,10725 C 14673,10719 14701,10704 14722,10679 14742,10654 14752,10624 14752,10590 14752,10549 14744,10518 14729,10496 14713,10474 14692,10459 14666,10450 14640,10441 14612,10435 14581,10433 14549,10433 14518,10432 14487,10432 L 14365,10432 14365,11015 Z M 14365,11015 L 14365,11015 Z M 15200,10791 L 15030,10791 15115,10549 15116,10549 15200,10791 Z M 15200,10791 L 15200,10791 Z M 14825,11015 L 14946,11015 14997,10881 15233,10881 15283,11015 15412,11015 15184,10432 15052,10432 14825,11015 Z M 14825,11015 L 14825,11015 Z M 15485,11015 L 15817,11015 15817,10924 15597,10924 15597,10432 15485,10432 15485,11015 Z"/>
        </g>
       </g>
       <g class="com.sun.star.drawing.ClosedBezierShape">
        <g id="id14">
         <rect class="BoundingBox" stroke="none" fill="none" x="6301" y="11389" width="9566" height="1114"/>
         <path fill="rgb(27,25,24)" stroke="none" d="M 6301,12483 L 6455,12483 C 6499,12483 6540,12479 6579,12470 6618,12461 6652,12446 6683,12424 6713,12402 6737,12372 6754,12334 6771,12297 6780,12250 6780,12192 6780,12134 6771,12086 6754,12049 6737,12011 6713,11982 6683,11960 6620,11919 6544,11900 6455,11901 L 6301,11901 6301,12483 Z M 6301,12483 L 6301,12483 Z M 6413,11993 L 6476,11993 C 6526,11993 6569,12010 6605,12045 6642,12079 6661,12128 6662,12192 6661,12256 6642,12305 6605,12340 6569,12375 6526,12393 6476,12393 L 6413,12393 6413,11993 Z M 6413,11993 L 6413,11993 Z M 6874,12191 C 6874,12282 6898,12354 6945,12408 6992,12464 7060,12492 7150,12493 7240,12492 7309,12463 7356,12408 7402,12353 7426,12280 7426,12191 7426,12101 7403,12029 7355,11975 7308,11920 7240,11892 7150,11891 7061,11892 6992,11919 6945,11975 6898,12028 6874,12101 6874,12191 Z M 6874,12191 L 6874,12191 Z M 6992,12191 C 6992,12137 7005,12090 7030,12048 7055,12006 7095,11984 7150,11983 7206,11984 7247,12006 7272,12048 7296,12090 7308,12137 7308,12191 7308,12246 7296,12294 7273,12336 7261,12356 7245,12372 7224,12384 7204,12396 7179,12403 7150,12403 7094,12402 7054,12379 7029,12336 7004,12294 6992,12246 6992,12191 Z M 6992,12191 L 6992,12191 Z M 7794,12483 L 8003,12483 8003,11575 8302,11575 8302,11407 7495,11407 7495,11575 7794,11575 7794,12483 Z M 7794,12483 L 7794,12483 Z M 8411,11942 C 8411,12110 8455,12244 8542,12345 8628,12447 8755,12499 8923,12502 9089,12499 9216,12446 9303,12343 9389,12241 9432,12108 9433,11941 9433,11775 9389,11642 9302,11543 9214,11442 9088,11391 8923,11389 8756,11390 8629,11440 8542,11541 8455,11641 8411,11774 8411,11942 Z M 8411,11942 L 8411,11942 Z M 8629,11942 C 8629,11842 8652,11754 8700,11677 8746,11599 8820,11558 8923,11556 9026,11558 9101,11599 9148,11677 9192,11754 9215,11842 9215,11942 9215,12044 9193,12133 9149,12210 9127,12247 9097,12277 9059,12300 9022,12323 8976,12334 8923,12334 8818,12332 8743,12291 8697,12210 8650,12133 8628,12044 8629,11942 Z M 8629,11942 L 8629,11942 Z M 10411,12289 L 10411,12289 C 10386,12302 10353,12312 10311,12321 10268,12330 10225,12334 10183,12334 10071,12333 9984,12296 9923,12223 9860,12153 9828,12061 9828,11949 9828,11834 9860,11741 9924,11668 9985,11595 10069,11557 10178,11556 10215,11556 10253,11560 10290,11566 10327,11575 10365,11591 10404,11613 L 10404,11613 10418,11433 C 10336,11403 10257,11389 10183,11389 9808,11393 9617,11584 9610,11964 9611,12146 9665,12280 9771,12367 9874,12457 10011,12502 10183,12502 10263,12501 10342,12490 10420,12468 L 10411,12289 Z M 10411,12289 L 10411,12289 Z M 11189,12069 L 10874,12069 11030,11622 11033,11622 11189,12069 Z M 11189,12069 L 11189,12069 Z M 10495,12483 L 10719,12483 10813,12237 11249,12237 11342,12483 11580,12483 11158,11407 10914,11407 10495,12483 Z M 10495,12483 L 10495,12483 Z M 11705,12483 L 11905,12483 11905,11678 11908,11678 12307,12483 12562,12483 12562,11407 12362,11407 12362,12212 12359,12212 11962,11407 11705,11407 11705,12483 Z M 11705,12483 L 11705,12483 Z M 13017,12483 L 13226,12483 13226,11575 13526,11575 13526,11407 12718,11407 12718,11575 13017,11575 13017,12483 Z M 13017,12483 L 13017,12483 Z M 13668,12483 L 13877,12483 13877,11407 13668,11407 13668,12483 Z M 13668,12483 L 13668,12483 Z M 14104,12483 L 14304,12483 14304,11678 14307,11678 14705,12483 14960,12483 14960,11407 14760,11407 14760,12212 14757,12212 14360,11407 14104,11407 14104,12483 Z M 14104,12483 L 14104,12483 Z M 15786,11603 L 15805,11427 C 15729,11401 15646,11389 15555,11389 15461,11389 15378,11413 15306,11461 15232,11513 15194,11598 15192,11717 15192,11760 15199,11798 15212,11830 15226,11862 15244,11889 15265,11912 15287,11933 15313,11953 15340,11969 15365,11985 15393,11999 15421,12011 15480,12034 15532,12058 15578,12083 15599,12095 15616,12111 15630,12129 15642,12147 15648,12170 15648,12195 15647,12242 15626,12277 15587,12300 15547,12323 15506,12334 15463,12334 15379,12333 15301,12311 15228,12268 L 15228,12268 15208,12460 C 15258,12473 15302,12482 15340,12489 15376,12498 15421,12502 15475,12502 15585,12502 15677,12476 15752,12426 15826,12376 15864,12292 15866,12176 15866,12130 15861,12090 15849,12057 15835,12025 15817,11998 15796,11975 15776,11952 15751,11931 15723,11914 15697,11899 15669,11886 15640,11874 15611,11862 15584,11850 15558,11839 15531,11829 15506,11817 15483,11805 15462,11792 15445,11779 15431,11763 15417,11748 15410,11729 15410,11706 15410,11677 15416,11652 15426,11632 15437,11612 15451,11596 15467,11586 15484,11575 15501,11567 15520,11562 15538,11558 15556,11556 15574,11556 15649,11557 15720,11573 15786,11603 Z"/>
        </g>
       </g>
      </g>
      <g class="Group">
       <g class="com.sun.star.drawing.PolyPolygonShape">
        <g id="id15">
         <rect class="BoundingBox" stroke="none" fill="none" x="4526" y="14942" width="12975" height="9759"/>
         <path fill="rgb(27,25,24)" stroke="none" d="M 4536,14952 L 17490,14952 17490,24690 4536,24690 4536,14952 Z"/>
         <path fill="none" stroke="rgb(27,25,24)" stroke-width="20" stroke-linejoin="miter" d="M 4536,14952 L 17490,14952 17490,24690 4536,24690 4536,14952 Z"/>
        </g>
       </g>
       <g class="Group">
        <g class="com.sun.star.drawing.ClosedBezierShape">
         <g id="id16">
          <rect class="BoundingBox" stroke="none" fill="none" x="9119" y="16824" width="1026" height="3414"/>
          <path fill="rgb(255,255,255)" stroke="none" d="M 9631,19555 L 9631,17701 10144,17701 10144,20237 9119,20237 C 9289,20237 9631,19896 9631,19555 Z M 9631,19555 L 9631,19555 Z M 9631,16962 L 9631,16824 10144,16824 10144,16962 9631,16962 Z"/>
         </g>
        </g>
        <g class="com.sun.star.drawing.PolyPolygonShape">
         <g id="id17">
          <rect class="BoundingBox" stroke="none" fill="none" x="5878" y="20407" width="10237" height="343"/>
          <path fill="rgb(255,255,255)" stroke="none" d="M 5878,20749 L 16114,20749 16114,20407 5878,20407 5878,20749 Z"/>
         </g>
        </g>
        <g class="com.sun.star.drawing.PolyPolygonShape">
         <g id="id18">
          <rect class="BoundingBox" stroke="none" fill="none" x="13895" y="17848" width="1880" height="2390"/>
          <path fill="rgb(255,255,255)" stroke="none" d="M 14578,18359 L 14578,17848 15773,17848 15773,20237 13895,20237 13895,18359 14578,18359 Z"/>
         </g>
        </g>
        <g class="com.sun.star.drawing.ClosedBezierShape">
         <g id="id19">
          <rect class="BoundingBox" stroke="none" fill="none" x="6219" y="17848" width="1879" height="2390"/>
          <path fill="rgb(255,255,255)" stroke="none" d="M 7414,19554 L 7414,17848 6219,17848 6219,20237 8097,20237 C 7756,20237 7414,19896 7414,19554 Z"/>
         </g>
        </g>
        <g class="com.sun.star.drawing.PolyPolygonShape">
         <g id="id20">
          <rect class="BoundingBox" stroke="none" fill="none" x="5878" y="16995" width="10237" height="684"/>
          <path fill="rgb(255,255,255)" stroke="none" d="M 5878,16995 L 16114,16995 16114,17678 5878,17678 5878,16995 Z"/>
         </g>
        </g>
        <g class="com.sun.star.drawing.ClosedBezierShape">
         <g id="id21">
          <rect class="BoundingBox" stroke="none" fill="none" x="8266" y="17848" width="684" height="2049"/>
          <path fill="rgb(255,255,255)" stroke="none" d="M 8266,17848 L 8949,17848 8949,19554 C 8949,19725 8778,19896 8608,19896 8436,19896 8266,19725 8266,19554 L 8266,17848 Z"/>
         </g>
        </g>
        <g class="com.sun.star.drawing.PolyPolygonShape">
         <g id="id22">
          <rect class="BoundingBox" stroke="none" fill="none" x="10995" y="17848" width="2049" height="2390"/>
          <path fill="rgb(255,255,255)" stroke="none" d="M 13043,18359 L 12360,18359 12360,17848 12018,17848 12018,18359 10995,18359 10995,18871 11677,18871 11677,19384 10995,19384 10995,20237 13043,20237 13043,18359 Z"/>
         </g>
        </g>
        <g class="com.sun.star.drawing.PolyPolygonShape">
         <g id="id23">
          <rect class="BoundingBox" stroke="none" fill="none" x="6219" y="16312" width="3414" height="515"/>
          <path fill="rgb(255,255,255)" stroke="none" d="M 6219,16313 L 9632,16313 9632,16826 6219,16826 6219,16313 Z"/>
         </g>
        </g>
        <g class="com.sun.star.drawing.PolyPolygonShape">
         <g id="id24">
          <rect class="BoundingBox" stroke="none" fill="none" x="10142" y="16312" width="5632" height="515"/>
          <path fill="rgb(255,255,255)" stroke="none" d="M 15773,16313 L 10142,16313 10142,16826 15773,16826 15773,16313 Z"/>
         </g>
        </g>
        <g class="com.sun.star.drawing.ClosedBezierShape">
         <g id="id25">
          <rect class="BoundingBox" stroke="none" fill="none" x="6217" y="21248" width="9545" height="605"/>
          <path fill="rgb(255,255,255)" stroke="none" d="M 6217,21632 C 6219,21780 6295,21853 6446,21851 6597,21853 6674,21779 6676,21631 L 6676,21258 6563,21258 6563,21596 C 6563,21646 6554,21685 6537,21714 6519,21745 6489,21760 6446,21760 6405,21760 6375,21745 6356,21714 6338,21685 6329,21646 6329,21596 L 6329,21258 6217,21258 6217,21632 Z M 6217,21632 L 6217,21632 Z M 6816,21841 L 6924,21841 6924,21405 6926,21405 7141,21841 7279,21841 7279,21258 7171,21258 7171,21694 7169,21694 6955,21258 6816,21258 6816,21841 Z M 6816,21841 L 6816,21841 Z M 7413,21841 L 7526,21841 7526,21258 7413,21258 7413,21841 Z M 7413,21841 L 7413,21841 Z M 7791,21841 L 7930,21841 8119,21258 8007,21258 7864,21716 7863,21716 7718,21258 7597,21258 7791,21841 Z M 7791,21841 L 7791,21841 Z M 8209,21841 L 8544,21841 8544,21750 8322,21750 8322,21586 8523,21586 8523,21494 8322,21494 8322,21349 8542,21349 8542,21258 8209,21258 8209,21841 Z M 8209,21841 L 8209,21841 Z M 8776,21349 L 8813,21349 C 8827,21349 8842,21349 8857,21350 8870,21352 8883,21355 8894,21360 8906,21365 8915,21373 8923,21383 8929,21394 8932,21408 8932,21426 8932,21443 8929,21458 8923,21469 8915,21480 8906,21488 8894,21493 8883,21499 8870,21503 8857,21504 8842,21506 8827,21508 8813,21508 L 8776,21508 8776,21349 Z M 8776,21349 L 8776,21349 Z M 8663,21841 L 8776,21841 8776,21599 8812,21599 C 8835,21599 8853,21604 8864,21613 8875,21622 8884,21638 8891,21659 L 8958,21841 9084,21841 8994,21613 C 8988,21599 8981,21586 8971,21574 8961,21562 8949,21555 8934,21553 L 8934,21551 C 8971,21545 8999,21530 9019,21505 9040,21480 9050,21450 9050,21416 9050,21375 9042,21344 9027,21322 9011,21300 8990,21285 8964,21276 8938,21267 8910,21261 8879,21259 8847,21259 8816,21258 8785,21258 L 8663,21258 8663,21841 Z M 8663,21841 L 8663,21841 Z M 9484,21365 L 9494,21269 C 9453,21255 9408,21249 9359,21249 9308,21249 9263,21262 9224,21288 9184,21316 9164,21362 9163,21426 9163,21449 9166,21470 9174,21487 9181,21504 9191,21519 9202,21531 9214,21543 9228,21554 9242,21562 9256,21571 9271,21579 9287,21586 9318,21598 9346,21611 9371,21624 9383,21631 9392,21639 9400,21649 9406,21659 9409,21671 9409,21685 9409,21711 9397,21729 9376,21742 9355,21754 9332,21760 9309,21760 9264,21760 9221,21747 9182,21724 L 9182,21724 9171,21828 C 9198,21835 9222,21840 9243,21844 9262,21848 9287,21851 9316,21851 9375,21851 9425,21837 9465,21810 9505,21782 9526,21737 9527,21674 9527,21649 9524,21628 9518,21610 9510,21593 9501,21578 9489,21566 9478,21553 9465,21541 9450,21533 9435,21524 9420,21517 9405,21511 9389,21504 9374,21498 9360,21492 9346,21486 9332,21480 9320,21473 9309,21467 9299,21459 9292,21451 9284,21443 9281,21432 9281,21420 9281,21404 9283,21391 9289,21380 9295,21369 9303,21361 9311,21355 9320,21349 9330,21345 9340,21342 9350,21340 9359,21339 9369,21339 9410,21340 9448,21348 9484,21365 Z M 9484,21365 L 9484,21365 Z M 9635,21841 L 9748,21841 9748,21258 9635,21258 9635,21841 Z M 9635,21841 L 9635,21841 Z M 9875,21841 L 10030,21841 C 10074,21841 10115,21836 10154,21827 10193,21818 10227,21803 10257,21782 10288,21760 10312,21729 10329,21691 10346,21654 10355,21607 10355,21549 10355,21491 10346,21443 10329,21405 10312,21368 10288,21338 10257,21317 10195,21277 10119,21257 10030,21258 L 9875,21258 9875,21841 Z M 9875,21841 L 9875,21841 Z M 9988,21349 L 10051,21349 C 10101,21349 10144,21366 10180,21401 10217,21436 10236,21485 10237,21549 10236,21614 10217,21663 10180,21697 10144,21732 10101,21750 10051,21750 L 9988,21750 9988,21349 Z M 9988,21349 L 9988,21349 Z M 10794,21617 L 10624,21617 10708,21375 10710,21375 10794,21617 Z M 10794,21617 L 10794,21617 Z M 10419,21841 L 10540,21841 10590,21707 10826,21707 10876,21841 11006,21841 10777,21258 10645,21258 10419,21841 Z M 10419,21841 L 10419,21841 Z M 11079,21841 L 11233,21841 C 11277,21841 11319,21836 11357,21827 11396,21818 11431,21803 11461,21782 11491,21760 11515,21729 11533,21691 11550,21654 11558,21607 11558,21549 11558,21491 11550,21443 11533,21405 11515,21368 11491,21338 11461,21317 11398,21277 11323,21257 11233,21258 L 11079,21258 11079,21841 Z M 11079,21841 L 11079,21841 Z M 11192,21349 L 11255,21349 C 11304,21349 11347,21366 11384,21401 11421,21436 11439,21485 11440,21549 11439,21614 11421,21663 11384,21697 11347,21732 11304,21750 11255,21750 L 11192,21750 11192,21349 Z M 11192,21349 L 11192,21349 Z M 11680,21841 L 12015,21841 12015,21750 11793,21750 11793,21586 11994,21586 11994,21494 11793,21494 11793,21349 12013,21349 12013,21258 11680,21258 11680,21841 Z M 11680,21841 L 11680,21841 Z M 12375,21841 L 12488,21841 12488,21586 12678,21586 12678,21494 12488,21494 12488,21349 12688,21349 12688,21258 12375,21258 12375,21841 Z M 12375,21841 L 12375,21841 Z M 12791,21841 L 13126,21841 13126,21750 12904,21750 12904,21586 13105,21586 13105,21494 12904,21494 12904,21349 13124,21349 13124,21258 12791,21258 12791,21841 Z M 12791,21841 L 12791,21841 Z M 13254,21841 L 13408,21841 C 13452,21841 13494,21836 13532,21827 13571,21818 13606,21803 13636,21782 13667,21760 13691,21729 13708,21691 13725,21654 13733,21607 13733,21549 13733,21491 13725,21443 13708,21405 13691,21368 13667,21338 13636,21317 13574,21277 13498,21257 13408,21258 L 13254,21258 13254,21841 Z M 13254,21841 L 13254,21841 Z M 13367,21349 L 13430,21349 C 13480,21349 13523,21366 13559,21401 13596,21436 13614,21485 13616,21549 13614,21614 13596,21663 13559,21697 13523,21732 13480,21750 13430,21750 L 13367,21750 13367,21349 Z M 13367,21349 L 13367,21349 Z M 13855,21841 L 14190,21841 14190,21750 13968,21750 13968,21586 14169,21586 14169,21494 13968,21494 13968,21349 14188,21349 14188,21258 13855,21258 13855,21841 Z M 13855,21841 L 13855,21841 Z M 14422,21349 L 14459,21349 C 14474,21349 14488,21349 14503,21350 14517,21352 14529,21355 14541,21360 14552,21365 14561,21373 14569,21383 14575,21394 14578,21408 14578,21426 14578,21443 14575,21458 14569,21469 14561,21480 14552,21488 14541,21493 14529,21499 14517,21503 14503,21504 14488,21506 14474,21508 14459,21508 L 14422,21508 14422,21349 Z M 14422,21349 L 14422,21349 Z M 14309,21841 L 14422,21841 14422,21599 14459,21599 C 14482,21599 14499,21604 14510,21613 14521,21622 14530,21638 14537,21659 L 14605,21841 14730,21841 14640,21613 C 14634,21599 14627,21586 14617,21574 14608,21562 14595,21555 14580,21553 L 14580,21551 C 14617,21545 14645,21530 14666,21505 14686,21480 14696,21450 14696,21416 14696,21375 14688,21344 14673,21322 14657,21300 14636,21285 14610,21276 14584,21267 14556,21261 14525,21259 14493,21259 14462,21258 14431,21258 L 14309,21258 14309,21841 Z M 14309,21841 L 14309,21841 Z M 15144,21617 L 14974,21617 15059,21375 15060,21375 15144,21617 Z M 15144,21617 L 15144,21617 Z M 14769,21841 L 14890,21841 14941,21707 15177,21707 15227,21841 15356,21841 15128,21258 14996,21258 14769,21841 Z M 14769,21841 L 14769,21841 Z M 15429,21841 L 15761,21841 15761,21750 15541,21750 15541,21258 15429,21258 15429,21841 Z"/>
         </g>
        </g>
        <g class="com.sun.star.drawing.ClosedBezierShape">
         <g id="id26">
          <rect class="BoundingBox" stroke="none" fill="none" x="6245" y="22215" width="9566" height="1114"/>
          <path fill="rgb(255,255,255)" stroke="none" d="M 6245,23309 L 6399,23309 C 6443,23309 6484,23305 6523,23296 6562,23287 6596,23272 6627,23250 6657,23228 6681,23198 6698,23160 6715,23123 6724,23076 6724,23018 6724,22960 6715,22912 6698,22875 6681,22837 6657,22808 6627,22786 6564,22745 6488,22726 6399,22727 L 6245,22727 6245,23309 Z M 6245,23309 L 6245,23309 Z M 6357,22819 L 6420,22819 C 6470,22819 6513,22836 6549,22871 6586,22905 6605,22954 6606,23018 6605,23082 6586,23131 6549,23166 6513,23201 6470,23219 6420,23219 L 6357,23219 6357,22819 Z M 6357,22819 L 6357,22819 Z M 6818,23017 C 6818,23108 6842,23180 6889,23234 6936,23290 7004,23318 7094,23319 7184,23318 7253,23289 7300,23234 7346,23179 7370,23106 7370,23017 7370,22927 7347,22855 7299,22801 7252,22746 7184,22718 7094,22717 7005,22718 6936,22745 6889,22801 6842,22854 6818,22927 6818,23017 Z M 6818,23017 L 6818,23017 Z M 6936,23017 C 6936,22963 6949,22916 6974,22874 6999,22832 7039,22810 7094,22809 7150,22810 7191,22832 7216,22874 7240,22916 7252,22963 7252,23017 7252,23072 7240,23120 7217,23162 7205,23182 7189,23198 7168,23210 7148,23222 7123,23229 7094,23229 7038,23228 6998,23205 6973,23162 6948,23120 6936,23072 6936,23017 Z M 6936,23017 L 6936,23017 Z M 7738,23309 L 7947,23309 7947,22401 8246,22401 8246,22233 7439,22233 7439,22401 7738,22401 7738,23309 Z M 7738,23309 L 7738,23309 Z M 8355,22768 C 8355,22936 8399,23070 8486,23171 8572,23273 8699,23325 8867,23328 9033,23325 9160,23272 9247,23169 9333,23067 9376,22934 9377,22767 9377,22601 9333,22468 9246,22369 9158,22268 9032,22217 8867,22215 8700,22216 8573,22266 8486,22367 8399,22467 8355,22600 8355,22768 Z M 8355,22768 L 8355,22768 Z M 8573,22768 C 8573,22668 8596,22580 8644,22503 8690,22425 8764,22384 8867,22382 8970,22384 9045,22425 9092,22503 9136,22580 9159,22668 9159,22768 9159,22870 9137,22959 9093,23036 9071,23073 9041,23103 9003,23126 8966,23149 8920,23160 8867,23160 8762,23158 8687,23117 8641,23036 8594,22959 8572,22870 8573,22768 Z M 8573,22768 L 8573,22768 Z M 10355,23115 L 10355,23115 C 10330,23128 10297,23138 10255,23147 10212,23156 10169,23160 10127,23160 10015,23159 9928,23122 9867,23049 9804,22979 9772,22887 9772,22775 9772,22660 9804,22567 9868,22494 9929,22421 10013,22383 10122,22382 10159,22382 10197,22386 10234,22392 10271,22401 10309,22417 10348,22439 L 10348,22439 10362,22259 C 10280,22229 10201,22215 10127,22215 9752,22219 9561,22410 9554,22790 9555,22972 9609,23106 9715,23193 9818,23283 9955,23328 10127,23328 10207,23327 10286,23316 10364,23294 L 10355,23115 Z M 10355,23115 L 10355,23115 Z M 11133,22895 L 10818,22895 10974,22448 10977,22448 11133,22895 Z M 11133,22895 L 11133,22895 Z M 10439,23309 L 10663,23309 10757,23063 11193,23063 11286,23309 11524,23309 11102,22233 10858,22233 10439,23309 Z M 10439,23309 L 10439,23309 Z M 11649,23309 L 11849,23309 11849,22504 11852,22504 12251,23309 12506,23309 12506,22233 12306,22233 12306,23038 12303,23038 11906,22233 11649,22233 11649,23309 Z M 11649,23309 L 11649,23309 Z M 12961,23309 L 13170,23309 13170,22401 13470,22401 13470,22233 12662,22233 12662,22401 12961,22401 12961,23309 Z M 12961,23309 L 12961,23309 Z M 13612,23309 L 13821,23309 13821,22233 13612,22233 13612,23309 Z M 13612,23309 L 13612,23309 Z M 14048,23309 L 14248,23309 14248,22504 14251,22504 14649,23309 14904,23309 14904,22233 14704,22233 14704,23038 14701,23038 14304,22233 14048,22233 14048,23309 Z M 14048,23309 L 14048,23309 Z M 15730,22429 L 15749,22253 C 15673,22227 15590,22215 15499,22215 15405,22215 15322,22239 15250,22287 15176,22339 15138,22424 15136,22543 15136,22586 15143,22624 15156,22656 15170,22688 15188,22715 15209,22738 15231,22759 15257,22779 15284,22795 15309,22811 15337,22825 15365,22837 15424,22860 15476,22884 15522,22909 15543,22921 15560,22937 15574,22955 15586,22973 15592,22996 15592,23021 15591,23068 15570,23103 15531,23126 15491,23149 15450,23160 15407,23160 15323,23159 15245,23137 15172,23094 L 15172,23094 15152,23286 C 15202,23299 15246,23308 15284,23315 15320,23324 15365,23328 15419,23328 15529,23328 15621,23302 15696,23252 15770,23202 15808,23118 15810,23002 15810,22956 15805,22916 15793,22883 15779,22851 15761,22824 15740,22801 15720,22778 15695,22757 15667,22740 15641,22725 15613,22712 15584,22700 15555,22688 15528,22676 15502,22665 15475,22655 15450,22643 15427,22631 15406,22618 15389,22605 15375,22589 15361,22574 15354,22555 15354,22532 15354,22503 15360,22478 15370,22458 15381,22438 15395,22422 15411,22412 15428,22401 15445,22393 15464,22388 15482,22384 15500,22382 15518,22382 15593,22383 15664,22399 15730,22429 Z"/>
         </g>
        </g>
       </g>
      </g>
     </g>
    </g>
   </g>
  </g>
 </g>
</svg>