<?xml version="1.0" encoding="UTF-8"?>
<!DOCTYPE svg PUBLIC "-//W3C//DTD SVG 1.1//EN" "http://www.w3.org/Graphics/SVG/1.1/DTD/svg11.dtd">
<svg version="1.2" width="150.03mm" height="102.82mm" viewBox="3528 3954 15003 10282" preserveAspectRatio="xMidYMid" fill-rule="evenodd" stroke-width="28.222" stroke-linejoin="round" xmlns="http://www.w3.org/2000/svg" xmlns:ooo="http://xml.openoffice.org/svg/export" xmlns:xlink="http://www.w3.org/1999/xlink" xmlns:presentation="http://sun.com/xmlns/staroffice/presentation" xmlns:smil="http://www.w3.org/2001/SMIL20/" xmlns:anim="urn:oasis:names:tc:opendocument:xmlns:animation:1.0" xml:space="preserve">
 <defs class="EmbeddedBulletChars">
  <g id="bullet-char-template-57356" transform="scale(0.00048828125,-0.00048828125)">
   <path d="M 580,1141 L 1163,571 580,0 -4,571 580,1141 Z"/>
  </g>
  <g id="bullet-char-template-57354" transform="scale(0.00048828125,-0.00048828125)">
   <path d="M 8,1128 L 1137,1128 1137,0 8,0 8,1128 Z"/>
  </g>
  <g id="bullet-char-template-10146" transform="scale(0.00048828125,-0.00048828125)">
   <path d="M 174,0 L 602,739 174,1481 1456,739 174,0 Z M 1358,739 L 309,1346 659,739 1358,739 Z"/>
  </g>
  <g id="bullet-char-template-10132" transform="scale(0.00048828125,-0.00048828125)">
   <path d="M 2015,739 L 1276,0 717,0 1260,543 174,543 174,936 1260,936 717,1481 1274,1481 2015,739 Z"/>
  </g>
  <g id="bullet-char-template-10007" transform="scale(0.00048828125,-0.00048828125)">
   <path d="M 0,-2 C -7,14 -16,27 -25,37 L 356,567 C 262,823 215,952 215,954 215,979 228,992 255,992 264,992 276,990 289,987 310,991 331,999 354,1012 L 381,999 492,748 772,1049 836,1024 860,1049 C 881,1039 901,1025 922,1006 886,937 835,863 770,784 769,783 710,716 594,584 L 774,223 C 774,196 753,168 711,139 L 727,119 C 717,90 699,76 672,76 641,76 570,178 457,381 L 164,-76 C 142,-110 111,-127 72,-127 30,-127 9,-110 8,-76 1,-67 -2,-52 -2,-32 -2,-23 -1,-13 0,-2 Z"/>
  </g>
  <g id="bullet-char-template-10004" transform="scale(0.00048828125,-0.00048828125)">
   <path d="M 285,-33 C 182,-33 111,30 74,156 52,228 41,333 41,471 41,549 55,616 82,672 116,743 169,778 240,778 293,778 328,747 346,684 L 369,508 C 377,444 397,411 428,410 L 1163,1116 C 1174,1127 1196,1133 1229,1133 1271,1133 1292,1118 1292,1087 L 1292,965 C 1292,929 1282,901 1262,881 L 442,47 C 390,-6 338,-33 285,-33 Z"/>
  </g>
  <g id="bullet-char-template-9679" transform="scale(0.00048828125,-0.00048828125)">
   <path d="M 813,0 C 632,0 489,54 383,161 276,268 223,411 223,592 223,773 276,916 383,1023 489,1130 632,1184 813,1184 992,1184 1136,1130 1245,1023 1353,916 1407,772 1407,592 1407,412 1353,268 1245,161 1136,54 992,0 813,0 Z"/>
  </g>
  <g id="bullet-char-template-8226" transform="scale(0.00048828125,-0.00048828125)">
   <path d="M 346,457 C 273,457 209,483 155,535 101,586 74,649 74,723 74,796 101,859 155,911 209,963 273,989 346,989 419,989 480,963 531,910 582,859 608,796 608,723 608,648 583,586 532,535 482,483 420,457 346,457 Z"/>
  </g>
  <g id="bullet-char-template-8211" transform="scale(0.00048828125,-0.00048828125)">
   <path d="M -4,459 L 1135,459 1135,606 -4,606 -4,459 Z"/>
  </g>
  <g id="bullet-char-template-61548" transform="scale(0.00048828125,-0.00048828125)">
   <path d="M 173,740 C 173,903 231,1043 346,1159 462,1274 601,1332 765,1332 928,1332 1067,1274 1183,1159 1299,1043 1357,903 1357,740 1357,577 1299,437 1183,322 1067,206 928,148 765,148 601,148 462,206 346,322 231,437 173,577 173,740 Z"/>
  </g>
 </defs>
 <g class="Page">
  <g class="Group">
   <g class="com.sun.star.drawing.ClosedBezierShape">
    <g id="id3">
     <rect class="BoundingBox" stroke="none" fill="none" x="8279" y="4704" width="1502" height="5002"/>
     <path fill="rgb(134,135,137)" stroke="none" d="M 9030,8705 L 9030,4704 9780,4704 9780,9705 8279,9705 C 8529,9705 9030,9206 9030,8705 Z"/>
    </g>
   </g>
   <g class="com.sun.star.drawing.PolyPolygonShape">
    <g id="id4">
     <rect class="BoundingBox" stroke="none" fill="none" x="3528" y="9953" width="15003" height="503"/>
     <path fill="rgb(0,126,112)" stroke="none" d="M 3529,10455 L 18530,10455 18530,9954 3529,9954 3529,10455 Z"/>
    </g>
   </g>
   <g class="com.sun.star.drawing.PolyPolygonShape">
    <g id="id5">
     <rect class="BoundingBox" stroke="none" fill="none" x="15279" y="6204" width="2752" height="3502"/>
     <path fill="rgb(134,135,137)" stroke="none" d="M 16279,6953 L 16279,6204 18030,6204 18030,9705 15279,9705 15279,6953 16279,6953 Z"/>
    </g>
   </g>
   <g class="com.sun.star.drawing.ClosedBezierShape">
    <g id="id6">
     <rect class="BoundingBox" stroke="none" fill="none" x="4029" y="6204" width="2752" height="3502"/>
     <path fill="rgb(134,135,137)" stroke="none" d="M 5779,8705 L 5779,6204 4029,6204 4029,9705 6780,9705 C 6281,9705 5779,9204 5779,8705 Z"/>
    </g>
   </g>
   <g class="com.sun.star.drawing.PolyPolygonShape">
    <g id="id7">
     <rect class="BoundingBox" stroke="none" fill="none" x="3528" y="4954" width="15003" height="1002"/>
     <path fill="rgb(0,75,128)" stroke="none" d="M 3529,4954 L 18530,4954 18530,5955 3529,5955 3529,4954 Z"/>
    </g>
   </g>
   <g class="com.sun.star.drawing.ClosedBezierShape">
    <g id="id8">
     <rect class="BoundingBox" stroke="none" fill="none" x="7029" y="6204" width="1002" height="3003"/>
     <path fill="rgb(134,135,137)" stroke="none" d="M 7029,6204 L 8030,6204 8030,8705 C 8030,8955 7779,9205 7529,9205 7278,9205 7029,8955 7029,8705 L 7029,6204 Z"/>
    </g>
   </g>
   <g class="com.sun.star.drawing.PolyPolygonShape">
    <g id="id9">
     <rect class="BoundingBox" stroke="none" fill="none" x="11029" y="6204" width="3003" height="3502"/>
     <path fill="rgb(134,135,137)" stroke="none" d="M 14030,6953 L 13029,6953 13029,6204 12529,6204 12529,6953 11029,6953 11029,7704 12029,7704 12029,8454 11029,8454 11029,9705 14030,9705 14030,6953 Z"/>
    </g>
   </g>
   <g class="com.sun.star.drawing.PolyPolygonShape">
    <g id="id10">
     <rect class="BoundingBox" stroke="none" fill="none" x="4029" y="3954" width="5002" height="753"/>
     <path fill="rgb(134,135,137)" stroke="none" d="M 4029,3954 L 9030,3954 9030,4705 4029,4705 4029,3954 Z"/>
    </g>
   </g>
   <g class="com.sun.star.drawing.PolyPolygonShape">
    <g id="id11">
     <rect class="BoundingBox" stroke="none" fill="none" x="9779" y="3954" width="8252" height="753"/>
     <path fill="rgb(134,135,137)" stroke="none" d="M 18030,3954 L 9779,3954 9779,4705 18030,4705 18030,3954 Z"/>
    </g>
   </g>
   <g class="com.sun.star.drawing.ClosedBezierShape">
    <g id="id12">
     <rect class="BoundingBox" stroke="none" fill="none" x="4027" y="11188" width="13987" height="885"/>
     <path fill="rgb(27,25,24)" stroke="none" d="M 4027,11749 C 4030,11967 4142,12074 4363,12071 4584,12074 4697,11966 4700,11748 L 4700,11203 4534,11203 4534,11697 C 4534,11770 4522,11828 4497,11871 4470,11915 4426,11938 4363,11938 4302,11938 4258,11915 4231,11871 4204,11828 4191,11770 4192,11697 L 4192,11203 4027,11203 4027,11749 Z M 4027,11749 L 4027,11749 Z M 4905,12056 L 5064,12056 5064,11418 5066,11418 5382,12056 5583,12056 5583,11203 5425,11203 5425,11841 5423,11841 5108,11203 4905,11203 4905,12056 Z M 4905,12056 L 4905,12056 Z M 5780,12056 L 5946,12056 5946,11203 5780,11203 5780,12056 Z M 5780,12056 L 5780,12056 Z M 6334,12056 L 6537,12056 6815,11203 6651,11203 6441,11873 6439,11873 6228,11203 6050,11203 6334,12056 Z M 6334,12056 L 6334,12056 Z M 6947,12056 L 7437,12056 7437,11923 7112,11923 7112,11682 7407,11682 7407,11549 7112,11549 7112,11336 7435,11336 7435,11203 6947,11203 6947,12056 Z M 6947,12056 L 6947,12056 Z M 7778,11336 L 7832,11336 C 7853,11336 7874,11336 7895,11337 7916,11340 7934,11344 7951,11352 7967,11359 7981,11371 7992,11385 8001,11401 8006,11422 8006,11448 8006,11474 8001,11495 7992,11511 7981,11527 7967,11539 7951,11547 7934,11555 7916,11561 7895,11563 7874,11567 7853,11568 7832,11568 L 7778,11568 7778,11336 Z M 7778,11336 L 7778,11336 Z M 7612,12056 L 7778,12056 7778,11702 7831,11702 C 7865,11702 7890,11709 7906,11722 7922,11735 7935,11758 7946,11790 L 8045,12056 8229,12056 8096,11723 C 8088,11702 8077,11683 8063,11665 8049,11647 8031,11637 8008,11634 L 8008,11632 C 8062,11623 8104,11601 8134,11564 8164,11528 8179,11484 8179,11434 8178,11374 8167,11328 8145,11297 8122,11264 8091,11242 8053,11229 8015,11215 7973,11207 7928,11204 7882,11204 7836,11203 7791,11203 L 7612,11203 7612,12056 Z M 7612,12056 L 7612,12056 Z M 8815,11359 L 8829,11219 C 8769,11198 8703,11189 8632,11189 8557,11189 8491,11208 8434,11246 8376,11287 8345,11354 8344,11449 8344,11483 8349,11513 8360,11538 8371,11564 8385,11585 8402,11603 8420,11620 8440,11636 8461,11648 8481,11661 8503,11673 8526,11682 8572,11700 8613,11719 8650,11739 8666,11748 8680,11761 8691,11775 8700,11790 8705,11808 8705,11828 8704,11865 8688,11893 8657,11911 8625,11929 8593,11938 8559,11938 8492,11937 8430,11919 8372,11885 L 8372,11885 8357,12037 C 8396,12047 8431,12055 8461,12061 8490,12067 8526,12071 8568,12071 8655,12071 8728,12050 8788,12010 8846,11970 8877,11905 8878,11812 8878,11776 8874,11744 8864,11718 8853,11693 8839,11671 8823,11653 8806,11635 8787,11618 8765,11605 8744,11593 8722,11582 8699,11573 8676,11564 8654,11554 8634,11545 8612,11537 8593,11528 8575,11518 8558,11508 8544,11497 8533,11485 8522,11473 8517,11458 8517,11440 8517,11417 8521,11397 8530,11382 8538,11365 8549,11353 8562,11345 8575,11336 8589,11330 8604,11326 8618,11323 8632,11321 8647,11321 8706,11322 8762,11335 8815,11359 Z M 8815,11359 L 8815,11359 Z M 9036,12056 L 9202,12056 9202,11203 9036,11203 9036,12056 Z M 9036,12056 L 9036,12056 Z M 9388,12056 L 9614,12056 C 9679,12056 9740,12049 9796,12036 9853,12023 9904,12001 9948,11969 9993,11937 10028,11893 10054,11837 10079,11783 10091,11714 10091,11629 10091,11543 10079,11473 10054,11418 10028,11363 9993,11320 9948,11288 9857,11230 9745,11202 9614,11203 L 9388,11203 9388,12056 Z M 9388,12056 L 9388,12056 Z M 9554,11336 L 9646,11336 C 9719,11336 9782,11361 9835,11412 9889,11463 9916,11535 9918,11629 9916,11723 9889,11795 9835,11846 9782,11897 9719,11923 9646,11923 L 9554,11923 9554,11336 Z M 9554,11336 L 9554,11336 Z M 10734,11728 L 10485,11728 10609,11374 10611,11374 10734,11728 Z M 10734,11728 L 10734,11728 Z M 10185,12056 L 10362,12056 10436,11860 10782,11860 10855,12056 11045,12056 10710,11203 10517,11203 10185,12056 Z M 10185,12056 L 10185,12056 Z M 11152,12056 L 11378,12056 C 11443,12056 11503,12049 11560,12036 11617,12023 11667,12001 11712,11969 11756,11937 11792,11893 11817,11837 11842,11783 11854,11714 11854,11629 11854,11543 11842,11473 11817,11418 11792,11363 11756,11320 11712,11288 11620,11230 11509,11202 11378,11203 L 11152,11203 11152,12056 Z M 11152,12056 L 11152,12056 Z M 11317,11336 L 11409,11336 C 11482,11336 11545,11361 11599,11412 11652,11463 11680,11535 11682,11629 11680,11723 11652,11795 11599,11846 11545,11897 11482,11923 11409,11923 L 11317,11923 11317,11336 Z M 11317,11336 L 11317,11336 Z M 12033,12056 L 12523,12056 12523,11923 12199,11923 12199,11682 12493,11682 12493,11549 12199,11549 12199,11336 12521,11336 12521,11203 12033,11203 12033,12056 Z M 12033,12056 L 12033,12056 Z M 13051,12056 L 13216,12056 13216,11682 13496,11682 13496,11549 13216,11549 13216,11336 13510,11336 13510,11203 13051,11203 13051,12056 Z M 13051,12056 L 13051,12056 Z M 13661,12056 L 14151,12056 14151,11923 13827,11923 13827,11682 14121,11682 14121,11549 13827,11549 13827,11336 14149,11336 14149,11203 13661,11203 13661,12056 Z M 13661,12056 L 13661,12056 Z M 14340,12056 L 14566,12056 C 14630,12056 14691,12049 14747,12036 14805,12023 14855,12001 14900,11969 14944,11937 14979,11893 15005,11837 15030,11783 15042,11714 15042,11629 15042,11543 15030,11473 15005,11418 14979,11363 14944,11320 14900,11288 14808,11230 14697,11202 14566,11203 L 14340,11203 14340,12056 Z M 14340,12056 L 14340,12056 Z M 14505,11336 L 14597,11336 C 14670,11336 14733,11361 14786,11412 14840,11463 14868,11535 14869,11629 14868,11723 14840,11795 14786,11846 14733,11897 14670,11923 14597,11923 L 14505,11923 14505,11336 Z M 14505,11336 L 14505,11336 Z M 15221,12056 L 15711,12056 15711,11923 15386,11923 15386,11682 15681,11682 15681,11549 15386,11549 15386,11336 15709,11336 15709,11203 15221,11203 15221,12056 Z M 15221,12056 L 15221,12056 Z M 16052,11336 L 16106,11336 C 16127,11336 16148,11336 16170,11337 16190,11340 16208,11344 16225,11352 16241,11359 16255,11371 16266,11385 16276,11401 16280,11422 16280,11448 16280,11474 16276,11495 16266,11511 16255,11527 16241,11539 16225,11547 16208,11555 16190,11561 16170,11563 16148,11567 16127,11568 16106,11568 L 16052,11568 16052,11336 Z M 16052,11336 L 16052,11336 Z M 15886,12056 L 16052,12056 16052,11702 16105,11702 C 16139,11702 16164,11709 16180,11722 16196,11735 16209,11758 16220,11790 L 16319,12056 16503,12056 16370,11723 C 16362,11702 16351,11683 16337,11665 16323,11647 16305,11637 16282,11634 L 16282,11632 C 16337,11623 16378,11601 16408,11564 16438,11528 16453,11484 16453,11434 16452,11374 16441,11328 16419,11297 16396,11264 16365,11242 16327,11229 16289,11215 16247,11207 16202,11204 16156,11204 16110,11203 16065,11203 L 15886,11203 15886,12056 Z M 15886,12056 L 15886,12056 Z M 17110,11728 L 16860,11728 16984,11374 16986,11374 17110,11728 Z M 17110,11728 L 17110,11728 Z M 16560,12056 L 16737,12056 16812,11860 17157,11860 17231,12056 17419,12056 17085,11203 16892,11203 16560,12056 Z M 16560,12056 L 16560,12056 Z M 17526,12056 L 18013,12056 18013,11923 17692,11923 17692,11203 17526,11203 17526,12056 Z"/>
    </g>
   </g>
   <g class="com.sun.star.drawing.ClosedBezierShape">
    <g id="id13">
     <rect class="BoundingBox" stroke="none" fill="none" x="4067" y="12604" width="14018" height="1632"/>
     <path fill="rgb(27,25,24)" stroke="none" d="M 4068,14208 L 4293,14208 C 4358,14208 4419,14201 4475,14188 4532,14175 4583,14152 4627,14121 4672,14089 4707,14044 4733,13989 4758,13934 4770,13865 4770,13781 4770,13696 4758,13626 4733,13570 4707,13516 4672,13473 4627,13441 4536,13382 4424,13353 4293,13355 L 4068,13355 4068,14208 Z M 4068,14208 L 4068,14208 Z M 4233,13489 L 4325,13489 C 4398,13489 4461,13514 4514,13565 4568,13615 4595,13687 4597,13781 4595,13875 4568,13947 4514,13997 4461,14049 4398,14075 4325,14075 L 4233,14075 4233,13489 Z M 4233,13489 L 4233,13489 Z M 4908,13779 C 4908,13912 4943,14018 5012,14098 5080,14179 5181,14220 5313,14222 5445,14220 5545,14178 5614,14096 5682,14016 5716,13910 5717,13779 5717,13647 5683,13542 5613,13463 5544,13382 5444,13342 5313,13340 5181,13341 5081,13381 5012,13462 4943,13541 4908,13647 4908,13779 Z M 4908,13779 L 4908,13779 Z M 5081,13779 C 5081,13700 5100,13630 5137,13570 5173,13507 5232,13476 5313,13474 5395,13476 5454,13507 5491,13570 5527,13630 5544,13700 5544,13779 5544,13860 5527,13930 5492,13991 5475,14021 5451,14044 5421,14062 5391,14080 5355,14089 5313,14089 5230,14088 5171,14055 5134,13991 5098,13930 5081,13859 5081,13779 Z M 5081,13779 L 5081,13779 Z M 6257,14208 L 6563,14208 6563,12876 7001,12876 7001,12631 5818,12631 5818,12876 6257,12876 6257,14208 Z M 6257,14208 L 6257,14208 Z M 7160,13414 C 7160,13660 7224,13857 7352,14004 7478,14154 7664,14231 7909,14235 8152,14231 8338,14153 8466,14002 8592,13853 8655,13657 8656,13414 8656,13170 8592,12975 8464,12829 8336,12682 8151,12607 7909,12604 7665,12605 7480,12680 7352,12827 7224,12973 7160,13169 7160,13414 Z M 7160,13414 L 7160,13414 Z M 7480,13414 C 7480,13268 7514,13139 7582,13026 7650,12911 7759,12852 7909,12849 8060,12852 8170,12911 8238,13026 8304,13139 8336,13268 8336,13414 8336,13564 8305,13694 8241,13807 8209,13862 8165,13906 8109,13939 8054,13972 7987,13989 7909,13989 7756,13986 7646,13925 7578,13807 7511,13694 7479,13563 7480,13414 Z M 7480,13414 L 7480,13414 Z M 10090,13923 L 10090,13923 C 10053,13941 10005,13956 9943,13969 9881,13982 9818,13989 9756,13989 9592,13987 9465,13933 9374,13826 9282,13723 9236,13589 9236,13424 9236,13257 9283,13120 9376,13013 9465,12906 9589,12851 9748,12849 9803,12849 9858,12854 9912,12864 9967,12877 10022,12900 10079,12933 L 10079,12933 10100,12668 C 9979,12625 9864,12604 9755,12604 9206,12610 8927,12890 8916,13447 8917,13713 8997,13909 9152,14037 9303,14169 9504,14235 9755,14235 9873,14233 9988,14217 10102,14186 L 10090,13923 Z M 10090,13923 L 10090,13923 Z M 11231,13601 L 10769,13601 10997,12946 11001,12946 11231,13601 Z M 11231,13601 L 11231,13601 Z M 10213,14208 L 10541,14208 10679,13846 11319,13846 11455,14208 11804,14208 11186,12631 10828,12631 10213,14208 Z M 10213,14208 L 10213,14208 Z M 11988,14208 L 12281,14208 12281,13028 12285,13028 12869,14208 13243,14208 13243,12631 12950,12631 12950,13811 12945,13811 12363,12631 11988,12631 11988,14208 Z M 11988,14208 L 11988,14208 Z M 13910,14208 L 14216,14208 14216,12876 14654,12876 14654,12631 13471,12631 13471,12876 13910,12876 13910,14208 Z M 13910,14208 L 13910,14208 Z M 14863,14208 L 15169,14208 15169,12631 14863,12631 14863,14208 Z M 14863,14208 L 14863,14208 Z M 15501,14208 L 15794,14208 15794,13028 15799,13028 16383,14208 16756,14208 16756,12631 16463,12631 16463,13811 16459,13811 15877,12631 15501,12631 15501,14208 Z M 15501,14208 L 15501,14208 Z M 17967,12918 L 17994,12659 C 17882,12622 17761,12604 17629,12604 17491,12604 17369,12639 17263,12710 17154,12785 17098,12911 17096,13085 17096,13148 17106,13204 17126,13251 17146,13297 17172,13337 17202,13370 17236,13402 17273,13430 17312,13453 17350,13477 17390,13498 17432,13516 17518,13549 17594,13584 17661,13621 17692,13639 17718,13661 17739,13688 17755,13715 17764,13748 17764,13785 17763,13855 17732,13906 17674,13939 17617,13972 17556,13989 17493,13989 17370,13987 17255,13955 17148,13891 L 17148,13891 17119,14173 C 17193,14192 17257,14206 17313,14216 17366,14229 17432,14235 17511,14235 17672,14235 17807,14197 17916,14123 18025,14049 18081,13928 18084,13757 18084,13689 18076,13631 18058,13583 18038,13536 18012,13496 17982,13463 17951,13429 17915,13398 17875,13374 17836,13352 17795,13332 17752,13315 17710,13297 17670,13280 17632,13263 17593,13248 17556,13232 17523,13213 17492,13195 17466,13175 17446,13153 17426,13130 17416,13102 17416,13069 17416,13026 17424,12990 17439,12961 17456,12930 17475,12908 17499,12892 17523,12876 17549,12865 17577,12858 17603,12852 17629,12849 17656,12849 17766,12851 17869,12874 17967,12918 Z"/>
    </g>
   </g>
  </g>
 </g>
</svg>