<?xml version="1.0" encoding="UTF-8" standalone="no"?>
<svg
   xmlns:dc="http://purl.org/dc/elements/1.1/"
   xmlns:cc="http://creativecommons.org/ns#"
   xmlns:rdf="http://www.w3.org/1999/02/22-rdf-syntax-ns#"
   xmlns:svg="http://www.w3.org/2000/svg"
   xmlns="http://www.w3.org/2000/svg"
   xmlns:sodipodi="http://sodipodi.sourceforge.net/DTD/sodipodi-0.dtd"
   xmlns:inkscape="http://www.inkscape.org/namespaces/inkscape"
   sodipodi:docname="desenhando.svg"
   inkscape:version="1.0 (4035a4fb49, 2020-05-01)"
   id="svg8"
   version="1.1"
   viewBox="0 0 297 210"
   height="210mm"
   width="297mm">
  <defs
     id="defs2">
    <inkscape:perspective
       id="perspective115"
       inkscape:persp3d-origin="124.02099 : 15.263427 : 1"
       inkscape:vp_z="219.24194 : 81.657853 : 1"
       inkscape:vp_y="-167.56484 : 985.86101 : 0"
       inkscape:vp_x="12.211118 : 46.469235 : 1"
       sodipodi:type="inkscape:persp3d" />
  </defs>
  <sodipodi:namedview
     inkscape:window-maximized="1"
     inkscape:window-y="-11"
     inkscape:window-x="-11"
     inkscape:window-height="1346"
     inkscape:window-width="2160"
     showgrid="false"
     inkscape:document-rotation="0"
     inkscape:current-layer="layer1"
     inkscape:document-units="mm"
     inkscape:cy="648.0956"
     inkscape:cx="804.17774"
     inkscape:zoom="0.98994949"
     inkscape:pageshadow="2"
     inkscape:pageopacity="0.0"
     borderopacity="1.0"
     bordercolor="#666666"
     pagecolor="#ffffff"
     id="base" />
  <metadata
     id="metadata5">
    <rdf:RDF>
      <cc:Work
         rdf:about="">
        <dc:format>image/svg+xml</dc:format>
        <dc:type
           rdf:resource="http://purl.org/dc/dcmitype/StillImage" />
        <dc:title></dc:title>
      </cc:Work>
    </rdf:RDF>
  </metadata>
  <g
     id="layer1"
     inkscape:groupmode="layer"
     inkscape:label="Layer 1">
    <path
       id="rect46"
       style="fill:#000000;fill-rule:evenodd;stroke-width:0.956171"
       d="M 10.156243,120.07604 H 145.56166 V 131.0623 H 10.156243 Z" />
    <g
       transform="matrix(8.221095,0,0,8.221095,-95.311675,-898.07385)"
       aria-label="PA"
       id="text12"
       style="font-style:normal;font-weight:normal;font-size:10.5833px;line-height:1.25;font-family:sans-serif;letter-spacing:1.41288px;fill:#000000;fill-opacity:1;stroke:none;stroke-width:0.264583">
      <path
         d="m 16.808306,122.58198 v 0.1447 l 0.0052,0.99218 v 0.12919 h -3.152252 l 0.0052,-0.31522 0.02584,-3.63284 -0.02067,-1.72599 -0.0052,-1.17305 -0.0052,-0.20671 h 2.361605 q 1.446936,0 2.191074,0.12403 0.749306,0.12402 1.255733,0.44441 0.682127,0.42891 1.054196,1.19372 0.28422,0.58394 0.28422,1.22473 0,0.69246 -0.320393,1.32291 -0.382405,0.75448 -1.085202,1.16272 -0.697629,0.40307 -1.617467,0.40307 -0.341063,0 -0.976681,-0.0879 z m 0.0052,-5.43634 v 0.34623 l -0.02067,3.45198 0.01034,1.28674 q 0.408242,0.10852 1.059363,0.10852 0.583942,0 1.105873,-0.23255 0.52193,-0.23254 0.883664,-0.65629 0.614947,-0.7183 0.614947,-1.66914 0,-0.90433 -0.60978,-1.63814 -0.43408,-0.52193 -1.121375,-0.75964 -0.687294,-0.23771 -1.767328,-0.23771 z"
         style="fill:#ff0000"
         id="path20" />
      <path
         d="m 28.101688,123.84805 h -1.627803 l -0.263549,-1.15238 h -1.65364 l -0.273884,1.15238 h -1.596797 l 1.82934,-6.89878 h 1.756993 z m -2.191074,-2.39261 q -0.351399,-1.53995 -0.527098,-2.93004 h -0.02067 q -0.186035,1.43143 -0.521931,2.93004 z"
         style="font-style:normal;font-variant:normal;font-weight:normal;font-stretch:normal;font-family:'Tw Cen MT Condensed Extra Bold';-inkscape-font-specification:'Tw Cen MT Condensed Extra Bold, ';fill:#ff0000"
         id="path22" />
    </g>
    <g
       transform="matrix(8.221095,0,0,8.221095,-95.311675,-898.07385)"
       aria-label="MA"
       id="text12-1"
       style="font-style:normal;font-weight:normal;font-size:10.5833px;line-height:1.25;font-family:sans-serif;letter-spacing:0px;fill:#000000;fill-opacity:1;stroke:none;stroke-width:0.264583">
      <path
         d="m 37.379636,116.54928 1.126543,3.84988 0.511595,1.70532 0.459919,1.54512 0.06201,0.19637 h -3.141917 l -0.992184,-3.65351 -2.13423,3.20909 -2.191074,-3.0489 q -0.315225,1.11621 -0.687294,2.73885 -0.134358,0.62011 -0.19637,0.73897 -0.05684,0.11369 -0.237711,0.11369 -0.227375,0 -0.227375,-0.15503 0,-0.0465 0.144693,-0.52193 l 0.320393,-1.10071 0.558104,-1.90169 1.090369,-3.71552 2.831859,4.09793 z"
         style="font-style:normal;font-variant:normal;font-weight:normal;font-stretch:normal;font-family:Broadway;-inkscape-font-specification:Broadway;fill:#000000;stroke-width:0.264583"
         id="path25" />
      <path
         d="m 45.229261,123.84597 h -1.627803 l -0.263549,-1.15238 h -1.65364 l -0.273884,1.15238 h -1.596797 l 1.82934,-6.89878 h 1.756993 z m -2.191074,-2.39261 q -0.351399,-1.53995 -0.527098,-2.93005 h -0.02067 q -0.186035,1.43144 -0.521931,2.93005 z"
         style="font-style:normal;font-variant:normal;font-weight:normal;font-stretch:normal;font-family:'Tw Cen MT Condensed Extra Bold';-inkscape-font-specification:'Tw Cen MT Condensed Extra Bold, ';fill:#000000;stroke-width:0.264583"
         id="path27" />
    </g>
    <path
       id="rect46-0"
       style="fill:#ff2a2a;fill-rule:evenodd;stroke-width:0.956171"
       d="M 145.56166,120.07604 H 280.96709 V 131.0623 H 145.56166 Z" />
    <text
       id="text73"
       y="119.9372"
       x="49.745537"
       style="font-style:normal;font-weight:normal;font-size:10.5833px;line-height:1.25;font-family:sans-serif;fill:#000000;fill-opacity:1;stroke:none;stroke-width:0.264583"
       xml:space="preserve"><tspan
         style="stroke-width:0.264583"
         y="119.9372"
         x="49.745537"
         id="tspan71"
         sodipodi:role="line" /></text>
  </g>
</svg>
