<?xml version="1.0" encoding="UTF-8" standalone="no"?>
<svg
   xmlns:dc="http://purl.org/dc/elements/1.1/"
   xmlns:cc="http://creativecommons.org/ns#"
   xmlns:rdf="http://www.w3.org/1999/02/22-rdf-syntax-ns#"
   xmlns:svg="http://www.w3.org/2000/svg"
   xmlns="http://www.w3.org/2000/svg"
   xmlns:sodipodi="http://sodipodi.sourceforge.net/DTD/sodipodi-0.dtd"
   xmlns:inkscape="http://www.inkscape.org/namespaces/inkscape"
   width="297mm"
   height="210mm"
   viewBox="0 0 297 210"
   version="1.1"
   id="svg8"
   inkscape:export-filename="C:\Users\Usuário\Desktop\bitmap.png"
   inkscape:export-xdpi="85.519997"
   inkscape:export-ydpi="85.519997"
   inkscape:version="1.0.1 (3bc2e813f5, 2020-09-07)"
   sodipodi:docname="logoInDEC_Vector.svg">
  <defs
     id="defs2" />
  <sodipodi:namedview
     id="base"
     pagecolor="#ffffff"
     bordercolor="#666666"
     borderopacity="1.0"
     inkscape:pageopacity="0.0"
     inkscape:pageshadow="2"
     inkscape:zoom="0.49497475"
     inkscape:cx="-27.565662"
     inkscape:cy="534.88786"
     inkscape:document-units="mm"
     inkscape:current-layer="layer1"
     inkscape:document-rotation="0"
     showgrid="false"
     inkscape:window-width="1350"
     inkscape:window-height="728"
     inkscape:window-x="0"
     inkscape:window-y="0"
     inkscape:window-maximized="0" />
  <metadata
     id="metadata5">
    <rdf:RDF>
      <cc:Work
         rdf:about="">
        <dc:format>image/svg+xml</dc:format>
        <dc:type
           rdf:resource="http://purl.org/dc/dcmitype/StillImage" />
        <dc:title></dc:title>
      </cc:Work>
    </rdf:RDF>
  </metadata>
  <g
     inkscape:label="Layer 1"
     inkscape:groupmode="layer"
     id="layer1">
    <path
       id="rect22"
       style="fill:#000000;stroke:#00ff00;stroke-width:4.86177;stroke-miterlimit:4;stroke-dasharray:none;stroke-opacity:1"
       d="M 10.087129,67.282806 H 287.24017 V 136.57107 H 10.087129 Z" />
    <g
       aria-label="InDEC"
       id="text12"
       style="font-style:normal;font-weight:normal;font-size:88.4744px;line-height:1.25;font-family:sans-serif;fill:#000000;fill-opacity:1;stroke:none;stroke-width:2.21186">
      <path
         d="m 22.342036,127.17166 6.370157,-1.92678 q 0.707795,-0.23593 1.101015,-0.66847 0.393219,-0.43254 0.393219,-1.29763 V 80.496494 q 0,-0.825761 -0.471863,-1.258303 Q 29.302022,78.80565 28.712193,78.60904 L 22.342036,76.60362 V 73.733117 H 46.32843 v 2.870503 l -6.330835,2.00542 q -0.668474,0.19661 -1.101015,0.668473 -0.432542,0.432542 -0.432542,1.218981 v 42.782286 q 0,0.86509 0.432542,1.33695 0.471863,0.43254 1.101015,0.62915 l 6.330835,1.92678 v 2.94914 H 22.342036 Z"
         style="fill:#ff00ff;stroke-width:2.21186"
         id="path848" />
      <path
         d="m 54.271455,127.2503 4.797279,-1.57288 q 0.707795,-0.23593 1.140337,-0.66847 0.432541,-0.43254 0.432541,-1.2583 V 95.989345 q 0,-0.825761 -0.471863,-1.258303 -0.471864,-0.471863 -1.258303,-0.825761 l -4.600669,-1.926776 v -2.791858 l 13.44811,-2.162708 v 6.724055 h 0.511185 q 1.769488,-2.319996 3.499654,-3.696264 1.769488,-1.376269 3.499654,-2.123386 1.730166,-0.747117 3.421011,-0.983049 1.730166,-0.235932 3.381688,-0.235932 2.791859,0 5.22982,0.825761 2.477284,0.786439 4.325415,2.516606 1.848132,1.730166 2.909825,4.443381 1.061693,2.713215 1.061693,6.488119 v 22.61013 q 0,0.94373 0.432542,1.41559 0.471863,0.47186 1.140336,0.66847 l 4.24677,1.57288 v 2.8705 H 82.111401 v -2.8705 l 4.01084,-1.57288 q 0.707795,-0.27525 1.179658,-0.70779 0.471864,-0.43254 0.471864,-1.37627 v -19.22844 q 0,-2.79186 -0.353898,-4.954565 -0.353898,-2.162707 -1.336946,-3.656942 -0.983049,-1.494234 -2.791859,-2.280673 -1.769488,-0.786439 -4.679313,-0.786439 -1.258303,0 -2.673893,0.196609 -1.376269,0.19661 -2.752537,0.668474 -1.336947,0.432541 -2.555928,1.21898 -1.21898,0.78644 -2.162707,1.966098 v 27.014188 q 0,0.82576 0.471863,1.29762 0.511186,0.43254 1.140337,0.62915 l 3.656942,1.57288 v 2.8705 H 54.271455 Z"
         style="fill:#ff00ff;stroke-width:2.21186"
         id="path850" />
      <path
         d="m 108.57492,127.17166 6.05558,-1.92678 q 0.62915,-0.19661 1.06169,-0.62915 0.43254,-0.47186 0.43254,-1.33695 V 80.496494 q 0,-0.825761 -0.43254,-1.258303 -0.43254,-0.432541 -1.06169,-0.629151 l -6.05558,-2.00542 v -2.870503 h 25.7952 q 2.79186,0 5.97694,0.550508 3.18508,0.511185 6.33083,1.80881 3.14576,1.258302 6.01626,3.381688 2.90983,2.084064 5.11186,5.269142 2.20203,3.145757 3.49965,7.471172 1.33695,4.286094 1.33695,9.948453 0,7.23524 -2.24135,12.50438 -2.20203,5.26915 -6.09491,8.72948 -3.85355,3.42101 -9.04405,5.07253 -5.15117,1.65152 -11.04947,1.65152 h -25.63791 z m 25.83452,-1.76949 q 4.95457,0 8.53287,-1.45491 3.61762,-1.49424 5.93761,-4.2861 2.35932,-2.83118 3.46033,-6.92066 1.14034,-4.12881 1.14034,-9.39795 0,-5.741005 -1.53356,-10.341674 -1.49423,-4.639991 -4.32541,-7.864391 -2.79186,-3.224401 -6.8027,-4.954567 -3.97152,-1.730166 -8.84744,-1.730166 h -7.58914 v 46.950418 z"
         style="fill:#d40000;stroke-width:2.21186"
         id="path852" />
      <path
         d="m 171.136,127.17166 6.05558,-1.92678 q 0.62915,-0.19661 1.06169,-0.62915 0.43254,-0.47186 0.43254,-1.33695 V 80.496494 q 0,-0.825761 -0.43254,-1.258303 -0.43254,-0.432541 -1.06169,-0.629151 L 171.136,76.60362 v -2.870503 h 43.76533 v 13.998617 h -4.63999 l -1.53355,-7.746425 q -0.15729,-0.707796 -0.58983,-1.061693 -0.43254,-0.39322 -1.10102,-0.39322 h -20.09352 v 19.857588 h 12.07184 q 0.78644,0 1.14034,-0.353897 0.3539,-0.353898 0.55051,-1.061693 l 1.41559,-6.212869 h 3.77491 v 20.093515 h -3.77491 l -1.41559,-6.17354 q -0.19661,-0.74712 -0.55051,-1.10102 -0.3539,-0.39322 -1.14034,-0.39322 h -12.07184 v 22.13827 h 23.16064 q 0.58983,0 1.02237,-0.39322 0.47186,-0.39322 0.58983,-1.10102 l 1.57287,-8.65083 h 4.60067 V 130.1208 H 171.136 Z"
         style="fill:#0000ff;stroke-width:2.21186"
         id="path854" />
      <path
         d="m 274.98513,117.53778 v 5.22982 q -1.73017,1.41559 -3.97152,2.94914 -2.24135,1.49424 -4.87592,2.75254 -2.59525,1.2583 -5.5444,2.04474 -2.94915,0.82576 -6.0949,0.82576 -6.25219,0 -11.40337,-1.96609 -5.15118,-1.9661 -8.80812,-5.70169 -3.61762,-3.77491 -5.62304,-9.20134 -2.00542,-5.46575 -2.00542,-12.42573 0,-6.724058 2.08407,-12.18981 2.12338,-5.465752 5.85897,-9.319304 3.73558,-3.853552 8.84744,-5.937616 5.15117,-2.084063 11.20676,-2.084063 2.1627,0 4.75795,0.275253 2.59525,0.275254 5.15118,0.747118 2.59525,0.432541 4.95457,0.943727 2.39863,0.511185 4.1288,0.943727 v 14.391836 h -4.60067 l -1.53355,-8.061001 q -0.0786,-0.58983 -0.66848,-1.022371 -0.58983,-0.432542 -1.10101,-0.707795 -1.29763,-0.629152 -2.6739,-1.140337 -1.37626,-0.511186 -2.8705,-0.865083 -1.45491,-0.353898 -3.02779,-0.511186 -1.53356,-0.196609 -3.2244,-0.196609 -4.01084,0 -7.39253,1.41559 -3.34236,1.41559 -5.741,4.286093 -2.39864,2.870503 -3.73559,7.195918 -1.33695,4.286094 -1.33695,10.105743 0,12.30777 5.42643,18.59929 5.42643,6.25219 15.68946,6.25219 2.90983,0 5.34779,-0.82576 2.43796,-0.82576 4.44338,-2.00542 2.00542,-1.21898 3.5783,-2.51661 1.57288,-1.33695 2.75254,-2.28067 z"
         style="fill:#ffff00;stroke-width:2.21186"
         id="path856" />
    </g>
  </g>
</svg>
