<?xml version="1.0" encoding="UTF-8" standalone="no"?>
<svg
   xmlns:osb="http://www.openswatchbook.org/uri/2009/osb"
   xmlns:dc="http://purl.org/dc/elements/1.1/"
   xmlns:cc="http://creativecommons.org/ns#"
   xmlns:rdf="http://www.w3.org/1999/02/22-rdf-syntax-ns#"
   xmlns:svg="http://www.w3.org/2000/svg"
   xmlns="http://www.w3.org/2000/svg"
   xmlns:xlink="http://www.w3.org/1999/xlink"
   xmlns:sodipodi="http://sodipodi.sourceforge.net/DTD/sodipodi-0.dtd"
   xmlns:inkscape="http://www.inkscape.org/namespaces/inkscape"
   inkscape:export-ydpi="202"
   inkscape:export-xdpi="202"
   inkscape:export-filename="C:\Users\arauj\Desktop\bitmap.png"
   sodipodi:docname="maisVidaUFT.svg"
   inkscape:version="1.0 (4035a4fb49, 2020-05-01)"
   id="svg8"
   version="1.1"
   viewBox="0 0 297 210"
   height="210mm"
   width="297mm">
  <defs
     id="defs2">
    <linearGradient
       osb:paint="solid"
       id="linearGradient3083">
      <stop
         id="stop3081"
         offset="0"
         style="stop-color:#000000;stop-opacity:1;" />
    </linearGradient>
    <linearGradient
       osb:paint="solid"
       id="linearGradient3051">
      <stop
         id="stop3049"
         offset="0"
         style="stop-color:#000000;stop-opacity:1;" />
    </linearGradient>
    <filter
       id="filter9066"
       height="1.2052664"
       y="-0.10263315"
       width="1.1803443"
       x="-0.090172201">
      <feGaussianBlur
         id="feGaussianBlur9068"
         stdDeviation="8.024772"
         inkscape:collect="always" />
    </filter>
    <filter
       id="filter3164"
       height="1.0612991"
       y="-0.030649563"
       width="1.2442172"
       x="-0.12210854">
      <feGaussianBlur
         id="feGaussianBlur3166"
         stdDeviation="16.066872"
         inkscape:collect="always" />
    </filter>
    <linearGradient
       x1="344.60135"
       y1="1010.7886"
       x2="287.02737"
       y2="50.093983"
       id="linearGradient6095"
       xlink:href="#linearGradient6097"
       gradientUnits="userSpaceOnUse"
       gradientTransform="matrix(0.08808357,0.03778149,-0.03778149,0.08808357,82.80951,56.273953)" />
    <linearGradient
       id="linearGradient6097">
      <stop
         style="stop-color:#facc00;stop-opacity:1"
         offset="0"
         id="stop6099" />
      <stop
         style="stop-color:#ffee00;stop-opacity:1"
         offset="1"
         id="stop6101" />
    </linearGradient>
    <filter
       id="filter5108">
      <feGaussianBlur
         id="feGaussianBlur5110"
         stdDeviation="17.989028"
         inkscape:collect="always" />
    </filter>
    <linearGradient
       x1="752.50128"
       y1="828.07648"
       x2="104.03245"
       y2="105.23806"
       id="linearGradient6087"
       xlink:href="#linearGradient6081"
       gradientUnits="userSpaceOnUse"
       gradientTransform="matrix(0.08808357,0.03778149,-0.03778149,0.08808357,82.80951,56.273953)" />
    <linearGradient
       id="linearGradient6081">
      <stop
         style="stop-color:#f9c900;stop-opacity:1"
         offset="0"
         id="stop6083" />
      <stop
         style="stop-color:#fef167;stop-opacity:1"
         offset="1"
         id="stop6085" />
    </linearGradient>
    <linearGradient
       gradientUnits="userSpaceOnUse"
       y2="140.49876"
       x2="334.91245"
       y1="140.49876"
       x1="185.80881"
       id="linearGradient3085"
       xlink:href="#linearGradient3083"
       inkscape:collect="always" />
  </defs>
  <sodipodi:namedview
     inkscape:window-maximized="1"
     inkscape:window-y="-11"
     inkscape:window-x="-11"
     inkscape:window-height="1346"
     inkscape:window-width="2160"
     showgrid="false"
     inkscape:document-rotation="0"
     inkscape:current-layer="layer1"
     inkscape:document-units="mm"
     inkscape:cy="548.95979"
     inkscape:cx="475.86583"
     inkscape:zoom="0.98994949"
     inkscape:pageshadow="2"
     inkscape:pageopacity="0.0"
     borderopacity="1.0"
     bordercolor="#666666"
     pagecolor="#ffffff"
     id="base" />
  <metadata
     id="metadata5">
    <rdf:RDF>
      <cc:Work
         rdf:about="">
        <dc:format>image/svg+xml</dc:format>
        <dc:type
           rdf:resource="http://purl.org/dc/dcmitype/StillImage" />
        <dc:title />
      </cc:Work>
    </rdf:RDF>
  </metadata>
  <g
     id="layer1"
     inkscape:groupmode="layer"
     inkscape:label="Layer 1">
    <g
       style="font-style:normal;font-weight:normal;font-size:68.9718px;line-height:1.25;font-family:sans-serif;fill:#000000;fill-opacity:1;stroke:#000000;stroke-width:1.72429;stroke-opacity:1"
       id="text88"
       aria-label="MA  S VIDA">
      <g
         style="opacity:1"
         id="g3160">
        <path
           id="path3162"
           d="M 47.360924,70.961462 V 125.48556 H 34.967553 V 88.6759 L 30.01694,125.48556 H 21.227077 L 16.007043,89.517841 V 125.48556 H 3.6136724 V 70.961462 H 21.967985 c 0.538842,3.277957 1.111362,7.139659 1.717559,11.585108 l 1.953303,13.875186 3.233054,-25.460294 z"
           style="color:#000000;font-style:normal;font-variant:normal;font-weight:normal;font-stretch:normal;font-size:medium;line-height:1.25;font-family:Impact;-inkscape-font-specification:Impact;font-variant-ligatures:normal;font-variant-position:normal;font-variant-caps:normal;font-variant-numeric:normal;font-variant-alternates:normal;font-variant-east-asian:normal;font-feature-settings:normal;font-variation-settings:normal;text-indent:0;text-align:start;text-decoration:none;text-decoration-line:none;text-decoration-style:solid;text-decoration-color:#000000;letter-spacing:normal;word-spacing:normal;text-transform:none;writing-mode:lr-tb;direction:ltr;text-orientation:mixed;dominant-baseline:auto;baseline-shift:baseline;text-anchor:start;white-space:normal;shape-padding:0;shape-margin:0;inline-size:0;clip-rule:nonzero;display:inline;overflow:visible;visibility:visible;isolation:auto;mix-blend-mode:normal;color-interpolation:sRGB;color-interpolation-filters:linearRGB;solid-color:#000000;solid-opacity:1;vector-effect:none;fill:#ffcc00;fill-opacity:1;fill-rule:nonzero;stroke:none;stroke-width:1.72429;stroke-linecap:butt;stroke-linejoin:miter;stroke-miterlimit:4;stroke-dasharray:none;stroke-dashoffset:0;stroke-opacity:1.0;color-rendering:auto;image-rendering:auto;shape-rendering:auto;text-rendering:auto;enable-background:accumulate;stop-color:#000000;stop-opacity:1;" />
        <path
           id="path3164"
           d="M 2.7519531 70.099609 L 2.7519531 126.34766 L 16.869141 126.34766 L 16.869141 101.46094 L 20.480469 126.34766 L 30.771484 126.34766 L 34.105469 101.55664 L 34.105469 126.34766 L 48.222656 126.34766 L 48.222656 70.099609 L 47.361328 70.099609 L 28.113281 70.099609 L 25.59375 89.925781 L 24.539062 82.429688 L 24.539062 82.425781 C 23.932299 77.976406 23.358748 74.109632 22.818359 70.822266 L 22.699219 70.099609 L 2.7519531 70.099609 z M 4.4765625 71.824219 L 21.224609 71.824219 C 21.73218 74.956235 22.264468 78.499976 22.832031 82.662109 L 22.832031 82.664062 L 24.785156 96.541016 L 26.494141 96.53125 L 29.630859 71.824219 L 46.498047 71.824219 L 46.498047 124.62305 L 35.830078 124.62305 L 35.830078 88.675781 L 34.113281 88.560547 L 29.263672 124.62305 L 21.972656 124.62305 L 16.859375 89.394531 L 15.144531 89.517578 L 15.144531 124.62305 L 4.4765625 124.62305 L 4.4765625 71.824219 z "
           style="color:#000000;font-style:normal;font-variant:normal;font-weight:normal;font-stretch:normal;font-size:medium;line-height:1.25;font-family:Impact;-inkscape-font-specification:Impact;font-variant-ligatures:normal;font-variant-position:normal;font-variant-caps:normal;font-variant-numeric:normal;font-variant-alternates:normal;font-variant-east-asian:normal;font-feature-settings:normal;font-variation-settings:normal;text-indent:0;text-align:start;text-decoration:none;text-decoration-line:none;text-decoration-style:solid;text-decoration-color:#000000;letter-spacing:normal;word-spacing:normal;text-transform:none;writing-mode:lr-tb;direction:ltr;text-orientation:mixed;dominant-baseline:auto;baseline-shift:baseline;text-anchor:start;white-space:normal;shape-padding:0;shape-margin:0;inline-size:0;clip-rule:nonzero;display:inline;overflow:visible;visibility:visible;isolation:auto;mix-blend-mode:normal;color-interpolation:sRGB;color-interpolation-filters:linearRGB;solid-color:#000000;solid-opacity:1;vector-effect:none;fill:#000000;fill-opacity:1;fill-rule:nonzero;stroke:none;stroke-width:1.72429;stroke-linecap:butt;stroke-linejoin:miter;stroke-miterlimit:4;stroke-dasharray:none;stroke-dashoffset:0;stroke-opacity:1.0;color-rendering:auto;image-rendering:auto;shape-rendering:auto;text-rendering:auto;enable-background:accumulate;stop-color:#000000;stop-opacity:1;" />
      </g>
      <g
         style="opacity:1"
         id="g3166">
        <path
           id="path3169"
           d="m 77.536085,70.961462 8.116311,54.524098 H 71.137334 l -0.70723,-9.80019 H 65.34478 l -0.84194,9.80019 H 49.81939 L 57.026404,70.961462 Z M 70.025972,106.01988 C 69.307516,99.845649 68.58906,92.223278 67.870603,83.152767 66.43369,93.570383 65.53562,101.19275 65.176392,106.01988 Z"
           style="color:#000000;font-style:normal;font-variant:normal;font-weight:normal;font-stretch:normal;font-size:medium;line-height:1.25;font-family:Impact;-inkscape-font-specification:Impact;font-variant-ligatures:normal;font-variant-position:normal;font-variant-caps:normal;font-variant-numeric:normal;font-variant-alternates:normal;font-variant-east-asian:normal;font-feature-settings:normal;font-variation-settings:normal;text-indent:0;text-align:start;text-decoration:none;text-decoration-line:none;text-decoration-style:solid;text-decoration-color:#000000;letter-spacing:normal;word-spacing:normal;text-transform:none;writing-mode:lr-tb;direction:ltr;text-orientation:mixed;dominant-baseline:auto;baseline-shift:baseline;text-anchor:start;white-space:normal;shape-padding:0;shape-margin:0;inline-size:0;clip-rule:nonzero;display:inline;overflow:visible;visibility:visible;isolation:auto;mix-blend-mode:normal;color-interpolation:sRGB;color-interpolation-filters:linearRGB;solid-color:#000000;solid-opacity:1;vector-effect:none;fill:#ffcc00;fill-opacity:1;fill-rule:nonzero;stroke:none;stroke-width:1.72429;stroke-linecap:butt;stroke-linejoin:miter;stroke-miterlimit:4;stroke-dasharray:none;stroke-dashoffset:0;stroke-opacity:1.0;color-rendering:auto;image-rendering:auto;shape-rendering:auto;text-rendering:auto;enable-background:accumulate;stop-color:#000000;stop-opacity:1;" />
        <path
           id="path3171"
           d="M 56.271484 70.099609 L 48.835938 126.34766 L 65.294922 126.34766 L 66.136719 116.54688 L 69.628906 116.54688 L 70.335938 126.34766 L 86.652344 126.34766 L 78.279297 70.099609 L 77.535156 70.099609 L 56.271484 70.099609 z M 57.78125 71.824219 L 76.792969 71.824219 L 84.652344 124.62305 L 71.939453 124.62305 L 71.232422 114.82227 L 64.552734 114.82227 L 63.710938 124.62305 L 50.802734 124.62305 L 57.78125 71.824219 z M 67.015625 83.035156 C 65.577578 93.460994 64.678541 101.08889 64.316406 105.95508 L 64.248047 106.88281 L 70.994141 106.88281 L 70.882812 105.91992 C 70.166145 99.761064 69.448355 92.147295 68.730469 83.083984 L 67.015625 83.035156 z M 67.775391 91.326172 C 68.209864 96.191517 68.645057 101.34619 69.080078 105.1582 L 66.146484 105.1582 C 66.389112 102.11591 67.135831 96.439016 67.775391 91.326172 z "
           style="color:#000000;font-style:normal;font-variant:normal;font-weight:normal;font-stretch:normal;font-size:medium;line-height:1.25;font-family:Impact;-inkscape-font-specification:Impact;font-variant-ligatures:normal;font-variant-position:normal;font-variant-caps:normal;font-variant-numeric:normal;font-variant-alternates:normal;font-variant-east-asian:normal;font-feature-settings:normal;font-variation-settings:normal;text-indent:0;text-align:start;text-decoration:none;text-decoration-line:none;text-decoration-style:solid;text-decoration-color:#000000;letter-spacing:normal;word-spacing:normal;text-transform:none;writing-mode:lr-tb;direction:ltr;text-orientation:mixed;dominant-baseline:auto;baseline-shift:baseline;text-anchor:start;white-space:normal;shape-padding:0;shape-margin:0;inline-size:0;clip-rule:nonzero;display:inline;overflow:visible;visibility:visible;isolation:auto;mix-blend-mode:normal;color-interpolation:sRGB;color-interpolation-filters:linearRGB;solid-color:#000000;solid-opacity:1;vector-effect:none;fill:#000000;fill-opacity:1;fill-rule:nonzero;stroke:none;stroke-width:1.72429;stroke-linecap:butt;stroke-linejoin:miter;stroke-miterlimit:4;stroke-dasharray:none;stroke-dashoffset:0;stroke-opacity:1.0;color-rendering:auto;image-rendering:auto;shape-rendering:auto;text-rendering:auto;enable-background:accumulate;stop-color:#000000;stop-opacity:1;" />
      </g>
      <g
         style="opacity:1"
         id="g3173">
        <path
           id="path3175"
           d="m 142.36554,87.463505 h -13.16796 v -4.041317 c 0,-1.885947 -0.16839,-3.087116 -0.50517,-3.603507 -0.33677,-0.516391 -0.89807,-0.774586 -1.68388,-0.774586 -0.85317,0 -1.50427,0.348002 -1.9533,1.044007 -0.42659,0.696005 -0.63988,1.751237 -0.63988,3.165698 0,1.818593 0.24697,3.18815 0.74091,4.108672 0.47149,0.920522 1.80737,2.031884 4.00764,3.334086 6.30895,3.749443 10.28291,6.825334 11.92189,9.227673 1.63897,2.402339 2.45846,6.275269 2.45846,11.618789 0,3.88415 -0.46026,6.74675 -1.38078,8.58779 -0.89807,1.84105 -2.64931,3.39022 -5.25371,4.64752 -2.60441,1.23485 -5.63539,1.85227 -9.09296,1.85227 -3.79435,0 -7.03863,-0.71846 -9.73284,-2.15537 -2.67176,-1.43691 -4.423,-3.26673 -5.25371,-5.48946 -0.83072,-2.22272 -1.24608,-5.37719 -1.24608,-9.46341 v -3.56983 h 13.16796 v 6.63449 c 0,2.04311 0.17961,3.35654 0.53884,3.94029 0.38168,0.58374 1.04401,0.87561 1.98698,0.87561 0.94297,0 1.63898,-0.37045 2.08802,-1.11136 0.47149,-0.74091 0.70723,-1.84104 0.70723,-3.30041 0,-3.2106 -0.43781,-5.30984 -1.31343,-6.29771 -0.89807,-0.98788 -3.10957,-2.63809 -6.63449,-4.95062 -3.52493,-2.334981 -5.85991,-4.030087 -7.00495,-5.08532 -1.14504,-1.055233 -2.09924,-2.514597 -2.8626,-4.378093 -0.74091,-1.863496 -1.11136,-4.243382 -1.11136,-7.139659 0,-4.176027 0.52761,-7.229467 1.58284,-9.160318 1.07769,-1.930851 2.80647,-3.435119 5.18636,-4.512803 2.37989,-1.100136 5.25371,-1.650204 8.62148,-1.650204 3.68209,0 6.81411,0.594971 9.39606,1.784914 2.6044,1.189943 4.32196,2.694211 5.15268,4.512804 0.85317,1.796141 1.27975,4.860806 1.27975,9.193995 z"
           style="color:#000000;font-style:normal;font-variant:normal;font-weight:normal;font-stretch:normal;font-size:medium;line-height:1.25;font-family:Impact;-inkscape-font-specification:Impact;font-variant-ligatures:normal;font-variant-position:normal;font-variant-caps:normal;font-variant-numeric:normal;font-variant-alternates:normal;font-variant-east-asian:normal;font-feature-settings:normal;font-variation-settings:normal;text-indent:0;text-align:start;text-decoration:none;text-decoration-line:none;text-decoration-style:solid;text-decoration-color:#000000;letter-spacing:normal;word-spacing:normal;text-transform:none;writing-mode:lr-tb;direction:ltr;text-orientation:mixed;dominant-baseline:auto;baseline-shift:baseline;text-anchor:start;white-space:normal;shape-padding:0;shape-margin:0;inline-size:0;clip-rule:nonzero;display:inline;overflow:visible;visibility:visible;isolation:auto;mix-blend-mode:normal;color-interpolation:sRGB;color-interpolation-filters:linearRGB;solid-color:#000000;solid-opacity:1;vector-effect:none;fill:#ffcc00;fill-opacity:1;fill-rule:nonzero;stroke:none;stroke-width:1.72429;stroke-linecap:butt;stroke-linejoin:miter;stroke-miterlimit:4;stroke-dasharray:none;stroke-dashoffset:0;stroke-opacity:1.0;color-rendering:auto;image-rendering:auto;shape-rendering:auto;text-rendering:auto;enable-background:accumulate;stop-color:#000000;stop-opacity:1;" />
        <path
           id="path3177"
           d="M 126.53711 68.955078 C 123.07793 68.955078 120.07992 69.518195 117.56055 70.681641 C 115.04895 71.818966 113.15261 73.451515 111.97656 75.558594 L 111.97461 75.5625 L 111.97266 75.566406 C 110.79199 77.726778 110.28516 80.89198 110.28516 85.140625 C 110.28516 88.110418 110.65947 90.591665 111.45703 92.597656 L 111.45898 92.601562 L 111.45898 92.605469 C 112.25802 94.556067 113.27435 96.129094 114.53516 97.291016 C 115.77136 98.430264 118.10949 100.11667 121.64844 102.46094 L 121.65039 102.46289 L 121.65234 102.46289 C 123.56712 103.71908 124.06918 104.24007 125.18555 105.08984 L 110.72266 105.08984 L 110.72266 109.52148 C 110.72266 113.66613 111.13206 116.9021 112.02344 119.28711 C 112.93893 121.73669 114.87353 123.72728 117.67578 125.23438 L 117.67773 125.23438 L 117.67773 125.23633 C 120.52023 126.75233 123.91323 127.49219 127.81641 127.49219 C 131.37661 127.49219 134.54144 126.85476 137.2793 125.55664 L 137.28125 125.55664 L 137.28516 125.55469 C 140.00298 124.24263 141.92936 122.57646 142.9375 120.50977 C 143.96476 118.452 144.40625 115.49213 144.40625 111.54297 C 144.40625 106.1113 143.60552 102.08567 141.79883 99.4375 C 139.98729 96.78223 135.95379 93.729085 129.60352 89.955078 C 127.45664 88.68448 126.22245 87.551765 125.92383 86.96875 L 125.91992 86.962891 L 125.91602 86.955078 C 125.53392 86.242988 125.27734 84.994444 125.27734 83.253906 C 125.27734 81.930903 125.49999 81.024423 125.78906 80.548828 C 126.1004 80.071088 126.39415 79.90625 127.00781 79.90625 C 127.60478 79.90625 127.80154 80.02967 127.9707 80.289062 C 128.04514 80.403199 128.33594 81.587246 128.33594 83.421875 L 128.33594 88.326172 L 143.22852 88.326172 L 143.22852 87.462891 L 143.22852 85.308594 C 143.22852 80.925524 142.83437 77.794938 141.86914 75.755859 L 141.86719 75.753906 C 140.92463 73.692479 139.01542 72.062156 136.29492 70.818359 C 133.57148 69.56321 130.31207 68.955078 126.53711 68.955078 z M 126.53711 70.677734 C 130.12632 70.677734 133.1318 71.260029 135.57227 72.384766 L 135.57422 72.384766 C 138.05913 73.520116 139.58201 74.899146 140.30078 76.472656 L 140.30469 76.478516 L 140.30664 76.484375 C 141.04452 78.037808 141.50391 81.031987 141.50391 85.308594 L 141.50391 86.601562 L 130.06055 86.601562 L 130.06055 83.421875 C 130.06055 81.484609 130.01318 80.266301 129.41406 79.347656 C 128.90968 78.574267 127.98248 78.181641 127.00781 78.181641 C 125.9202 78.181641 124.91396 78.716073 124.33008 79.621094 L 124.32617 79.628906 L 124.32031 79.636719 C 123.75775 80.554578 123.55273 81.752774 123.55273 83.253906 C 123.55273 85.146879 123.79135 86.633553 124.39453 87.761719 C 125.04051 89.017003 126.47483 90.107949 128.72461 91.439453 C 134.9906 95.163598 138.90684 98.261067 140.37305 100.41016 C 141.84431 102.56667 142.68164 106.28759 142.68164 111.54297 C 142.68164 115.35901 142.20464 118.12197 141.39258 119.74609 L 141.39062 119.75 L 141.38867 119.75195 C 140.60067 121.36735 139.02613 122.79941 136.53516 124.00195 C 134.06538 125.17184 131.16889 125.76758 127.81641 125.76758 C 124.13191 125.76758 121.03772 125.07388 118.49219 123.7168 L 118.49023 123.71484 C 115.95056 122.34838 114.38434 120.67876 113.63867 118.68359 C 112.86861 116.62316 112.44727 113.54928 112.44727 109.52148 L 112.44727 106.81445 L 123.89062 106.81445 L 123.89062 112.58789 C 123.89062 114.68153 123.96212 116.01241 124.55664 116.97852 L 124.5625 116.98828 L 124.57031 117 C 125.12996 117.85592 126.15647 118.26562 127.27734 118.26562 C 128.44317 118.26562 129.50903 117.70929 130.09766 116.74414 C 130.70278 115.78801 130.93555 114.53786 130.93555 112.99023 C 130.93555 109.70126 130.58744 107.45591 129.4043 106.12109 L 129.40039 106.11719 L 129.39844 106.11328 C 128.34848 104.95832 126.14234 103.34654 122.60156 101.02344 L 122.59766 101.02148 C 119.08972 98.697595 116.75842 96.994164 115.70508 96.023438 C 114.67751 95.076462 113.78561 93.732973 113.05859 91.960938 C 112.37434 90.239936 112.00781 87.963386 112.00781 85.140625 C 112.00781 81.040697 112.55602 78.100429 113.48438 76.398438 C 114.46379 74.644952 116.02432 73.269535 118.27148 72.251953 L 118.27344 72.25 L 118.27734 72.25 C 120.51663 71.214857 123.26322 70.677734 126.53711 70.677734 z M 125.61523 105.41016 C 126.33419 105.97292 127.82814 106.95384 128.11719 107.27148 C 128.68432 107.91535 129.21094 109.86267 129.21094 112.99023 C 129.21094 114.35675 128.97251 115.30353 128.63867 115.82812 L 128.63281 115.83594 L 128.62891 115.84375 C 128.31851 116.35589 127.99452 116.54102 127.27734 116.54102 C 126.51923 116.54102 126.227 116.36482 126.02344 116.05859 C 125.89851 115.84728 125.61523 114.57044 125.61523 112.58789 L 125.61523 105.41016 z "
           style="color:#000000;font-style:normal;font-variant:normal;font-weight:normal;font-stretch:normal;font-size:medium;line-height:1.25;font-family:Impact;-inkscape-font-specification:Impact;font-variant-ligatures:normal;font-variant-position:normal;font-variant-caps:normal;font-variant-numeric:normal;font-variant-alternates:normal;font-variant-east-asian:normal;font-feature-settings:normal;font-variation-settings:normal;text-indent:0;text-align:start;text-decoration:none;text-decoration-line:none;text-decoration-style:solid;text-decoration-color:#000000;letter-spacing:normal;word-spacing:normal;text-transform:none;writing-mode:lr-tb;direction:ltr;text-orientation:mixed;dominant-baseline:auto;baseline-shift:baseline;text-anchor:start;white-space:normal;shape-padding:0;shape-margin:0;inline-size:0;clip-rule:nonzero;display:inline;overflow:visible;visibility:visible;isolation:auto;mix-blend-mode:normal;color-interpolation:sRGB;color-interpolation-filters:linearRGB;solid-color:#000000;solid-opacity:1;vector-effect:none;fill:#000000;fill-opacity:1;fill-rule:nonzero;stroke:none;stroke-width:1.72429;stroke-linecap:butt;stroke-linejoin:miter;stroke-miterlimit:4;stroke-dasharray:none;stroke-dashoffset:0;stroke-opacity:1.0;color-rendering:auto;image-rendering:auto;shape-rendering:auto;text-rendering:auto;enable-background:accumulate;stop-color:#000000;stop-opacity:1;" />
      </g>
      <g
         style="opacity:1"
         id="g3179">
        <path
           id="path3181"
           d="m 193.82497,70.961462 -7.20701,54.524098 h -21.52001 l -8.18367,-54.524098 h 14.95287 c 1.72879,15.020227 2.96363,27.716696 3.70454,38.089408 0.74091,-10.484971 1.51549,-19.80245 2.32376,-27.952439 l 0.97665,-10.136969 z"
           style="color:#000000;font-style:normal;font-variant:normal;font-weight:normal;font-stretch:normal;font-size:medium;line-height:1.25;font-family:Impact;-inkscape-font-specification:Impact;font-variant-ligatures:normal;font-variant-position:normal;font-variant-caps:normal;font-variant-numeric:normal;font-variant-alternates:normal;font-variant-east-asian:normal;font-feature-settings:normal;font-variation-settings:normal;text-indent:0;text-align:start;text-decoration:none;text-decoration-line:none;text-decoration-style:solid;text-decoration-color:#000000;letter-spacing:normal;word-spacing:normal;text-transform:none;writing-mode:lr-tb;direction:ltr;text-orientation:mixed;dominant-baseline:auto;baseline-shift:baseline;text-anchor:start;white-space:normal;shape-padding:0;shape-margin:0;inline-size:0;clip-rule:nonzero;display:inline;overflow:visible;visibility:visible;isolation:auto;mix-blend-mode:normal;color-interpolation:sRGB;color-interpolation-filters:linearRGB;solid-color:#000000;solid-opacity:1;vector-effect:none;fill:#ffcc00;fill-opacity:1;fill-rule:nonzero;stroke:none;stroke-width:1.72429;stroke-linecap:butt;stroke-linejoin:miter;stroke-miterlimit:4;stroke-dasharray:none;stroke-dashoffset:0;stroke-opacity:1.0;color-rendering:auto;image-rendering:auto;shape-rendering:auto;text-rendering:auto;enable-background:accumulate;stop-color:#000000;stop-opacity:1;" />
        <path
           id="path3183"
           d="M 155.91211 70.099609 L 164.35547 126.34766 L 187.37305 126.34766 L 194.80859 70.099609 L 193.82422 70.099609 L 178.08984 70.099609 L 177.03711 81.015625 C 176.50381 86.393133 176.00765 93.06172 175.50391 99.451172 C 174.76212 90.790791 174.0216 82.131927 172.72461 70.863281 L 172.63672 70.099609 L 155.91211 70.099609 z M 157.91602 71.824219 L 171.08398 71.824219 C 172.75768 86.44318 173.98616 98.964465 174.71094 109.11133 L 176.43164 109.11133 C 177.1721 98.632679 177.94667 89.323195 178.75391 81.183594 L 178.75391 81.181641 L 179.6543 71.824219 L 192.8418 71.824219 L 185.86133 124.62305 L 165.83984 124.62305 L 157.91602 71.824219 z "
           style="color:#000000;font-style:normal;font-variant:normal;font-weight:normal;font-stretch:normal;font-size:medium;line-height:1.25;font-family:Impact;-inkscape-font-specification:Impact;font-variant-ligatures:normal;font-variant-position:normal;font-variant-caps:normal;font-variant-numeric:normal;font-variant-alternates:normal;font-variant-east-asian:normal;font-feature-settings:normal;font-variation-settings:normal;text-indent:0;text-align:start;text-decoration:none;text-decoration-line:none;text-decoration-style:solid;text-decoration-color:#000000;letter-spacing:normal;word-spacing:normal;text-transform:none;writing-mode:lr-tb;direction:ltr;text-orientation:mixed;dominant-baseline:auto;baseline-shift:baseline;text-anchor:start;white-space:normal;shape-padding:0;shape-margin:0;inline-size:0;clip-rule:nonzero;display:inline;overflow:visible;visibility:visible;isolation:auto;mix-blend-mode:normal;color-interpolation:sRGB;color-interpolation-filters:linearRGB;solid-color:#000000;solid-opacity:1;vector-effect:none;fill:#000000;fill-opacity:1;fill-rule:nonzero;stroke:none;stroke-width:1.72429;stroke-linecap:butt;stroke-linejoin:miter;stroke-miterlimit:4;stroke-dasharray:none;stroke-dashoffset:0;stroke-opacity:1.0;color-rendering:auto;image-rendering:auto;shape-rendering:auto;text-rendering:auto;enable-background:accumulate;stop-color:#000000;stop-opacity:1;" />
      </g>
      <g
         style="opacity:1"
         id="g3185">
        <path
           id="path3187"
           d="M 210.42804,70.961462 V 125.48556 H 196.24975 V 70.961462 Z"
           style="color:#000000;font-style:normal;font-variant:normal;font-weight:normal;font-stretch:normal;font-size:medium;line-height:1.25;font-family:Impact;-inkscape-font-specification:Impact;font-variant-ligatures:normal;font-variant-position:normal;font-variant-caps:normal;font-variant-numeric:normal;font-variant-alternates:normal;font-variant-east-asian:normal;font-feature-settings:normal;font-variation-settings:normal;text-indent:0;text-align:start;text-decoration:none;text-decoration-line:none;text-decoration-style:solid;text-decoration-color:#000000;letter-spacing:normal;word-spacing:normal;text-transform:none;writing-mode:lr-tb;direction:ltr;text-orientation:mixed;dominant-baseline:auto;baseline-shift:baseline;text-anchor:start;white-space:normal;shape-padding:0;shape-margin:0;inline-size:0;clip-rule:nonzero;display:inline;overflow:visible;visibility:visible;isolation:auto;mix-blend-mode:normal;color-interpolation:sRGB;color-interpolation-filters:linearRGB;solid-color:#000000;solid-opacity:1;vector-effect:none;fill:#ffcc00;fill-opacity:1;fill-rule:nonzero;stroke:none;stroke-width:1.72429;stroke-linecap:butt;stroke-linejoin:miter;stroke-miterlimit:4;stroke-dasharray:none;stroke-dashoffset:0;stroke-opacity:1.0;color-rendering:auto;image-rendering:auto;shape-rendering:auto;text-rendering:auto;enable-background:accumulate;stop-color:#000000;stop-opacity:1;" />
        <path
           id="path3189"
           d="M 195.38672 70.099609 L 195.38672 126.34766 L 211.29102 126.34766 L 211.29102 70.099609 L 210.42773 70.099609 L 195.38672 70.099609 z M 197.11133 71.824219 L 209.56641 71.824219 L 209.56641 124.62305 L 197.11133 124.62305 L 197.11133 71.824219 z "
           style="color:#000000;font-style:normal;font-variant:normal;font-weight:normal;font-stretch:normal;font-size:medium;line-height:1.25;font-family:Impact;-inkscape-font-specification:Impact;font-variant-ligatures:normal;font-variant-position:normal;font-variant-caps:normal;font-variant-numeric:normal;font-variant-alternates:normal;font-variant-east-asian:normal;font-feature-settings:normal;font-variation-settings:normal;text-indent:0;text-align:start;text-decoration:none;text-decoration-line:none;text-decoration-style:solid;text-decoration-color:#000000;letter-spacing:normal;word-spacing:normal;text-transform:none;writing-mode:lr-tb;direction:ltr;text-orientation:mixed;dominant-baseline:auto;baseline-shift:baseline;text-anchor:start;white-space:normal;shape-padding:0;shape-margin:0;inline-size:0;clip-rule:nonzero;display:inline;overflow:visible;visibility:visible;isolation:auto;mix-blend-mode:normal;color-interpolation:sRGB;color-interpolation-filters:linearRGB;solid-color:#000000;solid-opacity:1;vector-effect:none;fill:#000000;fill-opacity:1;fill-rule:nonzero;stroke:none;stroke-width:1.72429;stroke-linecap:butt;stroke-linejoin:miter;stroke-miterlimit:4;stroke-dasharray:none;stroke-dashoffset:0;stroke-opacity:1.0;color-rendering:auto;image-rendering:auto;shape-rendering:auto;text-rendering:auto;enable-background:accumulate;stop-color:#000000;stop-opacity:1;" />
      </g>
      <g
         style="opacity:1"
         id="g3191">
        <path
           id="path3193"
           d="m 216.18691,70.961462 h 10.60846 c 6.84779,0 11.47285,0.314325 13.87519,0.942974 2.42479,0.628649 4.26583,1.66143 5.52313,3.098343 1.2573,1.436913 2.04311,3.042213 2.35743,4.815902 0.31433,1.751237 0.47149,5.208808 0.47149,10.372712 v 19.095217 c 0,4.89449 -0.23574,8.17244 -0.70723,9.83387 -0.44903,1.63898 -1.24607,2.92996 -2.39111,3.87293 -1.14504,0.92053 -2.5595,1.57163 -4.24338,1.95331 -1.68389,0.35923 -4.22094,0.53884 -7.61115,0.53884 h -17.88283 z m 14.17829,9.328706 v 35.866682 c 2.04311,0 3.30041,-0.40413 3.7719,-1.21239 0.47149,-0.83072 0.70723,-3.06467 0.70723,-6.70185 V 87.059373 c 0,-2.469693 -0.0786,-4.052542 -0.23575,-4.748547 -0.15716,-0.696005 -0.51639,-1.201169 -1.07768,-1.515494 -0.56129,-0.336776 -1.61653,-0.505164 -3.1657,-0.505164 z"
           style="color:#000000;font-style:normal;font-variant:normal;font-weight:normal;font-stretch:normal;font-size:medium;line-height:1.25;font-family:Impact;-inkscape-font-specification:Impact;font-variant-ligatures:normal;font-variant-position:normal;font-variant-caps:normal;font-variant-numeric:normal;font-variant-alternates:normal;font-variant-east-asian:normal;font-feature-settings:normal;font-variation-settings:normal;text-indent:0;text-align:start;text-decoration:none;text-decoration-line:none;text-decoration-style:solid;text-decoration-color:#000000;letter-spacing:normal;word-spacing:normal;text-transform:none;writing-mode:lr-tb;direction:ltr;text-orientation:mixed;dominant-baseline:auto;baseline-shift:baseline;text-anchor:start;white-space:normal;shape-padding:0;shape-margin:0;inline-size:0;clip-rule:nonzero;display:inline;overflow:visible;visibility:visible;isolation:auto;mix-blend-mode:normal;color-interpolation:sRGB;color-interpolation-filters:linearRGB;solid-color:#000000;solid-opacity:1;vector-effect:none;fill:#ffcc00;fill-opacity:1;fill-rule:nonzero;stroke:none;stroke-width:1.72429;stroke-linecap:butt;stroke-linejoin:miter;stroke-miterlimit:4;stroke-dasharray:none;stroke-dashoffset:0;stroke-opacity:1.0;color-rendering:auto;image-rendering:auto;shape-rendering:auto;text-rendering:auto;enable-background:accumulate;stop-color:#000000;stop-opacity:1;" />
        <path
           id="path3195"
           d="M 215.32422 70.099609 L 215.32422 70.960938 L 215.32422 126.34766 L 234.07031 126.34766 C 237.49098 126.34766 240.06198 126.17292 241.86133 125.78906 L 241.86523 125.78906 L 241.87109 125.78711 C 243.65961 125.38171 245.20431 124.67939 246.46484 123.66602 L 246.46875 123.66211 L 246.47266 123.6582 C 247.76227 122.59617 248.65679 121.13031 249.14453 119.35547 C 249.14507 119.35356 249.14594 119.34957 249.14648 119.34766 C 249.67747 117.4714 249.88477 114.20427 249.88477 109.28711 L 249.88477 90.191406 C 249.88477 85.010969 249.74061 81.564464 249.40039 79.667969 L 249.40039 79.666016 C 249.05836 77.737957 248.19098 75.977474 246.8418 74.435547 C 245.44501 72.839217 243.43199 71.729984 240.88867 71.070312 L 240.88672 71.070312 C 238.29003 70.39113 233.66788 70.099609 226.79492 70.099609 L 215.32422 70.099609 z M 217.04883 71.824219 L 226.79492 71.824219 C 233.61633 71.824219 238.24487 72.160422 240.45312 72.738281 L 240.45508 72.738281 C 242.76044 73.335968 244.42746 74.293214 245.54492 75.570312 C 246.7099 76.901718 247.41629 78.350154 247.70312 79.96875 L 247.70312 79.970703 C 247.99142 81.576906 248.16016 85.044995 248.16016 90.191406 L 248.16016 109.28711 C 248.16016 114.15391 247.89711 117.43724 247.48633 118.88477 L 247.48438 118.88867 L 247.48438 118.89258 C 247.07414 120.38995 246.37711 121.50225 245.38086 122.32422 C 244.35246 123.15009 243.06851 123.74584 241.49219 124.10352 C 239.92337 124.43728 237.42568 124.62305 234.07031 124.62305 L 217.04883 124.62305 L 217.04883 71.824219 z M 229.50391 79.427734 L 229.50391 80.291016 L 229.50391 117.01953 L 230.36523 117.01953 C 231.44364 117.01953 232.34534 116.91753 233.10352 116.67383 C 233.86169 116.43013 234.50856 116.01712 234.88086 115.37891 L 234.88477 115.375 L 234.88672 115.36914 C 235.25577 114.7189 235.40239 113.90187 235.52539 112.73633 C 235.64839 111.57079 235.70703 110.0794 235.70703 108.24219 L 235.70703 87.058594 C 235.70703 84.570612 235.65465 83.030816 235.44922 82.121094 C 235.25069 81.241888 234.72239 80.484083 233.96094 80.052734 C 233.10097 79.541773 231.96975 79.427734 230.36523 79.427734 L 229.50391 79.427734 z M 231.22656 81.273438 C 232.00754 81.350863 232.9093 81.428003 233.08789 81.535156 L 233.09766 81.541016 L 233.10938 81.546875 C 233.4639 81.745412 233.65285 81.991896 233.76758 82.5 C 233.87648 82.982287 233.98242 84.607189 233.98242 87.058594 L 233.98242 108.24219 C 233.98242 110.04215 233.92329 111.48628 233.81055 112.55469 C 233.69825 113.61882 233.49153 114.3277 233.38867 114.51172 C 233.28887 114.6812 233.07306 114.87349 232.57617 115.0332 C 232.27148 115.13114 231.70932 115.14909 231.22656 115.19336 L 231.22656 81.273438 z "
           style="color:#000000;font-style:normal;font-variant:normal;font-weight:normal;font-stretch:normal;font-size:medium;line-height:1.25;font-family:Impact;-inkscape-font-specification:Impact;font-variant-ligatures:normal;font-variant-position:normal;font-variant-caps:normal;font-variant-numeric:normal;font-variant-alternates:normal;font-variant-east-asian:normal;font-feature-settings:normal;font-variation-settings:normal;text-indent:0;text-align:start;text-decoration:none;text-decoration-line:none;text-decoration-style:solid;text-decoration-color:#000000;letter-spacing:normal;word-spacing:normal;text-transform:none;writing-mode:lr-tb;direction:ltr;text-orientation:mixed;dominant-baseline:auto;baseline-shift:baseline;text-anchor:start;white-space:normal;shape-padding:0;shape-margin:0;inline-size:0;clip-rule:nonzero;display:inline;overflow:visible;visibility:visible;isolation:auto;mix-blend-mode:normal;color-interpolation:sRGB;color-interpolation-filters:linearRGB;solid-color:#000000;solid-opacity:1;vector-effect:none;fill:#000000;fill-opacity:1;fill-rule:nonzero;stroke:none;stroke-width:1.72429;stroke-linecap:butt;stroke-linejoin:miter;stroke-miterlimit:4;stroke-dasharray:none;stroke-dashoffset:0;stroke-opacity:1.0;color-rendering:auto;image-rendering:auto;shape-rendering:auto;text-rendering:auto;enable-background:accumulate;stop-color:#000000;stop-opacity:1;" />
      </g>
      <g
         style="opacity:1"
         id="g3197">
        <path
           id="path3199"
           d="m 278.79365,70.961462 8.11631,54.524098 H 272.3949 l -0.70723,-9.80019 h -5.08533 l -0.84194,9.80019 h -14.68345 l 7.20702,-54.524098 z m -7.51011,35.058418 c -0.71846,-6.174231 -1.43692,-13.796602 -2.15537,-22.867113 -1.43691,10.417616 -2.33498,18.039983 -2.69421,22.867113 z"
           style="color:#000000;font-style:normal;font-variant:normal;font-weight:normal;font-stretch:normal;font-size:medium;line-height:1.25;font-family:Impact;-inkscape-font-specification:Impact;font-variant-ligatures:normal;font-variant-position:normal;font-variant-caps:normal;font-variant-numeric:normal;font-variant-alternates:normal;font-variant-east-asian:normal;font-feature-settings:normal;font-variation-settings:normal;text-indent:0;text-align:start;text-decoration:none;text-decoration-line:none;text-decoration-style:solid;text-decoration-color:#000000;letter-spacing:normal;word-spacing:normal;text-transform:none;writing-mode:lr-tb;direction:ltr;text-orientation:mixed;dominant-baseline:auto;baseline-shift:baseline;text-anchor:start;white-space:normal;shape-padding:0;shape-margin:0;inline-size:0;clip-rule:nonzero;display:inline;overflow:visible;visibility:visible;isolation:auto;mix-blend-mode:normal;color-interpolation:sRGB;color-interpolation-filters:linearRGB;solid-color:#000000;solid-opacity:1;vector-effect:none;fill:#ffcc00;fill-opacity:1;fill-rule:nonzero;stroke:none;stroke-width:1.72429;stroke-linecap:butt;stroke-linejoin:miter;stroke-miterlimit:4;stroke-dasharray:none;stroke-dashoffset:0;stroke-opacity:1.0;color-rendering:auto;image-rendering:auto;shape-rendering:auto;text-rendering:auto;enable-background:accumulate;stop-color:#000000;stop-opacity:1;" />
        <path
           id="path3201"
           d="M 257.52734 70.099609 L 250.09375 126.34766 L 266.55078 126.34766 L 267.39453 116.54688 L 270.88477 116.54688 L 271.5918 126.34766 L 287.91016 126.34766 L 279.53711 70.099609 L 278.79297 70.099609 L 257.52734 70.099609 z M 259.03906 71.824219 L 278.05078 71.824219 L 285.91016 124.62305 L 273.19727 124.62305 L 272.49023 114.82227 L 265.81055 114.82227 L 264.96875 124.62305 L 252.06055 124.62305 L 259.03906 71.824219 z M 268.27344 83.035156 C 266.83539 93.460994 265.93635 101.08889 265.57422 105.95508 L 265.50586 106.88281 L 272.25195 106.88281 L 272.14062 105.91992 C 271.42395 99.761064 270.70616 92.147294 269.98828 83.083984 L 268.27344 83.035156 z M 269.0332 91.322266 C 269.4678 96.189268 269.90275 101.34512 270.33789 105.1582 L 267.40234 105.1582 C 267.64504 102.11505 268.39335 96.437153 269.0332 91.322266 z "
           style="color:#000000;font-style:normal;font-variant:normal;font-weight:normal;font-stretch:normal;font-size:medium;line-height:1.25;font-family:Impact;-inkscape-font-specification:Impact;font-variant-ligatures:normal;font-variant-position:normal;font-variant-caps:normal;font-variant-numeric:normal;font-variant-alternates:normal;font-variant-east-asian:normal;font-feature-settings:normal;font-variation-settings:normal;text-indent:0;text-align:start;text-decoration:none;text-decoration-line:none;text-decoration-style:solid;text-decoration-color:#000000;letter-spacing:normal;word-spacing:normal;text-transform:none;writing-mode:lr-tb;direction:ltr;text-orientation:mixed;dominant-baseline:auto;baseline-shift:baseline;text-anchor:start;white-space:normal;shape-padding:0;shape-margin:0;inline-size:0;clip-rule:nonzero;display:inline;overflow:visible;visibility:visible;isolation:auto;mix-blend-mode:normal;color-interpolation:sRGB;color-interpolation-filters:linearRGB;solid-color:#000000;solid-opacity:1;vector-effect:none;fill:#000000;fill-opacity:1;fill-rule:nonzero;stroke:none;stroke-width:1.72429;stroke-linecap:butt;stroke-linejoin:miter;stroke-miterlimit:4;stroke-dasharray:none;stroke-dashoffset:0;stroke-opacity:1.0;color-rendering:auto;image-rendering:auto;shape-rendering:auto;text-rendering:auto;enable-background:accumulate;stop-color:#000000;stop-opacity:1;" />
      </g>
    </g>
    <g
       style="opacity:0.2;filter:url(#filter9066)"
       transform="matrix(0.08808357,0.03778149,-0.03778149,0.08808357,85.994986,55.599857)"
       id="g3263">
      <path
         id="path3265"
         d="m 254.9382,118.61129 c 0,0 -29.59748,-46.161073 -68.905,-75.230058 -27.67411,-6.177435 -36.18788,-2.32102 -67.00501,19.824466 -42.665802,30.660058 -43.216379,42.523052 -43.216379,51.094482 16.35498,63.3499 35.201189,77.01944 48.776159,86.62249 l -0.93159,-0.42384 c 0,0 11.28182,-76.17325 131.28182,-81.88754 z"
         style="color:#000000;font-style:normal;font-variant:normal;font-weight:normal;font-stretch:normal;font-size:medium;line-height:normal;font-family:sans-serif;font-variant-ligatures:normal;font-variant-position:normal;font-variant-caps:normal;font-variant-numeric:normal;font-variant-alternates:normal;font-variant-east-asian:normal;font-feature-settings:normal;font-variation-settings:normal;text-indent:0;text-align:start;text-decoration:none;text-decoration-line:none;text-decoration-style:solid;text-decoration-color:#000000;letter-spacing:normal;word-spacing:normal;text-transform:none;writing-mode:lr-tb;direction:ltr;text-orientation:mixed;dominant-baseline:auto;baseline-shift:baseline;text-anchor:start;white-space:normal;shape-padding:0;shape-margin:0;inline-size:0;clip-rule:nonzero;display:inline;overflow:visible;visibility:visible;isolation:auto;mix-blend-mode:normal;color-interpolation:sRGB;color-interpolation-filters:linearRGB;solid-color:#000000;solid-opacity:1;vector-effect:none;fill:#000000;fill-opacity:1;fill-rule:nonzero;stroke:none;stroke-width:1;stroke-linecap:butt;stroke-linejoin:miter;stroke-miterlimit:4;stroke-dasharray:none;stroke-dashoffset:0;stroke-opacity:1.0;marker:none;color-rendering:auto;image-rendering:auto;shape-rendering:auto;text-rendering:auto;enable-background:accumulate;stop-color:#000000;stop-opacity:1" />
      <path
         id="path3267"
         d="M 168.22852 40.261719 C 163.00966 40.100094 158.33289 40.698822 153.56055 42.195312 C 144.01587 45.188294 134.15144 51.721378 118.73633 62.798828 C 97.379438 78.146096 86.536279 88.800273 81.009766 96.75 C 75.483252 104.69973 75.3125 110.00436 75.3125 114.30078 L 75.3125 114.36328 L 75.328125 114.42578 C 83.515059 146.13731 92.33259 165.44698 100.82812 178.04688 C 108.8674 189.97008 116.58829 195.82394 123.15234 200.49414 L 123.10742 200.79883 L 124.38086 201.37695 L 124.87695 200.51367 C 124.68024 200.37451 124.4605 200.20536 124.26172 200.06445 C 124.4882 198.67658 127.62798 180.9255 144.66797 162.0332 C 162.39898 142.37478 195.06758 121.96349 254.96289 119.11133 L 255.82617 119.07031 L 255.35938 118.3418 C 255.35938 118.3418 225.74459 72.126621 186.33008 42.978516 L 186.24609 42.916016 L 186.14258 42.892578 C 179.20793 41.344622 173.44737 40.423344 168.22852 40.261719 z M 168.21484 41.255859 C 173.30985 41.415609 178.9665 42.324571 185.81641 43.849609 C 224.08789 72.186007 252.74431 116.17935 254.04297 118.1875 C 194.52142 121.21433 161.74409 141.60806 143.92578 161.36328 C 127.37085 179.71779 123.84463 196.83583 123.38086 199.42383 C 116.91525 194.81043 109.47387 189.0808 101.65625 177.48633 C 93.252119 165.022 84.477609 145.83489 76.314453 114.23633 C 76.315563 109.97566 76.440813 105.07457 81.830078 97.322266 C 87.245303 89.532624 98.0114 78.924118 119.32031 63.611328 C 134.72233 52.543292 144.52436 46.077629 153.85938 43.150391 C 158.52688 41.686771 163.09099 41.095205 168.21484 41.255859 z "
         style="color:#000000;font-style:normal;font-variant:normal;font-weight:normal;font-stretch:normal;font-size:medium;line-height:normal;font-family:sans-serif;font-variant-ligatures:normal;font-variant-position:normal;font-variant-caps:normal;font-variant-numeric:normal;font-variant-alternates:normal;font-variant-east-asian:normal;font-feature-settings:normal;font-variation-settings:normal;text-indent:0;text-align:start;text-decoration:none;text-decoration-line:none;text-decoration-style:solid;text-decoration-color:#000000;letter-spacing:normal;word-spacing:normal;text-transform:none;writing-mode:lr-tb;direction:ltr;text-orientation:mixed;dominant-baseline:auto;baseline-shift:baseline;text-anchor:start;white-space:normal;shape-padding:0;shape-margin:0;inline-size:0;clip-rule:nonzero;display:inline;overflow:visible;visibility:visible;isolation:auto;mix-blend-mode:normal;color-interpolation:sRGB;color-interpolation-filters:linearRGB;solid-color:#000000;solid-opacity:1;vector-effect:none;fill:#000000;fill-opacity:1;fill-rule:nonzero;stroke:none;stroke-width:1;stroke-linecap:butt;stroke-linejoin:miter;stroke-miterlimit:4;stroke-dasharray:none;stroke-dashoffset:0;stroke-opacity:1.0;marker:none;color-rendering:auto;image-rendering:auto;shape-rendering:auto;text-rendering:auto;enable-background:accumulate;stop-color:#000000;stop-opacity:1" />
    </g>
    <g
       style="opacity:0.395745;filter:url(#filter3164)"
       transform="matrix(0.08808357,0.03778149,-0.03778149,0.08808357,85.994986,55.599857)"
       id="g3269">
      <path
         id="path3271"
         d="m 174.93253,33.848406 c 13.021,12.65836 55.10527,35.03614 51.11574,67.702784 104.29969,178.04692 25.57266,502.17752 -40.64937,729.18733 0,0 -25.66103,90.61135 -19.03883,108.41604 6.62221,17.80468 3.45369,16.06054 54.77576,57.60482 45.47439,36.81062 100.52519,107.33162 108.80295,141.45732 l 65.02986,-607.4509 c 0,0 2.27341,-253.71684 0.61786,-304.16347 C 393.93095,176.15571 377.37545,112.40764 292.94236,78.281989 253.36726,62.286758 203.22669,39.508738 174.93253,33.848406 Z"
         style="color:#000000;font-style:normal;font-variant:normal;font-weight:normal;font-stretch:normal;font-size:medium;line-height:normal;font-family:sans-serif;font-variant-ligatures:normal;font-variant-position:normal;font-variant-caps:normal;font-variant-numeric:normal;font-variant-alternates:normal;font-variant-east-asian:normal;font-feature-settings:normal;font-variation-settings:normal;text-indent:0;text-align:start;text-decoration:none;text-decoration-line:none;text-decoration-style:solid;text-decoration-color:#000000;letter-spacing:normal;word-spacing:normal;text-transform:none;writing-mode:lr-tb;direction:ltr;text-orientation:mixed;dominant-baseline:auto;baseline-shift:baseline;text-anchor:start;white-space:normal;shape-padding:0;shape-margin:0;inline-size:0;clip-rule:nonzero;display:inline;overflow:visible;visibility:visible;isolation:auto;mix-blend-mode:normal;color-interpolation:sRGB;color-interpolation-filters:linearRGB;solid-color:#000000;solid-opacity:1;vector-effect:none;fill:#000000;fill-opacity:1;fill-rule:nonzero;stroke:none;stroke-width:1.0971;stroke-linecap:butt;stroke-linejoin:miter;stroke-miterlimit:4;stroke-dasharray:none;stroke-dashoffset:0;stroke-opacity:1.0;marker:none;color-rendering:auto;image-rendering:auto;shape-rendering:auto;text-rendering:auto;enable-background:accumulate;stop-color:#000000;stop-opacity:1" />
      <path
         id="path3273"
         d="M 173.2168 32.945312 L 174.55078 34.242188 C 181.15723 40.664641 194.89145 49.383115 206.48828 60.591797 C 218.08511 71.800478 227.46871 85.396406 225.50391 101.48438 L 225.48047 101.66797 L 225.57422 101.82812 C 277.62026 190.67438 284.04068 316.11411 269.125 447.72266 C 254.20932 579.33121 217.98077 717.09036 184.87305 830.58398 L 184.87109 830.58789 L 184.87109 830.58984 C 184.87109 830.58984 178.45288 853.25384 172.86133 878.15039 C 170.06555 890.59867 167.47619 903.60492 165.99805 914.63086 C 164.51991 925.6568 164.0968 934.64355 165.8457 939.3457 C 169.14888 948.22674 170.07656 952.38608 176.58203 959.42773 C 183.08751 966.46939 195.12861 976.4123 220.79102 997.18555 C 243.4792 1015.5512 268.59421 1042.3628 289.05273 1068.8301 C 309.51126 1095.2974 325.31263 1121.4695 329.40625 1138.3457 L 330.48438 1138.2754 L 395.51758 530.79688 L 395.51758 530.77148 C 395.51758 530.77148 397.79283 277.10733 396.13477 226.58398 C 395.30527 201.30833 390.74415 172.66633 375.78516 146.05273 C 360.82616 119.43914 335.46346 94.876063 293.14844 77.773438 C 253.59184 61.785685 203.49051 39.001955 175.04102 33.310547 L 173.2168 32.945312 z M 177.06055 34.943359 C 205.54149 41.233994 254.10338 63.176578 292.73633 78.791016 C 334.8544 95.814041 359.98721 120.18633 374.82812 146.58984 C 389.66904 172.99336 394.21301 201.45012 395.03906 226.62109 C 396.69197 276.98731 394.42025 530.70498 394.41992 530.74219 L 329.67773 1135.4922 C 324.65502 1118.2744 309.45628 1093.4344 289.91992 1068.1602 C 269.41501 1041.6329 244.26668 1014.779 221.48047 996.33398 C 195.82081 975.56296 183.78501 965.60516 177.38867 958.68164 C 170.99234 951.75812 170.19403 947.88654 166.875 938.96289 C 165.3128 934.7627 165.61318 925.74665 167.08398 914.77539 C 168.55479 903.80413 171.13993 890.82077 173.93164 878.39062 C 179.51435 853.53346 185.92416 830.89829 185.92578 830.89258 L 185.92578 830.88867 C 219.03981 717.37316 255.28658 579.56527 270.21484 447.8457 C 285.13527 316.19529 278.77814 190.61183 226.60156 101.41992 C 228.524 84.929754 218.90579 71.068404 207.25 59.802734 C 196.39121 49.307396 183.95755 41.072371 177.06055 34.943359 z "
         style="color:#000000;font-style:normal;font-variant:normal;font-weight:normal;font-stretch:normal;font-size:medium;line-height:normal;font-family:sans-serif;font-variant-ligatures:normal;font-variant-position:normal;font-variant-caps:normal;font-variant-numeric:normal;font-variant-alternates:normal;font-variant-east-asian:normal;font-feature-settings:normal;font-variation-settings:normal;text-indent:0;text-align:start;text-decoration:none;text-decoration-line:none;text-decoration-style:solid;text-decoration-color:#000000;letter-spacing:normal;word-spacing:normal;text-transform:none;writing-mode:lr-tb;direction:ltr;text-orientation:mixed;dominant-baseline:auto;baseline-shift:baseline;text-anchor:start;white-space:normal;shape-padding:0;shape-margin:0;inline-size:0;clip-rule:nonzero;display:inline;overflow:visible;visibility:visible;isolation:auto;mix-blend-mode:normal;color-interpolation:sRGB;color-interpolation-filters:linearRGB;solid-color:#000000;solid-opacity:1;vector-effect:none;fill:#000000;fill-opacity:1;fill-rule:nonzero;stroke:none;stroke-width:1.0971;stroke-linecap:butt;stroke-linejoin:miter;stroke-miterlimit:4;stroke-dasharray:none;stroke-dashoffset:0;stroke-opacity:1.0;marker:none;color-rendering:auto;image-rendering:auto;shape-rendering:auto;text-rendering:auto;enable-background:accumulate;stop-color:#000000;stop-opacity:1" />
    </g>
    <path
       d="m 103.96953,75.679511 c 0,0 0.71086,-3.00367 -1.65321,-7.049274 -2.20423,-1.589695 -4.559823,-2.197891 -8.110995,-1.41155 -4.916536,1.088664 -5.951836,3.108498 -6.275678,3.863497 -0.952846,6.198003 0.61542,5.564022 1.448335,6.922775 0,0 -0.06605,-0.07253 -0.06605,-0.07253 0,0 3.871681,-6.283375 14.657598,-2.252924 z"
       style="color:#000000;display:inline;overflow:visible;visibility:visible;fill:#fff974;fill-opacity:1;fill-rule:nonzero;stroke:none;stroke-width:0.0958446;stroke-linecap:butt;stroke-linejoin:miter;stroke-miterlimit:4;stroke-dashoffset:0;stroke-opacity:1;marker:none;marker-start:none;marker-mid:none;marker-end:none"
       id="path2397" />
    <path
       d="m 102.31632,68.630237 c 0.52921,1.498056 0.81206,4.031961 0.80632,7.001435 -0.0352,18.171272 -18.604315,39.874508 -31.895613,56.968118 0,0 -4.918967,6.08427 -5.063317,7.81016 -0.144346,1.72591 0.798776,4.21622 3.188362,9.41274 2.117314,4.60441 4.977487,8.54131 4.365266,11.70535 l 25.471137,-44.7949 c 0,0 9.858645,-21.247684 11.567905,-25.580013 1.70926,-4.332311 2.93371,-10.660401 -2.24242,-16.307221 -2.42613,-2.646762 -4.25299,-4.813178 -6.19764,-6.215669 z"
       style="color:#000000;display:inline;overflow:visible;visibility:visible;fill:url(#linearGradient6095);fill-opacity:1;fill-rule:nonzero;stroke:none;stroke-width:0.0958446;stroke-linecap:butt;stroke-linejoin:miter;stroke-miterlimit:4;stroke-dasharray:none;stroke-dashoffset:0;stroke-opacity:1;marker:none;marker-start:none;marker-mid:none;marker-end:none"
       id="path2399" />
    <g
       style="opacity:0.4;filter:url(#filter5108)"
       transform="matrix(0.08808357,0.03778149,-0.03778149,0.08808357,85.994986,55.599857)"
       id="g3275">
      <path
         id="path3277"
         d="m 114.74106,170.61402 c 0,0 -23.424484,-32.66042 -42.791181,-66.10784 0,9.44398 -5.902236,111.75373 -5.902236,111.75373 0,0 -5.902227,72.40384 38.364517,129.0677 44.26673,56.66387 199.20032,269.15336 495.78747,481.64287 0,0 72.30235,55.08987 92.96016,56.66386 0,0 36.88895,-165.26961 29.51116,-225.08147 0,0 -85.58236,-33.05392 -340.85389,-245.54342 -255.27153,-212.4895 -267.076,-242.39543 -267.076,-242.39543 z"
         style="color:#000000;font-style:normal;font-variant:normal;font-weight:normal;font-stretch:normal;font-size:medium;line-height:normal;font-family:sans-serif;font-variant-ligatures:normal;font-variant-position:normal;font-variant-caps:normal;font-variant-numeric:normal;font-variant-alternates:normal;font-variant-east-asian:normal;font-feature-settings:normal;font-variation-settings:normal;text-indent:0;text-align:start;text-decoration:none;text-decoration-line:none;text-decoration-style:solid;text-decoration-color:#000000;letter-spacing:normal;word-spacing:normal;text-transform:none;writing-mode:lr-tb;direction:ltr;text-orientation:mixed;dominant-baseline:auto;baseline-shift:baseline;text-anchor:start;white-space:normal;shape-padding:0;shape-margin:0;inline-size:0;clip-rule:nonzero;display:inline;overflow:visible;visibility:visible;isolation:auto;mix-blend-mode:normal;color-interpolation:sRGB;color-interpolation-filters:linearRGB;solid-color:#000000;solid-opacity:1;vector-effect:none;fill:#000000;fill-opacity:1;fill-rule:nonzero;stroke:none;stroke-width:1.06679;stroke-linecap:butt;stroke-linejoin:miter;stroke-miterlimit:4;stroke-dasharray:none;stroke-dashoffset:0;stroke-opacity:1.0;marker:none;color-rendering:auto;image-rendering:auto;shape-rendering:auto;text-rendering:auto;enable-background:accumulate;stop-color:#000000;stop-opacity:1" />
      <path
         id="path3279"
         d="M 71.416016 102.51953 L 71.416016 104.50586 C 71.416016 106.81129 71.047401 115.00764 70.494141 125.92578 C 69.94088 136.84392 69.204553 150.51599 68.466797 163.89453 C 66.991285 190.65161 65.515625 216.22852 65.515625 216.22852 C 65.512783 216.26327 59.586215 288.81417 103.99219 345.65625 C 148.23237 402.28613 303.23616 614.86796 599.88867 827.4043 C 599.90768 827.41878 617.97266 841.18218 638.63477 855.1543 C 648.97125 862.14403 659.95402 869.18334 669.66016 874.58203 C 679.36629 879.98072 687.74317 883.7564 693.11914 884.16602 L 693.58008 884.20117 L 693.67969 883.75 C 693.67969 883.75 702.90441 842.42249 711.20703 793.61328 C 719.50965 744.80408 726.9106 688.56066 723.20117 658.48828 L 723.16211 658.16992 L 722.86328 658.05469 C 722.86328 658.05469 701.54388 649.82763 648.26172 615.01758 C 594.97956 580.20752 509.78189 518.83431 382.1582 412.59961 C 254.52879 306.36014 187.76867 245.767 152.92578 211.74609 C 135.50434 194.73564 126.06172 184.36789 120.98438 178.26562 C 118.4457 175.21449 116.99871 173.22924 116.19141 172.01758 C 115.38411 170.80592 115.23633 170.41797 115.23633 170.41797 L 115.21289 170.35742 L 115.17383 170.30273 C 115.17383 170.30273 91.760799 137.6546 72.412109 104.23828 L 71.416016 102.51953 z M 72.40625 106.2832 C 91.60843 139.21312 114.30859 170.92578 114.30859 170.92578 L 114.24414 170.81055 C 114.24414 170.81055 114.46732 171.35552 115.30273 172.60938 C 116.13815 173.86323 117.60745 175.87457 120.16406 178.94727 C 125.27729 185.09266 134.74107 195.48255 152.17969 212.50977 C 187.05691 246.5642 253.83445 307.16989 381.47656 413.41992 C 509.1244 519.67472 594.35279 581.07283 647.67969 615.91211 C 699.99982 650.09366 721.36301 658.59826 722.16211 658.91211 C 725.75436 688.72027 718.42901 744.79992 710.15625 793.43359 C 701.93761 841.74913 692.91856 882.23603 692.74609 883.00977 C 687.74799 882.4733 679.58638 878.88253 670.17969 873.65039 C 660.51912 868.27705 649.55375 861.24901 639.23242 854.26953 C 618.58977 840.31057 600.52344 826.54687 600.52344 826.54688 L 600.51758 826.54102 L 600.50977 826.53711 C 303.98798 614.09443 149.12531 401.69786 104.83203 345 C 60.715153 288.52798 66.580078 216.30273 66.580078 216.30273 L 66.580078 216.29688 L 66.580078 216.29102 C 66.580078 216.29102 68.055644 190.71192 69.53125 163.95312 C 70.269053 150.57373 71.007138 136.89957 71.560547 125.97852 C 72.068148 115.96142 72.351311 109.34962 72.40625 106.2832 z "
         style="color:#000000;font-style:normal;font-variant:normal;font-weight:normal;font-stretch:normal;font-size:medium;line-height:normal;font-family:sans-serif;font-variant-ligatures:normal;font-variant-position:normal;font-variant-caps:normal;font-variant-numeric:normal;font-variant-alternates:normal;font-variant-east-asian:normal;font-feature-settings:normal;font-variation-settings:normal;text-indent:0;text-align:start;text-decoration:none;text-decoration-line:none;text-decoration-style:solid;text-decoration-color:#000000;letter-spacing:normal;word-spacing:normal;text-transform:none;writing-mode:lr-tb;direction:ltr;text-orientation:mixed;dominant-baseline:auto;baseline-shift:baseline;text-anchor:start;white-space:normal;shape-padding:0;shape-margin:0;inline-size:0;clip-rule:nonzero;display:inline;overflow:visible;visibility:visible;isolation:auto;mix-blend-mode:normal;color-interpolation:sRGB;color-interpolation-filters:linearRGB;solid-color:#000000;solid-opacity:1;vector-effect:none;fill:#000000;fill-opacity:1;fill-rule:nonzero;stroke:none;stroke-width:1.06679;stroke-linecap:butt;stroke-linejoin:miter;stroke-miterlimit:4;stroke-dasharray:none;stroke-dashoffset:0;stroke-opacity:1.0;marker:none;color-rendering:auto;image-rendering:auto;shape-rendering:auto;text-rendering:auto;enable-background:accumulate;stop-color:#000000;stop-opacity:1" />
    </g>
    <path
       d="m 89.311935,77.932435 c 0,0 -0.877659,-3.467877 -1.382288,-6.850251 -0.323841,0.755006 -4.335456,8.7183 -4.335456,8.7183 0,0 -2.986122,5.572455 -1.154157,11.721675 1.83196,6.149214 7.758066,28.803981 25.764206,56.640211 0,0 4.27677,7.0489 5.98448,7.93036 0,0 8.81306,-11.8632 10.23489,-16.91475 0,0 -6.16491,-5.77297 -20.64771,-32.09794 C 89.293106,80.755064 89.311935,77.932435 89.311935,77.932435 Z"
       style="color:#000000;display:inline;overflow:visible;visibility:visible;fill:url(#linearGradient6087);fill-opacity:1;fill-rule:nonzero;stroke:none;stroke-width:0.0958446;stroke-linecap:butt;stroke-linejoin:miter;stroke-miterlimit:4;stroke-dasharray:none;stroke-dashoffset:0;stroke-opacity:1;marker:none;marker-start:none;marker-mid:none;marker-end:none"
       id="path2258" />
    <g
       style="font-style:normal;font-weight:normal;font-size:30.3477px;line-height:1.25;font-family:sans-serif;fill:#999999;fill-opacity:1;stroke:none;stroke-width:0.758693"
       id="text94-7"
       aria-label="na UFT">
      <path
         id="path64"
         style="font-style:normal;font-variant:normal;font-weight:bold;font-stretch:normal;font-family:'Segoe Print';-inkscape-font-specification:'Segoe Print Bold';fill:#999999;stroke-width:0.758693"
         d="m 186.10696,138.60743 q -0.71128,-1.33364 -1.03728,-4.97892 -0.326,-3.79346 -1.45218,-3.79346 -1.06692,0 -3.68974,3.95646 -2.62282,3.94165 -3.23037,5.82356 -0.13336,0.56309 -0.50382,0.93355 -0.35564,0.37045 -0.71127,0.37045 -2.25237,0 -2.25237,-2.05973 0,-0.69646 0.44455,-3.1711 0.57791,-3.20073 0.57791,-7.82401 0,-0.69646 0.60754,-1.48183 0.60755,-0.80018 1.28919,-0.80018 0.85945,0 1.31882,0.42973 0.45936,0.42973 0.45936,2.282 0,1.40773 -0.84464,5.45311 3.21556,-7.52766 7.17202,-7.52766 3.43782,0 4.03055,5.40865 0.59273,5.51238 1.36328,5.51238 0.34082,0 0.78536,-0.14819 0.53346,-0.17781 0.84464,-0.17781 0.71128,0 0.71128,0.82982 0,0.75573 -0.97801,1.61518 -0.978,0.84464 -2.45982,0.84464 -1.71891,0 -2.45982,-1.49664 z" />
      <path
         id="path66"
         style="font-style:normal;font-variant:normal;font-weight:bold;font-stretch:normal;font-family:'Segoe Print';-inkscape-font-specification:'Segoe Print Bold';fill:#999999;stroke-width:0.758693"
         d="m 203.90363,135.80679 q -3.89719,5.14192 -7.52765,5.14192 -1.33364,0 -2.29683,-1.0521 -0.96318,-1.05209 -0.96318,-2.68209 0,-3.92683 3.4971,-8.35747 3.4971,-4.44547 7.05347,-4.44547 1.80782,0 2.37091,1.82264 1.7041,0 1.7041,1.30401 0,0.62236 -0.326,2.25236 -0.59273,3.05256 -0.59273,4.8752 0,1.89673 0.25191,2.66727 0.26672,0.77055 0.38527,1.00764 0.11855,0.23709 0.71127,0.50382 0.59273,0.28155 0.59273,0.78537 0,0.75573 -0.77054,1.25954 -0.75573,0.50382 -1.58555,0.50382 -2.78583,0 -2.50428,-5.58646 z m -0.88909,-8.22411 q -1.49664,0 -3.89719,3.31928 -2.38574,3.30446 -2.38574,5.6161 0,1.2151 0.50382,1.2151 1.74855,0 4.29729,-3.09701 2.56355,-3.11183 2.56355,-5.43829 0,-0.74091 -0.34082,-1.17063 -0.326,-0.44455 -0.74091,-0.44455 z" />
      <path
         id="path68"
         style="font-style:normal;font-variant:normal;font-weight:bold;font-stretch:normal;font-family:'Segoe Print';-inkscape-font-specification:'Segoe Print Bold';fill:#999999;stroke-width:0.758693"
         d="m 232.6065,141.76371 q -1.52627,0 -3.70455,-0.99282 -2.16346,-0.99282 -3.30446,-3.36374 -1.141,-2.38573 -1.141,-5.14191 0,-1.40774 0.41491,-3.71938 l 0.47418,-2.74137 q 0.10373,-0.69645 0.22227,-1.36327 0.17782,-1.02246 0.31119,-1.97082 0.20745,-1.63001 0.72609,-2.44501 0.51864,-0.82982 1.60037,-0.82982 0.53345,0 1.08172,0.84464 0.5631,0.82982 0.5631,1.27437 0,0.31118 -0.71128,3.26 -0.17782,0.74091 -0.62236,3.63046 -0.42973,2.87474 -0.42973,3.89719 0,3.77865 1.64482,5.09747 1.65964,1.31882 2.80064,1.31882 3.76383,0 5.2012,-1.60037 1.43736,-1.61518 1.83745,-5.26046 0.0741,-0.66682 0.17782,-1.25955 0.14819,-1.51146 0.25191,-2.88955 0.35564,-5.23083 1.02246,-6.54965 0.68164,-1.31882 1.92637,-1.31882 1.54109,0 1.54109,2.00046 0,1.18545 -0.57791,4.41582 -0.34082,1.94119 -0.45936,3.80828 -0.26673,4.48992 -1.22992,6.57929 -0.96318,2.08937 -3.49709,3.70455 -2.5191,1.61519 -6.11993,1.61519 z" />
      <path
         id="path70"
         style="font-style:normal;font-variant:normal;font-weight:bold;font-stretch:normal;font-family:'Segoe Print';-inkscape-font-specification:'Segoe Print Bold';fill:#999999;stroke-width:0.758693"
         d="m 263.69512,122.27776 q -0.35564,0.23709 -0.85946,0.23709 -0.29636,0 -0.51863,-0.0593 -0.38528,-0.0741 -1.27437,-0.0741 -1.83746,0 -4.20837,0.26672 -2.3561,0.26673 -3.23037,0.62237 -0.93355,2.81546 -1.15582,6.71265 0.60754,-0.0889 1.22991,-0.163 2.29682,-0.23709 4.28246,-0.60755 1.65964,-0.29636 2.66728,-0.29636 2.25237,0 2.25237,1.57073 0,0.28155 -0.44455,0.77055 -0.42973,0.47418 -0.93355,0.68163 -0.50382,0.20746 -1.86709,0.4001 l -3.97128,0.489 q -2.28201,0.28154 -3.37855,0.56309 -0.163,0.0741 -0.25191,0.28155 -0.0741,0.19263 -0.20746,1.793 -0.11854,1.58555 -0.11854,2.93401 l 0.0593,1.88191 q 0,1.74855 -1.63001,1.74855 -0.82982,0 -1.58554,-0.60755 -0.74091,-0.60755 -0.74091,-1.64482 0,-1.92637 0.44454,-5.52719 0.0296,-0.163 1.5411,-10.95066 0,-0.50382 -0.14819,-0.85946 -0.22227,-0.63718 -0.22227,-1.02246 0,-0.53345 0.62237,-1.11136 0.63718,-0.59273 1.17063,-0.59273 0.35564,0 0.74091,0.0889 0.54828,0.11854 1.14101,0.11854 0.57791,0 4.74183,-0.47418 2.71173,-0.29636 4.04537,-0.29636 1.40773,0 2.17827,0.44454 0.78537,0.42973 0.78537,0.78537 0,1.24473 -1.15582,1.91155 z" />
      <path
         id="path72"
         style="font-style:normal;font-variant:normal;font-weight:bold;font-stretch:normal;font-family:'Segoe Print';-inkscape-font-specification:'Segoe Print Bold';fill:#999999;stroke-width:0.758693"
         d="m 276.79442,123.19649 q -0.13337,0.11854 -0.23709,0.66682 -0.10373,0.54827 -0.60755,5.09746 -0.489,4.54919 -0.489,7.27575 0,1.12618 0.26673,2.51909 0.0741,0.20746 0.0741,0.47419 0,0.80018 -0.47419,1.43736 -0.45936,0.63718 -1.18545,0.63718 -0.489,0 -1.24473,-0.489 -0.74091,-0.47418 -0.8891,-1.63 -0.14818,-1.15582 -0.14818,-3.0081 0,-2.53391 0.59273,-7.54247 0.59273,-5.00855 0.71127,-5.11228 -0.41491,0 -3.31928,0.22227 -2.91918,0.22228 -3.39337,0.22228 -1.52627,0 -2.119,-0.38528 -0.59273,-0.40009 -0.59273,-1.24473 0,-0.75573 0.62237,-1.15582 0.63718,-0.40009 3.20073,-0.40009 4.26765,0 8.37229,-0.56309 4.62328,-0.71128 7.00902,-0.71128 2.66727,0 3.24518,0.63719 0.57791,0.62236 0.57791,1.24473 0,1.43736 -1.27436,1.43736 -0.41491,0 -1.33364,-0.0889 -0.93355,-0.0741 -2.17828,-0.0741 -3.74901,0 -5.18637,0.53346 z" />
    </g>
    <g
       style="font-style:normal;font-weight:normal;font-size:30.3476px;line-height:1.25;font-family:sans-serif;fill:#000080;fill-opacity:1;stroke:none;stroke-width:0.758693"
       id="text94"
       aria-label="na UFT">
      <path
         id="path75"
         style="font-style:normal;font-variant:normal;font-weight:bold;font-stretch:normal;font-family:'Segoe Print';-inkscape-font-specification:'Segoe Print Bold';fill:#000080;stroke-width:0.758693"
         d="m 184.56884,139.09668 q -0.71127,-1.33363 -1.03727,-4.9789 -0.326,-3.79345 -1.45218,-3.79345 -1.06691,0 -3.68973,3.95645 -2.62281,3.94163 -3.23036,5.82354 -0.13336,0.56309 -0.50381,0.93354 -0.35564,0.37045 -0.71127,0.37045 -2.25237,0 -2.25237,-2.05972 0,-0.69646 0.44455,-3.17109 0.57791,-3.20072 0.57791,-7.82399 0,-0.69645 0.60754,-1.48182 0.60755,-0.80018 1.28918,-0.80018 0.85946,0 1.31882,0.42973 0.45936,0.42973 0.45936,2.282 0,1.40772 -0.84463,5.45308 3.21554,-7.52763 7.17199,-7.52763 3.43781,0 4.03054,5.40863 0.59273,5.51236 1.36327,5.51236 0.34082,0 0.78536,-0.14818 0.53346,-0.17782 0.84464,-0.17782 0.71127,0 0.71127,0.82982 0,0.75573 -0.978,1.61518 -0.978,0.84463 -2.45981,0.84463 -1.71891,0 -2.45982,-1.49663 z" />
      <path
         id="path77"
         style="font-style:normal;font-variant:normal;font-weight:bold;font-stretch:normal;font-family:'Segoe Print';-inkscape-font-specification:'Segoe Print Bold';fill:#000080;stroke-width:0.758693"
         d="m 202.36546,136.29605 q -3.89718,5.1419 -7.52763,5.1419 -1.33364,0 -2.29682,-1.05209 -0.96318,-1.05209 -0.96318,-2.68209 0,-3.92681 3.49709,-8.35744 3.49708,-4.44545 7.05344,-4.44545 1.80782,0 2.37091,1.82263 1.70409,0 1.70409,1.304 0,0.62236 -0.326,2.25236 -0.59273,3.05254 -0.59273,4.87518 0,1.89672 0.25191,2.66727 0.26673,0.77054 0.38527,1.00763 0.11855,0.23709 0.71128,0.50382 0.59272,0.28155 0.59272,0.78536 0,0.75573 -0.77054,1.25955 -0.75573,0.50381 -1.58555,0.50381 -2.78581,0 -2.50426,-5.58644 z m -0.88909,-8.22408 q -1.49664,0 -3.89718,3.31926 -2.38573,3.30445 -2.38573,5.61609 0,1.21509 0.50382,1.21509 1.74854,0 4.29727,-3.097 2.56354,-3.11181 2.56354,-5.43826 0,-0.74091 -0.34082,-1.17064 -0.326,-0.44454 -0.7409,-0.44454 z" />
      <path
         id="path79"
         style="font-style:normal;font-variant:normal;font-weight:bold;font-stretch:normal;font-family:'Segoe Print';-inkscape-font-specification:'Segoe Print Bold';fill:#000080;stroke-width:0.758693"
         d="m 231.06824,142.25295 q -1.52627,0 -3.70454,-0.99282 -2.16345,-0.99282 -3.30445,-3.36372 -1.141,-2.38573 -1.141,-5.1419 0,-1.40773 0.41491,-3.71936 l 0.47418,-2.74136 q 0.10373,-0.69646 0.22227,-1.36328 0.17782,-1.02245 0.31118,-1.97081 0.20746,-1.63 0.72609,-2.445 0.51864,-0.82982 1.60036,-0.82982 0.53346,0 1.08173,0.84464 0.56309,0.82982 0.56309,1.27436 0,0.31118 -0.71127,3.26 -0.17782,0.74091 -0.62236,3.63045 -0.42973,2.87472 -0.42973,3.89718 0,3.77863 1.64482,5.09744 1.65963,1.31882 2.80063,1.31882 3.76381,0 5.20117,-1.60036 1.43737,-1.61518 1.83746,-5.26045 0.0741,-0.66682 0.17781,-1.25954 0.14819,-1.51146 0.25191,-2.88955 0.35564,-5.23081 1.02246,-6.54962 0.68163,-1.31882 1.92636,-1.31882 1.54109,0 1.54109,2.00045 0,1.18545 -0.57791,4.41581 -0.34082,1.94118 -0.45936,3.80827 -0.26673,4.48991 -1.22991,6.57927 -0.96318,2.08936 -3.49709,3.70454 -2.51909,1.61518 -6.1199,1.61518 z" />
      <path
         id="path81"
         style="font-style:normal;font-variant:normal;font-weight:bold;font-stretch:normal;font-family:'Segoe Print';-inkscape-font-specification:'Segoe Print Bold';fill:#000080;stroke-width:0.758693"
         d="m 262.15675,122.76706 q -0.35563,0.23709 -0.85945,0.23709 -0.29636,0 -0.51864,-0.0593 -0.38527,-0.0741 -1.27436,-0.0741 -1.83745,0 -4.20836,0.26673 -2.35609,0.26672 -3.23036,0.62236 -0.93354,2.81545 -1.15581,6.71263 0.60754,-0.0889 1.2299,-0.163 2.29682,-0.23709 4.28245,-0.60755 1.65964,-0.29636 2.66727,-0.29636 2.25236,0 2.25236,1.57073 0,0.28154 -0.44454,0.77054 -0.42973,0.47418 -0.93355,0.68164 -0.50381,0.20745 -1.86708,0.40009 l -3.97127,0.489 q -2.282,0.28154 -3.37854,0.56309 -0.163,0.0741 -0.25191,0.28154 -0.0741,0.19264 -0.20746,1.793 -0.11854,1.58554 -0.11854,2.934 l 0.0593,1.8819 q 0,1.74855 -1.63,1.74855 -0.82981,0 -1.58554,-0.60755 -0.74091,-0.60754 -0.74091,-1.64482 0,-1.92636 0.44455,-5.52717 0.0296,-0.163 1.54108,-10.95062 0,-0.50382 -0.14818,-0.85946 -0.22227,-0.63718 -0.22227,-1.02245 0,-0.53345 0.62236,-1.11136 0.63718,-0.59273 1.17064,-0.59273 0.35563,0 0.74091,0.0889 0.54827,0.11854 1.141,0.11854 0.5779,0 4.74181,-0.47418 2.71172,-0.29636 4.04536,-0.29636 1.40772,0 2.17827,0.44454 0.78536,0.42973 0.78536,0.78537 0,1.24472 -1.15582,1.91154 z" />
      <path
         id="path83"
         style="font-style:normal;font-variant:normal;font-weight:bold;font-stretch:normal;font-family:'Segoe Print';-inkscape-font-specification:'Segoe Print Bold';fill:#000080;stroke-width:0.758693"
         d="m 275.256,123.68579 q -0.13336,0.11854 -0.23709,0.66682 -0.10372,0.54827 -0.60754,5.09744 -0.489,4.54918 -0.489,7.27572 0,1.12618 0.26673,2.51909 0.0741,0.20746 0.0741,0.47418 0,0.80018 -0.47418,1.43736 -0.45937,0.63719 -1.18546,0.63719 -0.489,0 -1.24472,-0.489 -0.74091,-0.47418 -0.88909,-1.63 -0.14818,-1.15582 -0.14818,-3.00809 0,-2.53391 0.59272,-7.54244 0.59273,-5.00854 0.71127,-5.11227 -0.4149,0 -3.31926,0.22227 -2.91918,0.22227 -3.39336,0.22227 -1.52627,0 -2.119,-0.38527 -0.59273,-0.40009 -0.59273,-1.24472 0,-0.75573 0.62236,-1.15582 0.63719,-0.40009 3.20073,-0.40009 4.26763,0 8.37226,-0.56309 4.62327,-0.71127 7.00899,-0.71127 2.66727,0 3.24518,0.63718 0.57791,0.62236 0.57791,1.24472 0,1.43736 -1.27436,1.43736 -0.41491,0 -1.33364,-0.0889 -0.93354,-0.0741 -2.17827,-0.0741 -3.74899,0 -5.18636,0.53346 z" />
    </g>
  </g>
</svg>
