<?xml version="1.0" encoding="UTF-8" standalone="no"?>
<svg
   xmlns:osb="http://www.openswatchbook.org/uri/2009/osb"
   xmlns:dc="http://purl.org/dc/elements/1.1/"
   xmlns:cc="http://creativecommons.org/ns#"
   xmlns:rdf="http://www.w3.org/1999/02/22-rdf-syntax-ns#"
   xmlns:svg="http://www.w3.org/2000/svg"
   xmlns="http://www.w3.org/2000/svg"
   xmlns:xlink="http://www.w3.org/1999/xlink"
   xmlns:sodipodi="http://sodipodi.sourceforge.net/DTD/sodipodi-0.dtd"
   xmlns:inkscape="http://www.inkscape.org/namespaces/inkscape"
   width="297mm"
   height="210mm"
   viewBox="0 0 297 210"
   version="1.1"
   id="svg8"
   inkscape:version="1.0 (4035a4fb49, 2020-05-01)"
   sodipodi:docname="eEddine_Vector.svg">
  <defs
     id="defs2">
    <pattern
       inkscape:collect="always"
       xlink:href="#pattern3848"
       id="pattern4038"
       patternTransform="matrix(9.9999998,0,0,9.9999998,7.339559,-32.180667)" />
    <pattern
       inkscape:collect="always"
       xlink:href="#pattern3845"
       id="pattern3848"
       patternTransform="matrix(9.9999998,0,0,9.9999998,-13.984418,-5.1489069)" />
    <pattern
       inkscape:collect="always"
       xlink:href="#Strips1_1.5"
       id="pattern3845"
       patternTransform="matrix(42.904894,0,0,33.29417,-393.26624,-73.473512)" />
    <pattern
       inkscape:isstock="true"
       inkscape:stockid="Stripes 1:1.5"
       id="Strips1_1.5"
       patternTransform="translate(0,0) scale(10,10)"
       height="1"
       width="2.5"
       patternUnits="userSpaceOnUse"
       inkscape:collect="always">
      <rect
         id="rect2772"
         height="2"
         width="1"
         y="-0.5"
         x="0"
         style="fill:black;stroke:none" />
    </pattern>
    <linearGradient
       id="linearGradient3758"
       osb:paint="solid">
      <stop
         style="stop-color:#000000;stop-opacity:1;"
         offset="0"
         id="stop3756" />
    </linearGradient>
    <linearGradient
       id="linearGradient1802"
       osb:paint="solid">
      <stop
         style="stop-color:#008200;stop-opacity:1;"
         offset="0"
         id="stop1800" />
    </linearGradient>
    <inkscape:perspective
       sodipodi:type="inkscape:persp3d"
       inkscape:vp_x="734.8224 : 235.86953 : 1"
       inkscape:vp_y="0 : -1000 : 0"
       inkscape:vp_z="1031.8224 : 235.86953 : 1"
       inkscape:persp3d-origin="883.32238 : 270.86955 : 1"
       id="perspective967" />
    <inkscape:perspective
       sodipodi:type="inkscape:persp3d"
       inkscape:vp_x="0 : 105 : 1"
       inkscape:vp_y="0 : 1000 : 0"
       inkscape:vp_z="297 : 105 : 1"
       inkscape:persp3d-origin="148.5 : 70 : 1"
       id="perspective27" />
    <inkscape:perspective
       id="perspective27-4"
       inkscape:persp3d-origin="154.03685 : -5.6002867 : 1"
       inkscape:vp_z="324.50795 : 23.012701 : 1"
       inkscape:vp_y="0 : 817.51364 : 0"
       inkscape:vp_x="-16.43428 : 23.012701 : 1"
       sodipodi:type="inkscape:persp3d" />
    <inkscape:perspective
       sodipodi:type="inkscape:persp3d"
       inkscape:vp_x="196.53037 : 124.12638 : 1"
       inkscape:vp_y="0 : 216.30048 : 0"
       inkscape:vp_z="286.738 : 124.12638 : 1"
       inkscape:persp3d-origin="241.63419 : 116.55586 : 1"
       id="perspective27-4-5" />
    <inkscape:perspective
       id="perspective27-4-5-7"
       inkscape:persp3d-origin="255.86239 : 142.12317 : 1"
       inkscape:vp_z="267.79611 : 144.1262 : 1"
       inkscape:vp_y="0 : 57.229502 : 0"
       inkscape:vp_x="243.92868 : 144.1262 : 1"
       sodipodi:type="inkscape:persp3d" />
    <inkscape:perspective
       id="perspective27-9"
       inkscape:persp3d-origin="230.696 : 138.22331 : 1"
       inkscape:vp_z="232.47249 : 30.405608 : 1"
       inkscape:vp_y="0 : 264.58333 : 0"
       inkscape:vp_x="191.40538 : 147.48373 : 1"
       sodipodi:type="inkscape:persp3d" />
    <inkscape:perspective
       id="perspective27-0"
       inkscape:persp3d-origin="232.12668 : 118.03315 : 1"
       inkscape:vp_z="271.41731 : 127.29357 : 1"
       inkscape:vp_y="0 : 264.58333 : 0"
       inkscape:vp_x="192.83606 : 127.29357 : 1"
       sodipodi:type="inkscape:persp3d" />
    <inkscape:perspective
       sodipodi:type="inkscape:persp3d"
       inkscape:vp_x="244.23893 : 135.82416 : 1"
       inkscape:vp_y="0 : 70.004339 : 0"
       inkscape:vp_z="265.03022 : 135.82416 : 1"
       inkscape:persp3d-origin="254.63458 : 133.37401 : 1"
       id="perspective27-0-7" />
    <inkscape:perspective
       id="perspective27-7"
       inkscape:persp3d-origin="234.09779 : 93.622122 : 1"
       inkscape:vp_z="273.38842 : 102.88255 : 1"
       inkscape:vp_y="0 : 264.58333 : 0"
       inkscape:vp_x="194.80717 : 102.88255 : 1"
       sodipodi:type="inkscape:persp3d" />
    <filter
       x="-0.25"
       width="1.5"
       y="-0.25"
       height="1.5"
       inkscape:menu-tooltip="Smooth rainbow colors melted along the edges and colorizable"
       inkscape:menu="Textures"
       inkscape:label="Tinted Rainbow"
       style="color-interpolation-filters:sRGB;"
       id="filter4036">
      <feGaussianBlur
         result="result8"
         stdDeviation="5"
         id="feGaussianBlur4024" />
      <feTurbulence
         baseFrequency="0.015"
         numOctaves="2"
         type="fractalNoise"
         result="result7"
         seed="20"
         id="feTurbulence4026" />
      <feComposite
         in="SourceGraphic"
         operator="in"
         result="result6"
         in2="result8"
         id="feComposite4028" />
      <feComposite
         in="result6"
         operator="arithmetic"
         result="result2"
         in2="result7"
         k3="1.7"
         id="feComposite4030" />
      <feComposite
         in2="result6"
         operator="in"
         in="result2"
         result="fbSourceGraphic"
         id="feComposite4032" />
      <feComposite
         in2="SourceGraphic"
         in="fbSourceGraphic"
         k3="0.3"
         k2="1.5"
         operator="arithmetic"
         result="result9"
         id="feComposite4034" />
    </filter>
  </defs>
  <sodipodi:namedview
     id="base"
     pagecolor="#ffffff"
     bordercolor="#666666"
     borderopacity="1.0"
     inkscape:pageopacity="0.0"
     inkscape:pageshadow="2"
     inkscape:zoom="0.7"
     inkscape:cx="853.49475"
     inkscape:cy="315.2101"
     inkscape:document-units="mm"
     inkscape:current-layer="text975"
     inkscape:document-rotation="0"
     showgrid="false"
     inkscape:window-width="1920"
     inkscape:window-height="1017"
     inkscape:window-x="-8"
     inkscape:window-y="-8"
     inkscape:window-maximized="1" />
  <metadata
     id="metadata5">
    <rdf:RDF>
      <cc:Work
         rdf:about="">
        <dc:format>image/svg+xml</dc:format>
        <dc:type
           rdf:resource="http://purl.org/dc/dcmitype/StillImage" />
        <dc:title></dc:title>
      </cc:Work>
    </rdf:RDF>
  </metadata>
  <g
     inkscape:label="Layer 1"
     inkscape:groupmode="layer"
     id="layer1">
    <g
       aria-label="E"
       transform="matrix(1.135192,0,0,0.88090825,-56.426692,27.429181)"
       id="text975"
       style="font-style:normal;font-weight:normal;font-size:265.064px;line-height:1.25;font-family:sans-serif;fill:url(#Strips1_1.5);fill-opacity:1;stroke:none;stroke-width:6.62662">
      <path
         d="M 92.991829,-28.992008 H 259.80596 V 178.68055 H 92.991829 Z"
         style="fill:#ffffff;stroke:#666666;stroke-width:2.49"
         id="rect4044" />
      <g
         style="font-style:normal;font-weight:normal;font-size:12.4393px;line-height:1.25;font-family:sans-serif;letter-spacing:7.08593px;fill:#000000;fill-opacity:1;stroke:none;stroke-width:2.06079"
         id="text4042"
         transform="matrix(1.0354019,-5.7537975e-4,5.2080773e-4,0.96580825,0,0)"
         aria-label="Eder Eddine">
        <path
           id="path861"
           style="font-style:italic;font-variant:normal;font-weight:normal;font-stretch:normal;font-family:'Linux Libertine G';-inkscape-font-specification:'Linux Libertine G Italic';fill:#000000;stroke-width:2.06079"
           d="m 110.31823,167.72053 q 0,0.11541 -0.0365,0.79568 -0.0364,0.6742 -0.0668,1.00826 l -0.34621,0.0607 q -0.0304,-0.29154 -0.0668,-0.47376 -0.0365,-0.18222 -0.11541,-0.36443 -0.0729,-0.18829 -0.18829,-0.28547 -0.1154,-0.10326 -0.30369,-0.164 -0.18829,-0.0668 -0.44947,-0.0668 h -1.23907 q -0.43732,0 -0.52235,0.42517 l -0.49806,2.61177 h 1.51847 q 0.29762,0 0.44947,-0.12148 0.15792,-0.12755 0.24295,-0.40088 l 0.0911,-0.31584 q 0.0243,-0.0972 0.10933,-0.0972 h 0.26118 l 0.0364,0.0486 q -0.20044,0.72279 -0.26118,1.12367 -0.10325,0.5345 -0.15792,1.08115 l -0.0668,0.0364 h -0.26118 q -0.0425,0 -0.0607,-0.0304 -0.0121,-0.0364 0,-0.0668 l 0.0243,-0.31584 q 0.006,-0.0364 0.006,-0.10326 0,-0.20651 -0.12148,-0.28547 -0.1154,-0.085 -0.3948,-0.085 h -1.51847 l -0.60738,3.12805 q -0.0121,0.0972 -0.0121,0.12755 0,0.15792 0.0911,0.21866 0.0972,0.0607 0.27939,0.0607 h 1.62173 q 1.17226,0 1.92542,-1.6278 l 0.35836,0.0607 -0.84427,2.07727 q -0.94753,-0.0243 -1.51847,-0.0243 h -2.56318 q -0.3948,0 -1.51239,0.0243 l -0.0243,-0.0243 0.0486,-0.24903 q 0.0304,-0.085 0.10933,-0.085 l 0.36444,-0.0243 q 0.34621,-0.0243 0.50413,-0.14577 0.15792,-0.12148 0.21258,-0.38873 l 1.2087,-6.2075 q 0.0182,-0.10326 0.0182,-0.17614 0,-0.18829 -0.12755,-0.27333 -0.12148,-0.0911 -0.40088,-0.1154 l -0.34621,-0.0243 q -0.10933,0 -0.079,-0.085 l 0.0547,-0.24903 0.0243,-0.0243 q 1.11759,0.0243 1.50025,0.0243 h 3.02479 q 0.28547,0 0.57094,-0.0486 0.0547,0 0.0547,0.0364 z" />
        <path
           id="path863"
           style="font-style:italic;font-variant:normal;font-weight:normal;font-stretch:normal;font-family:'Linux Libertine G';-inkscape-font-specification:'Linux Libertine G Italic';fill:#000000;stroke-width:2.06079"
           d="m 121.35218,173.34494 q 0.57094,-1.05685 0.57094,-1.51847 0,-0.36443 -0.23081,-0.72279 -0.22473,-0.35836 -0.55272,-0.35836 -0.41302,0 -0.80783,0.30977 -0.38872,0.30369 -0.66205,0.77138 -0.27332,0.46162 -0.44339,1.02041 -0.164,0.55273 -0.164,1.04471 0,1.41521 0.48591,1.41521 0.35229,0 0.8382,-0.54057 0.48591,-0.54665 0.96575,-1.42129 z m 0,0.96575 -0.0425,-0.0243 q -0.57095,0.83212 -1.03863,1.21478 -0.46162,0.37658 -0.93538,0.37658 -0.38873,0 -0.65598,-0.17614 -0.26725,-0.17615 -0.3948,-0.46769 -0.12148,-0.29155 -0.17007,-0.56487 -0.0486,-0.27333 -0.0486,-0.57702 0,-0.70457 0.28547,-1.40914 0.29155,-0.71064 0.72887,-1.22692 0.44339,-0.51628 0.98396,-0.8382 0.54665,-0.32191 1.03864,-0.32191 0.34013,0 0.59524,0.19436 0.26117,0.19436 0.38265,0.49198 h 0.0122 l 0.46161,-2.22911 q 0.0911,-0.45554 0.0911,-0.61953 0,-0.19437 -0.0668,-0.27333 -0.0607,-0.079 -0.19436,-0.079 l -0.38873,-0.0243 q -0.0607,0 -0.0607,-0.0607 l 0.0364,-0.29762 q 0.38266,-0.0243 0.93538,-0.12755 0.5588,-0.10933 0.80782,-0.20044 0.14578,0 0.14578,0.12755 l -0.30977,1.30588 -1.31803,5.75804 q -0.12755,0.61953 -0.12755,0.69849 0,0.0972 0.0486,0.1397 0.0547,0.0365 0.10325,0.0365 0.21866,0 0.6985,-0.66206 0.079,0 0.13362,0.0365 0.0607,0.0304 0.079,0.0607 l 0.0729,0.10325 q -0.54665,1.20263 -1.59135,1.20263 -0.28548,0 -0.40088,-0.164 -0.10933,-0.17006 -0.10933,-0.3948 0,-0.18221 0.12148,-0.68027 z" />
        <path
           id="path865"
           style="font-style:italic;font-variant:normal;font-weight:normal;font-stretch:normal;font-family:'Linux Libertine G';-inkscape-font-specification:'Linux Libertine G Italic';fill:#000000;stroke-width:2.06079"
           d="m 134.63346,171.15227 q 0,-0.26725 -0.13363,-0.3705 -0.13362,-0.10326 -0.47376,-0.10326 -1.11759,0 -1.64602,2.12586 0.40088,-0.0486 0.75924,-0.15185 0.35835,-0.10933 0.71064,-0.29155 0.35836,-0.18829 0.57094,-0.49805 0.21259,-0.31585 0.21259,-0.71065 z m -2.33844,2.12586 q -0.0121,0.0972 -0.0121,0.42517 0,0.79568 0.24295,1.11759 0.24903,0.31585 0.70457,0.31585 0.46162,0 0.76531,-0.15185 0.30977,-0.15792 0.82605,-0.68635 0.20044,0 0.28547,0.20044 -1.069,1.37877 -2.32629,1.37877 -0.74102,0 -1.13582,-0.52843 -0.3948,-0.52843 -0.3948,-1.36055 0,-0.49198 0.10326,-0.99004 0.10933,-0.50413 0.35228,-0.99004 0.24296,-0.49198 0.58917,-0.86856 0.34621,-0.37659 0.86856,-0.60739 0.52235,-0.23688 1.14796,-0.23688 0.31585,0 0.5588,0.0972 0.24296,0.0972 0.37051,0.24903 0.12755,0.14577 0.18829,0.29762 0.0607,0.14577 0.0607,0.27332 0,0.40695 -0.12756,0.64991 -0.48591,0.91108 -3.0673,1.41521 z" />
        <path
           id="path867"
           style="font-style:italic;font-variant:normal;font-weight:normal;font-stretch:normal;font-family:'Linux Libertine G';-inkscape-font-specification:'Linux Libertine G Italic';fill:#000000;stroke-width:2.06079"
           d="m 145.03573,172.20913 0.0486,0.0122 q 0.41302,-0.88072 0.91715,-1.40307 0.51021,-0.52235 0.97182,-0.52235 0.31584,0 0.47984,0.18221 0.17007,0.17614 0.17007,0.40088 0,0.26725 -0.164,0.48591 -0.15792,0.21258 -0.40087,0.21258 -0.18829,0 -0.4191,-0.26117 -0.12755,-0.15185 -0.26118,-0.15185 -0.34621,0 -1.57921,2.24126 l -0.36443,1.45773 q -0.0243,0.085 -0.0547,0.24296 -0.0304,0.15184 -0.0547,0.24295 -0.0182,0.085 -0.0607,0.20044 -0.0364,0.1154 -0.085,0.17614 -0.0486,0.0607 -0.13363,0.10326 -0.079,0.0486 -0.18221,0.0486 -0.47376,0 -0.47376,-0.33406 0,-0.085 0.0243,-0.18829 0.0243,-0.10933 0.0668,-0.24903 0.0425,-0.14578 0.0668,-0.24296 l 0.69242,-3.09768 q 0.085,-0.34621 0.085,-0.63775 0,-0.23081 -0.22473,-0.24903 l -0.49806,-0.0364 q -0.13362,-0.20652 -0.0122,-0.34622 0.15792,-0.0182 0.4191,-0.0547 l 0.40695,-0.0547 q 0.15185,-0.0243 0.34014,-0.0364 0.18829,-0.0182 0.32799,-0.0182 0.12147,0 0.19436,0.085 0.0729,0.079 0.0729,0.22474 0,0.19436 -0.21259,1.12974 z" />
        <path
           id="path869"
           style="font-style:italic;font-variant:normal;font-weight:normal;font-stretch:normal;font-family:'Linux Libertine G';-inkscape-font-specification:'Linux Libertine G Italic';fill:#000000;stroke-width:2.06079"
           d="m 170.89373,167.72053 q 0,0.11541 -0.0365,0.79568 -0.0364,0.6742 -0.0668,1.00826 l -0.34621,0.0607 q -0.0304,-0.29154 -0.0668,-0.47376 -0.0365,-0.18222 -0.11541,-0.36443 -0.0729,-0.18829 -0.18829,-0.28547 -0.1154,-0.10326 -0.30369,-0.164 -0.18829,-0.0668 -0.44947,-0.0668 h -1.23907 q -0.43732,0 -0.52235,0.42517 l -0.49806,2.61177 h 1.51847 q 0.29762,0 0.44947,-0.12148 0.15792,-0.12755 0.24295,-0.40088 l 0.0911,-0.31584 q 0.0243,-0.0972 0.10933,-0.0972 h 0.26118 l 0.0364,0.0486 q -0.20044,0.72279 -0.26118,1.12367 -0.10325,0.5345 -0.15792,1.08115 l -0.0668,0.0364 h -0.26118 q -0.0425,0 -0.0607,-0.0304 -0.0121,-0.0364 0,-0.0668 l 0.0243,-0.31584 q 0.006,-0.0364 0.006,-0.10326 0,-0.20651 -0.12147,-0.28547 -0.11541,-0.085 -0.39481,-0.085 h -1.51847 l -0.60738,3.12805 q -0.0121,0.0972 -0.0121,0.12755 0,0.15792 0.0911,0.21866 0.0972,0.0607 0.2794,0.0607 h 1.62172 q 1.17226,0 1.92542,-1.6278 l 0.35836,0.0607 -0.84427,2.07727 q -0.94753,-0.0243 -1.51847,-0.0243 h -2.56318 q -0.3948,0 -1.51239,0.0243 l -0.0243,-0.0243 0.0486,-0.24903 q 0.0304,-0.085 0.10933,-0.085 l 0.36444,-0.0243 q 0.34621,-0.0243 0.50413,-0.14577 0.15792,-0.12148 0.21258,-0.38873 l 1.20871,-6.2075 q 0.0182,-0.10326 0.0182,-0.17614 0,-0.18829 -0.12755,-0.27333 -0.12148,-0.0911 -0.40088,-0.1154 l -0.34621,-0.0243 q -0.10933,0 -0.079,-0.085 l 0.0547,-0.24903 0.0243,-0.0243 q 1.11759,0.0243 1.50025,0.0243 h 3.02479 q 0.28547,0 0.57094,-0.0486 0.0547,0 0.0547,0.0364 z" />
        <path
           id="path871"
           style="font-style:italic;font-variant:normal;font-weight:normal;font-stretch:normal;font-family:'Linux Libertine G';-inkscape-font-specification:'Linux Libertine G Italic';fill:#000000;stroke-width:2.06079"
           d="m 181.92768,173.34494 q 0.57094,-1.05685 0.57094,-1.51847 0,-0.36443 -0.23081,-0.72279 -0.22473,-0.35836 -0.55272,-0.35836 -0.41302,0 -0.80782,0.30977 -0.38873,0.30369 -0.66206,0.77138 -0.27332,0.46162 -0.44339,1.02041 -0.16399,0.55273 -0.16399,1.04471 0,1.41521 0.48591,1.41521 0.35228,0 0.83819,-0.54057 0.48591,-0.54665 0.96575,-1.42129 z m 0,0.96575 -0.0425,-0.0243 q -0.57094,0.83212 -1.03863,1.21478 -0.46162,0.37658 -0.93538,0.37658 -0.38873,0 -0.65598,-0.17614 -0.26725,-0.17615 -0.3948,-0.46769 -0.12148,-0.29155 -0.17007,-0.56487 -0.0486,-0.27333 -0.0486,-0.57702 0,-0.70457 0.28547,-1.40914 0.29155,-0.71064 0.72887,-1.22692 0.44339,-0.51628 0.98396,-0.8382 0.54665,-0.32191 1.03864,-0.32191 0.34013,0 0.59524,0.19436 0.26117,0.19436 0.38265,0.49198 h 0.0121 l 0.46161,-2.22911 q 0.0911,-0.45554 0.0911,-0.61953 0,-0.19437 -0.0668,-0.27333 -0.0607,-0.079 -0.19436,-0.079 l -0.38873,-0.0243 q -0.0607,0 -0.0607,-0.0607 l 0.0364,-0.29762 q 0.38266,-0.0243 0.93538,-0.12755 0.5588,-0.10933 0.80782,-0.20044 0.14578,0 0.14578,0.12755 l -0.30977,1.30588 -1.31803,5.75804 q -0.12755,0.61953 -0.12755,0.69849 0,0.0972 0.0486,0.1397 0.0547,0.0365 0.10325,0.0365 0.21866,0 0.6985,-0.66206 0.079,0 0.13363,0.0365 0.0607,0.0304 0.079,0.0607 l 0.0729,0.10325 q -0.54665,1.20263 -1.59135,1.20263 -0.28548,0 -0.40088,-0.164 -0.10933,-0.17006 -0.10933,-0.3948 0,-0.18221 0.12148,-0.68027 z" />
        <path
           id="path873"
           style="font-style:italic;font-variant:normal;font-weight:normal;font-stretch:normal;font-family:'Linux Libertine G';-inkscape-font-specification:'Linux Libertine G Italic';fill:#000000;stroke-width:2.06079"
           d="m 195.08748,173.34494 q 0.57095,-1.05685 0.57095,-1.51847 0,-0.36443 -0.23081,-0.72279 -0.22473,-0.35836 -0.55272,-0.35836 -0.41303,0 -0.80783,0.30977 -0.38873,0.30369 -0.66205,0.77138 -0.27333,0.46162 -0.44339,1.02041 -0.164,0.55273 -0.164,1.04471 0,1.41521 0.48591,1.41521 0.35229,0 0.8382,-0.54057 0.48591,-0.54665 0.96574,-1.42129 z m 0,0.96575 -0.0425,-0.0243 q -0.57094,0.83212 -1.03863,1.21478 -0.46161,0.37658 -0.93538,0.37658 -0.38872,0 -0.65597,-0.17614 -0.26725,-0.17615 -0.39481,-0.46769 -0.12147,-0.29155 -0.17006,-0.56487 -0.0486,-0.27333 -0.0486,-0.57702 0,-0.70457 0.28548,-1.40914 0.29154,-0.71064 0.72886,-1.22692 0.44339,-0.51628 0.98397,-0.8382 0.54665,-0.32191 1.03863,-0.32191 0.34014,0 0.59524,0.19436 0.26118,0.19436 0.38266,0.49198 h 0.0121 l 0.46162,-2.22911 q 0.0911,-0.45554 0.0911,-0.61953 0,-0.19437 -0.0668,-0.27333 -0.0607,-0.079 -0.19437,-0.079 l -0.38873,-0.0243 q -0.0607,0 -0.0607,-0.0607 l 0.0365,-0.29762 q 0.38265,-0.0243 0.93537,-0.12755 0.5588,-0.10933 0.80783,-0.20044 0.14577,0 0.14577,0.12755 l -0.30976,1.30588 -1.31804,5.75804 q -0.12755,0.61953 -0.12755,0.69849 0,0.0972 0.0486,0.1397 0.0547,0.0365 0.10326,0.0365 0.21866,0 0.6985,-0.66206 0.079,0 0.13362,0.0365 0.0607,0.0304 0.079,0.0607 l 0.0729,0.10325 q -0.54665,1.20263 -1.59136,1.20263 -0.28547,0 -0.40087,-0.164 -0.10933,-0.17006 -0.10933,-0.3948 0,-0.18221 0.12147,-0.68027 z" />
        <path
           id="path875"
           style="font-style:italic;font-variant:normal;font-weight:normal;font-stretch:normal;font-family:'Linux Libertine G';-inkscape-font-specification:'Linux Libertine G Italic';fill:#000000;stroke-width:2.06079"
           d="m 206.63164,169.08715 q -0.17615,-0.17614 -0.17615,-0.41909 0,-0.24296 0.17615,-0.4191 0.17614,-0.18222 0.41909,-0.18222 0.24296,0 0.4191,0.18222 0.17614,0.17614 0.17614,0.4191 0,0.24295 -0.17614,0.41909 -0.17614,0.17615 -0.4191,0.17615 -0.24295,0 -0.41909,-0.17615 z m 0.3705,2.68466 -0.55879,2.4417 q -0.1397,0.60738 -0.1397,0.71064 0,0.21259 0.12755,0.21259 0.0972,0 0.33406,-0.17615 0.24296,-0.18221 0.47376,-0.44946 0.21259,0 0.28548,0.21258 -0.89894,1.15404 -1.73106,1.15404 -0.5102,0 -0.5102,-0.40695 0,-0.14577 0.21258,-1.14796 l 0.58309,-2.55711 q 0.11541,-0.46768 0.11541,-0.63775 0,-0.0972 -0.0607,-0.17007 -0.0547,-0.0729 -0.164,-0.079 l -0.49805,-0.0364 q -0.13363,-0.20652 -0.0121,-0.34622 l 0.41302,-0.0547 0.43732,-0.0547 q 0.15185,-0.0182 0.35229,-0.0364 0.20043,-0.0182 0.34013,-0.0182 0.25511,0 0.25511,0.26118 0,0.0972 -0.0365,0.26725 -0.0364,0.17007 -0.10933,0.46161 -0.0729,0.29155 -0.10933,0.44947 z" />
        <path
           id="path877"
           style="font-style:italic;font-variant:normal;font-weight:normal;font-stretch:normal;font-family:'Linux Libertine G';-inkscape-font-specification:'Linux Libertine G Italic';fill:#000000;stroke-width:2.06079"
           d="m 219.85218,174.21351 q -0.1397,0.61953 -0.1397,0.71064 0,0.21259 0.12755,0.21259 0.10326,0 0.34014,-0.17615 0.23688,-0.18221 0.46769,-0.44946 0.21259,0 0.28547,0.21258 -0.89893,1.15404 -1.7675,1.15404 -0.5102,0 -0.5102,-0.40695 0,-0.2551 0.21258,-1.14796 l 0.47377,-1.98616 q 0.15792,-0.69242 0.15792,-0.84427 0,-0.26725 -0.10933,-0.35836 -0.10326,-0.0911 -0.32192,-0.0911 -0.57094,0 -1.91934,1.75535 l -0.47377,2.06512 q -0.0182,0.085 -0.0486,0.23688 -0.0243,0.15185 -0.0425,0.24296 -0.0182,0.085 -0.0607,0.20044 -0.0365,0.1154 -0.085,0.18221 -0.0486,0.0607 -0.13362,0.10326 -0.085,0.0486 -0.20044,0.0486 -0.5345,0 -0.5345,-0.33406 0,-0.0547 0.0243,-0.15793 0.0243,-0.10932 0.0729,-0.27939 l 0.0607,-0.24296 0.70457,-3.09768 q 0.10933,-0.51628 0.10933,-0.63775 0,-0.23081 -0.22473,-0.24903 l -0.49806,-0.0364 q -0.13363,-0.20652 -0.0121,-0.34622 1.31196,-0.16399 1.56706,-0.16399 0.2551,0 0.2551,0.26118 0,0.0729 -0.0304,0.21258 -0.0243,0.1397 -0.0607,0.26725 l -0.0911,0.34621 q -0.0607,0.22474 -0.0911,0.35229 l -0.0304,0.1154 0.0122,0.0121 q 0.8139,-0.9536 1.31195,-1.27551 0.49806,-0.32799 1.01434,-0.32799 0.81997,0 0.81997,0.99611 0,0.23081 -0.15792,0.94145 z" />
        <path
           id="path879"
           style="font-style:italic;font-variant:normal;font-weight:normal;font-stretch:normal;font-family:'Linux Libertine G';-inkscape-font-specification:'Linux Libertine G Italic';fill:#000000;stroke-width:2.06079"
           d="m 232.4046,171.15227 q 0,-0.26725 -0.13363,-0.3705 -0.13362,-0.10326 -0.47376,-0.10326 -1.11759,0 -1.64602,2.12586 0.40088,-0.0486 0.75924,-0.15185 0.35836,-0.10933 0.71064,-0.29155 0.35836,-0.18829 0.57094,-0.49805 0.21259,-0.31585 0.21259,-0.71065 z m -2.33844,2.12586 q -0.0121,0.0972 -0.0121,0.42517 0,0.79568 0.24295,1.11759 0.24903,0.31585 0.70457,0.31585 0.46162,0 0.76531,-0.15185 0.30977,-0.15792 0.82605,-0.68635 0.20044,0 0.28547,0.20044 -1.069,1.37877 -2.32629,1.37877 -0.74102,0 -1.13582,-0.52843 -0.3948,-0.52843 -0.3948,-1.36055 0,-0.49198 0.10326,-0.99004 0.10933,-0.50413 0.35228,-0.99004 0.24296,-0.49198 0.58917,-0.86856 0.34621,-0.37659 0.86856,-0.60739 0.52236,-0.23688 1.14796,-0.23688 0.31585,0 0.5588,0.0972 0.24296,0.0972 0.37051,0.24903 0.12755,0.14577 0.18829,0.29762 0.0607,0.14577 0.0607,0.27332 0,0.40695 -0.12755,0.64991 -0.48591,0.91108 -3.06731,1.41521 z" />
      </g>
      <path
         id="path3752"
         style="font-style:normal;font-variant:normal;font-weight:normal;font-stretch:normal;font-family:'Times New Roman';-inkscape-font-specification:'Times New Roman, ';fill:url(#pattern4038);fill-opacity:1;stroke-width:6.62662;filter:url(#filter4036)"
         d="m 105.32532,-21.89215 v 4.788633 l 12.53864,39.904111 c 2.72029,8.657205 6.09882,-38.178483 9.20504,-34.727129 2.24338,2.5885161 3.365,9.4482484 3.365,20.5788654 V 122.67614 c 0,8.5421 -0.51781,14.1936 -1.55322,16.95468 -0.94913,2.76109 -2.80401,4.83243 -5.56509,6.21297 -3.71021,1.98453 -1.54378,-37.80152 -3.45376,-33.0658 l -14.53661,36.04234 v 4.78864 H 240.5754 l 15.14251,-44.00463 h -5.17679 c -5.60845,10.78548 -11.08756,18.85286 -16.43715,24.20245 -4.14163,4.05535 -8.45566,6.77357 -12.94242,8.15412 -4.48676,1.38054 -11.69174,2.07079 -21.61439,2.07079 h -29.76787 c -4.83189,0 -8.11076,-0.47463 -9.83644,-1.42375 -1.72567,-1.03541 -2.9333,-2.37313 -3.62357,-4.01252 -0.69027,-1.72568 -1.03563,-6.4713 -1.03563,-14.23685 V 66.505457 h 38.56868 c 7.33413,0 12.77024,0.863109 16.30787,2.588783 3.53764,1.725681 6.08279,4.0982 7.6359,7.11813 1.20797,2.41595 2.41605,7.89517 3.62402,16.43728 h 4.78894 V 31.560691 h -4.78894 c -0.5177,10.008926 -3.01984,16.997567 -7.50661,20.966625 -3.36507,3.019934 -10.05225,4.529931 -20.06118,4.529931 h -38.56868 v -69.372129 h 48.14655 c 8.71467,0 14.79759,0.647476 18.24894,1.941734 4.31419,1.8119614 7.54961,4.4434694 9.7067,7.8948234 2.24339,3.45135304 4.27117,9.793104 6.08313,19.0254776 h 5.0475 L 240.5754,-21.89215 Z" />
    </g>
  </g>
</svg>
