<?xml version="1.0" encoding="UTF-8" standalone="no"?>
<svg
   xmlns:dc="http://purl.org/dc/elements/1.1/"
   xmlns:cc="http://creativecommons.org/ns#"
   xmlns:rdf="http://www.w3.org/1999/02/22-rdf-syntax-ns#"
   xmlns:svg="http://www.w3.org/2000/svg"
   xmlns="http://www.w3.org/2000/svg"
   xmlns:sodipodi="http://sodipodi.sourceforge.net/DTD/sodipodi-0.dtd"
   xmlns:inkscape="http://www.inkscape.org/namespaces/inkscape"
   sodipodi:docname="ciclo.svg"
   inkscape:version="1.0 (4035a4fb49, 2020-05-01)"
   id="svg8"
   version="1.1"
   viewBox="0 0 297 210"
   height="210mm"
   width="297mm">
  <defs
     id="defs2" />
  <sodipodi:namedview
     inkscape:window-maximized="1"
     inkscape:window-y="-8"
     inkscape:window-x="-8"
     inkscape:window-height="1017"
     inkscape:window-width="1920"
     showgrid="false"
     inkscape:document-rotation="0"
     inkscape:current-layer="layer1"
     inkscape:document-units="mm"
     inkscape:cy="393.84674"
     inkscape:cx="397.14405"
     inkscape:zoom="0.7"
     inkscape:pageshadow="2"
     inkscape:pageopacity="0.0"
     borderopacity="1.0"
     bordercolor="#666666"
     pagecolor="#ffffff"
     id="base" />
  <metadata
     id="metadata5">
    <rdf:RDF>
      <cc:Work
         rdf:about="">
        <dc:format>image/svg+xml</dc:format>
        <dc:type
           rdf:resource="http://purl.org/dc/dcmitype/StillImage" />
        <dc:title></dc:title>
      </cc:Work>
    </rdf:RDF>
  </metadata>
  <g
     id="layer1"
     inkscape:groupmode="layer"
     inkscape:label="Layer 1">
    <circle
       style="fill:#000000;stroke:#666666;stroke-width:7.21035;stroke-miterlimit:4;stroke-dasharray:none;stroke-dashoffset:0;stroke-opacity:1"
       id="path10-6"
       cx="148.33514"
       cy="109.76234"
       r="96.655754" />
    <path
       transform="scale(0.26458333)"
       d="M 561.03711 49.449219 A 365.31309 365.31309 0 0 0 195.94727 414.76172 A 365.31309 365.31309 0 0 0 561.03711 780.07422 L 561.03711 49.449219 z "
       style="fill:#000000;stroke:#ff0000;stroke-width:27.2517;stroke-miterlimit:4;stroke-dasharray:none;stroke-dashoffset:0;stroke-opacity:1"
       id="path10" />
    <circle
       r="92.93927"
       cy="109.76234"
       cx="148.33514"
       id="path10-6-0"
       style="fill:#000000;stroke:none;stroke-width:6.93311;stroke-miterlimit:4;stroke-dasharray:none;stroke-dashoffset:0;stroke-opacity:1" />
    <path
       transform="matrix(0.06846513,0.29903287,-0.29903287,0.06846513,146.72691,-27.188912)"
       inkscape:transform-center-y="1.1554787"
       inkscape:transform-center-x="-2.3912171"
       d="M 163.66368,72.949404 121.71923,63.148187 79.774785,53.34697 109.23511,21.922622 138.69544,-9.5017273 151.17956,31.723838 Z"
       inkscape:randomized="0"
       inkscape:rounded="0"
       inkscape:flatsided="false"
       sodipodi:arg2="1.8003488"
       sodipodi:arg1="0.75315128"
       sodipodi:r2="24.868994"
       sodipodi:r1="49.737988"
       sodipodi:cy="38.931549"
       sodipodi:cx="127.37797"
       sodipodi:sides="3"
       id="path12"
       style="fill:#ff0000;stroke:none;stroke-width:9.7793;stroke-miterlimit:4;stroke-dasharray:none;stroke-opacity:1"
       sodipodi:type="star" />
    <g
       transform="translate(1.0982075,1.6611521)"
       id="g1317">
      <path
         transform="matrix(0.32666867,0,0,0.27984303,139.26586,101.60251)"
         inkscape:transform-center-y="-1.0974434"
         inkscape:transform-center-x="-0.0019875908"
         d="M -2.4206067,198.55281 C 131.64051,347.19012 -3.604819,-5.013827 21.735285,25.406783 47.075391,55.827397 -254.72502,179.18177 -124.85923,109.16651 5.0065506,39.151247 -69.820912,-118.04413 -74.184362,-115.18354 -78.547812,-112.32295 -204.97263,393.23963 -233.02666,12.362015 -261.08069,-368.51557 221.1645,-112.2345 -94.196318,0.38609301 -409.55716,113.0067 63.706323,247.29634 158.02567,213.47709 252.345,179.65785 -302.46493,-93.603173 -141.48856,-29.245453 19.487825,35.112274 523.54361,-256.83967 145.47512,-76.330314 -232.59334,104.17902 170.52318,-14.855665 56.886192,40.483438 -56.750811,95.822546 -136.48174,49.915477 -2.4206067,198.55281 Z"
         inkscape:randomized="5.151"
         inkscape:rounded="4.68"
         inkscape:flatsided="false"
         sodipodi:arg2="2.8279111"
         sodipodi:arg1="2.1995926"
         sodipodi:r2="41.128254"
         sodipodi:r1="41.128254"
         sodipodi:cy="52.071438"
         sodipodi:cx="-27.970238"
         sodipodi:sides="5"
         id="path821"
         style="fill:#ff0000;stroke:none;stroke-width:1.89524;stroke-linejoin:round;stroke-miterlimit:4;stroke-dasharray:none"
         sodipodi:type="star" />
      <g
         id="text817"
         style="font-style:normal;font-weight:normal;font-size:98.3005px;line-height:1.25;font-family:sans-serif;letter-spacing:0px;word-spacing:0px;fill:#ffffff;fill-opacity:1;stroke:none;stroke-width:0.264583"
         transform="matrix(0.57947435,0,0,0.56665125,61.579002,-2.0181422)"
         aria-label="silce">
        <path
           inkscape:connector-curvature="0"
           id="path828"
           style="font-style:normal;font-variant:normal;font-weight:normal;font-stretch:normal;font-family:Stencil;-inkscape-font-specification:Stencil;text-align:center;text-anchor:middle;fill:#ffffff;stroke-width:0.264583"
           d="m 42.093367,204.30406 v 5.5198 q -2.975894,0.81597 -4.559838,2.54391 -1.535945,1.67994 -1.535945,4.17585 0,2.39992 1.295954,4.22385 1.295954,1.77594 4.223849,3.40788 2.015928,1.10396 9.119675,4.22385 4.319846,1.87193 6.671762,3.40788 2.399914,1.48795 4.511839,3.74387 5.663797,5.95178 5.663797,14.15949 0,6.19178 -3.07189,11.3276 -3.07189,5.13581 -8.447698,8.06371 -2.879898,1.53594 -6.335774,2.39991 -3.407879,0.91197 -6.383772,0.91197 v -5.47181 q 4.17585,-1.00796 5.999785,-2.7839 1.871934,-1.82393 1.871934,-4.89582 0,-3.21589 -2.879898,-5.6638 -1.919931,-1.58394 -7.295739,-3.93586 -5.903789,-2.59191 -8.111711,-3.69587 -2.159923,-1.10396 -4.175851,-2.5919 -9.023678,-6.43177 -9.023678,-17.13539 0,-5.47181 2.25592,-10.07964 2.255919,-4.65584 6.287775,-7.48774 5.6158,-3.93585 13.919504,-4.36784 z m 3.791864,5.5198 v -5.27981 q 2.879898,0.192 4.991822,0.76797 2.111925,0.52799 5.999786,2.15993 0.959966,0.38398 1.583943,0.38398 0.911968,0 1.343952,-0.62397 l 1.055963,-1.39195 q 0.767972,-1.05597 1.871933,-1.05597 1.295954,0 1.871933,0.95997 0.623978,0.91197 0.623978,2.92789 v 15.83944 q 0,1.39195 -0.815971,2.30392 -0.767973,0.86397 -2.015928,0.86397 -0.959966,0 -1.775937,-0.62398 -0.431984,-0.38399 -0.719974,-0.91197 -0.239991,-0.57598 -0.479983,-1.87193 -0.527981,-2.35192 -1.823935,-4.84783 -1.295953,-2.49591 -3.023892,-4.46384 -3.455876,-3.88786 -8.68769,-5.13582 z m -6.287775,57.11796 v 5.47181 q -3.93586,0 -8.68769,-2.25592 -1.775937,-0.81597 -2.447913,-1.05596 -0.671976,-0.23999 -1.295954,-0.23999 -0.959965,0 -1.439948,0.33598 -0.479983,0.28799 -1.535945,1.53595 -0.863969,1.05596 -1.871933,1.05596 -2.687905,0 -2.687905,-4.12785 v -17.47138 q 0,-1.34395 0.767973,-2.25592 0.767973,-0.95996 1.919932,-1.00796 1.055962,-0.048 1.631941,0.62398 0.623978,0.62397 1.055963,2.25592 1.10396,4.12785 3.167886,7.72772 2.111925,3.59987 4.895826,6.09578 2.831899,2.59191 6.527767,3.31188 z" />
        <path
           inkscape:connector-curvature="0"
           id="path830"
           style="font-style:normal;font-variant:normal;font-weight:normal;font-stretch:normal;font-family:Stencil;-inkscape-font-specification:Stencil;text-align:center;text-anchor:middle;fill:#ffffff;stroke-width:0.264583"
           d="M 101.32325,271.11768 H 79.916015 78.66806 q -1.727939,0 -2.687904,-0.62398 -0.911968,-0.67198 -0.911968,-1.87194 0,-1.96792 1.919932,-2.5919 1.583943,-0.52798 1.823935,-0.62398 0.287989,-0.144 0.575979,-0.57598 0.575979,-0.76797 0.575979,-2.44791 V 214.3357 q 0,-1.67994 -0.575979,-2.44791 -0.28799,-0.43198 -0.575979,-0.52798 -0.239992,-0.144 -1.823935,-0.67198 -1.919932,-0.62398 -1.919932,-2.5919 0,-1.19996 0.911968,-1.82394 0.959965,-0.67198 2.687904,-0.67198 h 1.247955 21.407235 1.24796 q 1.72793,0 2.6399,0.67198 0.95997,0.62398 0.95997,1.82394 0,1.96792 -1.91993,2.5919 -1.58395,0.52798 -1.87194,0.67198 -0.23999,0.096 -0.52798,0.52798 -0.57598,0.76797 -0.57598,2.44791 v 48.04629 q 0,1.67994 0.57598,2.44791 0.28799,0.43198 0.52798,0.57598 0.28799,0.096 1.87194,0.62398 1.91993,0.62398 1.91993,2.5919 0,1.19996 -0.95997,1.87194 -0.91197,0.62398 -2.6399,0.62398 z" />
        <path
           inkscape:connector-curvature="0"
           id="path832"
           style="font-style:normal;font-variant:normal;font-weight:normal;font-stretch:normal;font-family:Stencil;-inkscape-font-specification:Stencil;text-align:center;text-anchor:middle;fill:#ffffff;stroke-width:0.264583"
           d="m 140.24987,271.11768 h -21.35924 -1.24796 q -1.72794,0 -2.6879,-0.62398 -0.91197,-0.67198 -0.91197,-1.87194 0,-1.96792 1.91993,-2.5919 1.58395,-0.52798 1.82394,-0.62398 0.28799,-0.144 0.57598,-0.57598 0.57598,-0.76797 0.57598,-2.44791 V 214.3357 q 0,-1.67994 -0.57598,-2.44791 -0.28799,-0.43198 -0.57598,-0.52798 -0.23999,-0.144 -1.82394,-0.67198 -1.91993,-0.62398 -1.91993,-2.5919 0,-1.19996 0.91197,-1.82394 0.95996,-0.67198 2.6879,-0.67198 h 1.24796 21.40723 1.63195 q 2.11192,0 3.02389,0.57598 1.24795,0.76798 1.24795,2.01593 0,2.11193 -2.30391,2.63991 -1.87194,0.43198 -2.20793,0.57598 -0.33598,0.14399 -0.71997,0.57598 -0.71997,0.86397 -0.71997,2.6879 z m 3.88786,0 v -5.37581 q 2.35191,-0.43199 3.69587,-0.95997 1.39195,-0.52798 2.6399,-1.53594 2.01593,-1.58395 3.69587,-4.36785 1.67994,-2.7839 2.7359,-6.19178 0.76797,-2.6399 1.39195,-3.45587 0.67198,-0.86397 1.91993,-0.86397 1.34396,0 1.96793,1.10396 0.28799,0.52798 0.28799,2.11192 v 19.53531 z" />
        <path
           inkscape:connector-curvature="0"
           id="path834"
           style="font-style:normal;font-variant:normal;font-weight:normal;font-stretch:normal;font-family:Stencil;-inkscape-font-specification:Stencil;text-align:center;text-anchor:middle;fill:#ffffff;stroke-width:0.264583"
           d="m 192.85598,204.30406 v 5.80779 q -2.8319,0.43199 -4.22385,2.49591 -1.39195,2.06393 -1.39195,5.90379 v 39.64659 2.06392 q 0,1.10397 0.43199,2.35192 0.47998,1.19996 1.19995,2.06393 0.76798,0.95996 1.63195,1.39195 0.86397,0.38398 2.35191,0.52798 v 5.85579 q -9.31167,0 -16.17542,-4.84783 -6.04778,-4.27184 -9.11967,-11.47159 -3.07189,-7.24774 -3.07189,-17.13539 0,-7.24774 1.96792,-13.48751 2.01593,-6.28778 5.8078,-10.89562 3.83986,-4.65583 9.16767,-7.48773 5.37581,-2.8319 10.31963,-2.8319 z m 3.79187,5.85579 v -5.80779 q 2.35191,0.38399 3.79186,0.81597 1.48795,0.43198 5.32781,1.82393 2.44791,0.86397 3.26389,0.86397 1.39195,0 2.11192,-1.24795 l 0.62398,-1.15196 q 0.57598,-1.15196 2.15992,-1.15196 1.29595,0 1.96793,0.76797 0.71997,0.76798 0.71997,2.25592 v 19.96729 q 0,1.91993 -0.86396,2.7839 -0.86397,0.86397 -1.96793,0.86397 -1.15196,0 -1.87194,-0.71997 -0.67197,-0.76798 -1.10396,-2.44792 -1.00796,-3.79186 -1.96793,-5.95178 -2.06392,-4.55984 -4.70383,-7.39174 -1.77594,-1.91993 -3.55187,-2.9279 -1.77594,-1.05596 -3.93586,-1.34395 z m 0.14399,62.25378 v -5.85579 q 3.74387,-0.28799 7.87172,-2.8319 2.20792,-1.39195 3.93586,-3.69587 1.72794,-2.35191 2.59191,-5.13582 0.47998,-1.53594 1.10396,-2.15992 0.67197,-0.67197 1.72794,-0.67197 1.15196,0 1.91993,0.86397 0.76797,0.86396 0.76797,2.15992 0,2.15992 -1.67994,5.23181 -1.63194,3.07189 -4.22385,5.6638 -3.16789,3.16789 -6.52777,4.70383 -3.31188,1.53595 -7.48773,1.72794 z" />
        <path
           inkscape:connector-curvature="0"
           id="path836"
           style="font-style:normal;font-variant:normal;font-weight:normal;font-stretch:normal;font-family:Stencil;-inkscape-font-specification:Stencil;text-align:center;text-anchor:middle;fill:#ffffff;stroke-width:0.264583"
           d="m 250.06995,205.60001 v 65.51767 h -21.35924 -1.24795 q -1.72794,0 -2.68791,-0.62398 -0.91197,-0.67198 -0.91197,-1.87194 0,-1.96792 1.91994,-2.5919 1.58394,-0.52798 1.82393,-0.62398 0.28799,-0.144 0.57598,-0.57598 0.57598,-0.76797 0.57598,-2.44791 V 214.3357 q 0,-1.67994 -0.57598,-2.44791 -0.28799,-0.43198 -0.57598,-0.52798 -0.23999,-0.144 -1.82393,-0.67198 -1.91994,-0.62398 -1.91994,-2.5919 0,-1.19996 0.91197,-1.82394 0.95997,-0.67198 2.68791,-0.67198 h 1.24795 z m 4.27185,0 h 19.34331 v 16.9914 q 0,1.48794 -0.57598,2.15992 -0.57598,0.67198 -1.82394,0.67198 -1.05596,0 -1.53594,-0.43199 -0.47999,-0.43198 -0.91197,-1.77593 -1.82394,-5.56781 -5.37581,-8.4957 -3.50387,-2.9279 -9.11967,-3.50388 z m -0.23999,34.94276 v -5.5678 q 2.7839,-1.34396 4.12785,-2.9279 1.34395,-1.58394 1.96793,-4.22385 0.38398,-1.82393 1.00796,-2.49591 0.62398,-0.71997 1.77594,-0.71997 1.53594,0 2.11192,1.19995 0.33599,0.62398 0.33599,2.8319 v 18.28735 q 0,2.25592 -0.52798,3.11989 -0.47998,0.86397 -1.82393,0.86397 -1.10397,0 -1.72794,-0.67198 -0.62398,-0.67197 -1.00797,-2.25592 -0.81597,-3.31188 -2.35191,-5.08782 -1.48795,-1.77593 -3.88786,-2.35191 z m 0.28799,30.57491 v -5.18382 q 3.11988,-0.47998 5.13581,-1.34395 2.06393,-0.86397 4.12785,-2.63991 2.06393,-1.77593 3.26389,-3.64787 1.24795,-1.91993 2.35191,-5.03982 0.52799,-1.53594 1.10396,-2.06392 0.57598,-0.57598 1.58395,-0.57598 1.34395,0 1.87193,0.81597 0.52798,0.76797 0.52798,2.7359 v 16.9434 z" />
      </g>
      <g
         id="text817-4"
         style="font-style:normal;font-weight:normal;font-size:7.85554px;line-height:1.25;font-family:sans-serif;letter-spacing:0px;word-spacing:0px;fill:#ffffff;fill-opacity:1;stroke:none;stroke-width:0.264583"
         transform="matrix(0.57947435,0,0,0.56665125,61.579002,-2.0181422)"
         aria-label="sEMINÁRIO INTERDISCIPLINAR lINGUAGENS, CULTURAS E EDUCAÇÃO">
        <path
           inkscape:connector-curvature="0"
           id="path839"
           style="font-style:normal;font-variant:normal;font-weight:normal;font-stretch:normal;font-family:Stencil;-inkscape-font-specification:Stencil;text-align:center;text-anchor:middle;fill:#ffffff;stroke-width:0.264583"
           d="m 21.107742,279.53133 v 0.4411 q -0.237814,0.0652 -0.364392,0.20329 -0.122743,0.13425 -0.122743,0.33371 0,0.19179 0.103564,0.33754 0.103564,0.14193 0.337543,0.27234 0.1611,0.0882 0.728785,0.33754 0.345214,0.1496 0.533164,0.27234 0.191786,0.11891 0.360557,0.29918 0.452614,0.47563 0.452614,1.13154 0,0.49481 -0.245486,0.90523 -0.245485,0.41042 -0.675085,0.6444 -0.230143,0.12274 -0.506314,0.19178 -0.272335,0.0729 -0.51015,0.0729 v -0.43727 q 0.333707,-0.0805 0.479464,-0.22247 0.149593,-0.14576 0.149593,-0.39124 0,-0.257 -0.230143,-0.45262 -0.153428,-0.12658 -0.583028,-0.31453 -0.471792,-0.20713 -0.648235,-0.29535 -0.172607,-0.0882 -0.333707,-0.20713 -0.721114,-0.51398 -0.721114,-1.36934 0,-0.43728 0.180279,-0.8055 0.180278,-0.37207 0.502478,-0.59838 0.448778,-0.31452 1.112356,-0.34904 z m 0.303022,0.4411 v -0.42193 q 0.230142,0.0154 0.398914,0.0614 0.168771,0.0422 0.479464,0.1726 0.07671,0.0307 0.126578,0.0307 0.07288,0 0.1074,-0.0499 l 0.08439,-0.11123 q 0.06137,-0.0844 0.149592,-0.0844 0.103565,0 0.149593,0.0767 0.04986,0.0729 0.04986,0.23397 v 1.26579 q 0,0.11124 -0.06521,0.18411 -0.06137,0.0691 -0.1611,0.0691 -0.07671,0 -0.141921,-0.0499 -0.03452,-0.0307 -0.05754,-0.0729 -0.01918,-0.046 -0.03836,-0.14959 -0.04219,-0.18795 -0.145757,-0.38741 -0.103564,-0.19945 -0.24165,-0.35672 -0.276171,-0.31069 -0.694263,-0.41042 z m -0.502479,4.5645 v 0.43727 q -0.314528,0 -0.694264,-0.18028 -0.141921,-0.0652 -0.195621,-0.0844 -0.0537,-0.0192 -0.103564,-0.0192 -0.07671,0 -0.115071,0.0269 -0.03836,0.023 -0.122743,0.12274 -0.06904,0.0844 -0.149593,0.0844 -0.2148,0 -0.2148,-0.32988 v -1.39619 q 0,-0.1074 0.06137,-0.18028 0.06137,-0.0767 0.153428,-0.0806 0.08439,-0.004 0.130414,0.0499 0.04986,0.0499 0.08439,0.18028 0.08822,0.32987 0.253157,0.61755 0.168771,0.28768 0.391242,0.48713 0.226307,0.20713 0.521657,0.26467 z" />
        <path
           inkscape:connector-curvature="0"
           id="path841"
           style="font-style:normal;font-variant:normal;font-weight:normal;font-stretch:normal;font-family:Stencil;-inkscape-font-specification:Stencil;text-align:center;text-anchor:middle;fill:#ffffff;stroke-width:0.264583"
           d="m 25.837175,279.63489 v 5.23575 h -1.706892 -0.09973 q -0.138086,0 -0.2148,-0.0499 -0.07288,-0.0537 -0.07288,-0.14959 0,-0.15727 0.153429,-0.20713 0.126578,-0.0422 0.145757,-0.0499 0.02301,-0.0115 0.04603,-0.046 0.04603,-0.0614 0.04603,-0.19562 v -3.83955 q 0,-0.13425 -0.04603,-0.19562 -0.02301,-0.0345 -0.04603,-0.0422 -0.01918,-0.0115 -0.145757,-0.0537 -0.153429,-0.0499 -0.153429,-0.20712 0,-0.0959 0.07288,-0.14576 0.07671,-0.0537 0.2148,-0.0537 h 0.09973 z m 0.341378,0 h 1.545792 v 1.35784 q 0,0.11891 -0.04603,0.17261 -0.04603,0.0537 -0.145757,0.0537 -0.08439,0 -0.122743,-0.0345 -0.03836,-0.0345 -0.07288,-0.14192 -0.145757,-0.44495 -0.429599,-0.67893 -0.280007,-0.23397 -0.728786,-0.28 z m -0.01918,2.7924 v -0.44495 q 0.222471,-0.10739 0.329871,-0.23397 0.1074,-0.12658 0.157264,-0.33755 0.03069,-0.14575 0.08055,-0.19945 0.04986,-0.0575 0.141921,-0.0575 0.122743,0 0.168772,0.0959 0.02685,0.0499 0.02685,0.22631 v 1.46141 q 0,0.18028 -0.04219,0.24932 -0.03836,0.069 -0.145757,0.069 -0.08822,0 -0.138086,-0.0537 -0.04986,-0.0537 -0.08055,-0.18028 -0.06521,-0.26466 -0.18795,-0.40658 -0.118907,-0.14192 -0.310692,-0.18795 z m 0.02301,2.44335 v -0.41426 q 0.249321,-0.0384 0.410421,-0.1074 0.164936,-0.069 0.329871,-0.21096 0.164936,-0.14193 0.260829,-0.29152 0.09973,-0.15343 0.18795,-0.40275 0.04219,-0.12274 0.08822,-0.16493 0.04603,-0.046 0.126579,-0.046 0.107399,0 0.149592,0.0652 0.04219,0.0614 0.04219,0.21864 v 1.35401 z" />
        <path
           inkscape:connector-curvature="0"
           id="path843"
           style="font-style:normal;font-variant:normal;font-weight:normal;font-stretch:normal;font-family:Stencil;-inkscape-font-specification:Stencil;text-align:center;text-anchor:middle;fill:#ffffff;stroke-width:0.264583"
           d="m 31.7902,279.63489 h 1.703056 0.103564 q 0.287678,0 0.287678,0.19946 0,0.15726 -0.153428,0.20712 -0.126579,0.0422 -0.149593,0.0537 -0.01918,0.008 -0.04219,0.0422 -0.04603,0.0614 -0.04603,0.19562 v 3.83955 q 0,0.13425 0.04603,0.19562 0.02301,0.0345 0.04219,0.046 0.02301,0.008 0.149593,0.0499 0.153428,0.0499 0.153428,0.20713 0,0.19946 -0.287678,0.19946 h -0.103564 -1.706892 -0.126579 q -0.168771,0 -0.256992,-0.0499 -0.08439,-0.0537 -0.08439,-0.15726 0,-0.16877 0.184114,-0.21097 0.149593,-0.0383 0.176443,-0.046 0.02685,-0.0115 0.0537,-0.046 0.05754,-0.0691 0.05754,-0.21864 z m -1.411542,0 0.755635,2.15183 0.333707,-1.16222 v 1.27346 l -0.88605,2.97268 h -0.203292 l -1.488257,-4.41491 q -0.07671,-0.22247 -0.161099,-0.29918 -0.04987,-0.0499 -0.172607,-0.0729 -0.249322,-0.0537 -0.249322,-0.23782 0,-0.0997 0.06904,-0.15343 0.07288,-0.0575 0.207128,-0.0575 z m -1.488257,1.76443 0.406586,1.15838 v 1.15455 q 0,0.17644 0.01151,0.25316 0.01534,0.0767 0.06137,0.16877 0.08055,0.16877 0.222472,0.25316 l 0.141921,0.0921 q 0.145757,0.0882 0.145757,0.19562 0,0.19563 -0.287678,0.19563 h -0.962764 q -0.287678,0 -0.287678,-0.19179 0,-0.0614 0.02301,-0.0921 0.02685,-0.0345 0.09973,-0.0767 0.425764,-0.23014 0.425764,-0.79783 z" />
        <path
           inkscape:connector-curvature="0"
           id="path845"
           style="font-style:normal;font-variant:normal;font-weight:normal;font-stretch:normal;font-family:Stencil;-inkscape-font-specification:Stencil;text-align:center;text-anchor:middle;fill:#ffffff;stroke-width:0.264583"
           d="m 36.61169,284.87064 h -1.710728 -0.09973 q -0.138086,0 -0.2148,-0.0499 -0.07288,-0.0537 -0.07288,-0.14959 0,-0.15727 0.153429,-0.20713 0.126578,-0.0422 0.145757,-0.0499 0.02301,-0.0115 0.04603,-0.046 0.04603,-0.0614 0.04603,-0.19562 v -3.83955 q 0,-0.13425 -0.04603,-0.19562 -0.02301,-0.0345 -0.04603,-0.0422 -0.01918,-0.0115 -0.145757,-0.0537 -0.153429,-0.0499 -0.153429,-0.20712 0,-0.0959 0.07288,-0.14576 0.07671,-0.0537 0.2148,-0.0537 h 0.09973 1.710728 0.09973 q 0.138086,0 0.210964,0.0537 0.07672,0.0499 0.07672,0.14576 0,0.15726 -0.153429,0.20712 -0.126578,0.0422 -0.149593,0.0537 -0.01918,0.008 -0.04219,0.0422 -0.04603,0.0614 -0.04603,0.19562 v 3.83955 q 0,0.13425 0.04603,0.19562 0.02301,0.0345 0.04219,0.046 0.02302,0.008 0.149593,0.0499 0.153429,0.0499 0.153429,0.20713 0,0.0959 -0.07672,0.14959 -0.07288,0.0499 -0.210964,0.0499 z" />
        <path
           inkscape:connector-curvature="0"
           id="path847"
           style="font-style:normal;font-variant:normal;font-weight:normal;font-stretch:normal;font-family:Stencil;-inkscape-font-specification:Stencil;text-align:center;text-anchor:middle;fill:#ffffff;stroke-width:0.264583"
           d="m 39.799165,279.63489 2.040599,3.5442 v 1.69155 h -1.047149 l -2.604449,-4.48779 q -0.08439,-0.14575 -0.138085,-0.20329 -0.0537,-0.0575 -0.138086,-0.0844 l -0.145757,-0.0537 q -0.05754,-0.0192 -0.09206,-0.069 -0.03452,-0.0499 -0.03452,-0.11123 0,-0.0652 0.03452,-0.11891 0.03452,-0.0575 0.09206,-0.0806 0.06521,-0.0269 0.352886,-0.0269 z m -1.607163,1.34633 0.406586,0.67509 v 2.05594 q 0,0.2685 0.08822,0.44111 0.09206,0.1726 0.287678,0.28384 l 0.115072,0.0652 q 0.09973,0.0575 0.09973,0.1726 0,0.0882 -0.07288,0.14576 -0.06137,0.0499 -0.253157,0.0499 h -0.88605 q -0.349049,0 -0.349049,-0.19946 0,-0.069 0.03452,-0.1074 0.03836,-0.0422 0.1611,-0.11124 0.368228,-0.20329 0.368228,-0.74029 z m 3.647762,1.58415 -0.406585,-0.68659 v -1.06249 q 0,-0.3222 -0.09589,-0.49097 -0.09206,-0.17261 -0.329871,-0.29535 -0.08055,-0.0384 -0.111236,-0.0806 -0.03069,-0.046 -0.03069,-0.11507 0,-0.10357 0.06521,-0.1496 0.06904,-0.0499 0.218636,-0.0499 h 0.958928 q 0.195621,0 0.256993,0.0614 0.06521,0.0614 0.06521,0.14576 0,0.0806 -0.03836,0.12274 -0.03452,0.0384 -0.172607,0.1074 -0.203293,0.10356 -0.306857,0.31836 -0.07288,0.15727 -0.07288,0.42577 z" />
        <path
           inkscape:connector-curvature="0"
           id="path849"
           style="font-style:normal;font-variant:normal;font-weight:normal;font-stretch:normal;font-family:Stencil;-inkscape-font-specification:Stencil;text-align:center;text-anchor:middle;fill:#ffffff;stroke-width:0.264583"
           d="m 44.444214,279.63489 h 1.545792 l 1.066328,4.50696 q 0.03068,0.11891 0.06904,0.21096 0.03452,0.0729 0.153429,0.11891 0.09973,0.0422 0.138085,0.0844 0.03836,0.0422 0.03836,0.11507 0,0.19946 -0.299186,0.19946 h -1.91402 q -0.115072,0 -0.184114,-0.0537 -0.06904,-0.0575 -0.06904,-0.1496 0,-0.0767 0.03069,-0.11507 0.03068,-0.0384 0.138085,-0.0959 0.07671,-0.0384 0.1074,-0.0844 0.03069,-0.046 0.03069,-0.11507 0,-0.0652 -0.01151,-0.11507 L 45.1615,283.58566 h -1.070164 l 0.103564,-0.45645 h 0.8592 l -0.705771,-3.11843 z m -0.264664,0.97427 0.195621,0.79399 -0.678921,2.47787 q -0.03069,0.1074 -0.03069,0.19946 0,0.24165 0.226307,0.34521 l 0.13425,0.0614 q 0.126579,0.0575 0.126579,0.19179 0,0.19179 -0.280007,0.19179 h -0.974271 q -0.141921,0 -0.226307,-0.0575 -0.08055,-0.0614 -0.08055,-0.16494 0,-0.11123 0.168771,-0.18411 0.157264,-0.069 0.230143,-0.12274 0.07671,-0.0575 0.145757,-0.15343 0.1074,-0.15726 0.176443,-0.41809 z m 1.979227,-2.21321 -1.054821,0.82085 -0.06904,0.0537 q -0.06904,0.0537 -0.122742,0.0537 h -0.280007 q -0.04603,0 -0.07672,-0.0154 -0.03069,-0.0192 -0.03069,-0.0422 0,-0.023 0.01534,-0.0499 l 0.575356,-0.88989 q 0.06137,-0.0997 0.103565,-0.12274 0.04219,-0.023 0.153428,-0.023 h 0.763307 q 0.04986,0 0.08439,0.0269 0.03452,0.023 0.03836,0.0614 0.0038,0.0499 -0.09973,0.12657 z" />
        <path
           inkscape:connector-curvature="0"
           id="path851"
           style="font-style:normal;font-variant:normal;font-weight:normal;font-stretch:normal;font-family:Stencil;-inkscape-font-specification:Stencil;text-align:center;text-anchor:middle;fill:#ffffff;stroke-width:0.264583"
           d="m 49.864074,279.63489 v 4.50696 q 0,0.14959 0.05753,0.2148 0.03069,0.0384 0.05754,0.0499 0.02685,0.008 0.176443,0.046 0.184114,0.0422 0.184114,0.21097 0,0.0997 -0.09973,0.1611 -0.07288,0.046 -0.24165,0.046 h -0.130415 -1.710727 -0.09973 q -0.138085,0 -0.214799,-0.0499 -0.07288,-0.0537 -0.07288,-0.14959 0,-0.15727 0.153429,-0.20713 0.126578,-0.0422 0.145757,-0.0499 0.02301,-0.0115 0.04603,-0.046 0.04603,-0.0614 0.04603,-0.19562 v -3.83955 q 0,-0.13425 -0.04603,-0.19562 -0.02301,-0.0345 -0.04603,-0.0422 -0.01918,-0.0115 -0.145757,-0.0537 -0.153429,-0.0499 -0.153429,-0.20712 0,-0.0959 0.07288,-0.14576 0.07671,-0.0537 0.214799,-0.0537 h 0.09973 z m 1.177563,2.66965 q 0.352886,0.0537 0.540836,0.11891 0.191785,0.0652 0.345214,0.17644 0.1611,0.11891 0.245485,0.28385 0.08822,0.16493 0.08822,0.34905 v 0.79399 q 0,0.12274 0.08055,0.12274 0.03069,0 0.04986,-0.0153 0.02301,-0.0192 0.06137,-0.069 0.09589,-0.13042 0.195622,-0.13042 0.06521,0 0.130414,0.069 0.06521,0.069 0.06521,0.13808 0,0.11891 -0.115071,0.29151 -0.111236,0.16878 -0.280007,0.30303 -0.157265,0.12657 -0.341379,0.18027 -0.184114,0.0575 -0.433435,0.0575 -0.506314,0 -0.790157,-0.28768 -0.283843,-0.29151 -0.283843,-0.80933 v -0.6444 q 0,-0.2148 -0.0038,-0.24932 -0.01918,-0.15343 -0.1074,-0.26467 -0.111236,-0.13425 -0.318364,-0.15726 v -0.41042 q 0.207128,-0.0307 0.29535,-0.1074 0.07671,-0.0691 0.103564,-0.15727 0.03068,-0.0882 0.03068,-0.26083 v -1.01646 q 0,-0.24165 -0.09589,-0.36056 -0.09206,-0.1189 -0.337543,-0.18795 v -0.42576 h 0.09973 q 0.425764,0 0.724949,0.0307 0.444943,0.0422 0.793992,0.29152 0.502479,0.35672 0.502479,1.01646 0,0.54084 -0.337543,0.88605 -0.141921,0.14576 -0.333707,0.23782 -0.18795,0.092 -0.575357,0.20712 z" />
        <path
           inkscape:connector-curvature="0"
           id="path853"
           style="font-style:normal;font-variant:normal;font-weight:normal;font-stretch:normal;font-family:Stencil;-inkscape-font-specification:Stencil;text-align:center;text-anchor:middle;fill:#ffffff;stroke-width:0.264583"
           d="m 55.360648,284.87064 h -1.710727 -0.09973 q -0.138085,0 -0.2148,-0.0499 -0.07288,-0.0537 -0.07288,-0.14959 0,-0.15727 0.153428,-0.20713 0.126579,-0.0422 0.145757,-0.0499 0.02302,-0.0115 0.04603,-0.046 0.04603,-0.0614 0.04603,-0.19562 v -3.83955 q 0,-0.13425 -0.04603,-0.19562 -0.02301,-0.0345 -0.04603,-0.0422 -0.01918,-0.0115 -0.145757,-0.0537 -0.153428,-0.0499 -0.153428,-0.20712 0,-0.0959 0.07288,-0.14576 0.07672,-0.0537 0.2148,-0.0537 h 0.09973 1.710727 0.09973 q 0.138085,0 0.210964,0.0537 0.07671,0.0499 0.07671,0.14576 0,0.15726 -0.153428,0.20712 -0.126579,0.0422 -0.149593,0.0537 -0.01918,0.008 -0.04219,0.0422 -0.04603,0.0614 -0.04603,0.19562 v 3.83955 q 0,0.13425 0.04603,0.19562 0.02301,0.0345 0.04219,0.046 0.02301,0.008 0.149593,0.0499 0.153428,0.0499 0.153428,0.20713 0,0.0959 -0.07671,0.14959 -0.07288,0.0499 -0.210964,0.0499 z" />
        <path
           inkscape:connector-curvature="0"
           id="path855"
           style="font-style:normal;font-variant:normal;font-weight:normal;font-stretch:normal;font-family:Stencil;-inkscape-font-specification:Stencil;text-align:center;text-anchor:middle;fill:#ffffff;stroke-width:0.264583"
           d="m 58.394696,279.94558 q -0.195622,0.069 -0.276172,0.18795 -0.08055,0.11891 -0.08055,0.34905 v 3.42913 q 0,0.33754 0.09206,0.47563 0.07288,0.11507 0.264665,0.16493 v 0.42193 q -0.851528,-0.069 -1.426885,-0.64056 -0.747964,-0.74413 -0.747964,-2.07512 0,-0.66742 0.195621,-1.20442 0.199457,-0.54083 0.586864,-0.91673 0.29535,-0.28768 0.636728,-0.43727 0.341379,-0.1496 0.755636,-0.16877 z m 0.314528,0 v -0.41425 q 0.414257,0.0192 0.755635,0.16877 0.345214,0.14959 0.640564,0.43727 0.782485,0.7633 0.782485,2.12115 0,1.33099 -0.747964,2.07512 -0.575356,0.57535 -1.43072,0.64056 v -0.42193 q 0.09973,-0.023 0.153428,-0.0575 0.05754,-0.0384 0.103565,-0.1074 0.103564,-0.15727 0.103564,-0.47563 v -3.42913 q 0,-0.20329 -0.06904,-0.3222 -0.04603,-0.0805 -0.111236,-0.12658 -0.06137,-0.046 -0.180278,-0.0882 z" />
        <path
           inkscape:connector-curvature="0"
           id="path857"
           style="font-style:normal;font-variant:normal;font-weight:normal;font-stretch:normal;font-family:Stencil;-inkscape-font-specification:Stencil;text-align:center;text-anchor:middle;fill:#ffffff;stroke-width:0.264583"
           d="m 65.425555,284.87064 h -1.710727 -0.09973 q -0.138085,0 -0.2148,-0.0499 -0.07288,-0.0537 -0.07288,-0.14959 0,-0.15727 0.153428,-0.20713 0.126579,-0.0422 0.145757,-0.0499 0.02302,-0.0115 0.04603,-0.046 0.04603,-0.0614 0.04603,-0.19562 v -3.83955 q 0,-0.13425 -0.04603,-0.19562 -0.02301,-0.0345 -0.04603,-0.0422 -0.01918,-0.0115 -0.145757,-0.0537 -0.153428,-0.0499 -0.153428,-0.20712 0,-0.0959 0.07288,-0.14576 0.07672,-0.0537 0.2148,-0.0537 h 0.09973 1.710727 0.09973 q 0.138085,0 0.210964,0.0537 0.07671,0.0499 0.07671,0.14576 0,0.15726 -0.153428,0.20712 -0.126579,0.0422 -0.149593,0.0537 -0.01918,0.008 -0.04219,0.0422 -0.04603,0.0614 -0.04603,0.19562 v 3.83955 q 0,0.13425 0.04603,0.19562 0.02301,0.0345 0.04219,0.046 0.02301,0.008 0.149593,0.0499 0.153428,0.0499 0.153428,0.20713 0,0.0959 -0.07671,0.14959 -0.07288,0.0499 -0.210964,0.0499 z" />
        <path
           inkscape:connector-curvature="0"
           id="path859"
           style="font-style:normal;font-variant:normal;font-weight:normal;font-stretch:normal;font-family:Stencil;-inkscape-font-specification:Stencil;text-align:center;text-anchor:middle;fill:#ffffff;stroke-width:0.264583"
           d="m 68.613035,279.63489 2.040599,3.5442 v 1.69155 h -1.04715 l -2.604448,-4.48779 q -0.08439,-0.14575 -0.138086,-0.20329 -0.0537,-0.0575 -0.138085,-0.0844 l -0.145757,-0.0537 q -0.05754,-0.0192 -0.09206,-0.069 -0.03452,-0.0499 -0.03452,-0.11123 0,-0.0652 0.03452,-0.11891 0.03452,-0.0575 0.09206,-0.0806 0.06521,-0.0269 0.352885,-0.0269 z m -1.607163,1.34633 0.406585,0.67509 v 2.05594 q 0,0.2685 0.08822,0.44111 0.09206,0.1726 0.287678,0.28384 l 0.115071,0.0652 q 0.09973,0.0575 0.09973,0.1726 0,0.0882 -0.07288,0.14576 -0.06137,0.0499 -0.253157,0.0499 H 66.79107 q -0.34905,0 -0.34905,-0.19946 0,-0.069 0.03452,-0.1074 0.03836,-0.0422 0.1611,-0.11124 0.368229,-0.20329 0.368229,-0.74029 z m 3.647762,1.58415 -0.406586,-0.68659 v -1.06249 q 0,-0.3222 -0.09589,-0.49097 -0.09206,-0.17261 -0.329871,-0.29535 -0.08055,-0.0384 -0.111235,-0.0806 -0.03069,-0.046 -0.03069,-0.11507 0,-0.10357 0.06521,-0.1496 0.06904,-0.0499 0.218636,-0.0499 h 0.958927 q 0.195622,0 0.256993,0.0614 0.06521,0.0614 0.06521,0.14576 0,0.0806 -0.03836,0.12274 -0.03452,0.0384 -0.172607,0.1074 -0.203293,0.10356 -0.306857,0.31836 -0.07288,0.15727 -0.07288,0.42577 z" />
        <path
           inkscape:connector-curvature="0"
           id="path861"
           style="font-style:normal;font-variant:normal;font-weight:normal;font-stretch:normal;font-family:Stencil;-inkscape-font-specification:Stencil;text-align:center;text-anchor:middle;fill:#ffffff;stroke-width:0.264583"
           d="m 74.585238,279.63489 v 4.50696 q 0,0.14959 0.05754,0.2148 0.03069,0.0384 0.05754,0.0499 0.02685,0.008 0.176443,0.046 0.184114,0.0422 0.184114,0.21097 0,0.0997 -0.09973,0.1611 -0.07288,0.046 -0.245485,0.046 h -0.126579 -1.710727 -0.126579 q -0.168771,0 -0.256992,-0.0499 -0.08439,-0.0537 -0.08439,-0.15726 0,-0.16877 0.184114,-0.21097 0.149593,-0.0383 0.176443,-0.046 0.02685,-0.0115 0.0537,-0.0499 0.05754,-0.0652 0.05754,-0.2148 v -4.50696 z m 1.327156,0 v 1.56881 q 0,0.11123 -0.06521,0.18027 -0.06137,0.0691 -0.1611,0.0691 -0.09589,0 -0.1611,-0.0614 -0.06137,-0.0652 -0.08055,-0.17645 l -0.03836,-0.23398 q -0.05754,-0.35672 -0.222471,-0.61755 -0.103565,-0.1611 -0.280007,-0.26466 v -0.46412 z m -4.349697,0 h 1.008792 v 0.46412 q -0.180279,0.10356 -0.280007,0.26466 -0.164936,0.26083 -0.222471,0.61755 l -0.03836,0.23398 q -0.01918,0.11124 -0.08439,0.17645 -0.06137,0.0614 -0.157264,0.0614 -0.09973,0 -0.164936,-0.0691 -0.06137,-0.069 -0.06137,-0.18027 z" />
        <path
           inkscape:connector-curvature="0"
           id="path863"
           style="font-style:normal;font-variant:normal;font-weight:normal;font-stretch:normal;font-family:Stencil;-inkscape-font-specification:Stencil;text-align:center;text-anchor:middle;fill:#ffffff;stroke-width:0.264583"
           d="m 78.478482,279.63489 v 5.23575 H 76.77159 76.67186 q -0.138086,0 -0.2148,-0.0499 -0.07288,-0.0537 -0.07288,-0.14959 0,-0.15727 0.153428,-0.20713 0.126579,-0.0422 0.145757,-0.0499 0.02301,-0.0115 0.04603,-0.046 0.04603,-0.0614 0.04603,-0.19562 v -3.83955 q 0,-0.13425 -0.04603,-0.19562 -0.02302,-0.0345 -0.04603,-0.0422 -0.01918,-0.0115 -0.145757,-0.0537 -0.153428,-0.0499 -0.153428,-0.20712 0,-0.0959 0.07288,-0.14576 0.07671,-0.0537 0.2148,-0.0537 h 0.09973 z m 0.341379,0 h 1.545792 v 1.35784 q 0,0.11891 -0.04603,0.17261 -0.04603,0.0537 -0.145757,0.0537 -0.08439,0 -0.122743,-0.0345 -0.03836,-0.0345 -0.07288,-0.14192 -0.145757,-0.44495 -0.4296,-0.67893 -0.280007,-0.23397 -0.728785,-0.28 z m -0.01918,2.7924 v -0.44495 q 0.222471,-0.10739 0.329871,-0.23397 0.1074,-0.12658 0.157264,-0.33755 0.03069,-0.14575 0.08055,-0.19945 0.04986,-0.0575 0.141922,-0.0575 0.122743,0 0.168771,0.0959 0.02685,0.0499 0.02685,0.22631 v 1.46141 q 0,0.18028 -0.04219,0.24932 -0.03836,0.069 -0.145757,0.069 -0.08822,0 -0.138085,-0.0537 -0.04986,-0.0537 -0.08055,-0.18028 -0.06521,-0.26466 -0.18795,-0.40658 -0.118907,-0.14192 -0.310693,-0.18795 z m 0.02301,2.44335 v -0.41426 q 0.249322,-0.0384 0.410422,-0.1074 0.164935,-0.069 0.329871,-0.21096 0.164935,-0.14193 0.260828,-0.29152 0.09973,-0.15343 0.18795,-0.40275 0.04219,-0.12274 0.08822,-0.16493 0.04603,-0.046 0.126579,-0.046 0.1074,0 0.149593,0.0652 0.04219,0.0614 0.04219,0.21864 v 1.35401 z" />
        <path
           inkscape:connector-curvature="0"
           id="path865"
           style="font-style:normal;font-variant:normal;font-weight:normal;font-stretch:normal;font-family:Stencil;-inkscape-font-specification:Stencil;text-align:center;text-anchor:middle;fill:#ffffff;stroke-width:0.264583"
           d="m 83.096681,279.63489 v 4.50696 q 0,0.14959 0.05754,0.2148 0.03069,0.0384 0.05754,0.0499 0.02685,0.008 0.176443,0.046 0.184114,0.0422 0.184114,0.21097 0,0.0997 -0.09973,0.1611 -0.07288,0.046 -0.241649,0.046 h -0.130415 -1.710727 -0.09973 q -0.138085,0 -0.214799,-0.0499 -0.07288,-0.0537 -0.07288,-0.14959 0,-0.15727 0.153428,-0.20713 0.126579,-0.0422 0.145758,-0.0499 0.02301,-0.0115 0.04603,-0.046 0.04603,-0.0614 0.04603,-0.19562 v -3.83955 q 0,-0.13425 -0.04603,-0.19562 -0.02301,-0.0345 -0.04603,-0.0422 -0.01918,-0.0115 -0.145758,-0.0537 -0.153428,-0.0499 -0.153428,-0.20712 0,-0.0959 0.07288,-0.14576 0.07671,-0.0537 0.214799,-0.0537 h 0.09973 z m 1.177563,2.66965 q 0.352886,0.0537 0.540836,0.11891 0.191785,0.0652 0.345214,0.17644 0.1611,0.11891 0.245485,0.28385 0.08822,0.16493 0.08822,0.34905 v 0.79399 q 0,0.12274 0.08055,0.12274 0.03069,0 0.04986,-0.0153 0.02301,-0.0192 0.06137,-0.069 0.09589,-0.13042 0.195621,-0.13042 0.06521,0 0.130415,0.069 0.06521,0.069 0.06521,0.13808 0,0.11891 -0.115072,0.29151 -0.111235,0.16878 -0.280007,0.30303 -0.157264,0.12657 -0.341378,0.18027 -0.184114,0.0575 -0.433435,0.0575 -0.506314,0 -0.790157,-0.28768 -0.283843,-0.29151 -0.283843,-0.80933 v -0.6444 q 0,-0.2148 -0.0038,-0.24932 -0.01918,-0.15343 -0.1074,-0.26467 -0.111236,-0.13425 -0.318364,-0.15726 v -0.41042 q 0.207128,-0.0307 0.295349,-0.1074 0.07672,-0.0691 0.103565,-0.15727 0.03068,-0.0882 0.03068,-0.26083 v -1.01646 q 0,-0.24165 -0.09589,-0.36056 -0.09206,-0.1189 -0.337543,-0.18795 v -0.42576 h 0.09973 q 0.425764,0 0.72495,0.0307 0.444943,0.0422 0.793992,0.29152 0.502479,0.35672 0.502479,1.01646 0,0.54084 -0.337543,0.88605 -0.141921,0.14576 -0.333707,0.23782 -0.18795,0.092 -0.575357,0.20712 z" />
        <path
           inkscape:connector-curvature="0"
           id="path867"
           style="font-style:normal;font-variant:normal;font-weight:normal;font-stretch:normal;font-family:Stencil;-inkscape-font-specification:Stencil;text-align:center;text-anchor:middle;fill:#ffffff;stroke-width:0.264583"
           d="m 88.589417,279.63489 v 5.23575 h -1.706891 -0.09973 q -0.138085,0 -0.2148,-0.0499 -0.07288,-0.0537 -0.07288,-0.14959 0,-0.15727 0.153428,-0.20713 0.126579,-0.0422 0.145757,-0.0499 0.02302,-0.0115 0.04603,-0.046 0.04603,-0.0614 0.04603,-0.19562 v -3.83955 q 0,-0.13425 -0.04603,-0.19562 -0.02301,-0.0345 -0.04603,-0.0422 -0.01918,-0.0115 -0.145757,-0.0537 -0.153428,-0.0499 -0.153428,-0.20712 0,-0.0959 0.07288,-0.14576 0.07671,-0.0537 0.2148,-0.0537 h 0.09973 z m 0.774814,4.13873 v -3.02637 q 0,-0.28001 -0.08055,-0.44495 -0.04986,-0.1074 -0.122742,-0.15726 -0.07288,-0.0499 -0.230143,-0.0844 v -0.42576 q 0.203293,0 0.345214,0.0153 0.487135,0.0537 0.943585,0.41426 0.452614,0.34905 0.67125,0.90906 0.226307,0.56769 0.226307,1.25812 0,0.78248 -0.287679,1.39236 -0.287678,0.60604 -0.824678,0.95509 -0.260828,0.16877 -0.487135,0.23014 -0.222472,0.0614 -0.586864,0.0614 v -0.41426 q 0.1611,-0.0422 0.222471,-0.0767 0.06521,-0.0345 0.111236,-0.1074 0.05754,-0.0844 0.07671,-0.18794 0.02301,-0.1074 0.02301,-0.3107 z" />
        <path
           inkscape:connector-curvature="0"
           id="path869"
           style="font-style:normal;font-variant:normal;font-weight:normal;font-stretch:normal;font-family:Stencil;-inkscape-font-specification:Stencil;text-align:center;text-anchor:middle;fill:#ffffff;stroke-width:0.264583"
           d="m 93.687079,284.87064 h -1.710727 -0.09973 q -0.138085,0 -0.214799,-0.0499 -0.07288,-0.0537 -0.07288,-0.14959 0,-0.15727 0.153429,-0.20713 0.126578,-0.0422 0.145757,-0.0499 0.02301,-0.0115 0.04603,-0.046 0.04603,-0.0614 0.04603,-0.19562 v -3.83955 q 0,-0.13425 -0.04603,-0.19562 -0.02301,-0.0345 -0.04603,-0.0422 -0.01918,-0.0115 -0.145757,-0.0537 -0.153429,-0.0499 -0.153429,-0.20712 0,-0.0959 0.07288,-0.14576 0.07671,-0.0537 0.214799,-0.0537 h 0.09973 1.710727 0.09973 q 0.138086,0 0.210964,0.0537 0.07671,0.0499 0.07671,0.14576 0,0.15726 -0.153428,0.20712 -0.126579,0.0422 -0.149593,0.0537 -0.01918,0.008 -0.04219,0.0422 -0.04603,0.0614 -0.04603,0.19562 v 3.83955 q 0,0.13425 0.04603,0.19562 0.02302,0.0345 0.04219,0.046 0.02301,0.008 0.149593,0.0499 0.153428,0.0499 0.153428,0.20713 0,0.0959 -0.07671,0.14959 -0.07288,0.0499 -0.210964,0.0499 z" />
        <path
           inkscape:connector-curvature="0"
           id="path871"
           style="font-style:normal;font-variant:normal;font-weight:normal;font-stretch:normal;font-family:Stencil;-inkscape-font-specification:Stencil;text-align:center;text-anchor:middle;fill:#ffffff;stroke-width:0.264583"
           d="m 96.471809,279.53133 v 0.4411 q -0.237814,0.0652 -0.364392,0.20329 -0.122743,0.13425 -0.122743,0.33371 0,0.19179 0.103564,0.33754 0.103564,0.14193 0.337543,0.27234 0.1611,0.0882 0.728785,0.33754 0.345214,0.1496 0.533164,0.27234 0.191786,0.11891 0.360557,0.29918 0.452614,0.47563 0.452614,1.13154 0,0.49481 -0.245486,0.90523 -0.245485,0.41042 -0.675085,0.6444 -0.230143,0.12274 -0.506314,0.19178 -0.272335,0.0729 -0.51015,0.0729 v -0.43727 q 0.333707,-0.0805 0.479464,-0.22247 0.149593,-0.14576 0.149593,-0.39124 0,-0.257 -0.230142,-0.45262 -0.153429,-0.12658 -0.583029,-0.31453 -0.471792,-0.20713 -0.648235,-0.29535 -0.172607,-0.0882 -0.333707,-0.20713 -0.721114,-0.51398 -0.721114,-1.36934 0,-0.43728 0.180279,-0.8055 0.180278,-0.37207 0.502478,-0.59838 0.448778,-0.31452 1.112356,-0.34904 z m 0.303022,0.4411 v -0.42193 q 0.230142,0.0154 0.398914,0.0614 0.168771,0.0422 0.479464,0.1726 0.07671,0.0307 0.126578,0.0307 0.07288,0 0.1074,-0.0499 l 0.08439,-0.11123 q 0.06137,-0.0844 0.149593,-0.0844 0.103564,0 0.149592,0.0767 0.04986,0.0729 0.04986,0.23397 v 1.26579 q 0,0.11124 -0.06521,0.18411 -0.06137,0.0691 -0.161099,0.0691 -0.07672,0 -0.141922,-0.0499 -0.03452,-0.0307 -0.05754,-0.0729 -0.01918,-0.046 -0.03836,-0.14959 -0.04219,-0.18795 -0.145757,-0.38741 -0.103564,-0.19945 -0.24165,-0.35672 -0.276171,-0.31069 -0.694263,-0.41042 z m -0.502479,4.5645 v 0.43727 q -0.314528,0 -0.694263,-0.18028 -0.141922,-0.0652 -0.195622,-0.0844 -0.0537,-0.0192 -0.103564,-0.0192 -0.07671,0 -0.115071,0.0269 -0.03836,0.023 -0.122743,0.12274 -0.06904,0.0844 -0.149593,0.0844 -0.2148,0 -0.2148,-0.32988 v -1.39619 q 0,-0.1074 0.06137,-0.18028 0.06137,-0.0767 0.153428,-0.0806 0.08439,-0.004 0.130414,0.0499 0.04986,0.0499 0.08439,0.18028 0.08822,0.32987 0.253157,0.61755 0.168771,0.28768 0.391243,0.48713 0.226307,0.20713 0.521656,0.26467 z" />
        <path
           inkscape:connector-curvature="0"
           id="path873"
           style="font-style:normal;font-variant:normal;font-weight:normal;font-stretch:normal;font-family:Stencil;-inkscape-font-specification:Stencil;text-align:center;text-anchor:middle;fill:#ffffff;stroke-width:0.264583"
           d="m 101.21658,279.53133 v 0.46412 q -0.2263,0.0345 -0.33754,0.19945 -0.11123,0.16494 -0.11123,0.4718 v 3.16829 0.16494 q 0,0.0882 0.0345,0.18795 0.0384,0.0959 0.0959,0.16493 0.0614,0.0767 0.13041,0.11124 0.069,0.0307 0.18795,0.0422 v 0.46796 q -0.74412,0 -1.292631,-0.38741 -0.483299,-0.34138 -0.728785,-0.91673 -0.245485,-0.57919 -0.245485,-1.36935 0,-0.57919 0.157264,-1.07784 0.1611,-0.50247 0.464121,-0.8707 0.306857,-0.37207 0.732616,-0.59837 0.4296,-0.22631 0.82468,-0.22631 z m 0.30303,0.46795 v -0.46412 q 0.18795,0.0307 0.30302,0.0652 0.1189,0.0345 0.42576,0.14575 0.19562,0.0691 0.26083,0.0691 0.11123,0 0.16877,-0.0997 l 0.0499,-0.0921 q 0.046,-0.092 0.17261,-0.092 0.10357,0 0.15727,0.0614 0.0575,0.0614 0.0575,0.18027 v 1.59566 q 0,0.15343 -0.069,0.22247 -0.069,0.0691 -0.15727,0.0691 -0.0921,0 -0.14959,-0.0575 -0.0537,-0.0614 -0.0882,-0.19562 -0.0806,-0.30302 -0.15726,-0.47563 -0.16494,-0.36439 -0.3759,-0.5907 -0.14192,-0.15343 -0.28385,-0.23398 -0.14192,-0.0844 -0.31452,-0.1074 z m 0.0115,4.97492 v -0.46796 q 0.29919,-0.023 0.62906,-0.2263 0.17644,-0.11124 0.31453,-0.29535 0.13808,-0.18795 0.20713,-0.41042 0.0383,-0.12275 0.0882,-0.17261 0.0537,-0.0537 0.13808,-0.0537 0.0921,0 0.15343,0.069 0.0614,0.069 0.0614,0.17261 0,0.17261 -0.13425,0.41809 -0.13041,0.24549 -0.33754,0.45261 -0.25316,0.25316 -0.52166,0.3759 -0.26466,0.12275 -0.59837,0.13809 z" />
        <path
           inkscape:connector-curvature="0"
           id="path875"
           style="font-style:normal;font-variant:normal;font-weight:normal;font-stretch:normal;font-family:Stencil;-inkscape-font-specification:Stencil;text-align:center;text-anchor:middle;fill:#ffffff;stroke-width:0.264583"
           d="m 105.79259,284.87064 h -1.71073 -0.0997 q -0.13809,0 -0.2148,-0.0499 -0.0729,-0.0537 -0.0729,-0.14959 0,-0.15727 0.15343,-0.20713 0.12658,-0.0422 0.14576,-0.0499 0.023,-0.0115 0.046,-0.046 0.046,-0.0614 0.046,-0.19562 v -3.83955 q 0,-0.13425 -0.046,-0.19562 -0.023,-0.0345 -0.046,-0.0422 -0.0192,-0.0115 -0.14576,-0.0537 -0.15343,-0.0499 -0.15343,-0.20712 0,-0.0959 0.0729,-0.14576 0.0767,-0.0537 0.2148,-0.0537 h 0.0997 1.71073 0.0997 q 0.13809,0 0.21097,0.0537 0.0767,0.0499 0.0767,0.14576 0,0.15726 -0.15343,0.20712 -0.12657,0.0422 -0.14959,0.0537 -0.0192,0.008 -0.0422,0.0422 -0.046,0.0614 -0.046,0.19562 v 3.83955 q 0,0.13425 0.046,0.19562 0.023,0.0345 0.0422,0.046 0.023,0.008 0.14959,0.0499 0.15343,0.0499 0.15343,0.20713 0,0.0959 -0.0767,0.14959 -0.0729,0.0499 -0.21097,0.0499 z" />
        <path
           inkscape:connector-curvature="0"
           id="path877"
           style="font-style:normal;font-variant:normal;font-weight:normal;font-stretch:normal;font-family:Stencil;-inkscape-font-specification:Stencil;text-align:center;text-anchor:middle;fill:#ffffff;stroke-width:0.264583"
           d="m 108.90335,279.63489 v 4.50696 q 0,0.14959 0.0575,0.2148 0.0307,0.0384 0.0575,0.0499 0.0268,0.008 0.17645,0.046 0.18411,0.0422 0.18411,0.21097 0,0.0997 -0.0997,0.1611 -0.0729,0.046 -0.24165,0.046 h -0.13041 -1.71073 -0.0997 q -0.13808,0 -0.2148,-0.0499 -0.0729,-0.0537 -0.0729,-0.14959 0,-0.15727 0.15343,-0.20713 0.12658,-0.0422 0.14576,-0.0499 0.023,-0.0115 0.046,-0.046 0.046,-0.0614 0.046,-0.19562 v -3.83955 q 0,-0.13425 -0.046,-0.19562 -0.023,-0.0345 -0.046,-0.0422 -0.0192,-0.0115 -0.14576,-0.0537 -0.15343,-0.0499 -0.15343,-0.20712 0,-0.0959 0.0729,-0.14576 0.0767,-0.0537 0.2148,-0.0537 h 0.0997 z m 0.32604,3.22967 v -0.41042 q 0.16493,-0.0384 0.23014,-0.0806 0.069,-0.0422 0.11891,-0.13042 0.0806,-0.14959 0.0806,-0.40275 V 280.613 q 0,-0.18028 -0.0268,-0.2685 -0.0269,-0.0882 -0.1074,-0.1611 -0.11124,-0.1074 -0.29919,-0.13425 v -0.41426 q 0.79016,0 1.16606,0.14959 0.43343,0.17261 0.68659,0.52933 0.25699,0.36439 0.25699,0.89372 0,0.5907 -0.26083,0.9666 -0.26082,0.37206 -0.72878,0.54851 -0.38741,0.14192 -1.11619,0.14192 z" />
        <path
           inkscape:connector-curvature="0"
           id="path879"
           style="font-style:normal;font-variant:normal;font-weight:normal;font-stretch:normal;font-family:Stencil;-inkscape-font-specification:Stencil;text-align:center;text-anchor:middle;fill:#ffffff;stroke-width:0.264583"
           d="m 113.90512,284.87064 h -1.70689 -0.0997 q -0.13808,0 -0.2148,-0.0499 -0.0729,-0.0537 -0.0729,-0.14959 0,-0.15727 0.15343,-0.20713 0.12658,-0.0422 0.14576,-0.0499 0.023,-0.0115 0.046,-0.046 0.046,-0.0614 0.046,-0.19562 v -3.83955 q 0,-0.13425 -0.046,-0.19562 -0.023,-0.0345 -0.046,-0.0422 -0.0192,-0.0115 -0.14576,-0.0537 -0.15343,-0.0499 -0.15343,-0.20712 0,-0.0959 0.0729,-0.14576 0.0767,-0.0537 0.2148,-0.0537 h 0.0997 1.71073 0.13041 q 0.16877,0 0.24165,0.046 0.0997,0.0614 0.0997,0.1611 0,0.16877 -0.18411,0.21096 -0.1496,0.0345 -0.17645,0.046 -0.0268,0.0115 -0.0575,0.046 -0.0575,0.069 -0.0575,0.2148 z m 0.31069,0 v -0.4296 q 0.18795,-0.0345 0.29535,-0.0767 0.11124,-0.0422 0.21097,-0.12274 0.1611,-0.12658 0.29535,-0.34905 0.13425,-0.22247 0.21863,-0.49481 0.0614,-0.21096 0.11124,-0.27617 0.0537,-0.069 0.15343,-0.069 0.1074,0 0.15726,0.0882 0.023,0.0422 0.023,0.16877 v 1.56114 z" />
        <path
           inkscape:connector-curvature="0"
           id="path881"
           style="font-style:normal;font-variant:normal;font-weight:normal;font-stretch:normal;font-family:Stencil;-inkscape-font-specification:Stencil;text-align:center;text-anchor:middle;fill:#ffffff;stroke-width:0.264583"
           d="m 118.09755,284.87064 h -1.71073 -0.0997 q -0.13808,0 -0.2148,-0.0499 -0.0729,-0.0537 -0.0729,-0.14959 0,-0.15727 0.15343,-0.20713 0.12658,-0.0422 0.14576,-0.0499 0.023,-0.0115 0.046,-0.046 0.046,-0.0614 0.046,-0.19562 v -3.83955 q 0,-0.13425 -0.046,-0.19562 -0.023,-0.0345 -0.046,-0.0422 -0.0192,-0.0115 -0.14576,-0.0537 -0.15343,-0.0499 -0.15343,-0.20712 0,-0.0959 0.0729,-0.14576 0.0767,-0.0537 0.2148,-0.0537 h 0.0997 1.71073 0.0997 q 0.13808,0 0.21096,0.0537 0.0767,0.0499 0.0767,0.14576 0,0.15726 -0.15343,0.20712 -0.12658,0.0422 -0.1496,0.0537 -0.0192,0.008 -0.0422,0.0422 -0.046,0.0614 -0.046,0.19562 v 3.83955 q 0,0.13425 0.046,0.19562 0.023,0.0345 0.0422,0.046 0.023,0.008 0.1496,0.0499 0.15343,0.0499 0.15343,0.20713 0,0.0959 -0.0767,0.14959 -0.0729,0.0499 -0.21096,0.0499 z" />
        <path
           inkscape:connector-curvature="0"
           id="path883"
           style="font-style:normal;font-variant:normal;font-weight:normal;font-stretch:normal;font-family:Stencil;-inkscape-font-specification:Stencil;text-align:center;text-anchor:middle;fill:#ffffff;stroke-width:0.264583"
           d="m 121.28503,279.63489 2.0406,3.5442 v 1.69155 h -1.04715 l -2.60445,-4.48779 q -0.0844,-0.14575 -0.13809,-0.20329 -0.0537,-0.0575 -0.13808,-0.0844 l -0.14576,-0.0537 q -0.0575,-0.0192 -0.0921,-0.069 -0.0345,-0.0499 -0.0345,-0.11123 0,-0.0652 0.0345,-0.11891 0.0345,-0.0575 0.0921,-0.0806 0.0652,-0.0269 0.35289,-0.0269 z m -1.60717,1.34633 0.40659,0.67509 v 2.05594 q 0,0.2685 0.0882,0.44111 0.0921,0.1726 0.28768,0.28384 l 0.11507,0.0652 q 0.0997,0.0575 0.0997,0.1726 0,0.0882 -0.0729,0.14576 -0.0614,0.0499 -0.25316,0.0499 H 119.463 q -0.34905,0 -0.34905,-0.19946 0,-0.069 0.0345,-0.1074 0.0384,-0.0422 0.1611,-0.11124 0.36822,-0.20329 0.36822,-0.74029 z m 3.64777,1.58415 -0.40659,-0.68659 v -1.06249 q 0,-0.3222 -0.0959,-0.49097 -0.0921,-0.17261 -0.32987,-0.29535 -0.0806,-0.0384 -0.11124,-0.0806 -0.0307,-0.046 -0.0307,-0.11507 0,-0.10357 0.0652,-0.1496 0.069,-0.0499 0.21864,-0.0499 h 0.95893 q 0.19562,0 0.25699,0.0614 0.0652,0.0614 0.0652,0.14576 0,0.0806 -0.0384,0.12274 -0.0345,0.0384 -0.17261,0.1074 -0.20329,0.10356 -0.30685,0.31836 -0.0729,0.15727 -0.0729,0.42577 z" />
        <path
           inkscape:connector-curvature="0"
           id="path885"
           style="font-style:normal;font-variant:normal;font-weight:normal;font-stretch:normal;font-family:Stencil;-inkscape-font-specification:Stencil;text-align:center;text-anchor:middle;fill:#ffffff;stroke-width:0.264583"
           d="m 125.93007,279.63489 h 1.5458 l 1.06632,4.50696 q 0.0307,0.11891 0.0691,0.21096 0.0345,0.0729 0.15343,0.11891 0.0997,0.0422 0.13808,0.0844 0.0384,0.0422 0.0384,0.11507 0,0.19946 -0.29919,0.19946 h -1.91402 q -0.11507,0 -0.18411,-0.0537 -0.069,-0.0575 -0.069,-0.1496 0,-0.0767 0.0307,-0.11507 0.0307,-0.0384 0.13809,-0.0959 0.0767,-0.0384 0.1074,-0.0844 0.0307,-0.046 0.0307,-0.11507 0,-0.0652 -0.0115,-0.11507 l -0.12275,-0.55618 h -1.07016 l 0.10356,-0.45645 h 0.8592 l -0.70577,-3.11843 z m -0.26466,0.97427 0.19562,0.79399 -0.67892,2.47787 q -0.0307,0.1074 -0.0307,0.19946 0,0.24165 0.2263,0.34521 l 0.13425,0.0614 q 0.12658,0.0575 0.12658,0.19179 0,0.19179 -0.28001,0.19179 h -0.97427 q -0.14192,0 -0.2263,-0.0575 -0.0805,-0.0614 -0.0805,-0.16494 0,-0.11123 0.16877,-0.18411 0.15726,-0.069 0.23014,-0.12274 0.0767,-0.0575 0.14576,-0.15343 0.1074,-0.15726 0.17644,-0.41809 z" />
        <path
           inkscape:connector-curvature="0"
           id="path887"
           style="font-style:normal;font-variant:normal;font-weight:normal;font-stretch:normal;font-family:Stencil;-inkscape-font-specification:Stencil;text-align:center;text-anchor:middle;fill:#ffffff;stroke-width:0.264583"
           d="m 131.34994,279.63489 v 4.50696 q 0,0.14959 0.0575,0.2148 0.0307,0.0384 0.0575,0.0499 0.0268,0.008 0.17644,0.046 0.18412,0.0422 0.18412,0.21097 0,0.0997 -0.0997,0.1611 -0.0729,0.046 -0.24165,0.046 h -0.13042 -1.71072 -0.0997 q -0.13809,0 -0.2148,-0.0499 -0.0729,-0.0537 -0.0729,-0.14959 0,-0.15727 0.15343,-0.20713 0.12658,-0.0422 0.14576,-0.0499 0.023,-0.0115 0.046,-0.046 0.046,-0.0614 0.046,-0.19562 v -3.83955 q 0,-0.13425 -0.046,-0.19562 -0.023,-0.0345 -0.046,-0.0422 -0.0192,-0.0115 -0.14576,-0.0537 -0.15343,-0.0499 -0.15343,-0.20712 0,-0.0959 0.0729,-0.14576 0.0767,-0.0537 0.2148,-0.0537 h 0.0997 z m 1.17756,2.66965 q 0.35289,0.0537 0.54084,0.11891 0.19178,0.0652 0.34521,0.17644 0.1611,0.11891 0.24549,0.28385 0.0882,0.16493 0.0882,0.34905 v 0.79399 q 0,0.12274 0.0805,0.12274 0.0307,0 0.0499,-0.0153 0.023,-0.0192 0.0614,-0.069 0.0959,-0.13042 0.19563,-0.13042 0.0652,0 0.13041,0.069 0.0652,0.069 0.0652,0.13808 0,0.11891 -0.11507,0.29151 -0.11124,0.16878 -0.28001,0.30303 -0.15727,0.12657 -0.34138,0.18027 -0.18411,0.0575 -0.43344,0.0575 -0.50631,0 -0.79015,-0.28768 -0.28384,-0.29151 -0.28384,-0.80933 v -0.6444 q 0,-0.2148 -0.004,-0.24932 -0.0192,-0.15343 -0.1074,-0.26467 -0.11124,-0.13425 -0.31836,-0.15726 v -0.41042 q 0.20712,-0.0307 0.29535,-0.1074 0.0767,-0.0691 0.10356,-0.15727 0.0307,-0.0882 0.0307,-0.26083 v -1.01646 q 0,-0.24165 -0.0959,-0.36056 -0.0921,-0.1189 -0.33754,-0.18795 v -0.42576 h 0.0997 q 0.42576,0 0.72495,0.0307 0.44494,0.0422 0.79399,0.29152 0.50248,0.35672 0.50248,1.01646 0,0.54084 -0.33754,0.88605 -0.14193,0.14576 -0.33371,0.23782 -0.18795,0.092 -0.57536,0.20712 z" />
        <path
           inkscape:connector-curvature="0"
           id="path889"
           style="font-style:normal;font-variant:normal;font-weight:normal;font-stretch:normal;font-family:Stencil;-inkscape-font-specification:Stencil;text-align:center;text-anchor:middle;fill:#ffffff;stroke-width:0.264583"
           d="m 138.80656,284.87064 h -1.70689 -0.0997 q -0.13809,0 -0.2148,-0.0499 -0.0729,-0.0537 -0.0729,-0.14959 0,-0.15727 0.15343,-0.20713 0.12658,-0.0422 0.14575,-0.0499 0.023,-0.0115 0.046,-0.046 0.046,-0.0614 0.046,-0.19562 v -3.83955 q 0,-0.13425 -0.046,-0.19562 -0.023,-0.0345 -0.046,-0.0422 -0.0192,-0.0115 -0.14575,-0.0537 -0.15343,-0.0499 -0.15343,-0.20712 0,-0.0959 0.0729,-0.14576 0.0767,-0.0537 0.2148,-0.0537 h 0.0997 1.71072 0.13042 q 0.16877,0 0.24165,0.046 0.0997,0.0614 0.0997,0.1611 0,0.16877 -0.18412,0.21096 -0.14959,0.0345 -0.17644,0.046 -0.0268,0.0115 -0.0575,0.046 -0.0575,0.069 -0.0575,0.2148 z m 0.31069,0 v -0.4296 q 0.18795,-0.0345 0.29535,-0.0767 0.11124,-0.0422 0.21096,-0.12274 0.1611,-0.12658 0.29535,-0.34905 0.13425,-0.22247 0.21864,-0.49481 0.0614,-0.21096 0.11124,-0.27617 0.0537,-0.069 0.15342,-0.069 0.1074,0 0.15727,0.0882 0.023,0.0422 0.023,0.16877 v 1.56114 z" />
        <path
           inkscape:connector-curvature="0"
           id="path891"
           style="font-style:normal;font-variant:normal;font-weight:normal;font-stretch:normal;font-family:Stencil;-inkscape-font-specification:Stencil;text-align:center;text-anchor:middle;fill:#ffffff;stroke-width:0.264583"
           d="m 142.99899,284.87064 h -1.71073 -0.0997 q -0.13809,0 -0.2148,-0.0499 -0.0729,-0.0537 -0.0729,-0.14959 0,-0.15727 0.15343,-0.20713 0.12657,-0.0422 0.14575,-0.0499 0.023,-0.0115 0.046,-0.046 0.046,-0.0614 0.046,-0.19562 v -3.83955 q 0,-0.13425 -0.046,-0.19562 -0.023,-0.0345 -0.046,-0.0422 -0.0192,-0.0115 -0.14575,-0.0537 -0.15343,-0.0499 -0.15343,-0.20712 0,-0.0959 0.0729,-0.14576 0.0767,-0.0537 0.2148,-0.0537 h 0.0997 1.71073 0.0997 q 0.13809,0 0.21096,0.0537 0.0767,0.0499 0.0767,0.14576 0,0.15726 -0.15343,0.20712 -0.12658,0.0422 -0.14959,0.0537 -0.0192,0.008 -0.0422,0.0422 -0.046,0.0614 -0.046,0.19562 v 3.83955 q 0,0.13425 0.046,0.19562 0.023,0.0345 0.0422,0.046 0.023,0.008 0.14959,0.0499 0.15343,0.0499 0.15343,0.20713 0,0.0959 -0.0767,0.14959 -0.0729,0.0499 -0.21096,0.0499 z" />
        <path
           inkscape:connector-curvature="0"
           id="path893"
           style="font-style:normal;font-variant:normal;font-weight:normal;font-stretch:normal;font-family:Stencil;-inkscape-font-specification:Stencil;text-align:center;text-anchor:middle;fill:#ffffff;stroke-width:0.264583"
           d="m 146.18647,279.63489 2.0406,3.5442 v 1.69155 h -1.04715 l -2.60445,-4.48779 q -0.0844,-0.14575 -0.13808,-0.20329 -0.0537,-0.0575 -0.13809,-0.0844 l -0.14576,-0.0537 q -0.0575,-0.0192 -0.0921,-0.069 -0.0345,-0.0499 -0.0345,-0.11123 0,-0.0652 0.0345,-0.11891 0.0345,-0.0575 0.0921,-0.0806 0.0652,-0.0269 0.35289,-0.0269 z m -1.60716,1.34633 0.40658,0.67509 v 2.05594 q 0,0.2685 0.0882,0.44111 0.0921,0.1726 0.28767,0.28384 l 0.11507,0.0652 q 0.0997,0.0575 0.0997,0.1726 0,0.0882 -0.0729,0.14576 -0.0614,0.0499 -0.25315,0.0499 h -0.88605 q -0.34905,0 -0.34905,-0.19946 0,-0.069 0.0345,-0.1074 0.0384,-0.0422 0.1611,-0.11124 0.36823,-0.20329 0.36823,-0.74029 z m 3.64776,1.58415 -0.40659,-0.68659 v -1.06249 q 0,-0.3222 -0.0959,-0.49097 -0.0921,-0.17261 -0.32987,-0.29535 -0.0806,-0.0384 -0.11123,-0.0806 -0.0307,-0.046 -0.0307,-0.11507 0,-0.10357 0.0652,-0.1496 0.069,-0.0499 0.21863,-0.0499 h 0.95893 q 0.19562,0 0.25699,0.0614 0.0652,0.0614 0.0652,0.14576 0,0.0806 -0.0384,0.12274 -0.0345,0.0384 -0.1726,0.1074 -0.2033,0.10356 -0.30686,0.31836 -0.0729,0.15727 -0.0729,0.42577 z" />
        <path
           inkscape:connector-curvature="0"
           id="path895"
           style="font-style:normal;font-variant:normal;font-weight:normal;font-stretch:normal;font-family:Stencil;-inkscape-font-specification:Stencil;text-align:center;text-anchor:middle;fill:#ffffff;stroke-width:0.264583"
           d="m 151.2918,279.53133 v 0.42576 q -0.33754,0.0806 -0.33754,0.537 v 3.57105 q 0,0.20712 0.0575,0.31836 0.0499,0.0921 0.21096,0.15726 v 0.43344 q -0.12274,0 -0.22631,-0.0192 -0.0997,-0.0192 -0.2685,-0.0767 -0.40275,-0.13809 -0.72878,-0.42193 -0.32604,-0.28384 -0.537,-0.67892 -0.32604,-0.61755 -0.32604,-1.46141 0,-0.817 0.29152,-1.4499 0.29151,-0.63289 0.83618,-0.99345 0.31453,-0.21096 0.67509,-0.30302 0.14959,-0.0383 0.35288,-0.0383 z m 0.31453,0.41809 v -0.41426 q 0.62522,0.0575 1.02797,0.23014 0.11891,0.0537 0.18412,0.0537 0.0614,0 0.0921,-0.0269 0.0345,-0.0307 0.13425,-0.16493 0.069,-0.0959 0.17261,-0.0959 0.1074,0 0.14959,0.0614 0.046,0.0575 0.046,0.19562 v 1.49209 q 0,0.29151 -0.2148,0.29151 -0.1074,0 -0.1611,-0.0575 -0.0499,-0.0575 -0.0959,-0.22631 -0.0575,-0.2148 -0.20713,-0.49864 -0.14959,-0.28768 -0.28768,-0.45262 -0.15726,-0.19178 -0.35288,-0.28 -0.19562,-0.0921 -0.48714,-0.1074 z m 1.73374,4.28065 q -0.15342,0.15343 -0.41042,0.31453 -0.25315,0.15726 -0.47946,0.24932 -0.20713,0.0805 -0.46029,0.13042 -0.24932,0.0499 -0.4411,0.0499 v -0.43344 q 0.11123,-0.0268 0.16493,-0.0652 0.0575,-0.0384 0.0959,-0.1074 0.0652,-0.11891 0.0652,-0.30302 v -1.12003 q 0,-0.14959 -0.0575,-0.2148 -0.0268,-0.0384 -0.0537,-0.046 -0.0268,-0.0115 -0.17645,-0.046 -0.18411,-0.046 -0.18411,-0.2148 0,-0.0997 0.0844,-0.15343 0.0882,-0.0537 0.257,-0.0537 h 0.12658 1.40387 q 0.1726,0 0.24165,0.0499 0.0729,0.046 0.0729,0.16493 0,0.0729 -0.0307,0.12275 -0.0268,0.046 -0.10357,0.0997 -0.0767,0.0537 -0.0959,0.0997 -0.0192,0.046 -0.0192,0.16877 z" />
        <path
           inkscape:connector-curvature="0"
           id="path897"
           style="font-style:normal;font-variant:normal;font-weight:normal;font-stretch:normal;font-family:Stencil;-inkscape-font-specification:Stencil;text-align:center;text-anchor:middle;fill:#ffffff;stroke-width:0.264583"
           d="m 154.49846,283.34019 v -3.0072 q 0,-0.13425 -0.046,-0.19562 -0.023,-0.0345 -0.046,-0.0422 -0.0192,-0.0115 -0.14575,-0.0537 -0.15343,-0.0499 -0.15343,-0.20329 0,-0.0997 0.0729,-0.14959 0.0767,-0.0537 0.2148,-0.0537 h 0.0997 1.71072 0.0997 l 0.13809,0.0153 q 0.0652,0.0192 0.1074,0.069 0.0422,0.0499 0.0422,0.11891 0,0.15343 -0.15343,0.20329 -0.12658,0.0422 -0.14959,0.0537 -0.0192,0.008 -0.0422,0.0422 -0.046,0.0614 -0.046,0.19562 v 3.21816 q 0,0.32604 0.0153,0.45645 0.0192,0.12658 0.0729,0.23014 0.0499,0.0959 0.11123,0.13809 0.0614,0.0422 0.23398,0.0959 v 0.50248 h -0.0844 q -0.49865,0 -0.82852,-0.0882 -0.3874,-0.10357 -0.67892,-0.30686 -0.29151,-0.20329 -0.41425,-0.45645 -0.13042,-0.2685 -0.13042,-0.78248 z m 2.48938,1.63401 v -0.50248 q 0.38357,-0.0499 0.64056,-0.31453 0.29152,-0.30302 0.29152,-0.8707 v -2.50089 q 0,-0.52549 -0.40275,-0.73262 -0.11891,-0.0614 -0.15727,-0.10356 -0.0345,-0.046 -0.0345,-0.13042 0,-0.0997 0.0729,-0.14192 0.0729,-0.0422 0.23781,-0.0422 h 0.93975 q 0.11891,0 0.15727,0.008 0.0422,0.004 0.0805,0.0269 0.0997,0.0575 0.0997,0.15726 0,0.0844 -0.0614,0.14193 -0.0192,0.0192 -0.16493,0.10356 -0.16877,0.0921 -0.26467,0.28384 -0.0959,0.18795 -0.0959,0.4296 v 2.50472 q 0,0.6444 -0.28384,1.05866 -0.20713,0.30686 -0.59454,0.49097 -0.19178,0.0921 -0.46028,0.13425 z" />
        <path
           inkscape:connector-curvature="0"
           id="path899"
           style="font-style:normal;font-variant:normal;font-weight:normal;font-stretch:normal;font-family:Stencil;-inkscape-font-specification:Stencil;text-align:center;text-anchor:middle;fill:#ffffff;stroke-width:0.264583"
           d="m 161.03451,279.63489 h 1.54579 l 1.06633,4.50696 q 0.0307,0.11891 0.069,0.21096 0.0345,0.0729 0.15343,0.11891 0.0997,0.0422 0.13808,0.0844 0.0384,0.0422 0.0384,0.11507 0,0.19946 -0.29919,0.19946 h -1.91402 q -0.11507,0 -0.18411,-0.0537 -0.069,-0.0575 -0.069,-0.1496 0,-0.0767 0.0307,-0.11507 0.0307,-0.0384 0.13809,-0.0959 0.0767,-0.0384 0.1074,-0.0844 0.0307,-0.046 0.0307,-0.11507 0,-0.0652 -0.0115,-0.11507 l -0.12275,-0.55618 h -1.07016 l 0.10356,-0.45645 h 0.8592 l -0.70577,-3.11843 z m -0.26467,0.97427 0.19562,0.79399 -0.67892,2.47787 q -0.0307,0.1074 -0.0307,0.19946 0,0.24165 0.2263,0.34521 l 0.13425,0.0614 q 0.12658,0.0575 0.12658,0.19179 0,0.19179 -0.28001,0.19179 h -0.97427 q -0.14192,0 -0.2263,-0.0575 -0.0805,-0.0614 -0.0805,-0.16494 0,-0.11123 0.16877,-0.18411 0.15726,-0.069 0.23014,-0.12274 0.0767,-0.0575 0.14576,-0.15343 0.1074,-0.15726 0.17644,-0.41809 z" />
        <path
           inkscape:connector-curvature="0"
           id="path901"
           style="font-style:normal;font-variant:normal;font-weight:normal;font-stretch:normal;font-family:Stencil;-inkscape-font-specification:Stencil;text-align:center;text-anchor:middle;fill:#ffffff;stroke-width:0.264583"
           d="m 166.35848,279.53133 v 0.42576 q -0.33754,0.0806 -0.33754,0.537 v 3.57105 q 0,0.20712 0.0575,0.31836 0.0499,0.0921 0.21096,0.15726 v 0.43344 q -0.12274,0 -0.22631,-0.0192 -0.0997,-0.0192 -0.2685,-0.0767 -0.40274,-0.13809 -0.72878,-0.42193 -0.32604,-0.28384 -0.537,-0.67892 -0.32604,-0.61755 -0.32604,-1.46141 0,-0.817 0.29152,-1.4499 0.29151,-0.63289 0.83618,-0.99345 0.31453,-0.21096 0.67509,-0.30302 0.14959,-0.0383 0.35288,-0.0383 z m 0.31453,0.41809 v -0.41426 q 0.62522,0.0575 1.02797,0.23014 0.11891,0.0537 0.18412,0.0537 0.0614,0 0.0921,-0.0269 0.0345,-0.0307 0.13425,-0.16493 0.0691,-0.0959 0.17261,-0.0959 0.1074,0 0.14959,0.0614 0.046,0.0575 0.046,0.19562 v 1.49209 q 0,0.29151 -0.2148,0.29151 -0.1074,0 -0.1611,-0.0575 -0.0499,-0.0575 -0.0959,-0.22631 -0.0575,-0.2148 -0.20713,-0.49864 -0.14959,-0.28768 -0.28768,-0.45262 -0.15726,-0.19178 -0.35288,-0.28 -0.19562,-0.0921 -0.48714,-0.1074 z m 1.73374,4.28065 q -0.15342,0.15343 -0.41042,0.31453 -0.25315,0.15726 -0.47946,0.24932 -0.20713,0.0805 -0.46029,0.13042 -0.24932,0.0499 -0.4411,0.0499 v -0.43344 q 0.11123,-0.0268 0.16493,-0.0652 0.0575,-0.0384 0.0959,-0.1074 0.0652,-0.11891 0.0652,-0.30302 v -1.12003 q 0,-0.14959 -0.0575,-0.2148 -0.0268,-0.0384 -0.0537,-0.046 -0.0268,-0.0115 -0.17645,-0.046 -0.18411,-0.046 -0.18411,-0.2148 0,-0.0997 0.0844,-0.15343 0.0882,-0.0537 0.25699,-0.0537 h 0.12658 1.40387 q 0.1726,0 0.24165,0.0499 0.0729,0.046 0.0729,0.16493 0,0.0729 -0.0307,0.12275 -0.0268,0.046 -0.10356,0.0997 -0.0767,0.0537 -0.0959,0.0997 -0.0192,0.046 -0.0192,0.16877 z" />
        <path
           inkscape:connector-curvature="0"
           id="path903"
           style="font-style:normal;font-variant:normal;font-weight:normal;font-stretch:normal;font-family:Stencil;-inkscape-font-specification:Stencil;text-align:center;text-anchor:middle;fill:#ffffff;stroke-width:0.264583"
           d="m 171.33339,279.63489 v 5.23575 h -1.70689 -0.0997 q -0.13809,0 -0.2148,-0.0499 -0.0729,-0.0537 -0.0729,-0.14959 0,-0.15727 0.15343,-0.20713 0.12658,-0.0422 0.14576,-0.0499 0.023,-0.0115 0.046,-0.046 0.046,-0.0614 0.046,-0.19562 v -3.83955 q 0,-0.13425 -0.046,-0.19562 -0.023,-0.0345 -0.046,-0.0422 -0.0192,-0.0115 -0.14576,-0.0537 -0.15343,-0.0499 -0.15343,-0.20712 0,-0.0959 0.0729,-0.14576 0.0767,-0.0537 0.2148,-0.0537 h 0.0997 z m 0.34138,0 h 1.54579 v 1.35784 q 0,0.11891 -0.046,0.17261 -0.046,0.0537 -0.14576,0.0537 -0.0844,0 -0.12274,-0.0345 -0.0383,-0.0345 -0.0729,-0.14192 -0.14575,-0.44495 -0.4296,-0.67893 -0.28,-0.23397 -0.72878,-0.28 z m -0.0192,2.7924 v -0.44495 q 0.22247,-0.10739 0.32987,-0.23397 0.1074,-0.12658 0.15727,-0.33755 0.0307,-0.14575 0.0805,-0.19945 0.0499,-0.0575 0.14192,-0.0575 0.12274,0 0.16877,0.0959 0.0268,0.0499 0.0268,0.22631 v 1.46141 q 0,0.18028 -0.0422,0.24932 -0.0384,0.069 -0.14576,0.069 -0.0882,0 -0.13809,-0.0537 -0.0499,-0.0537 -0.0805,-0.18028 -0.0652,-0.26466 -0.18795,-0.40658 -0.1189,-0.14192 -0.31069,-0.18795 z m 0.023,2.44335 v -0.41426 q 0.24933,-0.0384 0.41043,-0.1074 0.16493,-0.069 0.32987,-0.21096 0.16493,-0.14193 0.26083,-0.29152 0.0997,-0.15343 0.18795,-0.40275 0.0422,-0.12274 0.0882,-0.16493 0.046,-0.046 0.12657,-0.046 0.1074,0 0.1496,0.0652 0.0422,0.0614 0.0422,0.21864 v 1.35401 z" />
        <path
           inkscape:connector-curvature="0"
           id="path905"
           style="font-style:normal;font-variant:normal;font-weight:normal;font-stretch:normal;font-family:Stencil;-inkscape-font-specification:Stencil;text-align:center;text-anchor:middle;fill:#ffffff;stroke-width:0.264583"
           d="m 176.02831,279.63489 2.0406,3.5442 v 1.69155 h -1.04715 l -2.60444,-4.48779 q -0.0844,-0.14575 -0.13809,-0.20329 -0.0537,-0.0575 -0.13809,-0.0844 l -0.14575,-0.0537 q -0.0575,-0.0192 -0.0921,-0.069 -0.0345,-0.0499 -0.0345,-0.11123 0,-0.0652 0.0345,-0.11891 0.0345,-0.0575 0.0921,-0.0806 0.0652,-0.0269 0.35288,-0.0269 z m -1.60716,1.34633 0.40659,0.67509 v 2.05594 q 0,0.2685 0.0882,0.44111 0.0921,0.1726 0.28768,0.28384 l 0.11507,0.0652 q 0.0997,0.0575 0.0997,0.1726 0,0.0882 -0.0729,0.14576 -0.0614,0.0499 -0.25316,0.0499 h -0.88605 q -0.34905,0 -0.34905,-0.19946 0,-0.069 0.0345,-0.1074 0.0384,-0.0422 0.1611,-0.11124 0.36823,-0.20329 0.36823,-0.74029 z m 3.64776,1.58415 -0.40658,-0.68659 v -1.06249 q 0,-0.3222 -0.0959,-0.49097 -0.0921,-0.17261 -0.32987,-0.29535 -0.0805,-0.0384 -0.11123,-0.0806 -0.0307,-0.046 -0.0307,-0.11507 0,-0.10357 0.0652,-0.1496 0.069,-0.0499 0.21863,-0.0499 h 0.95893 q 0.19562,0 0.257,0.0614 0.0652,0.0614 0.0652,0.14576 0,0.0806 -0.0383,0.12274 -0.0345,0.0384 -0.17261,0.1074 -0.20329,0.10356 -0.30686,0.31836 -0.0729,0.15727 -0.0729,0.42577 z" />
        <path
           inkscape:connector-curvature="0"
           id="path907"
           style="font-style:normal;font-variant:normal;font-weight:normal;font-stretch:normal;font-family:Stencil;-inkscape-font-specification:Stencil;text-align:center;text-anchor:middle;fill:#ffffff;stroke-width:0.264583"
           d="m 180.9035,279.53133 v 0.4411 q -0.23781,0.0652 -0.36439,0.20329 -0.12274,0.13425 -0.12274,0.33371 0,0.19179 0.10356,0.33754 0.10357,0.14193 0.33754,0.27234 0.1611,0.0882 0.72879,0.33754 0.34521,0.1496 0.53316,0.27234 0.19179,0.11891 0.36056,0.29918 0.45262,0.47563 0.45262,1.13154 0,0.49481 -0.24549,0.90523 -0.24549,0.41042 -0.67509,0.6444 -0.23014,0.12274 -0.50631,0.19178 -0.27234,0.0729 -0.51015,0.0729 v -0.43727 q 0.33371,-0.0805 0.47946,-0.22247 0.1496,-0.14576 0.1496,-0.39124 0,-0.257 -0.23015,-0.45262 -0.15342,-0.12658 -0.58302,-0.31453 -0.4718,-0.20713 -0.64824,-0.29535 -0.17261,-0.0882 -0.33371,-0.20713 -0.72111,-0.51398 -0.72111,-1.36934 0,-0.43728 0.18028,-0.8055 0.18028,-0.37207 0.50248,-0.59838 0.44878,-0.31452 1.11235,-0.34904 z m 0.30302,0.4411 v -0.42193 q 0.23015,0.0154 0.39892,0.0614 0.16877,0.0422 0.47946,0.1726 0.0767,0.0307 0.12658,0.0307 0.0729,0 0.1074,-0.0499 l 0.0844,-0.11123 q 0.0614,-0.0844 0.14959,-0.0844 0.10356,0 0.14959,0.0767 0.0499,0.0729 0.0499,0.23397 v 1.26579 q 0,0.11124 -0.0652,0.18411 -0.0614,0.0691 -0.1611,0.0691 -0.0767,0 -0.14192,-0.0499 -0.0345,-0.0307 -0.0575,-0.0729 -0.0192,-0.046 -0.0384,-0.14959 -0.0422,-0.18795 -0.14576,-0.38741 -0.10357,-0.19945 -0.24165,-0.35672 -0.27617,-0.31069 -0.69427,-0.41042 z m -0.50247,4.5645 v 0.43727 q -0.31453,0 -0.69427,-0.18028 -0.14192,-0.0652 -0.19562,-0.0844 -0.0537,-0.0192 -0.10356,-0.0192 -0.0767,0 -0.11507,0.0269 -0.0384,0.023 -0.12275,0.12274 -0.069,0.0844 -0.14959,0.0844 -0.2148,0 -0.2148,-0.32988 v -1.39619 q 0,-0.1074 0.0614,-0.18028 0.0614,-0.0767 0.15343,-0.0806 0.0844,-0.004 0.13041,0.0499 0.0499,0.0499 0.0844,0.18028 0.0882,0.32987 0.25316,0.61755 0.16877,0.28768 0.39124,0.48713 0.22631,0.20713 0.52166,0.26467 z" />
        <path
           inkscape:connector-curvature="0"
           id="path909"
           style="font-style:normal;font-variant:normal;font-weight:normal;font-stretch:normal;font-family:Stencil;-inkscape-font-specification:Stencil;text-align:center;text-anchor:middle;fill:#ffffff;stroke-width:0.264583"
           d="m 184.52441,283.49362 q 0.32988,0 0.56385,0.25699 0.11124,0.11891 0.17645,0.29151 0.0652,0.16877 0.0652,0.34138 0,0.36439 -0.23781,0.73646 -0.23781,0.3759 -0.63673,0.63673 -0.33754,0.22247 -0.52933,0.22247 -0.0767,0 -0.12657,-0.046 -0.0499,-0.046 -0.0499,-0.12274 0,-0.11508 0.14576,-0.19179 0.34905,-0.18028 0.51015,-0.35672 0.15343,-0.16494 0.15343,-0.24165 0,-0.0729 -0.11508,-0.0882 l -0.0499,-0.008 -0.0575,-0.004 q -0.24932,-0.0384 -0.40658,-0.23014 -0.15343,-0.19562 -0.15343,-0.4718 0,-0.28384 0.19179,-0.49097 0.21863,-0.23397 0.55617,-0.23397 z" />
        <path
           inkscape:connector-curvature="0"
           id="path911"
           style="font-style:normal;font-variant:normal;font-weight:normal;font-stretch:normal;font-family:Stencil;-inkscape-font-specification:Stencil;text-align:center;text-anchor:middle;fill:#ffffff;stroke-width:0.264583"
           d="m 190.23579,279.53133 v 0.46412 q -0.22631,0.0345 -0.33755,0.19945 -0.11123,0.16494 -0.11123,0.4718 v 3.16829 0.16494 q 0,0.0882 0.0345,0.18795 0.0384,0.0959 0.0959,0.16493 0.0614,0.0767 0.13042,0.11124 0.069,0.0307 0.18795,0.0422 v 0.46796 q -0.74413,0 -1.29264,-0.38741 -0.4833,-0.34138 -0.72878,-0.91673 -0.24549,-0.57919 -0.24549,-1.36935 0,-0.57919 0.15727,-1.07784 0.1611,-0.50247 0.46412,-0.8707 0.30685,-0.37207 0.73262,-0.59837 0.4296,-0.22631 0.82468,-0.22631 z m 0.30302,0.46795 v -0.46412 q 0.18795,0.0307 0.30302,0.0652 0.11891,0.0345 0.42576,0.14575 0.19563,0.0691 0.26083,0.0691 0.11124,0 0.16877,-0.0997 l 0.0499,-0.0921 q 0.046,-0.092 0.17261,-0.092 0.10356,0 0.15726,0.0614 0.0575,0.0614 0.0575,0.18027 v 1.59566 q 0,0.15343 -0.069,0.22247 -0.069,0.0691 -0.15726,0.0691 -0.0921,0 -0.14959,-0.0575 -0.0537,-0.0614 -0.0882,-0.19562 -0.0806,-0.30302 -0.15726,-0.47563 -0.16494,-0.36439 -0.3759,-0.5907 -0.14192,-0.15343 -0.28384,-0.23398 -0.14192,-0.0844 -0.31453,-0.1074 z m 0.0115,4.97492 v -0.46796 q 0.29918,-0.023 0.62905,-0.2263 0.17645,-0.11124 0.31453,-0.29535 0.13809,-0.18795 0.20713,-0.41042 0.0384,-0.12275 0.0882,-0.17261 0.0537,-0.0537 0.13809,-0.0537 0.0921,0 0.15342,0.069 0.0614,0.069 0.0614,0.17261 0,0.17261 -0.13425,0.41809 -0.13042,0.24549 -0.33755,0.45261 -0.25315,0.25316 -0.52165,0.3759 -0.26467,0.12275 -0.59837,0.13809 z" />
        <path
           inkscape:connector-curvature="0"
           id="path913"
           style="font-style:normal;font-variant:normal;font-weight:normal;font-stretch:normal;font-family:Stencil;-inkscape-font-specification:Stencil;text-align:center;text-anchor:middle;fill:#ffffff;stroke-width:0.264583"
           d="m 193.03969,283.34019 v -3.0072 q 0,-0.13425 -0.046,-0.19562 -0.023,-0.0345 -0.046,-0.0422 -0.0192,-0.0115 -0.14575,-0.0537 -0.15343,-0.0499 -0.15343,-0.20329 0,-0.0997 0.0729,-0.14959 0.0767,-0.0537 0.2148,-0.0537 h 0.0997 1.71073 0.0997 l 0.13809,0.0153 q 0.0652,0.0192 0.1074,0.069 0.0422,0.0499 0.0422,0.11891 0,0.15343 -0.15343,0.20329 -0.12658,0.0422 -0.14959,0.0537 -0.0192,0.008 -0.0422,0.0422 -0.046,0.0614 -0.046,0.19562 v 3.21816 q 0,0.32604 0.0153,0.45645 0.0192,0.12658 0.0729,0.23014 0.0499,0.0959 0.11123,0.13809 0.0614,0.0422 0.23398,0.0959 v 0.50248 h -0.0844 q -0.49865,0 -0.82852,-0.0882 -0.3874,-0.10357 -0.67892,-0.30686 -0.29151,-0.20329 -0.41426,-0.45645 -0.13041,-0.2685 -0.13041,-0.78248 z m 2.48938,1.63401 v -0.50248 q 0.38357,-0.0499 0.64056,-0.31453 0.29152,-0.30302 0.29152,-0.8707 v -2.50089 q 0,-0.52549 -0.40275,-0.73262 -0.11891,-0.0614 -0.15727,-0.10356 -0.0345,-0.046 -0.0345,-0.13042 0,-0.0997 0.0729,-0.14192 0.0729,-0.0422 0.23781,-0.0422 h 0.93975 q 0.11891,0 0.15727,0.008 0.0422,0.004 0.0806,0.0269 0.0997,0.0575 0.0997,0.15726 0,0.0844 -0.0614,0.14193 -0.0192,0.0192 -0.16493,0.10356 -0.16877,0.0921 -0.26467,0.28384 -0.0959,0.18795 -0.0959,0.4296 v 2.50472 q 0,0.6444 -0.28384,1.05866 -0.20713,0.30686 -0.59454,0.49097 -0.19178,0.0921 -0.46028,0.13425 z" />
        <path
           inkscape:connector-curvature="0"
           id="path915"
           style="font-style:normal;font-variant:normal;font-weight:normal;font-stretch:normal;font-family:Stencil;-inkscape-font-specification:Stencil;text-align:center;text-anchor:middle;fill:#ffffff;stroke-width:0.264583"
           d="m 200.13191,284.87064 h -1.70689 -0.0997 q -0.13808,0 -0.2148,-0.0499 -0.0729,-0.0537 -0.0729,-0.14959 0,-0.15727 0.15343,-0.20713 0.12658,-0.0422 0.14576,-0.0499 0.023,-0.0115 0.046,-0.046 0.046,-0.0614 0.046,-0.19562 v -3.83955 q 0,-0.13425 -0.046,-0.19562 -0.023,-0.0345 -0.046,-0.0422 -0.0192,-0.0115 -0.14576,-0.0537 -0.15343,-0.0499 -0.15343,-0.20712 0,-0.0959 0.0729,-0.14576 0.0767,-0.0537 0.2148,-0.0537 h 0.0997 1.71073 0.13041 q 0.16877,0 0.24165,0.046 0.0997,0.0614 0.0997,0.1611 0,0.16877 -0.18411,0.21096 -0.1496,0.0345 -0.17645,0.046 -0.0268,0.0115 -0.0575,0.046 -0.0575,0.069 -0.0575,0.2148 z m 0.3107,0 v -0.4296 q 0.18795,-0.0345 0.29535,-0.0767 0.11123,-0.0422 0.21096,-0.12274 0.1611,-0.12658 0.29535,-0.34905 0.13425,-0.22247 0.21864,-0.49481 0.0614,-0.21096 0.11123,-0.27617 0.0537,-0.069 0.15343,-0.069 0.1074,0 0.15726,0.0882 0.023,0.0422 0.023,0.16877 v 1.56114 z" />
        <path
           inkscape:connector-curvature="0"
           id="path917"
           style="font-style:normal;font-variant:normal;font-weight:normal;font-stretch:normal;font-family:Stencil;-inkscape-font-specification:Stencil;text-align:center;text-anchor:middle;fill:#ffffff;stroke-width:0.264583"
           d="m 205.09149,279.63489 v 4.50696 q 0,0.14959 0.0575,0.2148 0.0307,0.0384 0.0575,0.0499 0.0268,0.008 0.17644,0.046 0.18412,0.0422 0.18412,0.21097 0,0.0997 -0.0997,0.1611 -0.0729,0.046 -0.24549,0.046 h -0.12657 -1.71073 -0.12658 q -0.16877,0 -0.25699,-0.0499 -0.0844,-0.0537 -0.0844,-0.15726 0,-0.16877 0.18412,-0.21097 0.14959,-0.0383 0.17644,-0.046 0.0268,-0.0115 0.0537,-0.0499 0.0575,-0.0652 0.0575,-0.2148 v -4.50696 z m 1.32716,0 v 1.56881 q 0,0.11123 -0.0652,0.18027 -0.0614,0.0691 -0.1611,0.0691 -0.0959,0 -0.1611,-0.0614 -0.0614,-0.0652 -0.0805,-0.17645 l -0.0384,-0.23398 q -0.0575,-0.35672 -0.22247,-0.61755 -0.10356,-0.1611 -0.28001,-0.26466 v -0.46412 z m -4.3497,0 h 1.00879 v 0.46412 q -0.18028,0.10356 -0.28001,0.26466 -0.16493,0.26083 -0.22247,0.61755 l -0.0383,0.23398 q -0.0192,0.11124 -0.0844,0.17645 -0.0614,0.0614 -0.15726,0.0614 -0.0997,0 -0.16494,-0.0691 -0.0614,-0.069 -0.0614,-0.18027 z" />
        <path
           inkscape:connector-curvature="0"
           id="path919"
           style="font-style:normal;font-variant:normal;font-weight:normal;font-stretch:normal;font-family:Stencil;-inkscape-font-specification:Stencil;text-align:center;text-anchor:middle;fill:#ffffff;stroke-width:0.264583"
           d="m 207.21648,283.34019 v -3.0072 q 0,-0.13425 -0.046,-0.19562 -0.023,-0.0345 -0.046,-0.0422 -0.0192,-0.0115 -0.14576,-0.0537 -0.15342,-0.0499 -0.15342,-0.20329 0,-0.0997 0.0729,-0.14959 0.0767,-0.0537 0.2148,-0.0537 h 0.0997 1.71073 0.0997 l 0.13808,0.0153 q 0.0652,0.0192 0.1074,0.069 0.0422,0.0499 0.0422,0.11891 0,0.15343 -0.15343,0.20329 -0.12658,0.0422 -0.14959,0.0537 -0.0192,0.008 -0.0422,0.0422 -0.046,0.0614 -0.046,0.19562 v 3.21816 q 0,0.32604 0.0153,0.45645 0.0192,0.12658 0.0729,0.23014 0.0499,0.0959 0.11123,0.13809 0.0614,0.0422 0.23398,0.0959 v 0.50248 h -0.0844 q -0.49864,0 -0.82851,-0.0882 -0.38741,-0.10357 -0.67892,-0.30686 -0.29151,-0.20329 -0.41426,-0.45645 -0.13041,-0.2685 -0.13041,-0.78248 z m 2.48938,1.63401 v -0.50248 q 0.38357,-0.0499 0.64056,-0.31453 0.29151,-0.30302 0.29151,-0.8707 v -2.50089 q 0,-0.52549 -0.40275,-0.73262 -0.1189,-0.0614 -0.15726,-0.10356 -0.0345,-0.046 -0.0345,-0.13042 0,-0.0997 0.0729,-0.14192 0.0729,-0.0422 0.23781,-0.0422 h 0.93975 q 0.11891,0 0.15726,0.008 0.0422,0.004 0.0806,0.0269 0.0997,0.0575 0.0997,0.15726 0,0.0844 -0.0614,0.14193 -0.0192,0.0192 -0.16493,0.10356 -0.16877,0.0921 -0.26467,0.28384 -0.0959,0.18795 -0.0959,0.4296 v 2.50472 q 0,0.6444 -0.28384,1.05866 -0.20713,0.30686 -0.59454,0.49097 -0.19178,0.0921 -0.46028,0.13425 z" />
        <path
           inkscape:connector-curvature="0"
           id="path921"
           style="font-style:normal;font-variant:normal;font-weight:normal;font-stretch:normal;font-family:Stencil;-inkscape-font-specification:Stencil;text-align:center;text-anchor:middle;fill:#ffffff;stroke-width:0.264583"
           d="m 214.30872,279.63489 v 4.50696 q 0,0.14959 0.0575,0.2148 0.0307,0.0384 0.0575,0.0499 0.0268,0.008 0.17644,0.046 0.18412,0.0422 0.18412,0.21097 0,0.0997 -0.0997,0.1611 -0.0729,0.046 -0.24165,0.046 h -0.13042 -1.71072 -0.0997 q -0.13809,0 -0.2148,-0.0499 -0.0729,-0.0537 -0.0729,-0.14959 0,-0.15727 0.15343,-0.20713 0.12658,-0.0422 0.14575,-0.0499 0.023,-0.0115 0.046,-0.046 0.046,-0.0614 0.046,-0.19562 v -3.83955 q 0,-0.13425 -0.046,-0.19562 -0.023,-0.0345 -0.046,-0.0422 -0.0192,-0.0115 -0.14575,-0.0537 -0.15343,-0.0499 -0.15343,-0.20712 0,-0.0959 0.0729,-0.14576 0.0767,-0.0537 0.2148,-0.0537 h 0.0997 z m 1.17756,2.66965 q 0.35289,0.0537 0.54084,0.11891 0.19178,0.0652 0.34521,0.17644 0.1611,0.11891 0.24549,0.28385 0.0882,0.16493 0.0882,0.34905 v 0.79399 q 0,0.12274 0.0805,0.12274 0.0307,0 0.0499,-0.0153 0.023,-0.0192 0.0614,-0.069 0.0959,-0.13042 0.19562,-0.13042 0.0652,0 0.13042,0.069 0.0652,0.069 0.0652,0.13808 0,0.11891 -0.11507,0.29151 -0.11123,0.16878 -0.28,0.30303 -0.15727,0.12657 -0.34138,0.18027 -0.18412,0.0575 -0.43344,0.0575 -0.50631,0 -0.79015,-0.28768 -0.28385,-0.29151 -0.28385,-0.80933 v -0.6444 q 0,-0.2148 -0.004,-0.24932 -0.0192,-0.15343 -0.1074,-0.26467 -0.11124,-0.13425 -0.31837,-0.15726 v -0.41042 q 0.20713,-0.0307 0.29535,-0.1074 0.0767,-0.0691 0.10357,-0.15727 0.0307,-0.0882 0.0307,-0.26083 v -1.01646 q 0,-0.24165 -0.0959,-0.36056 -0.0921,-0.1189 -0.33754,-0.18795 v -0.42576 h 0.0997 q 0.42576,0 0.72495,0.0307 0.44494,0.0422 0.79399,0.29152 0.50248,0.35672 0.50248,1.01646 0,0.54084 -0.33755,0.88605 -0.14192,0.14576 -0.3337,0.23782 -0.18795,0.092 -0.57536,0.20712 z" />
        <path
           inkscape:connector-curvature="0"
           id="path923"
           style="font-style:normal;font-variant:normal;font-weight:normal;font-stretch:normal;font-family:Stencil;-inkscape-font-specification:Stencil;text-align:center;text-anchor:middle;fill:#ffffff;stroke-width:0.264583"
           d="m 219.24528,279.63489 h 1.54579 l 1.06633,4.50696 q 0.0307,0.11891 0.069,0.21096 0.0345,0.0729 0.15343,0.11891 0.0997,0.0422 0.13808,0.0844 0.0384,0.0422 0.0384,0.11507 0,0.19946 -0.29919,0.19946 h -1.91402 q -0.11507,0 -0.18411,-0.0537 -0.069,-0.0575 -0.069,-0.1496 0,-0.0767 0.0307,-0.11507 0.0307,-0.0384 0.13809,-0.0959 0.0767,-0.0384 0.1074,-0.0844 0.0307,-0.046 0.0307,-0.11507 0,-0.0652 -0.0115,-0.11507 l -0.12275,-0.55618 h -1.07016 l 0.10356,-0.45645 h 0.8592 l -0.70577,-3.11843 z m -0.26467,0.97427 0.19562,0.79399 -0.67892,2.47787 q -0.0307,0.1074 -0.0307,0.19946 0,0.24165 0.2263,0.34521 l 0.13425,0.0614 q 0.12658,0.0575 0.12658,0.19179 0,0.19179 -0.28001,0.19179 h -0.97427 q -0.14192,0 -0.2263,-0.0575 -0.0806,-0.0614 -0.0806,-0.16494 0,-0.11123 0.16877,-0.18411 0.15726,-0.069 0.23014,-0.12274 0.0767,-0.0575 0.14576,-0.15343 0.1074,-0.15726 0.17644,-0.41809 z" />
        <path
           inkscape:connector-curvature="0"
           id="path925"
           style="font-style:normal;font-variant:normal;font-weight:normal;font-stretch:normal;font-family:Stencil;-inkscape-font-specification:Stencil;text-align:center;text-anchor:middle;fill:#ffffff;stroke-width:0.264583"
           d="m 224.3391,279.53133 v 0.4411 q -0.23782,0.0652 -0.3644,0.20329 -0.12274,0.13425 -0.12274,0.33371 0,0.19179 0.10356,0.33754 0.10357,0.14193 0.33755,0.27234 0.1611,0.0882 0.72878,0.33754 0.34522,0.1496 0.53317,0.27234 0.19178,0.11891 0.36055,0.29918 0.45262,0.47563 0.45262,1.13154 0,0.49481 -0.24549,0.90523 -0.24548,0.41042 -0.67508,0.6444 -0.23015,0.12274 -0.50632,0.19178 -0.27233,0.0729 -0.51015,0.0729 v -0.43727 q 0.33371,-0.0805 0.47947,-0.22247 0.14959,-0.14576 0.14959,-0.39124 0,-0.257 -0.23014,-0.45262 -0.15343,-0.12658 -0.58303,-0.31453 -0.47179,-0.20713 -0.64824,-0.29535 -0.1726,-0.0882 -0.3337,-0.20713 -0.72112,-0.51398 -0.72112,-1.36934 0,-0.43728 0.18028,-0.8055 0.18028,-0.37207 0.50248,-0.59838 0.44878,-0.31452 1.11236,-0.34904 z m 0.30302,0.4411 v -0.42193 q 0.23014,0.0154 0.39891,0.0614 0.16877,0.0422 0.47947,0.1726 0.0767,0.0307 0.12657,0.0307 0.0729,0 0.1074,-0.0499 l 0.0844,-0.11123 q 0.0614,-0.0844 0.14959,-0.0844 0.10357,0 0.14959,0.0767 0.0499,0.0729 0.0499,0.23397 v 1.26579 q 0,0.11124 -0.0652,0.18411 -0.0614,0.0691 -0.1611,0.0691 -0.0767,0 -0.14192,-0.0499 -0.0345,-0.0307 -0.0575,-0.0729 -0.0192,-0.046 -0.0384,-0.14959 -0.0422,-0.18795 -0.14576,-0.38741 -0.10356,-0.19945 -0.24165,-0.35672 -0.27617,-0.31069 -0.69426,-0.41042 z m -0.50248,4.5645 v 0.43727 q -0.31453,0 -0.69426,-0.18028 -0.14193,-0.0652 -0.19563,-0.0844 -0.0537,-0.0192 -0.10356,-0.0192 -0.0767,0 -0.11507,0.0269 -0.0384,0.023 -0.12274,0.12274 -0.0691,0.0844 -0.1496,0.0844 -0.2148,0 -0.2148,-0.32988 v -1.39619 q 0,-0.1074 0.0614,-0.18028 0.0614,-0.0767 0.15343,-0.0806 0.0844,-0.004 0.13042,0.0499 0.0499,0.0499 0.0844,0.18028 0.0882,0.32987 0.25316,0.61755 0.16877,0.28768 0.39124,0.48713 0.22631,0.20713 0.52166,0.26467 z" />
        <path
           inkscape:connector-curvature="0"
           id="path927"
           style="font-style:normal;font-variant:normal;font-weight:normal;font-stretch:normal;font-family:Stencil;-inkscape-font-specification:Stencil;text-align:center;text-anchor:middle;fill:#ffffff;stroke-width:0.264583"
           d="m 231.03241,279.63489 v 5.23575 h -1.70689 -0.0997 q -0.13809,0 -0.2148,-0.0499 -0.0729,-0.0537 -0.0729,-0.14959 0,-0.15727 0.15343,-0.20713 0.12658,-0.0422 0.14576,-0.0499 0.023,-0.0115 0.046,-0.046 0.046,-0.0614 0.046,-0.19562 v -3.83955 q 0,-0.13425 -0.046,-0.19562 -0.023,-0.0345 -0.046,-0.0422 -0.0192,-0.0115 -0.14576,-0.0537 -0.15343,-0.0499 -0.15343,-0.20712 0,-0.0959 0.0729,-0.14576 0.0767,-0.0537 0.2148,-0.0537 h 0.0997 z m 0.34138,0 h 1.54579 v 1.35784 q 0,0.11891 -0.046,0.17261 -0.046,0.0537 -0.14575,0.0537 -0.0844,0 -0.12275,-0.0345 -0.0384,-0.0345 -0.0729,-0.14192 -0.14575,-0.44495 -0.4296,-0.67893 -0.28,-0.23397 -0.72878,-0.28 z m -0.0192,2.7924 v -0.44495 q 0.22247,-0.10739 0.32987,-0.23397 0.1074,-0.12658 0.15727,-0.33755 0.0307,-0.14575 0.0806,-0.19945 0.0499,-0.0575 0.14192,-0.0575 0.12274,0 0.16877,0.0959 0.0268,0.0499 0.0268,0.22631 v 1.46141 q 0,0.18028 -0.0422,0.24932 -0.0384,0.069 -0.14576,0.069 -0.0882,0 -0.13809,-0.0537 -0.0499,-0.0537 -0.0805,-0.18028 -0.0652,-0.26466 -0.18795,-0.40658 -0.1189,-0.14192 -0.31069,-0.18795 z m 0.023,2.44335 v -0.41426 q 0.24933,-0.0384 0.41043,-0.1074 0.16493,-0.069 0.32987,-0.21096 0.16493,-0.14193 0.26083,-0.29152 0.0997,-0.15343 0.18795,-0.40275 0.0422,-0.12274 0.0882,-0.16493 0.046,-0.046 0.12658,-0.046 0.1074,0 0.14959,0.0652 0.0422,0.0614 0.0422,0.21864 v 1.35401 z" />
        <path
           inkscape:connector-curvature="0"
           id="path929"
           style="font-style:normal;font-variant:normal;font-weight:normal;font-stretch:normal;font-family:Stencil;-inkscape-font-specification:Stencil;text-align:center;text-anchor:middle;fill:#ffffff;stroke-width:0.264583"
           d="m 237.6145,279.63489 v 5.23575 h -1.70689 -0.0997 q -0.13808,0 -0.2148,-0.0499 -0.0729,-0.0537 -0.0729,-0.14959 0,-0.15727 0.15343,-0.20713 0.12658,-0.0422 0.14576,-0.0499 0.023,-0.0115 0.046,-0.046 0.046,-0.0614 0.046,-0.19562 v -3.83955 q 0,-0.13425 -0.046,-0.19562 -0.023,-0.0345 -0.046,-0.0422 -0.0192,-0.0115 -0.14576,-0.0537 -0.15343,-0.0499 -0.15343,-0.20712 0,-0.0959 0.0729,-0.14576 0.0767,-0.0537 0.2148,-0.0537 h 0.0997 z m 0.34138,0 h 1.54579 v 1.35784 q 0,0.11891 -0.046,0.17261 -0.046,0.0537 -0.14575,0.0537 -0.0844,0 -0.12275,-0.0345 -0.0384,-0.0345 -0.0729,-0.14192 -0.14576,-0.44495 -0.4296,-0.67893 -0.28001,-0.23397 -0.72879,-0.28 z m -0.0192,2.7924 v -0.44495 q 0.22247,-0.10739 0.32987,-0.23397 0.1074,-0.12658 0.15727,-0.33755 0.0307,-0.14575 0.0805,-0.19945 0.0499,-0.0575 0.14192,-0.0575 0.12274,0 0.16877,0.0959 0.0268,0.0499 0.0268,0.22631 v 1.46141 q 0,0.18028 -0.0422,0.24932 -0.0384,0.069 -0.14576,0.069 -0.0882,0 -0.13808,-0.0537 -0.0499,-0.0537 -0.0805,-0.18028 -0.0652,-0.26466 -0.18795,-0.40658 -0.11891,-0.14192 -0.3107,-0.18795 z m 0.023,2.44335 v -0.41426 q 0.24932,-0.0384 0.41042,-0.1074 0.16493,-0.069 0.32987,-0.21096 0.16493,-0.14193 0.26083,-0.29152 0.0997,-0.15343 0.18795,-0.40275 0.0422,-0.12274 0.0882,-0.16493 0.046,-0.046 0.12658,-0.046 0.1074,0 0.14959,0.0652 0.0422,0.0614 0.0422,0.21864 v 1.35401 z" />
        <path
           inkscape:connector-curvature="0"
           id="path931"
           style="font-style:normal;font-variant:normal;font-weight:normal;font-stretch:normal;font-family:Stencil;-inkscape-font-specification:Stencil;text-align:center;text-anchor:middle;fill:#ffffff;stroke-width:0.264583"
           d="m 242.2327,279.63489 v 5.23575 h -1.70689 -0.0997 q -0.13809,0 -0.2148,-0.0499 -0.0729,-0.0537 -0.0729,-0.14959 0,-0.15727 0.15343,-0.20713 0.12658,-0.0422 0.14575,-0.0499 0.023,-0.0115 0.046,-0.046 0.046,-0.0614 0.046,-0.19562 v -3.83955 q 0,-0.13425 -0.046,-0.19562 -0.023,-0.0345 -0.046,-0.0422 -0.0192,-0.0115 -0.14575,-0.0537 -0.15343,-0.0499 -0.15343,-0.20712 0,-0.0959 0.0729,-0.14576 0.0767,-0.0537 0.2148,-0.0537 h 0.0997 z m 0.77481,4.13873 v -3.02637 q 0,-0.28001 -0.0805,-0.44495 -0.0499,-0.1074 -0.12274,-0.15726 -0.0729,-0.0499 -0.23014,-0.0844 v -0.42576 q 0.20329,0 0.34521,0.0153 0.48714,0.0537 0.94359,0.41426 0.45261,0.34905 0.67124,0.90906 0.22631,0.56769 0.22631,1.25812 0,0.78248 -0.28768,1.39236 -0.28768,0.60604 -0.82467,0.95509 -0.26083,0.16877 -0.48714,0.23014 -0.22247,0.0614 -0.58686,0.0614 v -0.41426 q 0.1611,-0.0422 0.22247,-0.0767 0.0652,-0.0345 0.11123,-0.1074 0.0575,-0.0844 0.0767,-0.18794 0.023,-0.1074 0.023,-0.3107 z" />
        <path
           inkscape:connector-curvature="0"
           id="path933"
           style="font-style:normal;font-variant:normal;font-weight:normal;font-stretch:normal;font-family:Stencil;-inkscape-font-specification:Stencil;text-align:center;text-anchor:middle;fill:#ffffff;stroke-width:0.264583"
           d="m 245.55826,283.34019 v -3.0072 q 0,-0.13425 -0.046,-0.19562 -0.023,-0.0345 -0.046,-0.0422 -0.0192,-0.0115 -0.14575,-0.0537 -0.15343,-0.0499 -0.15343,-0.20329 0,-0.0997 0.0729,-0.14959 0.0767,-0.0537 0.2148,-0.0537 h 0.0997 1.71073 0.0997 l 0.13809,0.0153 q 0.0652,0.0192 0.1074,0.069 0.0422,0.0499 0.0422,0.11891 0,0.15343 -0.15343,0.20329 -0.12658,0.0422 -0.14959,0.0537 -0.0192,0.008 -0.0422,0.0422 -0.046,0.0614 -0.046,0.19562 v 3.21816 q 0,0.32604 0.0153,0.45645 0.0192,0.12658 0.0729,0.23014 0.0499,0.0959 0.11123,0.13809 0.0614,0.0422 0.23398,0.0959 v 0.50248 h -0.0844 q -0.49865,0 -0.82852,-0.0882 -0.3874,-0.10357 -0.67892,-0.30686 -0.29151,-0.20329 -0.41426,-0.45645 -0.13041,-0.2685 -0.13041,-0.78248 z m 2.48938,1.63401 v -0.50248 q 0.38357,-0.0499 0.64056,-0.31453 0.29152,-0.30302 0.29152,-0.8707 v -2.50089 q 0,-0.52549 -0.40275,-0.73262 -0.11891,-0.0614 -0.15727,-0.10356 -0.0345,-0.046 -0.0345,-0.13042 0,-0.0997 0.0729,-0.14192 0.0729,-0.0422 0.23781,-0.0422 h 0.93975 q 0.11891,0 0.15727,0.008 0.0422,0.004 0.0805,0.0269 0.0997,0.0575 0.0997,0.15726 0,0.0844 -0.0614,0.14193 -0.0192,0.0192 -0.16493,0.10356 -0.16877,0.0921 -0.26467,0.28384 -0.0959,0.18795 -0.0959,0.4296 v 2.50472 q 0,0.6444 -0.28384,1.05866 -0.20713,0.30686 -0.59454,0.49097 -0.19178,0.0921 -0.46028,0.13425 z" />
        <path
           inkscape:connector-curvature="0"
           id="path935"
           style="font-style:normal;font-variant:normal;font-weight:normal;font-stretch:normal;font-family:Stencil;-inkscape-font-specification:Stencil;text-align:center;text-anchor:middle;fill:#ffffff;stroke-width:0.264583"
           d="m 252.66583,279.53133 v 0.46412 q -0.22631,0.0345 -0.33755,0.19945 -0.11123,0.16494 -0.11123,0.4718 v 3.16829 0.16494 q 0,0.0882 0.0345,0.18795 0.0384,0.0959 0.0959,0.16493 0.0614,0.0767 0.13042,0.11124 0.069,0.0307 0.18795,0.0422 v 0.46796 q -0.74413,0 -1.29264,-0.38741 -0.4833,-0.34138 -0.72878,-0.91673 -0.24549,-0.57919 -0.24549,-1.36935 0,-0.57919 0.15726,-1.07784 0.1611,-0.50247 0.46413,-0.8707 0.30685,-0.37207 0.73262,-0.59837 0.4296,-0.22631 0.82467,-0.22631 z m 0.30302,0.46795 v -0.46412 q 0.18795,0.0307 0.30302,0.0652 0.11891,0.0345 0.42576,0.14575 0.19562,0.0691 0.26083,0.0691 0.11124,0 0.16877,-0.0997 l 0.0499,-0.0921 q 0.046,-0.092 0.1726,-0.092 0.10357,0 0.15727,0.0614 0.0575,0.0614 0.0575,0.18027 v 1.59566 q 0,0.15343 -0.069,0.22247 -0.069,0.0691 -0.15726,0.0691 -0.0921,0 -0.1496,-0.0575 -0.0537,-0.0614 -0.0882,-0.19562 -0.0805,-0.30302 -0.15726,-0.47563 -0.16494,-0.36439 -0.3759,-0.5907 -0.14192,-0.15343 -0.28384,-0.23398 -0.14193,-0.0844 -0.31453,-0.1074 z m 0.0115,4.97492 v -0.46796 q 0.29919,-0.023 0.62906,-0.2263 0.17644,-0.11124 0.31453,-0.29535 0.13809,-0.18795 0.20713,-0.41042 0.0384,-0.12275 0.0882,-0.17261 0.0537,-0.0537 0.13808,-0.0537 0.0921,0 0.15343,0.069 0.0614,0.069 0.0614,0.17261 0,0.17261 -0.13425,0.41809 -0.13041,0.24549 -0.33754,0.45261 -0.25315,0.25316 -0.52165,0.3759 -0.26467,0.12275 -0.59838,0.13809 z" />
        <path
           inkscape:connector-curvature="0"
           id="path937"
           style="font-style:normal;font-variant:normal;font-weight:normal;font-stretch:normal;font-family:Stencil;-inkscape-font-specification:Stencil;text-align:center;text-anchor:middle;fill:#ffffff;stroke-width:0.264583"
           d="m 256.68181,279.63489 h 1.5458 l 1.06632,4.50696 q 0.0307,0.11891 0.0691,0.21096 0.0345,0.0729 0.15343,0.11891 0.0997,0.0422 0.13808,0.0844 0.0384,0.0422 0.0384,0.11507 0,0.19946 -0.29919,0.19946 h -1.91402 q -0.11507,0 -0.18411,-0.0537 -0.069,-0.0575 -0.069,-0.1496 0,-0.0767 0.0307,-0.11507 0.0307,-0.0384 0.13809,-0.0959 0.0767,-0.0384 0.1074,-0.0844 0.0307,-0.046 0.0307,-0.11507 0,-0.0652 -0.0115,-0.11507 l -0.12274,-0.55618 h -1.07016 l 0.10356,-0.45645 h 0.8592 l -0.70577,-3.11843 z m -0.26466,0.97427 0.19562,0.79399 -0.67892,2.47787 q -0.0307,0.1074 -0.0307,0.19946 0,0.24165 0.22631,0.34521 l 0.13425,0.0614 q 0.12658,0.0575 0.12658,0.19179 0,0.19179 -0.28001,0.19179 h -0.97427 q -0.14192,0 -0.2263,-0.0575 -0.0805,-0.0614 -0.0805,-0.16494 0,-0.11123 0.16877,-0.18411 0.15726,-0.069 0.23014,-0.12274 0.0767,-0.0575 0.14576,-0.15343 0.1074,-0.15726 0.17644,-0.41809 z" />
        <path
           inkscape:connector-curvature="0"
           id="path939"
           style="font-style:normal;font-variant:normal;font-weight:normal;font-stretch:normal;font-family:Stencil;-inkscape-font-specification:Stencil;text-align:center;text-anchor:middle;fill:#ffffff;stroke-width:0.264583"
           d="m 262.11703,279.53133 v 0.46412 q -0.22631,0.0345 -0.33754,0.19945 -0.11124,0.16494 -0.11124,0.4718 v 3.16829 0.16494 q 0,0.0882 0.0345,0.18795 0.0384,0.0959 0.0959,0.16493 0.0614,0.0767 0.13042,0.11124 0.069,0.0307 0.18795,0.0422 v 0.46796 q -0.74413,0 -1.29264,-0.38741 -0.4833,-0.34138 -0.72878,-0.91673 -0.24549,-0.57919 -0.24549,-1.36935 0,-0.57919 0.15727,-1.07784 0.1611,-0.50247 0.46412,-0.8707 0.30685,-0.37207 0.73262,-0.59837 0.4296,-0.22631 0.82468,-0.22631 z m 0.30302,0.46795 v -0.46412 q 0.18795,0.0307 0.30302,0.0652 0.11891,0.0345 0.42576,0.14575 0.19563,0.0691 0.26083,0.0691 0.11124,0 0.16877,-0.0997 l 0.0499,-0.0921 q 0.046,-0.092 0.17261,-0.092 0.10356,0 0.15726,0.0614 0.0575,0.0614 0.0575,0.18027 v 1.59566 q 0,0.15343 -0.0691,0.22247 -0.069,0.0691 -0.15726,0.0691 -0.0921,0 -0.14959,-0.0575 -0.0537,-0.0614 -0.0882,-0.19562 -0.0806,-0.30302 -0.15726,-0.47563 -0.16494,-0.36439 -0.3759,-0.5907 -0.14192,-0.15343 -0.28384,-0.23398 -0.14192,-0.0844 -0.31453,-0.1074 z m 0.0115,4.97492 v -0.46796 q 0.29918,-0.023 0.62905,-0.2263 0.17645,-0.11124 0.31453,-0.29535 0.13809,-0.18795 0.20713,-0.41042 0.0384,-0.12275 0.0882,-0.17261 0.0537,-0.0537 0.13809,-0.0537 0.092,0 0.15343,0.069 0.0614,0.069 0.0614,0.17261 0,0.17261 -0.13425,0.41809 -0.13042,0.24549 -0.33755,0.45261 -0.25315,0.25316 -0.52165,0.3759 -0.26467,0.12275 -0.59837,0.13809 z m -0.19946,1.38469 q -0.10356,0.0192 -0.17261,0.0192 -0.24165,0 -0.38357,-0.13808 -0.13808,-0.13425 -0.13808,-0.37207 0,-0.21863 0.16493,-0.38357 0.16877,-0.16494 0.39124,-0.16494 0.28001,0 0.46796,0.21097 0.19179,0.21096 0.19179,0.52549 0,0.23782 -0.1074,0.45261 -0.10357,0.2148 -0.29152,0.36056 -0.23014,0.17644 -0.43727,0.17644 -0.0882,0 -0.14576,-0.046 -0.0537,-0.046 -0.0537,-0.11891 0,-0.12658 0.14576,-0.17261 l 0.0844,-0.0269 q 0.13425,-0.0422 0.20329,-0.12274 0.046,-0.0575 0.0652,-0.11891 0.004,-0.008 0.0115,-0.046 0.008,-0.0345 0.004,-0.0345 z" />
        <path
           inkscape:connector-curvature="0"
           id="path941"
           style="font-style:normal;font-variant:normal;font-weight:normal;font-stretch:normal;font-family:Stencil;-inkscape-font-specification:Stencil;text-align:center;text-anchor:middle;fill:#ffffff;stroke-width:0.264583"
           d="m 266.13302,279.63489 h 1.54579 l 1.06633,4.50696 q 0.0307,0.11891 0.069,0.21096 0.0345,0.0729 0.15343,0.11891 0.0997,0.0422 0.13808,0.0844 0.0384,0.0422 0.0384,0.11507 0,0.19946 -0.29919,0.19946 h -1.91402 q -0.11507,0 -0.18411,-0.0537 -0.069,-0.0575 -0.069,-0.1496 0,-0.0767 0.0307,-0.11507 0.0307,-0.0384 0.13809,-0.0959 0.0767,-0.0384 0.1074,-0.0844 0.0307,-0.046 0.0307,-0.11507 0,-0.0652 -0.0115,-0.11507 l -0.12275,-0.55618 h -1.07016 l 0.10357,-0.45645 h 0.85919 l -0.70577,-3.11843 z m -0.26467,0.97427 0.19562,0.79399 -0.67892,2.47787 q -0.0307,0.1074 -0.0307,0.19946 0,0.24165 0.2263,0.34521 l 0.13425,0.0614 q 0.12658,0.0575 0.12658,0.19179 0,0.19179 -0.28,0.19179 h -0.97428 q -0.14192,0 -0.2263,-0.0575 -0.0806,-0.0614 -0.0806,-0.16494 0,-0.11123 0.16877,-0.18411 0.15726,-0.069 0.23014,-0.12274 0.0767,-0.0575 0.14576,-0.15343 0.1074,-0.15726 0.17644,-0.41809 z m 0.51399,-2.42417 q 0.12658,0 0.25699,0.046 0.13041,0.046 0.37206,0.17261 0.35673,0.18411 0.56002,0.18411 0.0805,0 0.13425,-0.0537 0.0537,-0.0537 0.0844,-0.16877 0.0269,-0.0844 0.0537,-0.11507 0.0268,-0.0345 0.0729,-0.0345 0.0921,0 0.13042,0.046 0.0422,0.0422 0.0422,0.14576 0,0.25316 -0.15343,0.52549 -0.2148,0.38741 -0.62906,0.38741 -0.12274,0 -0.24548,-0.0345 -0.12274,-0.0345 -0.31453,-0.12658 l -0.25699,-0.12274 q -0.25316,-0.11891 -0.36439,-0.11891 -0.15343,0 -0.23015,0.21097 -0.0307,0.0921 -0.0575,0.12274 -0.023,0.0268 -0.0691,0.0268 -0.16877,0 -0.16877,-0.20329 0,-0.11891 0.0575,-0.28385 0.0575,-0.16493 0.14192,-0.28768 0.2148,-0.31836 0.58303,-0.31836 z" />
        <path
           inkscape:connector-curvature="0"
           id="path943"
           style="font-style:normal;font-variant:normal;font-weight:normal;font-stretch:normal;font-family:Stencil;-inkscape-font-specification:Stencil;text-align:center;text-anchor:middle;fill:#ffffff;stroke-width:0.264583"
           d="m 271.47616,279.94558 q -0.19562,0.069 -0.27617,0.18795 -0.0806,0.11891 -0.0806,0.34905 v 3.42913 q 0,0.33754 0.0921,0.47563 0.0729,0.11507 0.26467,0.16493 v 0.42193 q -0.85153,-0.069 -1.42689,-0.64056 -0.74796,-0.74413 -0.74796,-2.07512 0,-0.66742 0.19562,-1.20442 0.19946,-0.54083 0.58687,-0.91673 0.29534,-0.28768 0.63672,-0.43727 0.34138,-0.1496 0.75564,-0.16877 z m 0.31453,0 v -0.41425 q 0.41425,0.0192 0.75563,0.16877 0.34522,0.14959 0.64057,0.43727 0.78248,0.7633 0.78248,2.12115 0,1.33099 -0.74796,2.07512 -0.57536,0.57535 -1.43072,0.64056 v -0.42193 q 0.0997,-0.023 0.15343,-0.0575 0.0575,-0.0384 0.10356,-0.1074 0.10356,-0.15727 0.10356,-0.47563 v -3.42913 q 0,-0.20329 -0.069,-0.3222 -0.046,-0.0805 -0.11123,-0.12658 -0.0614,-0.046 -0.18028,-0.0882 z" />
      </g>
      <text
         transform="rotate(-90)"
         id="text886"
         y="112.39236"
         x="-149.16373"
         style="font-style:normal;font-weight:normal;font-size:1.89809px;line-height:1.25;font-family:sans-serif;letter-spacing:0px;word-spacing:0px;fill:#ffffff;fill-opacity:1;stroke:none;stroke-width:0.151613"
         xml:space="preserve"><tspan
           style="fill:#ffffff;stroke-width:0.151613"
           y="112.39236"
           x="-149.16373"
           id="tspan884"
           sodipodi:role="line">Autoria do Logotipo: <a
   style="fill:#ffffff;stroke-width:0.151613"
   id="a10"
   target="_blank"
   href="https://about.me/patrickaraujo">Patrick Araújo</a></tspan></text>
      <text
         transform="rotate(-90)"
         id="text890"
         y="135.73166"
         x="-150.74709"
         style="font-style:normal;font-weight:normal;font-size:2.58298px;line-height:1.25;font-family:sans-serif;letter-spacing:0px;word-spacing:0px;fill:#ffffff;fill-opacity:1;stroke:none;stroke-width:0.151613"
         xml:space="preserve"><tspan
           style="fill:#ffffff;stroke-width:0.151613"
           y="135.73166"
           x="-150.74709"
           id="tspan888"
           sodipodi:role="line"><a
             style="fill:#ffffff;stroke-width:0.151613"
             id="a14"
             target="_blank"
             href="https://about.me/patrickaraujo">about.me/patrickaraujo</a></tspan></text>
    </g>
    <text
       id="text1321"
       y="49.697239"
       x="107.4091"
       style="font-style:normal;font-weight:normal;font-size:24.2753px;line-height:0;font-family:sans-serif;fill:#ffffff;fill-opacity:1;stroke:none;stroke-width:0.126434"
       xml:space="preserve"><tspan
         style="font-style:normal;font-variant:normal;font-weight:normal;font-stretch:normal;font-size:24.2753px;font-family:'Swis721 Blk BT';-inkscape-font-specification:'Swis721 Blk BT';fill:#ffffff;stroke-width:0.126434"
         y="49.697239"
         x="107.4091"
         id="tspan1319"
         sodipodi:role="line">CICLO</tspan></text>
  </g>
</svg>
