<?xml version="1.0" encoding="UTF-8" standalone="no"?>
<svg
   version="1.1"
   viewBox="0 0 212 260"
   id="svg66"
   sodipodi:docname="IFSP São Paulo.svg"
   inkscape:version="1.4 (e7c3feb100, 2024-10-09)"
   width="212"
   height="260"
   xmlns:inkscape="http://www.inkscape.org/namespaces/inkscape"
   xmlns:sodipodi="http://sodipodi.sourceforge.net/DTD/sodipodi-0.dtd"
   xmlns="http://www.w3.org/2000/svg"
   xmlns:svg="http://www.w3.org/2000/svg"
   xmlns:rdf="http://www.w3.org/1999/02/22-rdf-syntax-ns#"
   xmlns:cc="http://creativecommons.org/ns#"
   xmlns:dc="http://purl.org/dc/elements/1.1/">
  <g
     fill="#2f9e41"
     transform="translate(24,8.7729969)"
     id="g22"
     style="fill:#2f9e41;fill-opacity:1">
    <rect
       x="72"
       y="4"
       width="20"
       height="20"
       rx="2"
       ry="2"
       id="rect4"
       style="fill:#2f9e41;fill-opacity:1" />
    <rect
       x="96"
       y="4"
       width="20"
       height="20"
       rx="2"
       ry="2"
       id="rect6"
       style="fill:#2f9e41;fill-opacity:1" />
    <rect
       x="48"
       y="28"
       width="20"
       height="20"
       rx="2"
       ry="2"
       id="rect8"
       style="fill:#2f9e41;fill-opacity:1" />
    <rect
       x="72"
       y="28"
       width="20"
       height="20"
       rx="2"
       ry="2"
       id="rect10"
       style="fill:#2f9e41;fill-opacity:1" />
    <rect
       x="48"
       y="52"
       width="20"
       height="20"
       rx="2"
       ry="2"
       id="rect12"
       style="fill:#2f9e41;fill-opacity:1" />
    <rect
       x="72"
       y="52"
       width="20"
       height="20"
       rx="2"
       ry="2"
       id="rect14"
       style="fill:#2f9e41;fill-opacity:1" />
    <rect
       x="96"
       y="52"
       width="20"
       height="20"
       rx="2"
       ry="2"
       id="rect16"
       style="fill:#2f9e41;fill-opacity:1" />
    <rect
       x="48"
       y="76"
       width="20"
       height="20"
       rx="2"
       ry="2"
       id="rect18"
       style="fill:#2f9e41;fill-opacity:1" />
    <rect
       x="72"
       y="76"
       width="20"
       height="20"
       rx="2"
       ry="2"
       id="rect20"
       style="fill:#2f9e41;fill-opacity:1" />
  </g>
  <circle
     cx="82"
     cy="22.772997"
     r="11"
     fill="#cd191e"
     id="circle24"
     style="fill:#cd191e;fill-opacity:1" />
  <g
     transform="translate(24,8.7729969)"
     id="g44"
     style="fill:#000000">
    <path
       d="m 10.031,130 v -19.988 h 4.2383 V 130 Z"
       id="path26"
       style="fill:#000000" />
    <path
       d="M 37.061,130 H 31.6743 L 22.979,114.879 h -0.12305 q 0.25976,4.0059 0.25976,5.7148 V 130 h -3.7871 v -19.988 h 5.3457 l 8.6816,14.971 h 0.0957 q -0.20508,-3.8965 -0.20508,-5.5098 v -9.4609 h 3.8145 z"
       id="path28"
       style="fill:#000000" />
    <path
       d="m 53.877,124.45 q 0,2.707 -1.9551,4.2656 -1.9414,1.5586 -5.4141,1.5586 -3.1992,0 -5.6602,-1.2031 v -3.9375 q 2.0234,0.90235 3.418,1.2715 1.4082,0.36914 2.5703,0.36914 1.3945,0 2.1328,-0.53321 0.75195,-0.5332 0.75195,-1.5859 0,-0.58789 -0.32812,-1.0391 -0.32812,-0.46484 -0.9707,-0.88867 -0.62891,-0.42383 -2.584,-1.3535 -1.832,-0.86133 -2.748,-1.6543 -0.91602,-0.79297 -1.4629,-1.8457 -0.54688,-1.0527 -0.54688,-2.4609 0,-2.6523 1.791,-4.1699 1.8047,-1.5176 4.9766,-1.5176 1.5586,0 2.9668,0.36914 1.4219,0.36914 2.9668,1.0391 l -1.3672,3.2949 q -1.5996,-0.65625 -2.6523,-0.91601 -1.0391,-0.25977 -2.0508,-0.25977 -1.2031,0 -1.8457,0.56055 -0.6426,0.56055 -0.64258,1.4629 0,0.56055 0.25977,0.98438 0.25976,0.41015 0.82031,0.80664 0.57422,0.38281 2.6934,1.3945 2.8027,1.3398 3.8418,2.6934 1.0391,1.3398 1.0391,3.2949 z"
       id="path30"
       style="fill:#000000" />
    <path
       d="M 65.211,130 H 60.9727 V 113.539 H 55.545 v -3.5273 h 15.094 v 3.5273 h -5.4277 z"
       id="path32"
       style="fill:#000000" />
    <path
       d="m 73.742,130 v -19.988 h 4.2383 V 130 Z"
       id="path34"
       style="fill:#000000" />
    <path
       d="M 90.75,130 H 86.5117 V 113.539 H 81.084 v -3.5273 h 15.094 v 3.5273 h -5.4277 z"
       id="path36"
       style="fill:#000000" />
    <path
       d="m 115.55,110.01 v 12.934 q 0,2.2148 -0.99805,3.8828 -0.98437,1.668 -2.8574,2.5566 -1.873,0.88867 -4.4297,0.88867 -3.8555,0 -5.9883,-1.9688 -2.1328,-1.9824 -2.1328,-5.4141 v -12.879 h 4.2246 v 12.236 q 0,2.3105 0.92969,3.3906 0.92969,1.0801 3.0762,1.0801 2.0781,0 3.0078,-1.0801 0.94336,-1.0938 0.94336,-3.418 v -12.209 z"
       id="path38"
       style="fill:#000000" />
    <path
       d="m 128.16,130 h -4.2383 v -16.461 h -5.4277 v -3.5273 h 15.094 v 3.5273 h -5.4277 z"
       id="path40"
       style="fill:#000000" />
    <path
       d="m 154.83,119.98 q 0,4.9629 -2.4609,7.6289 -2.4609,2.666 -7.0547,2.666 -4.5938,0 -7.0547,-2.666 -2.4609,-2.666 -2.4609,-7.6562 0,-4.9902 2.4609,-7.6152 2.4746,-2.6387 7.082,-2.6387 4.6074,0 7.041,2.6523 2.4473,2.6523 2.4473,7.6289 z m -14.588,0 q 0,3.3496 1.2715,5.0449 1.2715,1.6953 3.8008,1.6953 5.0723,0 5.0723,-6.7402 0,-6.7539 -5.0449,-6.7539 -2.5293,0 -3.8145,1.709 -1.2852,1.6953 -1.2852,5.0449 z"
       id="path42"
       style="fill:#000000" />
  </g>
  <g
     transform="translate(24,8.7729969)"
     id="g60"
     style="fill:#000000">
    <path
       d="m 28.146,154 h -4.1699 v -19.988 h 11.457 v 3.4726 H 28.146 v 5.1543 h 6.7812 v 3.459 H 28.146 Z"
       id="path46"
       style="fill:#000000" />
    <path
       d="M 50.855,154 H 39.343 v -19.988 h 11.512 v 3.4726 h -7.2734 v 4.3887 h 6.7676 v 3.4726 h -6.7676 v 5.1543 h 7.2734 z"
       id="path48"
       style="fill:#000000" />
    <path
       d="m 71.623,143.81 q 0,4.9356 -2.8164,7.5606 -2.8027,2.625 -8.1074,2.625 H 55.039 v -19.988 h 6.2754 q 4.8945,0 7.6016,2.584 2.707,2.584 2.707,7.2188 z m -4.4023,0.10938 q 0,-6.4395 -5.6875,-6.4395 h -2.2559 v 13.016 h 1.8184 q 6.125,0 6.125,-6.5762 z"
       id="path50"
       style="fill:#000000" />
    <path
       d="M 87.277,154 H 75.765 v -19.988 h 11.512 v 3.4726 h -7.2734 v 4.3887 h 6.7676 v 3.4726 h -6.7676 v 5.1543 h 7.2734 z"
       id="path52"
       style="fill:#000000" />
    <path
       d="m 95.699,142.88 h 1.3672 q 2.0098,0 2.9668,-0.66993 0.95703,-0.66992 0.95703,-2.1055 0,-1.4219 -0.98437,-2.0234 -0.9707,-0.60157 -3.0215,-0.60157 h -1.2852 z m 0,3.4453 v 7.6699 h -4.2383 v -19.988 h 5.8242 q 4.0742,0 6.0293,1.4902 1.9551,1.4766 1.9551,4.498 0,1.7637 -0.9707,3.1445 -0.9707,1.3672 -2.748,2.1465 4.5117,6.7402 5.8789,8.709 h -4.7031 l -4.7715,-7.6699 z"
       id="path54"
       style="fill:#000000" />
    <path
       d="m 122.18,154 -1.4492,-4.7578 h -7.2871 L 111.9945,154 h -4.5664 l 7.0547,-20.07 h 5.1816 l 7.082,20.07 z m -2.4609,-8.3125 q -2.0098,-6.4668 -2.2695,-7.3144 -0.24609,-0.84766 -0.35547,-1.3398 -0.45117,1.75 -2.584,8.6543 z"
       id="path56"
       style="fill:#000000" />
    <path
       d="m 129.25,154 v -19.988 h 4.2383 V 150.5 h 8.1074 v 3.5 z"
       id="path58"
       style="fill:#000000" />
  </g>
  <text
     x="106"
     y="222.187"
     fill="#000000"
     font-family="'Open Sans'"
     font-size="21px"
     text-anchor="middle"
     style="line-height:1;fill:#000000"
     id="text64-2"><tspan
       sodipodi:role="line"
       id="tspan2942"
       x="106"
       y="222.187"><tspan
         x="106"
         y="222.187"
         id="tspan62-9"
         style="fill:#000000">Campus</tspan></tspan><tspan
       sodipodi:role="line"
       x="106"
       y="243.187"
       id="tspan3000">São Paulo</tspan></text>
  <text
     x="106"
     y="186.77299"
     fill="#000000"
     font-family="'Open Sans'"
     font-size="21px"
     text-anchor="middle"
     style="font-size:21px;line-height:1;font-family:'Open Sans';text-anchor:middle;fill:#000000"
     id="text64"><tspan
       x="106"
       y="186.77299"
       id="tspan62"
       style="fill:#000000">São Paulo</tspan></text>
  <rect
     style="fill:#2f9e41;fill-opacity:1;stroke:none;stroke-width:0.226092"
     id="rect592"
     width="199.72466"
     height="1.5"
     x="6.1376724"
     y="198.51149" />
  <defs
     id="defs70" />
  <sodipodi:namedview
     id="namedview68"
     pagecolor="#ffffff"
     bordercolor="#000000"
     borderopacity="0.25"
     inkscape:showpageshadow="2"
     inkscape:pageopacity="0.0"
     inkscape:pagecheckerboard="0"
     inkscape:deskcolor="#d1d1d1"
     showgrid="false"
     inkscape:zoom="1.5618512"
     inkscape:cx="-90.597619"
     inkscape:cy="134.77596"
     inkscape:window-width="1920"
     inkscape:window-height="963"
     inkscape:window-x="0"
     inkscape:window-y="0"
     inkscape:window-maximized="1"
     inkscape:current-layer="svg66" />
  <title
     id="title2">Instituto Federal de São Paulo - Marca Vertical 2015</title>
  <g
     aria-label="Campus Colinas do Tocantins"
     id="text64-2-7"
     style="font-size:21px;line-height:1;font-family:'Open Sans';text-anchor:middle" />
  <metadata
     id="metadata455">
    <rdf:RDF>
      <cc:Work
         rdf:about="">
        <dc:title>Instituto Federal de São Paulo - Marca Vertical 2015</dc:title>
      </cc:Work>
    </rdf:RDF>
  </metadata>
</svg>
